%FSLAX33Y33*%
%MOMM*%
%AMRect-W3100000-H3100000-RO1.500*
21,1,3.1,3.1,0.,0.,90*%
%ADD10C,0.0508*%
%ADD11C,0.68834*%
%ADD12C,2.1*%
%ADD13C,3.1*%
%ADD14Rect-W3100000-H3100000-RO1.500*%
D10*
%LNpour fill*%
G01*
X14500Y82240D02*
X14500Y82240D01*
X14434Y82276*
X14344Y82220*
X14344Y82220*
X14079Y82127*
X14079Y82127*
X13902Y82107*
X13901Y82107*
X13901Y82358*
X13699Y82358*
X13699Y82107*
X13698Y82107*
X13521Y82127*
X13521Y82127*
X13256Y82220*
X13256Y82220*
X13018Y82369*
X13018Y82369*
X12819Y82568*
X12819Y82568*
X12670Y82806*
X12670Y82806*
X12577Y83071*
X12577Y83071*
X12557Y83248*
X12557Y83249*
X12801Y83249*
X12801Y83451*
X12557Y83451*
X12557Y83452*
X12577Y83629*
X12577Y83629*
X12670Y83894*
X12670Y83894*
X12819Y84132*
X12819Y84132*
X13018Y84331*
X13018Y84331*
X13256Y84480*
X13256Y84480*
X13521Y84573*
X13521Y84573*
X13698Y84593*
X13699Y84593*
X13699Y84342*
X13901Y84342*
X13901Y84593*
X13902Y84593*
X14079Y84573*
X14079Y84573*
X14344Y84480*
X14344Y84480*
X14434Y84424*
X14500Y84460*
X14500Y90746*
X13501Y90746*
X13501Y90746*
X13501Y91001*
X13299Y91001*
X13299Y90746*
X13299Y90746*
X11850Y90746*
X11850Y90746*
X11818Y90748*
X11818Y90748*
X11787Y90756*
X11787Y90756*
X11757Y90768*
X11757Y90768*
X11730Y90785*
X11730Y90785*
X11705Y90805*
X11705Y90805*
X11685Y90830*
X11685Y90830*
X11668Y90857*
X11668Y90857*
X11656Y90887*
X11656Y90887*
X11648Y90918*
X11648Y90918*
X11646Y90950*
X11646Y90950*
X11646Y92399*
X11646Y92399*
X11901Y92399*
X11901Y92601*
X11646Y92601*
X11646Y92601*
X11646Y94050*
X11646Y94050*
X11648Y94082*
X11648Y94082*
X11656Y94113*
X11656Y94113*
X11668Y94143*
X11668Y94143*
X11685Y94170*
X11685Y94170*
X11705Y94195*
X11705Y94195*
X11730Y94215*
X11730Y94215*
X11757Y94232*
X11757Y94232*
X11787Y94244*
X11787Y94244*
X11818Y94252*
X11818Y94252*
X11850Y94254*
X11850Y94254*
X13299Y94254*
X13299Y94254*
X13299Y93999*
X13501Y93999*
X13501Y94254*
X13501Y94254*
X14500Y94254*
X14500Y99500*
X0500Y99500*
X0500Y92954*
X0606Y92936*
X0719Y93261*
X0719Y93261*
X0928Y93594*
X0928Y93594*
X1206Y93872*
X1206Y93872*
X1539Y94081*
X1539Y94081*
X1910Y94210*
X1910Y94210*
X2300Y94254*
X2300Y94254*
X2690Y94210*
X2690Y94210*
X3061Y94081*
X3061Y94081*
X3394Y93872*
X3394Y93872*
X3672Y93594*
X3672Y93594*
X3881Y93261*
X3881Y93261*
X4010Y92890*
X4010Y92890*
X4054Y92500*
X4054Y92500*
X4010Y92110*
X4010Y92110*
X3881Y91739*
X3881Y91739*
X3672Y91406*
X3672Y91406*
X3394Y91128*
X3394Y91128*
X3061Y90919*
X3061Y90919*
X2690Y90790*
X2690Y90790*
X2300Y90746*
X2300Y90746*
X1910Y90790*
X1910Y90790*
X1539Y90919*
X1539Y90919*
X1206Y91128*
X1206Y91128*
X0928Y91406*
X0928Y91406*
X0719Y91739*
X0719Y91739*
X0606Y92064*
X0500Y92046*
X0500Y75500*
X14500Y75500*
X14500Y82240*
X8100Y90746D02*
X7710Y90790D01*
X7339Y90920*
X7006Y91129*
X6729Y91406*
X6520Y91739*
X6390Y92110*
X6346Y92500*
X6390Y92890*
X6520Y93261*
X6729Y93594*
X7006Y93871*
X7339Y94080*
X7710Y94210*
X8100Y94254*
X8490Y94210*
X8861Y94080*
X9194Y93871*
X9471Y93594*
X9680Y93261*
X9810Y92890*
X9854Y92500*
X9810Y92110*
X9680Y91739*
X9471Y91406*
X9194Y91129*
X8861Y90920*
X8490Y90790*
X8100Y90746*
X7752Y82107D02*
X7752Y82358D01*
X7548Y82358*
X7548Y82107*
X7371Y82127*
X7106Y82220*
X6868Y82369*
X6669Y82568*
X6520Y82806*
X6427Y83071*
X6407Y83248*
X6651Y83248*
X6651Y83452*
X6407Y83452*
X6427Y83629*
X6520Y83894*
X6669Y84132*
X6868Y84331*
X7106Y84480*
X7371Y84573*
X7548Y84593*
X7548Y84342*
X7752Y84342*
X7752Y84593*
X7929Y84573*
X8194Y84480*
X8432Y84331*
X8631Y84132*
X8780Y83894*
X8873Y83629*
X8893Y83452*
X8649Y83452*
X8649Y83248*
X8893Y83248*
X8873Y83071*
X8780Y82806*
X8631Y82568*
X8432Y82369*
X8194Y82220*
X7929Y82127*
X7752Y82107*
X1898Y82107D02*
X1721Y82127D01*
X1456Y82220*
X1218Y82369*
X1019Y82568*
X0870Y82806*
X0777Y83071*
X0757Y83248*
X1001Y83248*
X1001Y83452*
X0757Y83452*
X0777Y83629*
X0870Y83894*
X1019Y84132*
X1218Y84331*
X1456Y84480*
X1721Y84573*
X1898Y84593*
X1898Y84342*
X2102Y84342*
X2102Y84593*
X2279Y84573*
X2544Y84480*
X2782Y84331*
X2981Y84132*
X3130Y83894*
X3223Y83629*
X3243Y83452*
X2999Y83452*
X2999Y83248*
X3243Y83248*
X3223Y83071*
X3130Y82806*
X2981Y82568*
X2782Y82369*
X2544Y82220*
X2279Y82127*
X2102Y82107*
X2102Y82358*
X1898Y82358*
X1898Y82107*
X11350Y80096D02*
X11071Y80127D01*
X10806Y80220*
X10568Y80369*
X10369Y80568*
X10220Y80806*
X10127Y81071*
X10096Y81350*
X10127Y81629*
X10220Y81894*
X10369Y82132*
X10568Y82331*
X10806Y82480*
X11071Y82573*
X11350Y82604*
X11629Y82573*
X11894Y82480*
X12132Y82331*
X12331Y82132*
X12480Y81894*
X12573Y81629*
X12604Y81350*
X12573Y81071*
X12480Y80806*
X12331Y80568*
X12132Y80369*
X11894Y80220*
X11629Y80127*
X11350Y80096*
X5750Y80096D02*
X5471Y80127D01*
X5206Y80220*
X4968Y80369*
X4769Y80568*
X4620Y80806*
X4527Y81071*
X4496Y81350*
X4527Y81629*
X4620Y81894*
X4769Y82132*
X4968Y82331*
X5206Y82480*
X5471Y82573*
X5750Y82604*
X6029Y82573*
X6294Y82480*
X6532Y82331*
X6731Y82132*
X6880Y81894*
X6973Y81629*
X7004Y81350*
X6973Y81071*
X6880Y80806*
X6731Y80568*
X6532Y80369*
X6294Y80220*
X6029Y80127*
X5750Y80096*
X0500Y75550D02*
X14500Y75550D01*
X0500Y75599D02*
X14500Y75599D01*
X0500Y75649D02*
X14500Y75649D01*
X0500Y75698D02*
X14500Y75698D01*
X0500Y75748D02*
X14500Y75748D01*
X0500Y75797D02*
X14500Y75797D01*
X0500Y75847D02*
X14500Y75847D01*
X0500Y75896D02*
X14500Y75896D01*
X0500Y75946D02*
X14500Y75946D01*
X0500Y75995D02*
X14500Y75995D01*
X0500Y76045D02*
X14500Y76045D01*
X0500Y76094D02*
X14500Y76094D01*
X0500Y76144D02*
X14500Y76144D01*
X0500Y76193D02*
X14500Y76193D01*
X0500Y76243D02*
X14500Y76243D01*
X0500Y76292D02*
X14500Y76292D01*
X0500Y76342D02*
X14500Y76342D01*
X0500Y76392D02*
X14500Y76392D01*
X0500Y76441D02*
X14500Y76441D01*
X0500Y76491D02*
X14500Y76491D01*
X0500Y76540D02*
X14500Y76540D01*
X0500Y76590D02*
X14500Y76590D01*
X0500Y76639D02*
X14500Y76639D01*
X0500Y76689D02*
X14500Y76689D01*
X0500Y76738D02*
X14500Y76738D01*
X0500Y76788D02*
X14500Y76788D01*
X0500Y76837D02*
X14500Y76837D01*
X0500Y76887D02*
X14500Y76887D01*
X0500Y76936D02*
X14500Y76936D01*
X0500Y76986D02*
X14500Y76986D01*
X0500Y77035D02*
X14500Y77035D01*
X0500Y77085D02*
X14500Y77085D01*
X0500Y77134D02*
X14500Y77134D01*
X0500Y77184D02*
X14500Y77184D01*
X0500Y77234D02*
X14500Y77234D01*
X0500Y77283D02*
X14500Y77283D01*
X0500Y77333D02*
X14500Y77333D01*
X0500Y77382D02*
X14500Y77382D01*
X0500Y77432D02*
X14500Y77432D01*
X0500Y77481D02*
X14500Y77481D01*
X0500Y77531D02*
X14500Y77531D01*
X0500Y77580D02*
X14500Y77580D01*
X0500Y77630D02*
X14500Y77630D01*
X0500Y77679D02*
X14500Y77679D01*
X0500Y77729D02*
X14500Y77729D01*
X0500Y77778D02*
X14500Y77778D01*
X0500Y77828D02*
X14500Y77828D01*
X0500Y77877D02*
X14500Y77877D01*
X0500Y77927D02*
X14500Y77927D01*
X0500Y77977D02*
X14500Y77977D01*
X0500Y78026D02*
X14500Y78026D01*
X0500Y78076D02*
X14500Y78076D01*
X0500Y78125D02*
X14500Y78125D01*
X0500Y78175D02*
X14500Y78175D01*
X0500Y78224D02*
X14500Y78224D01*
X0500Y78274D02*
X14500Y78274D01*
X0500Y78323D02*
X14500Y78323D01*
X0500Y78373D02*
X14500Y78373D01*
X0500Y78422D02*
X14500Y78422D01*
X0500Y78472D02*
X14500Y78472D01*
X0500Y78521D02*
X14500Y78521D01*
X0500Y78571D02*
X14500Y78571D01*
X0500Y78620D02*
X14500Y78620D01*
X0500Y78670D02*
X14500Y78670D01*
X0500Y78719D02*
X14500Y78719D01*
X0500Y78769D02*
X14500Y78769D01*
X0500Y78819D02*
X14500Y78819D01*
X0500Y78868D02*
X14500Y78868D01*
X0500Y78918D02*
X14500Y78918D01*
X0500Y78967D02*
X14500Y78967D01*
X0500Y79017D02*
X14500Y79017D01*
X0500Y79066D02*
X14500Y79066D01*
X0500Y79116D02*
X14500Y79116D01*
X0500Y79165D02*
X14500Y79165D01*
X0500Y79215D02*
X14500Y79215D01*
X0500Y79264D02*
X14500Y79264D01*
X0500Y79314D02*
X14500Y79314D01*
X0500Y79363D02*
X14500Y79363D01*
X0500Y79413D02*
X14500Y79413D01*
X0500Y79462D02*
X14500Y79462D01*
X0500Y79512D02*
X14500Y79512D01*
X0500Y79561D02*
X14500Y79561D01*
X0500Y79611D02*
X14500Y79611D01*
X0500Y79661D02*
X14500Y79661D01*
X0500Y79710D02*
X14500Y79710D01*
X0500Y79760D02*
X14500Y79760D01*
X0500Y79809D02*
X14500Y79809D01*
X0500Y79859D02*
X14500Y79859D01*
X0500Y79908D02*
X14500Y79908D01*
X0500Y79958D02*
X14500Y79958D01*
X0500Y80007D02*
X14500Y80007D01*
X0500Y80057D02*
X14500Y80057D01*
X0500Y80106D02*
X5655Y80106D01*
X5845Y80106D02*
X11255Y80106D01*
X11445Y80106D02*
X14500Y80106D01*
X0500Y80156D02*
X5388Y80156D01*
X6112Y80156D02*
X10988Y80156D01*
X11712Y80156D02*
X14500Y80156D01*
X0500Y80205D02*
X5247Y80205D01*
X6253Y80205D02*
X10847Y80205D01*
X11853Y80205D02*
X14500Y80205D01*
X0500Y80255D02*
X5150Y80255D01*
X6350Y80255D02*
X10750Y80255D01*
X11950Y80255D02*
X14500Y80255D01*
X0500Y80304D02*
X5071Y80304D01*
X6429Y80304D02*
X10671Y80304D01*
X12029Y80304D02*
X14500Y80304D01*
X0500Y80354D02*
X4992Y80354D01*
X6508Y80354D02*
X10592Y80354D01*
X12108Y80354D02*
X14500Y80354D01*
X0500Y80403D02*
X4934Y80403D01*
X6566Y80403D02*
X10534Y80403D01*
X12166Y80403D02*
X14500Y80403D01*
X0500Y80453D02*
X4884Y80453D01*
X6616Y80453D02*
X10484Y80453D01*
X12216Y80453D02*
X14500Y80453D01*
X0500Y80503D02*
X4835Y80503D01*
X6665Y80503D02*
X10435Y80503D01*
X12265Y80503D02*
X14500Y80503D01*
X0500Y80552D02*
X4785Y80552D01*
X6715Y80552D02*
X10385Y80552D01*
X12315Y80552D02*
X14500Y80552D01*
X0500Y80602D02*
X4748Y80602D01*
X6752Y80602D02*
X10348Y80602D01*
X12352Y80602D02*
X14500Y80602D01*
X0500Y80651D02*
X4717Y80651D01*
X6783Y80651D02*
X10317Y80651D01*
X12383Y80651D02*
X14500Y80651D01*
X0500Y80701D02*
X4686Y80701D01*
X6814Y80701D02*
X10286Y80701D01*
X12414Y80701D02*
X14500Y80701D01*
X0500Y80750D02*
X4655Y80750D01*
X6845Y80750D02*
X10255Y80750D01*
X12445Y80750D02*
X14500Y80750D01*
X0500Y80800D02*
X4624Y80800D01*
X6876Y80800D02*
X10224Y80800D01*
X12476Y80800D02*
X14500Y80800D01*
X0500Y80849D02*
X4605Y80849D01*
X6895Y80849D02*
X10205Y80849D01*
X12495Y80849D02*
X14500Y80849D01*
X0500Y80899D02*
X4587Y80899D01*
X6913Y80899D02*
X10187Y80899D01*
X12513Y80899D02*
X14500Y80899D01*
X0500Y80948D02*
X4570Y80948D01*
X6930Y80948D02*
X10170Y80948D01*
X12530Y80948D02*
X14500Y80948D01*
X0500Y80998D02*
X4553Y80998D01*
X6947Y80998D02*
X10153Y80998D01*
X12547Y80998D02*
X14500Y80998D01*
X0500Y81047D02*
X4535Y81047D01*
X6965Y81047D02*
X10135Y81047D01*
X12565Y81047D02*
X14500Y81047D01*
X0500Y81097D02*
X4524Y81097D01*
X6976Y81097D02*
X10124Y81097D01*
X12576Y81097D02*
X14500Y81097D01*
X0500Y81146D02*
X4518Y81146D01*
X6982Y81146D02*
X10118Y81146D01*
X12582Y81146D02*
X14500Y81146D01*
X0500Y81196D02*
X4513Y81196D01*
X6987Y81196D02*
X10113Y81196D01*
X12587Y81196D02*
X14500Y81196D01*
X0500Y81245D02*
X4507Y81245D01*
X6993Y81245D02*
X10107Y81245D01*
X12593Y81245D02*
X14500Y81245D01*
X0500Y81295D02*
X4502Y81295D01*
X6998Y81295D02*
X10102Y81295D01*
X12598Y81295D02*
X14500Y81295D01*
X0500Y81345D02*
X4496Y81345D01*
X7004Y81345D02*
X10096Y81345D01*
X12604Y81345D02*
X14500Y81345D01*
X0500Y81394D02*
X4501Y81394D01*
X6999Y81394D02*
X10101Y81394D01*
X12599Y81394D02*
X14500Y81394D01*
X0500Y81444D02*
X4506Y81444D01*
X6994Y81444D02*
X10106Y81444D01*
X12594Y81444D02*
X14500Y81444D01*
X0500Y81493D02*
X4512Y81493D01*
X6988Y81493D02*
X10112Y81493D01*
X12588Y81493D02*
X14500Y81493D01*
X0500Y81543D02*
X4517Y81543D01*
X6983Y81543D02*
X10117Y81543D01*
X12583Y81543D02*
X14500Y81543D01*
X0500Y81592D02*
X4523Y81592D01*
X6977Y81592D02*
X10123Y81592D01*
X12577Y81592D02*
X14500Y81592D01*
X0500Y81642D02*
X4531Y81642D01*
X6969Y81642D02*
X10131Y81642D01*
X12569Y81642D02*
X14500Y81642D01*
X0500Y81691D02*
X4549Y81691D01*
X6951Y81691D02*
X10149Y81691D01*
X12551Y81691D02*
X14500Y81691D01*
X0500Y81741D02*
X4566Y81741D01*
X6934Y81741D02*
X10166Y81741D01*
X12534Y81741D02*
X14500Y81741D01*
X0500Y81790D02*
X4583Y81790D01*
X6917Y81790D02*
X10183Y81790D01*
X12517Y81790D02*
X14500Y81790D01*
X0500Y81840D02*
X4601Y81840D01*
X6899Y81840D02*
X10201Y81840D01*
X12499Y81840D02*
X14500Y81840D01*
X0500Y81889D02*
X4618Y81889D01*
X6882Y81889D02*
X10218Y81889D01*
X12482Y81889D02*
X14500Y81889D01*
X0500Y81939D02*
X4648Y81939D01*
X6852Y81939D02*
X10248Y81939D01*
X12452Y81939D02*
X14500Y81939D01*
X0500Y81988D02*
X4679Y81988D01*
X6821Y81988D02*
X10279Y81988D01*
X12421Y81988D02*
X14500Y81988D01*
X0500Y82038D02*
X4710Y82038D01*
X6790Y82038D02*
X10310Y82038D01*
X12390Y82038D02*
X14500Y82038D01*
X0500Y82087D02*
X4741Y82087D01*
X6759Y82087D02*
X10341Y82087D01*
X12359Y82087D02*
X14500Y82087D01*
X0500Y82137D02*
X1692Y82137D01*
X1899Y82137D02*
X2101Y82137D01*
X2308Y82137D02*
X4774Y82137D01*
X6726Y82137D02*
X7342Y82137D01*
X7549Y82137D02*
X7751Y82137D01*
X7958Y82137D02*
X10374Y82137D01*
X12326Y82137D02*
X13493Y82137D01*
X13698Y82137D02*
X13902Y82137D01*
X14107Y82137D02*
X14500Y82137D01*
X0500Y82187D02*
X1551Y82187D01*
X1899Y82187D02*
X2101Y82187D01*
X2449Y82187D02*
X4824Y82187D01*
X6676Y82187D02*
X7201Y82187D01*
X7549Y82187D02*
X7751Y82187D01*
X8099Y82187D02*
X10424Y82187D01*
X12276Y82187D02*
X13351Y82187D01*
X13698Y82187D02*
X13902Y82187D01*
X14249Y82187D02*
X14500Y82187D01*
X0500Y82236D02*
X1430Y82236D01*
X1899Y82236D02*
X2101Y82236D01*
X2570Y82236D02*
X4873Y82236D01*
X6627Y82236D02*
X7080Y82236D01*
X7549Y82236D02*
X7751Y82236D01*
X8220Y82236D02*
X10473Y82236D01*
X12227Y82236D02*
X13230Y82236D01*
X13698Y82236D02*
X13902Y82236D01*
X14370Y82236D02*
X14500Y82236D01*
X0500Y82286D02*
X1351Y82286D01*
X1899Y82286D02*
X2101Y82286D01*
X2649Y82286D02*
X4923Y82286D01*
X6577Y82286D02*
X7001Y82286D01*
X7549Y82286D02*
X7751Y82286D01*
X8299Y82286D02*
X10523Y82286D01*
X12177Y82286D02*
X13151Y82286D01*
X13698Y82286D02*
X13902Y82286D01*
X0500Y82335D02*
X1272Y82335D01*
X1899Y82335D02*
X2101Y82335D01*
X2728Y82335D02*
X4975Y82335D01*
X6525Y82335D02*
X6922Y82335D01*
X7549Y82335D02*
X7751Y82335D01*
X8378Y82335D02*
X10575Y82335D01*
X12125Y82335D02*
X13073Y82335D01*
X13698Y82335D02*
X13902Y82335D01*
X0500Y82385D02*
X1202Y82385D01*
X2798Y82385D02*
X5054Y82385D01*
X6446Y82385D02*
X6852Y82385D01*
X8448Y82385D02*
X10654Y82385D01*
X12046Y82385D02*
X13003Y82385D01*
X0500Y82434D02*
X1153Y82434D01*
X2847Y82434D02*
X5132Y82434D01*
X6368Y82434D02*
X6803Y82434D01*
X8497Y82434D02*
X10732Y82434D01*
X11968Y82434D02*
X12953Y82434D01*
X0500Y82484D02*
X1103Y82484D01*
X2897Y82484D02*
X5216Y82484D01*
X6284Y82484D02*
X6753Y82484D01*
X8547Y82484D02*
X10816Y82484D01*
X11884Y82484D02*
X12904Y82484D01*
X0500Y82533D02*
X1054Y82533D01*
X2946Y82533D02*
X5357Y82533D01*
X6143Y82533D02*
X6704Y82533D01*
X8596Y82533D02*
X10957Y82533D01*
X11743Y82533D02*
X12854Y82533D01*
X0500Y82583D02*
X1010Y82583D01*
X2990Y82583D02*
X5558Y82583D01*
X5942Y82583D02*
X6660Y82583D01*
X8640Y82583D02*
X11158Y82583D01*
X11542Y82583D02*
X12810Y82583D01*
X0500Y82632D02*
X0979Y82632D01*
X3021Y82632D02*
X6629Y82632D01*
X8671Y82632D02*
X12779Y82632D01*
X0500Y82682D02*
X0948Y82682D01*
X3052Y82682D02*
X6598Y82682D01*
X8702Y82682D02*
X12748Y82682D01*
X0500Y82731D02*
X0916Y82731D01*
X3084Y82731D02*
X6566Y82731D01*
X8734Y82731D02*
X12717Y82731D01*
X0500Y82781D02*
X0885Y82781D01*
X3115Y82781D02*
X6535Y82781D01*
X8765Y82781D02*
X12686Y82781D01*
X0500Y82830D02*
X0861Y82830D01*
X3139Y82830D02*
X6511Y82830D01*
X8789Y82830D02*
X12661Y82830D01*
X0500Y82880D02*
X0844Y82880D01*
X3156Y82880D02*
X6494Y82880D01*
X8806Y82880D02*
X12644Y82880D01*
X0500Y82930D02*
X0826Y82930D01*
X3174Y82930D02*
X6476Y82930D01*
X8824Y82930D02*
X12627Y82930D01*
X0500Y82979D02*
X0809Y82979D01*
X3191Y82979D02*
X6459Y82979D01*
X8841Y82979D02*
X12609Y82979D01*
X0500Y83029D02*
X0792Y83029D01*
X3208Y83029D02*
X6442Y83029D01*
X8858Y83029D02*
X12592Y83029D01*
X0500Y83078D02*
X0776Y83078D01*
X3224Y83078D02*
X6426Y83078D01*
X8874Y83078D02*
X12576Y83078D01*
X0500Y83128D02*
X0771Y83128D01*
X3229Y83128D02*
X6421Y83128D01*
X8879Y83128D02*
X12571Y83128D01*
X0500Y83177D02*
X0765Y83177D01*
X3235Y83177D02*
X6415Y83177D01*
X8885Y83177D02*
X12565Y83177D01*
X0500Y83227D02*
X0759Y83227D01*
X3241Y83227D02*
X6409Y83227D01*
X8891Y83227D02*
X12560Y83227D01*
X0500Y83276D02*
X1001Y83276D01*
X2999Y83276D02*
X6651Y83276D01*
X8649Y83276D02*
X12801Y83276D01*
X0500Y83326D02*
X1001Y83326D01*
X2999Y83326D02*
X6651Y83326D01*
X8649Y83326D02*
X12801Y83326D01*
X0500Y83375D02*
X1001Y83375D01*
X2999Y83375D02*
X6651Y83375D01*
X8649Y83375D02*
X12801Y83375D01*
X0500Y83425D02*
X1001Y83425D01*
X2999Y83425D02*
X6651Y83425D01*
X8649Y83425D02*
X12801Y83425D01*
X0500Y83474D02*
X0760Y83474D01*
X3240Y83474D02*
X6410Y83474D01*
X8890Y83474D02*
X12560Y83474D01*
X0500Y83524D02*
X0765Y83524D01*
X3235Y83524D02*
X6415Y83524D01*
X8885Y83524D02*
X12565Y83524D01*
X0500Y83573D02*
X0771Y83573D01*
X3229Y83573D02*
X6421Y83573D01*
X8879Y83573D02*
X12571Y83573D01*
X0500Y83623D02*
X0776Y83623D01*
X3224Y83623D02*
X6426Y83623D01*
X8874Y83623D02*
X12577Y83623D01*
X0500Y83672D02*
X0792Y83672D01*
X3208Y83672D02*
X6442Y83672D01*
X8858Y83672D02*
X12592Y83672D01*
X0500Y83722D02*
X0809Y83722D01*
X3191Y83722D02*
X6459Y83722D01*
X8841Y83722D02*
X12610Y83722D01*
X0500Y83772D02*
X0827Y83772D01*
X3173Y83772D02*
X6477Y83772D01*
X8823Y83772D02*
X12627Y83772D01*
X0500Y83821D02*
X0844Y83821D01*
X3156Y83821D02*
X6494Y83821D01*
X8806Y83821D02*
X12644Y83821D01*
X0500Y83871D02*
X0861Y83871D01*
X3139Y83871D02*
X6511Y83871D01*
X8789Y83871D02*
X12662Y83871D01*
X0500Y83920D02*
X0886Y83920D01*
X3114Y83920D02*
X6536Y83920D01*
X8764Y83920D02*
X12686Y83920D01*
X0500Y83970D02*
X0917Y83970D01*
X3083Y83970D02*
X6567Y83970D01*
X8733Y83970D02*
X12717Y83970D01*
X0500Y84019D02*
X0948Y84019D01*
X3052Y84019D02*
X6598Y84019D01*
X8702Y84019D02*
X12749Y84019D01*
X0500Y84069D02*
X0979Y84069D01*
X3021Y84069D02*
X6629Y84069D01*
X8671Y84069D02*
X12780Y84069D01*
X0500Y84118D02*
X1010Y84118D01*
X2990Y84118D02*
X6660Y84118D01*
X8640Y84118D02*
X12811Y84118D01*
X0500Y84168D02*
X1055Y84168D01*
X2945Y84168D02*
X6705Y84168D01*
X8595Y84168D02*
X12855Y84168D01*
X0500Y84217D02*
X1104Y84217D01*
X2896Y84217D02*
X6754Y84217D01*
X8546Y84217D02*
X12905Y84217D01*
X0500Y84267D02*
X1154Y84267D01*
X2846Y84267D02*
X6804Y84267D01*
X8496Y84267D02*
X12954Y84267D01*
X0500Y84316D02*
X1203Y84316D01*
X2797Y84316D02*
X6853Y84316D01*
X8447Y84316D02*
X13004Y84316D01*
X0500Y84366D02*
X1274Y84366D01*
X1899Y84366D02*
X2101Y84366D01*
X2726Y84366D02*
X6924Y84366D01*
X7549Y84366D02*
X7751Y84366D01*
X8376Y84366D02*
X13074Y84366D01*
X13698Y84366D02*
X13902Y84366D01*
X0500Y84415D02*
X1353Y84415D01*
X1899Y84415D02*
X2101Y84415D01*
X2647Y84415D02*
X7003Y84415D01*
X7549Y84415D02*
X7751Y84415D01*
X8297Y84415D02*
X13153Y84415D01*
X13698Y84415D02*
X13902Y84415D01*
X0500Y84465D02*
X1431Y84465D01*
X1899Y84465D02*
X2101Y84465D01*
X2569Y84465D02*
X7081Y84465D01*
X7549Y84465D02*
X7751Y84465D01*
X8219Y84465D02*
X13232Y84465D01*
X13698Y84465D02*
X13902Y84465D01*
X14368Y84465D02*
X14500Y84465D01*
X0500Y84514D02*
X1554Y84514D01*
X1899Y84514D02*
X2101Y84514D01*
X2446Y84514D02*
X7204Y84514D01*
X7549Y84514D02*
X7751Y84514D01*
X8096Y84514D02*
X13354Y84514D01*
X13698Y84514D02*
X13902Y84514D01*
X14246Y84514D02*
X14500Y84514D01*
X0500Y84564D02*
X1695Y84564D01*
X1899Y84564D02*
X2101Y84564D01*
X2305Y84564D02*
X7345Y84564D01*
X7549Y84564D02*
X7751Y84564D01*
X7955Y84564D02*
X13496Y84564D01*
X13698Y84564D02*
X13902Y84564D01*
X14104Y84564D02*
X14500Y84564D01*
X0500Y84614D02*
X14500Y84614D01*
X0500Y84663D02*
X14500Y84663D01*
X0500Y84713D02*
X14500Y84713D01*
X0500Y84762D02*
X14500Y84762D01*
X0500Y84812D02*
X14500Y84812D01*
X0500Y84861D02*
X14500Y84861D01*
X0500Y84911D02*
X14500Y84911D01*
X0500Y84960D02*
X14500Y84960D01*
X0500Y85010D02*
X14500Y85010D01*
X0500Y85059D02*
X14500Y85059D01*
X0500Y85109D02*
X14500Y85109D01*
X0500Y85158D02*
X14500Y85158D01*
X0500Y85208D02*
X14500Y85208D01*
X0500Y85257D02*
X14500Y85257D01*
X0500Y85307D02*
X14500Y85307D01*
X0500Y85356D02*
X14500Y85356D01*
X0500Y85406D02*
X14500Y85406D01*
X0500Y85456D02*
X14500Y85456D01*
X0500Y85505D02*
X14500Y85505D01*
X0500Y85555D02*
X14500Y85555D01*
X0500Y85604D02*
X14500Y85604D01*
X0500Y85654D02*
X14500Y85654D01*
X0500Y85703D02*
X14500Y85703D01*
X0500Y85753D02*
X14500Y85753D01*
X0500Y85802D02*
X14500Y85802D01*
X0500Y85852D02*
X14500Y85852D01*
X0500Y85901D02*
X14500Y85901D01*
X0500Y85951D02*
X14500Y85951D01*
X0500Y86000D02*
X14500Y86000D01*
X0500Y86050D02*
X14500Y86050D01*
X0500Y86099D02*
X14500Y86099D01*
X0500Y86149D02*
X14500Y86149D01*
X0500Y86198D02*
X14500Y86198D01*
X0500Y86248D02*
X14500Y86248D01*
X0500Y86298D02*
X14500Y86298D01*
X0500Y86347D02*
X14500Y86347D01*
X0500Y86397D02*
X14500Y86397D01*
X0500Y86446D02*
X14500Y86446D01*
X0500Y86496D02*
X14500Y86496D01*
X0500Y86545D02*
X14500Y86545D01*
X0500Y86595D02*
X14500Y86595D01*
X0500Y86644D02*
X14500Y86644D01*
X0500Y86694D02*
X14500Y86694D01*
X0500Y86743D02*
X14500Y86743D01*
X0500Y86793D02*
X14500Y86793D01*
X0500Y86842D02*
X14500Y86842D01*
X0500Y86892D02*
X14500Y86892D01*
X0500Y86941D02*
X14500Y86941D01*
X0500Y86991D02*
X14500Y86991D01*
X0500Y87040D02*
X14500Y87040D01*
X0500Y87090D02*
X14500Y87090D01*
X0500Y87140D02*
X14500Y87140D01*
X0500Y87189D02*
X14500Y87189D01*
X0500Y87239D02*
X14500Y87239D01*
X0500Y87288D02*
X14500Y87288D01*
X0500Y87338D02*
X14500Y87338D01*
X0500Y87387D02*
X14500Y87387D01*
X0500Y87437D02*
X14500Y87437D01*
X0500Y87486D02*
X14500Y87486D01*
X0500Y87536D02*
X14500Y87536D01*
X0500Y87585D02*
X14500Y87585D01*
X0500Y87635D02*
X14500Y87635D01*
X0500Y87684D02*
X14500Y87684D01*
X0500Y87734D02*
X14500Y87734D01*
X0500Y87783D02*
X14500Y87783D01*
X0500Y87833D02*
X14500Y87833D01*
X0500Y87882D02*
X14500Y87882D01*
X0500Y87932D02*
X14500Y87932D01*
X0500Y87982D02*
X14500Y87982D01*
X0500Y88031D02*
X14500Y88031D01*
X0500Y88081D02*
X14500Y88081D01*
X0500Y88130D02*
X14500Y88130D01*
X0500Y88180D02*
X14500Y88180D01*
X0500Y88229D02*
X14500Y88229D01*
X0500Y88279D02*
X14500Y88279D01*
X0500Y88328D02*
X14500Y88328D01*
X0500Y88378D02*
X14500Y88378D01*
X0500Y88427D02*
X14500Y88427D01*
X0500Y88477D02*
X14500Y88477D01*
X0500Y88526D02*
X14500Y88526D01*
X0500Y88576D02*
X14500Y88576D01*
X0500Y88625D02*
X14500Y88625D01*
X0500Y88675D02*
X14500Y88675D01*
X0500Y88725D02*
X14500Y88725D01*
X0500Y88774D02*
X14500Y88774D01*
X0500Y88824D02*
X14500Y88824D01*
X0500Y88873D02*
X14500Y88873D01*
X0500Y88923D02*
X14500Y88923D01*
X0500Y88972D02*
X14500Y88972D01*
X0500Y89022D02*
X14500Y89022D01*
X0500Y89071D02*
X14500Y89071D01*
X0500Y89121D02*
X14500Y89121D01*
X0500Y89170D02*
X14500Y89170D01*
X0500Y89220D02*
X14500Y89220D01*
X0500Y89269D02*
X14500Y89269D01*
X0500Y89319D02*
X14500Y89319D01*
X0500Y89368D02*
X14500Y89368D01*
X0500Y89418D02*
X14500Y89418D01*
X0500Y89467D02*
X14500Y89467D01*
X0500Y89517D02*
X14500Y89517D01*
X0500Y89567D02*
X14500Y89567D01*
X0500Y89616D02*
X14500Y89616D01*
X0500Y89666D02*
X14500Y89666D01*
X0500Y89715D02*
X14500Y89715D01*
X0500Y89765D02*
X14500Y89765D01*
X0500Y89814D02*
X14500Y89814D01*
X0500Y89864D02*
X14500Y89864D01*
X0500Y89913D02*
X14500Y89913D01*
X0500Y89963D02*
X14500Y89963D01*
X0500Y90012D02*
X14500Y90012D01*
X0500Y90062D02*
X14500Y90062D01*
X0500Y90111D02*
X14500Y90111D01*
X0500Y90161D02*
X14500Y90161D01*
X0500Y90210D02*
X14500Y90210D01*
X0500Y90260D02*
X14500Y90260D01*
X0500Y90309D02*
X14500Y90309D01*
X0500Y90359D02*
X14500Y90359D01*
X0500Y90409D02*
X14500Y90409D01*
X0500Y90458D02*
X14500Y90458D01*
X0500Y90508D02*
X14500Y90508D01*
X0500Y90557D02*
X14500Y90557D01*
X0500Y90607D02*
X14500Y90607D01*
X0500Y90656D02*
X14500Y90656D01*
X0500Y90706D02*
X14500Y90706D01*
X0500Y90755D02*
X2216Y90755D01*
X2384Y90755D02*
X8014Y90755D01*
X8186Y90755D02*
X11789Y90755D01*
X13298Y90755D02*
X13502Y90755D01*
X0500Y90805D02*
X1867Y90805D01*
X2733Y90805D02*
X7666Y90805D01*
X8534Y90805D02*
X11707Y90805D01*
X13298Y90805D02*
X13502Y90805D01*
X0500Y90854D02*
X1725Y90854D01*
X2875Y90854D02*
X7524Y90854D01*
X8675Y90854D02*
X11670Y90854D01*
X13298Y90854D02*
X13502Y90854D01*
X0500Y90904D02*
X1584Y90904D01*
X3016Y90904D02*
X7383Y90904D01*
X8817Y90904D02*
X11652Y90904D01*
X13298Y90904D02*
X13502Y90904D01*
X0500Y90953D02*
X1485Y90953D01*
X3115Y90953D02*
X7285Y90953D01*
X8915Y90953D02*
X11646Y90953D01*
X13298Y90953D02*
X13502Y90953D01*
X0500Y91003D02*
X1406Y91003D01*
X3194Y91003D02*
X7206Y91003D01*
X8994Y91003D02*
X11646Y91003D01*
X0500Y91052D02*
X1327Y91052D01*
X3273Y91052D02*
X7127Y91052D01*
X9073Y91052D02*
X11646Y91052D01*
X0500Y91102D02*
X1249Y91102D01*
X3351Y91102D02*
X7048Y91102D01*
X9152Y91102D02*
X11646Y91102D01*
X0500Y91151D02*
X1183Y91151D01*
X3417Y91151D02*
X6983Y91151D01*
X9217Y91151D02*
X11646Y91151D01*
X0500Y91201D02*
X1134Y91201D01*
X3466Y91201D02*
X6933Y91201D01*
X9267Y91201D02*
X11646Y91201D01*
X0500Y91251D02*
X1084Y91251D01*
X3516Y91251D02*
X6884Y91251D01*
X9316Y91251D02*
X11646Y91251D01*
X0500Y91300D02*
X1035Y91300D01*
X3565Y91300D02*
X6834Y91300D01*
X9366Y91300D02*
X11646Y91300D01*
X0500Y91350D02*
X0985Y91350D01*
X3615Y91350D02*
X6785Y91350D01*
X9415Y91350D02*
X11646Y91350D01*
X0500Y91399D02*
X0936Y91399D01*
X3664Y91399D02*
X6735Y91399D01*
X9465Y91399D02*
X11646Y91399D01*
X0500Y91449D02*
X0902Y91449D01*
X3698Y91449D02*
X6702Y91449D01*
X9498Y91449D02*
X11646Y91449D01*
X0500Y91498D02*
X0871Y91498D01*
X3729Y91498D02*
X6670Y91498D01*
X9530Y91498D02*
X11646Y91498D01*
X0500Y91548D02*
X0840Y91548D01*
X3760Y91548D02*
X6639Y91548D01*
X9561Y91548D02*
X11646Y91548D01*
X0500Y91597D02*
X0809Y91597D01*
X3791Y91597D02*
X6608Y91597D01*
X9592Y91597D02*
X11646Y91597D01*
X0500Y91647D02*
X0777Y91647D01*
X3823Y91647D02*
X6577Y91647D01*
X9623Y91647D02*
X11646Y91647D01*
X0500Y91696D02*
X0746Y91696D01*
X3854Y91696D02*
X6546Y91696D01*
X9654Y91696D02*
X11646Y91696D01*
X0500Y91746D02*
X0717Y91746D01*
X3883Y91746D02*
X6517Y91746D01*
X9683Y91746D02*
X11646Y91746D01*
X0500Y91795D02*
X0700Y91795D01*
X3900Y91795D02*
X6499Y91795D01*
X9701Y91795D02*
X11646Y91795D01*
X0500Y91845D02*
X0682Y91845D01*
X3918Y91845D02*
X6482Y91845D01*
X9718Y91845D02*
X11646Y91845D01*
X0500Y91894D02*
X0665Y91894D01*
X3935Y91894D02*
X6465Y91894D01*
X9735Y91894D02*
X11646Y91894D01*
X0500Y91944D02*
X0648Y91944D01*
X3952Y91944D02*
X6447Y91944D01*
X9753Y91944D02*
X11646Y91944D01*
X0500Y91993D02*
X0630Y91993D01*
X3970Y91993D02*
X6430Y91993D01*
X9770Y91993D02*
X11646Y91993D01*
X0500Y92043D02*
X0613Y92043D01*
X3987Y92043D02*
X6413Y92043D01*
X9787Y92043D02*
X11646Y92043D01*
X4004Y92093D02*
X6395Y92093D01*
X9805Y92093D02*
X11646Y92093D01*
X4014Y92142D02*
X6386Y92142D01*
X9814Y92142D02*
X11646Y92142D01*
X4019Y92192D02*
X6380Y92192D01*
X9820Y92192D02*
X11646Y92192D01*
X4025Y92241D02*
X6375Y92241D01*
X9825Y92241D02*
X11646Y92241D01*
X4031Y92291D02*
X6369Y92291D01*
X9831Y92291D02*
X11646Y92291D01*
X4036Y92340D02*
X6364Y92340D01*
X9836Y92340D02*
X11646Y92340D01*
X4042Y92390D02*
X6358Y92390D01*
X9842Y92390D02*
X11646Y92390D01*
X4047Y92439D02*
X6352Y92439D01*
X9848Y92439D02*
X11901Y92439D01*
X4053Y92489D02*
X6347Y92489D01*
X9853Y92489D02*
X11901Y92489D01*
X4050Y92538D02*
X6350Y92538D01*
X9850Y92538D02*
X11901Y92538D01*
X4044Y92588D02*
X6355Y92588D01*
X9845Y92588D02*
X11901Y92588D01*
X4039Y92637D02*
X6361Y92637D01*
X9839Y92637D02*
X11646Y92637D01*
X4033Y92687D02*
X6367Y92687D01*
X9833Y92687D02*
X11646Y92687D01*
X4028Y92736D02*
X6372Y92736D01*
X9828Y92736D02*
X11646Y92736D01*
X4022Y92786D02*
X6378Y92786D01*
X9822Y92786D02*
X11646Y92786D01*
X4016Y92835D02*
X6383Y92835D01*
X9817Y92835D02*
X11646Y92835D01*
X4011Y92885D02*
X6389Y92885D01*
X9811Y92885D02*
X11646Y92885D01*
X3995Y92935D02*
X6405Y92935D01*
X9795Y92935D02*
X11646Y92935D01*
X0500Y92984D02*
X0623Y92984D01*
X3977Y92984D02*
X6422Y92984D01*
X9778Y92984D02*
X11646Y92984D01*
X0500Y93034D02*
X0640Y93034D01*
X3960Y93034D02*
X6440Y93034D01*
X9760Y93034D02*
X11646Y93034D01*
X0500Y93083D02*
X0657Y93083D01*
X3943Y93083D02*
X6457Y93083D01*
X9743Y93083D02*
X11646Y93083D01*
X0500Y93133D02*
X0675Y93133D01*
X3925Y93133D02*
X6474Y93133D01*
X9726Y93133D02*
X11646Y93133D01*
X0500Y93182D02*
X0692Y93182D01*
X3908Y93182D02*
X6492Y93182D01*
X9708Y93182D02*
X11646Y93182D01*
X0500Y93232D02*
X0709Y93232D01*
X3891Y93232D02*
X6509Y93232D01*
X9691Y93232D02*
X11646Y93232D01*
X0500Y93281D02*
X0732Y93281D01*
X3868Y93281D02*
X6532Y93281D01*
X9668Y93281D02*
X11646Y93281D01*
X0500Y93331D02*
X0763Y93331D01*
X3837Y93331D02*
X6563Y93331D01*
X9637Y93331D02*
X11646Y93331D01*
X0500Y93380D02*
X0794Y93380D01*
X3806Y93380D02*
X6594Y93380D01*
X9606Y93380D02*
X11646Y93380D01*
X0500Y93430D02*
X0826Y93430D01*
X3774Y93430D02*
X6625Y93430D01*
X9575Y93430D02*
X11646Y93430D01*
X0500Y93479D02*
X0857Y93479D01*
X3743Y93479D02*
X6656Y93479D01*
X9544Y93479D02*
X11646Y93479D01*
X0500Y93529D02*
X0888Y93529D01*
X3712Y93529D02*
X6687Y93529D01*
X9513Y93529D02*
X11646Y93529D01*
X0500Y93578D02*
X0919Y93578D01*
X3681Y93578D02*
X6719Y93578D01*
X9481Y93578D02*
X11646Y93578D01*
X0500Y93628D02*
X0963Y93628D01*
X3637Y93628D02*
X6762Y93628D01*
X9438Y93628D02*
X11646Y93628D01*
X0500Y93678D02*
X1012Y93678D01*
X3588Y93678D02*
X6812Y93678D01*
X9388Y93678D02*
X11646Y93678D01*
X0500Y93727D02*
X1062Y93727D01*
X3538Y93727D02*
X6861Y93727D01*
X9339Y93727D02*
X11646Y93727D01*
X0500Y93777D02*
X1111Y93777D01*
X3489Y93777D02*
X6911Y93777D01*
X9289Y93777D02*
X11646Y93777D01*
X0500Y93826D02*
X1161Y93826D01*
X3439Y93826D02*
X6961Y93826D01*
X9239Y93826D02*
X11646Y93826D01*
X0500Y93876D02*
X1213Y93876D01*
X3387Y93876D02*
X7012Y93876D01*
X9188Y93876D02*
X11646Y93876D01*
X0500Y93925D02*
X1292Y93925D01*
X3308Y93925D02*
X7091Y93925D01*
X9109Y93925D02*
X11646Y93925D01*
X0500Y93975D02*
X1371Y93975D01*
X3229Y93975D02*
X7170Y93975D01*
X9030Y93975D02*
X11646Y93975D01*
X0500Y94024D02*
X1449Y94024D01*
X3151Y94024D02*
X7249Y94024D01*
X8951Y94024D02*
X11646Y94024D01*
X13298Y94024D02*
X13502Y94024D01*
X0500Y94074D02*
X1528Y94074D01*
X3072Y94074D02*
X7328Y94074D01*
X8872Y94074D02*
X11648Y94074D01*
X13298Y94074D02*
X13502Y94074D01*
X0500Y94123D02*
X1661Y94123D01*
X2939Y94123D02*
X7460Y94123D01*
X8740Y94123D02*
X11660Y94123D01*
X13298Y94123D02*
X13502Y94123D01*
X0500Y94173D02*
X1803Y94173D01*
X2797Y94173D02*
X7602Y94173D01*
X8598Y94173D02*
X11687Y94173D01*
X13298Y94173D02*
X13502Y94173D01*
X0500Y94222D02*
X2017Y94222D01*
X2583Y94222D02*
X7815Y94222D01*
X8385Y94222D02*
X11742Y94222D01*
X13298Y94222D02*
X13502Y94222D01*
X0500Y94272D02*
X14500Y94272D01*
X0500Y94321D02*
X14500Y94321D01*
X0500Y94371D02*
X14500Y94371D01*
X0500Y94420D02*
X14500Y94420D01*
X0500Y94470D02*
X14500Y94470D01*
X0500Y94520D02*
X14500Y94520D01*
X0500Y94569D02*
X14500Y94569D01*
X0500Y94619D02*
X14500Y94619D01*
X0500Y94668D02*
X14500Y94668D01*
X0500Y94718D02*
X14500Y94718D01*
X0500Y94767D02*
X14500Y94767D01*
X0500Y94817D02*
X14500Y94817D01*
X0500Y94866D02*
X14500Y94866D01*
X0500Y94916D02*
X14500Y94916D01*
X0500Y94965D02*
X14500Y94965D01*
X0500Y95015D02*
X14500Y95015D01*
X0500Y95064D02*
X14500Y95064D01*
X0500Y95114D02*
X14500Y95114D01*
X0500Y95163D02*
X14500Y95163D01*
X0500Y95213D02*
X14500Y95213D01*
X0500Y95262D02*
X14500Y95262D01*
X0500Y95312D02*
X14500Y95312D01*
X0500Y95362D02*
X14500Y95362D01*
X0500Y95411D02*
X14500Y95411D01*
X0500Y95461D02*
X14500Y95461D01*
X0500Y95510D02*
X14500Y95510D01*
X0500Y95560D02*
X14500Y95560D01*
X0500Y95609D02*
X14500Y95609D01*
X0500Y95659D02*
X14500Y95659D01*
X0500Y95708D02*
X14500Y95708D01*
X0500Y95758D02*
X14500Y95758D01*
X0500Y95807D02*
X14500Y95807D01*
X0500Y95857D02*
X14500Y95857D01*
X0500Y95906D02*
X14500Y95906D01*
X0500Y95956D02*
X14500Y95956D01*
X0500Y96005D02*
X14500Y96005D01*
X0500Y96055D02*
X14500Y96055D01*
X0500Y96104D02*
X14500Y96104D01*
X0500Y96154D02*
X14500Y96154D01*
X0500Y96204D02*
X14500Y96204D01*
X0500Y96253D02*
X14500Y96253D01*
X0500Y96303D02*
X14500Y96303D01*
X0500Y96352D02*
X14500Y96352D01*
X0500Y96402D02*
X14500Y96402D01*
X0500Y96451D02*
X14500Y96451D01*
X0500Y96501D02*
X14500Y96501D01*
X0500Y96550D02*
X14500Y96550D01*
X0500Y96600D02*
X14500Y96600D01*
X0500Y96649D02*
X14500Y96649D01*
X0500Y96699D02*
X14500Y96699D01*
X0500Y96748D02*
X14500Y96748D01*
X0500Y96798D02*
X14500Y96798D01*
X0500Y96847D02*
X14500Y96847D01*
X0500Y96897D02*
X14500Y96897D01*
X0500Y96946D02*
X14500Y96946D01*
X0500Y96996D02*
X14500Y96996D01*
X0500Y97046D02*
X14500Y97046D01*
X0500Y97095D02*
X14500Y97095D01*
X0500Y97145D02*
X14500Y97145D01*
X0500Y97194D02*
X14500Y97194D01*
X0500Y97244D02*
X14500Y97244D01*
X0500Y97293D02*
X14500Y97293D01*
X0500Y97343D02*
X14500Y97343D01*
X0500Y97392D02*
X14500Y97392D01*
X0500Y97442D02*
X14500Y97442D01*
X0500Y97491D02*
X14500Y97491D01*
X0500Y97541D02*
X14500Y97541D01*
X0500Y97590D02*
X14500Y97590D01*
X0500Y97640D02*
X14500Y97640D01*
X0500Y97689D02*
X14500Y97689D01*
X0500Y97739D02*
X14500Y97739D01*
X0500Y97788D02*
X14500Y97788D01*
X0500Y97838D02*
X14500Y97838D01*
X0500Y97888D02*
X14500Y97888D01*
X0500Y97937D02*
X14500Y97937D01*
X0500Y97987D02*
X14500Y97987D01*
X0500Y98036D02*
X14500Y98036D01*
X0500Y98086D02*
X14500Y98086D01*
X0500Y98135D02*
X14500Y98135D01*
X0500Y98185D02*
X14500Y98185D01*
X0500Y98234D02*
X14500Y98234D01*
X0500Y98284D02*
X14500Y98284D01*
X0500Y98333D02*
X14500Y98333D01*
X0500Y98383D02*
X14500Y98383D01*
X0500Y98432D02*
X14500Y98432D01*
X0500Y98482D02*
X14500Y98482D01*
X0500Y98531D02*
X14500Y98531D01*
X0500Y98581D02*
X14500Y98581D01*
X0500Y98631D02*
X14500Y98631D01*
X0500Y98680D02*
X14500Y98680D01*
X0500Y98730D02*
X14500Y98730D01*
X0500Y98779D02*
X14500Y98779D01*
X0500Y98829D02*
X14500Y98829D01*
X0500Y98878D02*
X14500Y98878D01*
X0500Y98928D02*
X14500Y98928D01*
X0500Y98977D02*
X14500Y98977D01*
X0500Y99027D02*
X14500Y99027D01*
X0500Y99076D02*
X14500Y99076D01*
X0500Y99126D02*
X14500Y99126D01*
X0500Y99175D02*
X14500Y99175D01*
X0500Y99225D02*
X14500Y99225D01*
X0500Y99274D02*
X14500Y99274D01*
X0500Y99324D02*
X14500Y99324D01*
X0500Y99373D02*
X14500Y99373D01*
X0500Y99423D02*
X14500Y99423D01*
X0500Y99473D02*
X14500Y99473D01*
%LNpour fill*%
X14500Y7240D02*
X14500Y7240D01*
X14434Y7276*
X14344Y7220*
X14344Y7220*
X14079Y7127*
X14079Y7127*
X13902Y7107*
X13901Y7107*
X13901Y7358*
X13699Y7358*
X13699Y7107*
X13698Y7107*
X13521Y7127*
X13521Y7127*
X13256Y7220*
X13256Y7220*
X13018Y7369*
X13018Y7369*
X12819Y7568*
X12819Y7568*
X12670Y7806*
X12670Y7806*
X12577Y8071*
X12577Y8071*
X12557Y8248*
X12557Y8249*
X12801Y8249*
X12801Y8451*
X12557Y8451*
X12557Y8452*
X12577Y8629*
X12577Y8629*
X12670Y8894*
X12670Y8894*
X12819Y9132*
X12819Y9132*
X13018Y9331*
X13018Y9331*
X13256Y9480*
X13256Y9480*
X13521Y9573*
X13521Y9573*
X13698Y9593*
X13699Y9593*
X13699Y9342*
X13901Y9342*
X13901Y9593*
X13902Y9593*
X14079Y9573*
X14079Y9573*
X14344Y9480*
X14344Y9480*
X14434Y9424*
X14500Y9460*
X14500Y15746*
X13501Y15746*
X13501Y15746*
X13501Y16001*
X13299Y16001*
X13299Y15746*
X13299Y15746*
X11850Y15746*
X11850Y15746*
X11818Y15748*
X11818Y15748*
X11787Y15756*
X11787Y15756*
X11757Y15768*
X11757Y15768*
X11730Y15785*
X11730Y15785*
X11705Y15805*
X11705Y15805*
X11685Y15830*
X11685Y15830*
X11668Y15857*
X11668Y15857*
X11656Y15887*
X11656Y15887*
X11648Y15918*
X11648Y15918*
X11646Y15950*
X11646Y15950*
X11646Y17399*
X11646Y17399*
X11901Y17399*
X11901Y17601*
X11646Y17601*
X11646Y17601*
X11646Y19050*
X11646Y19050*
X11648Y19082*
X11648Y19082*
X11656Y19113*
X11656Y19113*
X11668Y19143*
X11668Y19143*
X11685Y19170*
X11685Y19170*
X11705Y19195*
X11705Y19195*
X11730Y19215*
X11730Y19215*
X11757Y19232*
X11757Y19232*
X11787Y19244*
X11787Y19244*
X11818Y19252*
X11818Y19252*
X11850Y19254*
X11850Y19254*
X13299Y19254*
X13299Y19254*
X13299Y18999*
X13501Y18999*
X13501Y19254*
X13501Y19254*
X14500Y19254*
X14500Y24500*
X0500Y24500*
X0500Y17954*
X0606Y17936*
X0719Y18261*
X0719Y18261*
X0928Y18594*
X0928Y18594*
X1206Y18872*
X1206Y18872*
X1539Y19081*
X1539Y19081*
X1910Y19210*
X1910Y19210*
X2300Y19254*
X2300Y19254*
X2690Y19210*
X2690Y19210*
X3061Y19081*
X3061Y19081*
X3394Y18872*
X3394Y18872*
X3672Y18594*
X3672Y18594*
X3881Y18261*
X3881Y18261*
X4010Y17890*
X4010Y17890*
X4054Y17500*
X4054Y17500*
X4010Y17110*
X4010Y17110*
X3881Y16739*
X3881Y16739*
X3672Y16406*
X3672Y16406*
X3394Y16128*
X3394Y16128*
X3061Y15919*
X3061Y15919*
X2690Y15790*
X2690Y15790*
X2300Y15746*
X2300Y15746*
X1910Y15790*
X1910Y15790*
X1539Y15919*
X1539Y15919*
X1206Y16128*
X1206Y16128*
X0928Y16406*
X0928Y16406*
X0719Y16739*
X0719Y16739*
X0606Y17064*
X0500Y17046*
X0500Y0500*
X14500Y0500*
X14500Y7240*
X8100Y15746D02*
X7710Y15790D01*
X7339Y15920*
X7006Y16129*
X6729Y16406*
X6520Y16739*
X6390Y17110*
X6346Y17500*
X6390Y17890*
X6520Y18261*
X6729Y18594*
X7006Y18871*
X7339Y19080*
X7710Y19210*
X8100Y19254*
X8490Y19210*
X8861Y19080*
X9194Y18871*
X9471Y18594*
X9680Y18261*
X9810Y17890*
X9854Y17500*
X9810Y17110*
X9680Y16739*
X9471Y16406*
X9194Y16129*
X8861Y15920*
X8490Y15790*
X8100Y15746*
X7752Y7107D02*
X7752Y7358D01*
X7548Y7358*
X7548Y7107*
X7371Y7127*
X7106Y7220*
X6868Y7369*
X6669Y7568*
X6520Y7806*
X6427Y8071*
X6407Y8248*
X6651Y8248*
X6651Y8452*
X6407Y8452*
X6427Y8629*
X6520Y8894*
X6669Y9132*
X6868Y9331*
X7106Y9480*
X7371Y9573*
X7548Y9593*
X7548Y9342*
X7752Y9342*
X7752Y9593*
X7929Y9573*
X8194Y9480*
X8432Y9331*
X8631Y9132*
X8780Y8894*
X8873Y8629*
X8893Y8452*
X8649Y8452*
X8649Y8248*
X8893Y8248*
X8873Y8071*
X8780Y7806*
X8631Y7568*
X8432Y7369*
X8194Y7220*
X7929Y7127*
X7752Y7107*
X1898Y7107D02*
X1721Y7127D01*
X1456Y7220*
X1218Y7369*
X1019Y7568*
X0870Y7806*
X0777Y8071*
X0757Y8248*
X1001Y8248*
X1001Y8452*
X0757Y8452*
X0777Y8629*
X0870Y8894*
X1019Y9132*
X1218Y9331*
X1456Y9480*
X1721Y9573*
X1898Y9593*
X1898Y9342*
X2102Y9342*
X2102Y9593*
X2279Y9573*
X2544Y9480*
X2782Y9331*
X2981Y9132*
X3130Y8894*
X3223Y8629*
X3243Y8452*
X2999Y8452*
X2999Y8248*
X3243Y8248*
X3223Y8071*
X3130Y7806*
X2981Y7568*
X2782Y7369*
X2544Y7220*
X2279Y7127*
X2102Y7107*
X2102Y7358*
X1898Y7358*
X1898Y7107*
X11350Y5096D02*
X11071Y5127D01*
X10806Y5220*
X10568Y5369*
X10369Y5568*
X10220Y5806*
X10127Y6071*
X10096Y6350*
X10127Y6629*
X10220Y6894*
X10369Y7132*
X10568Y7331*
X10806Y7480*
X11071Y7573*
X11350Y7604*
X11629Y7573*
X11894Y7480*
X12132Y7331*
X12331Y7132*
X12480Y6894*
X12573Y6629*
X12604Y6350*
X12573Y6071*
X12480Y5806*
X12331Y5568*
X12132Y5369*
X11894Y5220*
X11629Y5127*
X11350Y5096*
X5750Y5096D02*
X5471Y5127D01*
X5206Y5220*
X4968Y5369*
X4769Y5568*
X4620Y5806*
X4527Y6071*
X4496Y6350*
X4527Y6629*
X4620Y6894*
X4769Y7132*
X4968Y7331*
X5206Y7480*
X5471Y7573*
X5750Y7604*
X6029Y7573*
X6294Y7480*
X6532Y7331*
X6731Y7132*
X6880Y6894*
X6973Y6629*
X7004Y6350*
X6973Y6071*
X6880Y5806*
X6731Y5568*
X6532Y5369*
X6294Y5220*
X6029Y5127*
X5750Y5096*
X0500Y0550D02*
X14500Y0550D01*
X0500Y0599D02*
X14500Y0599D01*
X0500Y0649D02*
X14500Y0649D01*
X0500Y0698D02*
X14500Y0698D01*
X0500Y0748D02*
X14500Y0748D01*
X0500Y0797D02*
X14500Y0797D01*
X0500Y0847D02*
X14500Y0847D01*
X0500Y0896D02*
X14500Y0896D01*
X0500Y0946D02*
X14500Y0946D01*
X0500Y0995D02*
X14500Y0995D01*
X0500Y1045D02*
X14500Y1045D01*
X0500Y1094D02*
X14500Y1094D01*
X0500Y1144D02*
X14500Y1144D01*
X0500Y1193D02*
X14500Y1193D01*
X0500Y1243D02*
X14500Y1243D01*
X0500Y1292D02*
X14500Y1292D01*
X0500Y1342D02*
X14500Y1342D01*
X0500Y1392D02*
X14500Y1392D01*
X0500Y1441D02*
X14500Y1441D01*
X0500Y1491D02*
X14500Y1491D01*
X0500Y1540D02*
X14500Y1540D01*
X0500Y1590D02*
X14500Y1590D01*
X0500Y1639D02*
X14500Y1639D01*
X0500Y1689D02*
X14500Y1689D01*
X0500Y1738D02*
X14500Y1738D01*
X0500Y1788D02*
X14500Y1788D01*
X0500Y1837D02*
X14500Y1837D01*
X0500Y1887D02*
X14500Y1887D01*
X0500Y1936D02*
X14500Y1936D01*
X0500Y1986D02*
X14500Y1986D01*
X0500Y2035D02*
X14500Y2035D01*
X0500Y2085D02*
X14500Y2085D01*
X0500Y2134D02*
X14500Y2134D01*
X0500Y2184D02*
X14500Y2184D01*
X0500Y2234D02*
X14500Y2234D01*
X0500Y2283D02*
X14500Y2283D01*
X0500Y2333D02*
X14500Y2333D01*
X0500Y2382D02*
X14500Y2382D01*
X0500Y2432D02*
X14500Y2432D01*
X0500Y2481D02*
X14500Y2481D01*
X0500Y2531D02*
X14500Y2531D01*
X0500Y2580D02*
X14500Y2580D01*
X0500Y2630D02*
X14500Y2630D01*
X0500Y2679D02*
X14500Y2679D01*
X0500Y2729D02*
X14500Y2729D01*
X0500Y2778D02*
X14500Y2778D01*
X0500Y2828D02*
X14500Y2828D01*
X0500Y2877D02*
X14500Y2877D01*
X0500Y2927D02*
X14500Y2927D01*
X0500Y2977D02*
X14500Y2977D01*
X0500Y3026D02*
X14500Y3026D01*
X0500Y3076D02*
X14500Y3076D01*
X0500Y3125D02*
X14500Y3125D01*
X0500Y3175D02*
X14500Y3175D01*
X0500Y3224D02*
X14500Y3224D01*
X0500Y3274D02*
X14500Y3274D01*
X0500Y3323D02*
X14500Y3323D01*
X0500Y3373D02*
X14500Y3373D01*
X0500Y3422D02*
X14500Y3422D01*
X0500Y3472D02*
X14500Y3472D01*
X0500Y3521D02*
X14500Y3521D01*
X0500Y3571D02*
X14500Y3571D01*
X0500Y3620D02*
X14500Y3620D01*
X0500Y3670D02*
X14500Y3670D01*
X0500Y3719D02*
X14500Y3719D01*
X0500Y3769D02*
X14500Y3769D01*
X0500Y3819D02*
X14500Y3819D01*
X0500Y3868D02*
X14500Y3868D01*
X0500Y3918D02*
X14500Y3918D01*
X0500Y3967D02*
X14500Y3967D01*
X0500Y4017D02*
X14500Y4017D01*
X0500Y4066D02*
X14500Y4066D01*
X0500Y4116D02*
X14500Y4116D01*
X0500Y4165D02*
X14500Y4165D01*
X0500Y4215D02*
X14500Y4215D01*
X0500Y4264D02*
X14500Y4264D01*
X0500Y4314D02*
X14500Y4314D01*
X0500Y4363D02*
X14500Y4363D01*
X0500Y4413D02*
X14500Y4413D01*
X0500Y4462D02*
X14500Y4462D01*
X0500Y4512D02*
X14500Y4512D01*
X0500Y4561D02*
X14500Y4561D01*
X0500Y4611D02*
X14500Y4611D01*
X0500Y4661D02*
X14500Y4661D01*
X0500Y4710D02*
X14500Y4710D01*
X0500Y4760D02*
X14500Y4760D01*
X0500Y4809D02*
X14500Y4809D01*
X0500Y4859D02*
X14500Y4859D01*
X0500Y4908D02*
X14500Y4908D01*
X0500Y4958D02*
X14500Y4958D01*
X0500Y5007D02*
X14500Y5007D01*
X0500Y5057D02*
X14500Y5057D01*
X0500Y5106D02*
X5655Y5106D01*
X5845Y5106D02*
X11255Y5106D01*
X11445Y5106D02*
X14500Y5106D01*
X0500Y5156D02*
X5388Y5156D01*
X6112Y5156D02*
X10988Y5156D01*
X11712Y5156D02*
X14500Y5156D01*
X0500Y5205D02*
X5247Y5205D01*
X6253Y5205D02*
X10847Y5205D01*
X11853Y5205D02*
X14500Y5205D01*
X0500Y5255D02*
X5150Y5255D01*
X6350Y5255D02*
X10750Y5255D01*
X11950Y5255D02*
X14500Y5255D01*
X0500Y5304D02*
X5071Y5304D01*
X6429Y5304D02*
X10671Y5304D01*
X12029Y5304D02*
X14500Y5304D01*
X0500Y5354D02*
X4992Y5354D01*
X6508Y5354D02*
X10592Y5354D01*
X12108Y5354D02*
X14500Y5354D01*
X0500Y5403D02*
X4934Y5403D01*
X6566Y5403D02*
X10534Y5403D01*
X12166Y5403D02*
X14500Y5403D01*
X0500Y5453D02*
X4884Y5453D01*
X6616Y5453D02*
X10484Y5453D01*
X12216Y5453D02*
X14500Y5453D01*
X0500Y5503D02*
X4835Y5503D01*
X6665Y5503D02*
X10435Y5503D01*
X12265Y5503D02*
X14500Y5503D01*
X0500Y5552D02*
X4785Y5552D01*
X6715Y5552D02*
X10385Y5552D01*
X12315Y5552D02*
X14500Y5552D01*
X0500Y5602D02*
X4748Y5602D01*
X6752Y5602D02*
X10348Y5602D01*
X12352Y5602D02*
X14500Y5602D01*
X0500Y5651D02*
X4717Y5651D01*
X6783Y5651D02*
X10317Y5651D01*
X12383Y5651D02*
X14500Y5651D01*
X0500Y5701D02*
X4686Y5701D01*
X6814Y5701D02*
X10286Y5701D01*
X12414Y5701D02*
X14500Y5701D01*
X0500Y5750D02*
X4655Y5750D01*
X6845Y5750D02*
X10255Y5750D01*
X12445Y5750D02*
X14500Y5750D01*
X0500Y5800D02*
X4624Y5800D01*
X6876Y5800D02*
X10224Y5800D01*
X12476Y5800D02*
X14500Y5800D01*
X0500Y5849D02*
X4605Y5849D01*
X6895Y5849D02*
X10205Y5849D01*
X12495Y5849D02*
X14500Y5849D01*
X0500Y5899D02*
X4587Y5899D01*
X6913Y5899D02*
X10187Y5899D01*
X12513Y5899D02*
X14500Y5899D01*
X0500Y5948D02*
X4570Y5948D01*
X6930Y5948D02*
X10170Y5948D01*
X12530Y5948D02*
X14500Y5948D01*
X0500Y5998D02*
X4553Y5998D01*
X6947Y5998D02*
X10153Y5998D01*
X12547Y5998D02*
X14500Y5998D01*
X0500Y6047D02*
X4535Y6047D01*
X6965Y6047D02*
X10135Y6047D01*
X12565Y6047D02*
X14500Y6047D01*
X0500Y6097D02*
X4524Y6097D01*
X6976Y6097D02*
X10124Y6097D01*
X12576Y6097D02*
X14500Y6097D01*
X0500Y6146D02*
X4518Y6146D01*
X6982Y6146D02*
X10118Y6146D01*
X12582Y6146D02*
X14500Y6146D01*
X0500Y6196D02*
X4513Y6196D01*
X6987Y6196D02*
X10113Y6196D01*
X12587Y6196D02*
X14500Y6196D01*
X0500Y6245D02*
X4507Y6245D01*
X6993Y6245D02*
X10107Y6245D01*
X12593Y6245D02*
X14500Y6245D01*
X0500Y6295D02*
X4502Y6295D01*
X6998Y6295D02*
X10102Y6295D01*
X12598Y6295D02*
X14500Y6295D01*
X0500Y6345D02*
X4496Y6345D01*
X7004Y6345D02*
X10096Y6345D01*
X12604Y6345D02*
X14500Y6345D01*
X0500Y6394D02*
X4501Y6394D01*
X6999Y6394D02*
X10101Y6394D01*
X12599Y6394D02*
X14500Y6394D01*
X0500Y6444D02*
X4506Y6444D01*
X6994Y6444D02*
X10106Y6444D01*
X12594Y6444D02*
X14500Y6444D01*
X0500Y6493D02*
X4512Y6493D01*
X6988Y6493D02*
X10112Y6493D01*
X12588Y6493D02*
X14500Y6493D01*
X0500Y6543D02*
X4517Y6543D01*
X6983Y6543D02*
X10117Y6543D01*
X12583Y6543D02*
X14500Y6543D01*
X0500Y6592D02*
X4523Y6592D01*
X6977Y6592D02*
X10123Y6592D01*
X12577Y6592D02*
X14500Y6592D01*
X0500Y6642D02*
X4531Y6642D01*
X6969Y6642D02*
X10131Y6642D01*
X12569Y6642D02*
X14500Y6642D01*
X0500Y6691D02*
X4549Y6691D01*
X6951Y6691D02*
X10149Y6691D01*
X12551Y6691D02*
X14500Y6691D01*
X0500Y6741D02*
X4566Y6741D01*
X6934Y6741D02*
X10166Y6741D01*
X12534Y6741D02*
X14500Y6741D01*
X0500Y6790D02*
X4583Y6790D01*
X6917Y6790D02*
X10183Y6790D01*
X12517Y6790D02*
X14500Y6790D01*
X0500Y6840D02*
X4601Y6840D01*
X6899Y6840D02*
X10201Y6840D01*
X12499Y6840D02*
X14500Y6840D01*
X0500Y6889D02*
X4618Y6889D01*
X6882Y6889D02*
X10218Y6889D01*
X12482Y6889D02*
X14500Y6889D01*
X0500Y6939D02*
X4648Y6939D01*
X6852Y6939D02*
X10248Y6939D01*
X12452Y6939D02*
X14500Y6939D01*
X0500Y6988D02*
X4679Y6988D01*
X6821Y6988D02*
X10279Y6988D01*
X12421Y6988D02*
X14500Y6988D01*
X0500Y7038D02*
X4710Y7038D01*
X6790Y7038D02*
X10310Y7038D01*
X12390Y7038D02*
X14500Y7038D01*
X0500Y7087D02*
X4741Y7087D01*
X6759Y7087D02*
X10341Y7087D01*
X12359Y7087D02*
X14500Y7087D01*
X0500Y7137D02*
X1692Y7137D01*
X1899Y7137D02*
X2101Y7137D01*
X2308Y7137D02*
X4774Y7137D01*
X6726Y7137D02*
X7342Y7137D01*
X7549Y7137D02*
X7751Y7137D01*
X7958Y7137D02*
X10374Y7137D01*
X12326Y7137D02*
X13493Y7137D01*
X13698Y7137D02*
X13902Y7137D01*
X14107Y7137D02*
X14500Y7137D01*
X0500Y7187D02*
X1551Y7187D01*
X1899Y7187D02*
X2101Y7187D01*
X2449Y7187D02*
X4824Y7187D01*
X6676Y7187D02*
X7201Y7187D01*
X7549Y7187D02*
X7751Y7187D01*
X8099Y7187D02*
X10424Y7187D01*
X12276Y7187D02*
X13351Y7187D01*
X13698Y7187D02*
X13902Y7187D01*
X14249Y7187D02*
X14500Y7187D01*
X0500Y7236D02*
X1430Y7236D01*
X1899Y7236D02*
X2101Y7236D01*
X2570Y7236D02*
X4873Y7236D01*
X6627Y7236D02*
X7080Y7236D01*
X7549Y7236D02*
X7751Y7236D01*
X8220Y7236D02*
X10473Y7236D01*
X12227Y7236D02*
X13230Y7236D01*
X13698Y7236D02*
X13902Y7236D01*
X14370Y7236D02*
X14500Y7236D01*
X0500Y7286D02*
X1351Y7286D01*
X1899Y7286D02*
X2101Y7286D01*
X2649Y7286D02*
X4923Y7286D01*
X6577Y7286D02*
X7001Y7286D01*
X7549Y7286D02*
X7751Y7286D01*
X8299Y7286D02*
X10523Y7286D01*
X12177Y7286D02*
X13151Y7286D01*
X13698Y7286D02*
X13902Y7286D01*
X0500Y7335D02*
X1272Y7335D01*
X1899Y7335D02*
X2101Y7335D01*
X2728Y7335D02*
X4975Y7335D01*
X6525Y7335D02*
X6922Y7335D01*
X7549Y7335D02*
X7751Y7335D01*
X8378Y7335D02*
X10575Y7335D01*
X12125Y7335D02*
X13073Y7335D01*
X13698Y7335D02*
X13902Y7335D01*
X0500Y7385D02*
X1202Y7385D01*
X2798Y7385D02*
X5054Y7385D01*
X6446Y7385D02*
X6852Y7385D01*
X8448Y7385D02*
X10654Y7385D01*
X12046Y7385D02*
X13003Y7385D01*
X0500Y7434D02*
X1153Y7434D01*
X2847Y7434D02*
X5132Y7434D01*
X6368Y7434D02*
X6803Y7434D01*
X8497Y7434D02*
X10732Y7434D01*
X11968Y7434D02*
X12953Y7434D01*
X0500Y7484D02*
X1103Y7484D01*
X2897Y7484D02*
X5216Y7484D01*
X6284Y7484D02*
X6753Y7484D01*
X8547Y7484D02*
X10816Y7484D01*
X11884Y7484D02*
X12904Y7484D01*
X0500Y7533D02*
X1054Y7533D01*
X2946Y7533D02*
X5357Y7533D01*
X6143Y7533D02*
X6704Y7533D01*
X8596Y7533D02*
X10957Y7533D01*
X11743Y7533D02*
X12854Y7533D01*
X0500Y7583D02*
X1010Y7583D01*
X2990Y7583D02*
X5558Y7583D01*
X5942Y7583D02*
X6660Y7583D01*
X8640Y7583D02*
X11158Y7583D01*
X11542Y7583D02*
X12810Y7583D01*
X0500Y7632D02*
X0979Y7632D01*
X3021Y7632D02*
X6629Y7632D01*
X8671Y7632D02*
X12779Y7632D01*
X0500Y7682D02*
X0948Y7682D01*
X3052Y7682D02*
X6598Y7682D01*
X8702Y7682D02*
X12748Y7682D01*
X0500Y7731D02*
X0916Y7731D01*
X3084Y7731D02*
X6566Y7731D01*
X8734Y7731D02*
X12717Y7731D01*
X0500Y7781D02*
X0885Y7781D01*
X3115Y7781D02*
X6535Y7781D01*
X8765Y7781D02*
X12686Y7781D01*
X0500Y7830D02*
X0861Y7830D01*
X3139Y7830D02*
X6511Y7830D01*
X8789Y7830D02*
X12661Y7830D01*
X0500Y7880D02*
X0844Y7880D01*
X3156Y7880D02*
X6494Y7880D01*
X8806Y7880D02*
X12644Y7880D01*
X0500Y7929D02*
X0826Y7929D01*
X3174Y7929D02*
X6476Y7929D01*
X8824Y7929D02*
X12627Y7929D01*
X0500Y7979D02*
X0809Y7979D01*
X3191Y7979D02*
X6459Y7979D01*
X8841Y7979D02*
X12609Y7979D01*
X0500Y8029D02*
X0792Y8029D01*
X3208Y8029D02*
X6442Y8029D01*
X8858Y8029D02*
X12592Y8029D01*
X0500Y8078D02*
X0776Y8078D01*
X3224Y8078D02*
X6426Y8078D01*
X8874Y8078D02*
X12576Y8078D01*
X0500Y8128D02*
X0771Y8128D01*
X3229Y8128D02*
X6421Y8128D01*
X8879Y8128D02*
X12571Y8128D01*
X0500Y8177D02*
X0765Y8177D01*
X3235Y8177D02*
X6415Y8177D01*
X8885Y8177D02*
X12565Y8177D01*
X0500Y8227D02*
X0759Y8227D01*
X3241Y8227D02*
X6409Y8227D01*
X8891Y8227D02*
X12560Y8227D01*
X0500Y8276D02*
X1001Y8276D01*
X2999Y8276D02*
X6651Y8276D01*
X8649Y8276D02*
X12801Y8276D01*
X0500Y8326D02*
X1001Y8326D01*
X2999Y8326D02*
X6651Y8326D01*
X8649Y8326D02*
X12801Y8326D01*
X0500Y8375D02*
X1001Y8375D01*
X2999Y8375D02*
X6651Y8375D01*
X8649Y8375D02*
X12801Y8375D01*
X0500Y8425D02*
X1001Y8425D01*
X2999Y8425D02*
X6651Y8425D01*
X8649Y8425D02*
X12801Y8425D01*
X0500Y8474D02*
X0760Y8474D01*
X3240Y8474D02*
X6410Y8474D01*
X8890Y8474D02*
X12560Y8474D01*
X0500Y8524D02*
X0765Y8524D01*
X3235Y8524D02*
X6415Y8524D01*
X8885Y8524D02*
X12565Y8524D01*
X0500Y8573D02*
X0771Y8573D01*
X3229Y8573D02*
X6421Y8573D01*
X8879Y8573D02*
X12571Y8573D01*
X0500Y8623D02*
X0776Y8623D01*
X3224Y8623D02*
X6426Y8623D01*
X8874Y8623D02*
X12577Y8623D01*
X0500Y8672D02*
X0792Y8672D01*
X3208Y8672D02*
X6442Y8672D01*
X8858Y8672D02*
X12592Y8672D01*
X0500Y8722D02*
X0809Y8722D01*
X3191Y8722D02*
X6459Y8722D01*
X8841Y8722D02*
X12610Y8722D01*
X0500Y8772D02*
X0827Y8772D01*
X3173Y8772D02*
X6477Y8772D01*
X8823Y8772D02*
X12627Y8772D01*
X0500Y8821D02*
X0844Y8821D01*
X3156Y8821D02*
X6494Y8821D01*
X8806Y8821D02*
X12644Y8821D01*
X0500Y8871D02*
X0861Y8871D01*
X3139Y8871D02*
X6511Y8871D01*
X8789Y8871D02*
X12662Y8871D01*
X0500Y8920D02*
X0886Y8920D01*
X3114Y8920D02*
X6536Y8920D01*
X8764Y8920D02*
X12686Y8920D01*
X0500Y8970D02*
X0917Y8970D01*
X3083Y8970D02*
X6567Y8970D01*
X8733Y8970D02*
X12717Y8970D01*
X0500Y9019D02*
X0948Y9019D01*
X3052Y9019D02*
X6598Y9019D01*
X8702Y9019D02*
X12749Y9019D01*
X0500Y9069D02*
X0979Y9069D01*
X3021Y9069D02*
X6629Y9069D01*
X8671Y9069D02*
X12780Y9069D01*
X0500Y9118D02*
X1010Y9118D01*
X2990Y9118D02*
X6660Y9118D01*
X8640Y9118D02*
X12811Y9118D01*
X0500Y9168D02*
X1055Y9168D01*
X2945Y9168D02*
X6705Y9168D01*
X8595Y9168D02*
X12855Y9168D01*
X0500Y9217D02*
X1104Y9217D01*
X2896Y9217D02*
X6754Y9217D01*
X8546Y9217D02*
X12905Y9217D01*
X0500Y9267D02*
X1154Y9267D01*
X2846Y9267D02*
X6804Y9267D01*
X8496Y9267D02*
X12954Y9267D01*
X0500Y9316D02*
X1203Y9316D01*
X2797Y9316D02*
X6853Y9316D01*
X8447Y9316D02*
X13004Y9316D01*
X0500Y9366D02*
X1274Y9366D01*
X1899Y9366D02*
X2101Y9366D01*
X2726Y9366D02*
X6924Y9366D01*
X7549Y9366D02*
X7751Y9366D01*
X8376Y9366D02*
X13074Y9366D01*
X13698Y9366D02*
X13902Y9366D01*
X0500Y9415D02*
X1353Y9415D01*
X1899Y9415D02*
X2101Y9415D01*
X2647Y9415D02*
X7003Y9415D01*
X7549Y9415D02*
X7751Y9415D01*
X8297Y9415D02*
X13153Y9415D01*
X13698Y9415D02*
X13902Y9415D01*
X0500Y9465D02*
X1431Y9465D01*
X1899Y9465D02*
X2101Y9465D01*
X2569Y9465D02*
X7081Y9465D01*
X7549Y9465D02*
X7751Y9465D01*
X8219Y9465D02*
X13232Y9465D01*
X13698Y9465D02*
X13902Y9465D01*
X14368Y9465D02*
X14500Y9465D01*
X0500Y9514D02*
X1554Y9514D01*
X1899Y9514D02*
X2101Y9514D01*
X2446Y9514D02*
X7204Y9514D01*
X7549Y9514D02*
X7751Y9514D01*
X8096Y9514D02*
X13354Y9514D01*
X13698Y9514D02*
X13902Y9514D01*
X14246Y9514D02*
X14500Y9514D01*
X0500Y9564D02*
X1695Y9564D01*
X1899Y9564D02*
X2101Y9564D01*
X2305Y9564D02*
X7345Y9564D01*
X7549Y9564D02*
X7751Y9564D01*
X7955Y9564D02*
X13496Y9564D01*
X13698Y9564D02*
X13902Y9564D01*
X14104Y9564D02*
X14500Y9564D01*
X0500Y9614D02*
X14500Y9614D01*
X0500Y9663D02*
X14500Y9663D01*
X0500Y9713D02*
X14500Y9713D01*
X0500Y9762D02*
X14500Y9762D01*
X0500Y9812D02*
X14500Y9812D01*
X0500Y9861D02*
X14500Y9861D01*
X0500Y9911D02*
X14500Y9911D01*
X0500Y9960D02*
X14500Y9960D01*
X0500Y10010D02*
X14500Y10010D01*
X0500Y10059D02*
X14500Y10059D01*
X0500Y10109D02*
X14500Y10109D01*
X0500Y10158D02*
X14500Y10158D01*
X0500Y10208D02*
X14500Y10208D01*
X0500Y10257D02*
X14500Y10257D01*
X0500Y10307D02*
X14500Y10307D01*
X0500Y10356D02*
X14500Y10356D01*
X0500Y10406D02*
X14500Y10406D01*
X0500Y10456D02*
X14500Y10456D01*
X0500Y10505D02*
X14500Y10505D01*
X0500Y10555D02*
X14500Y10555D01*
X0500Y10604D02*
X14500Y10604D01*
X0500Y10654D02*
X14500Y10654D01*
X0500Y10703D02*
X14500Y10703D01*
X0500Y10753D02*
X14500Y10753D01*
X0500Y10802D02*
X14500Y10802D01*
X0500Y10852D02*
X14500Y10852D01*
X0500Y10901D02*
X14500Y10901D01*
X0500Y10951D02*
X14500Y10951D01*
X0500Y11000D02*
X14500Y11000D01*
X0500Y11050D02*
X14500Y11050D01*
X0500Y11099D02*
X14500Y11099D01*
X0500Y11149D02*
X14500Y11149D01*
X0500Y11198D02*
X14500Y11198D01*
X0500Y11248D02*
X14500Y11248D01*
X0500Y11298D02*
X14500Y11298D01*
X0500Y11347D02*
X14500Y11347D01*
X0500Y11397D02*
X14500Y11397D01*
X0500Y11446D02*
X14500Y11446D01*
X0500Y11496D02*
X14500Y11496D01*
X0500Y11545D02*
X14500Y11545D01*
X0500Y11595D02*
X14500Y11595D01*
X0500Y11644D02*
X14500Y11644D01*
X0500Y11694D02*
X14500Y11694D01*
X0500Y11743D02*
X14500Y11743D01*
X0500Y11793D02*
X14500Y11793D01*
X0500Y11842D02*
X14500Y11842D01*
X0500Y11892D02*
X14500Y11892D01*
X0500Y11941D02*
X14500Y11941D01*
X0500Y11991D02*
X14500Y11991D01*
X0500Y12040D02*
X14500Y12040D01*
X0500Y12090D02*
X14500Y12090D01*
X0500Y12140D02*
X14500Y12140D01*
X0500Y12189D02*
X14500Y12189D01*
X0500Y12239D02*
X14500Y12239D01*
X0500Y12288D02*
X14500Y12288D01*
X0500Y12338D02*
X14500Y12338D01*
X0500Y12387D02*
X14500Y12387D01*
X0500Y12437D02*
X14500Y12437D01*
X0500Y12486D02*
X14500Y12486D01*
X0500Y12536D02*
X14500Y12536D01*
X0500Y12585D02*
X14500Y12585D01*
X0500Y12635D02*
X14500Y12635D01*
X0500Y12684D02*
X14500Y12684D01*
X0500Y12734D02*
X14500Y12734D01*
X0500Y12783D02*
X14500Y12783D01*
X0500Y12833D02*
X14500Y12833D01*
X0500Y12883D02*
X14500Y12883D01*
X0500Y12932D02*
X14500Y12932D01*
X0500Y12982D02*
X14500Y12982D01*
X0500Y13031D02*
X14500Y13031D01*
X0500Y13081D02*
X14500Y13081D01*
X0500Y13130D02*
X14500Y13130D01*
X0500Y13180D02*
X14500Y13180D01*
X0500Y13229D02*
X14500Y13229D01*
X0500Y13279D02*
X14500Y13279D01*
X0500Y13328D02*
X14500Y13328D01*
X0500Y13378D02*
X14500Y13378D01*
X0500Y13427D02*
X14500Y13427D01*
X0500Y13477D02*
X14500Y13477D01*
X0500Y13526D02*
X14500Y13526D01*
X0500Y13576D02*
X14500Y13576D01*
X0500Y13625D02*
X14500Y13625D01*
X0500Y13675D02*
X14500Y13675D01*
X0500Y13725D02*
X14500Y13725D01*
X0500Y13774D02*
X14500Y13774D01*
X0500Y13824D02*
X14500Y13824D01*
X0500Y13873D02*
X14500Y13873D01*
X0500Y13923D02*
X14500Y13923D01*
X0500Y13972D02*
X14500Y13972D01*
X0500Y14022D02*
X14500Y14022D01*
X0500Y14071D02*
X14500Y14071D01*
X0500Y14121D02*
X14500Y14121D01*
X0500Y14170D02*
X14500Y14170D01*
X0500Y14220D02*
X14500Y14220D01*
X0500Y14269D02*
X14500Y14269D01*
X0500Y14319D02*
X14500Y14319D01*
X0500Y14368D02*
X14500Y14368D01*
X0500Y14418D02*
X14500Y14418D01*
X0500Y14467D02*
X14500Y14467D01*
X0500Y14517D02*
X14500Y14517D01*
X0500Y14567D02*
X14500Y14567D01*
X0500Y14616D02*
X14500Y14616D01*
X0500Y14666D02*
X14500Y14666D01*
X0500Y14715D02*
X14500Y14715D01*
X0500Y14765D02*
X14500Y14765D01*
X0500Y14814D02*
X14500Y14814D01*
X0500Y14864D02*
X14500Y14864D01*
X0500Y14913D02*
X14500Y14913D01*
X0500Y14963D02*
X14500Y14963D01*
X0500Y15012D02*
X14500Y15012D01*
X0500Y15062D02*
X14500Y15062D01*
X0500Y15111D02*
X14500Y15111D01*
X0500Y15161D02*
X14500Y15161D01*
X0500Y15210D02*
X14500Y15210D01*
X0500Y15260D02*
X14500Y15260D01*
X0500Y15309D02*
X14500Y15309D01*
X0500Y15359D02*
X14500Y15359D01*
X0500Y15409D02*
X14500Y15409D01*
X0500Y15458D02*
X14500Y15458D01*
X0500Y15508D02*
X14500Y15508D01*
X0500Y15557D02*
X14500Y15557D01*
X0500Y15607D02*
X14500Y15607D01*
X0500Y15656D02*
X14500Y15656D01*
X0500Y15706D02*
X14500Y15706D01*
X0500Y15755D02*
X2216Y15755D01*
X2384Y15755D02*
X8014Y15755D01*
X8186Y15755D02*
X11789Y15755D01*
X13298Y15755D02*
X13502Y15755D01*
X0500Y15805D02*
X1867Y15805D01*
X2733Y15805D02*
X7666Y15805D01*
X8534Y15805D02*
X11707Y15805D01*
X13298Y15805D02*
X13502Y15805D01*
X0500Y15854D02*
X1725Y15854D01*
X2875Y15854D02*
X7524Y15854D01*
X8675Y15854D02*
X11670Y15854D01*
X13298Y15854D02*
X13502Y15854D01*
X0500Y15904D02*
X1584Y15904D01*
X3016Y15904D02*
X7383Y15904D01*
X8817Y15904D02*
X11652Y15904D01*
X13298Y15904D02*
X13502Y15904D01*
X0500Y15953D02*
X1485Y15953D01*
X3115Y15953D02*
X7285Y15953D01*
X8915Y15953D02*
X11646Y15953D01*
X13298Y15953D02*
X13502Y15953D01*
X0500Y16003D02*
X1406Y16003D01*
X3194Y16003D02*
X7206Y16003D01*
X8994Y16003D02*
X11646Y16003D01*
X0500Y16052D02*
X1327Y16052D01*
X3273Y16052D02*
X7127Y16052D01*
X9073Y16052D02*
X11646Y16052D01*
X0500Y16102D02*
X1249Y16102D01*
X3351Y16102D02*
X7048Y16102D01*
X9152Y16102D02*
X11646Y16102D01*
X0500Y16151D02*
X1183Y16151D01*
X3417Y16151D02*
X6983Y16151D01*
X9217Y16151D02*
X11646Y16151D01*
X0500Y16201D02*
X1134Y16201D01*
X3466Y16201D02*
X6933Y16201D01*
X9267Y16201D02*
X11646Y16201D01*
X0500Y16251D02*
X1084Y16251D01*
X3516Y16251D02*
X6884Y16251D01*
X9316Y16251D02*
X11646Y16251D01*
X0500Y16300D02*
X1035Y16300D01*
X3565Y16300D02*
X6834Y16300D01*
X9366Y16300D02*
X11646Y16300D01*
X0500Y16350D02*
X0985Y16350D01*
X3615Y16350D02*
X6785Y16350D01*
X9415Y16350D02*
X11646Y16350D01*
X0500Y16399D02*
X0936Y16399D01*
X3664Y16399D02*
X6735Y16399D01*
X9465Y16399D02*
X11646Y16399D01*
X0500Y16449D02*
X0902Y16449D01*
X3698Y16449D02*
X6702Y16449D01*
X9498Y16449D02*
X11646Y16449D01*
X0500Y16498D02*
X0871Y16498D01*
X3729Y16498D02*
X6670Y16498D01*
X9530Y16498D02*
X11646Y16498D01*
X0500Y16548D02*
X0840Y16548D01*
X3760Y16548D02*
X6639Y16548D01*
X9561Y16548D02*
X11646Y16548D01*
X0500Y16597D02*
X0809Y16597D01*
X3791Y16597D02*
X6608Y16597D01*
X9592Y16597D02*
X11646Y16597D01*
X0500Y16647D02*
X0777Y16647D01*
X3823Y16647D02*
X6577Y16647D01*
X9623Y16647D02*
X11646Y16647D01*
X0500Y16696D02*
X0746Y16696D01*
X3854Y16696D02*
X6546Y16696D01*
X9654Y16696D02*
X11646Y16696D01*
X0500Y16746D02*
X0717Y16746D01*
X3883Y16746D02*
X6517Y16746D01*
X9683Y16746D02*
X11646Y16746D01*
X0500Y16795D02*
X0700Y16795D01*
X3900Y16795D02*
X6499Y16795D01*
X9701Y16795D02*
X11646Y16795D01*
X0500Y16845D02*
X0682Y16845D01*
X3918Y16845D02*
X6482Y16845D01*
X9718Y16845D02*
X11646Y16845D01*
X0500Y16894D02*
X0665Y16894D01*
X3935Y16894D02*
X6465Y16894D01*
X9735Y16894D02*
X11646Y16894D01*
X0500Y16944D02*
X0648Y16944D01*
X3952Y16944D02*
X6447Y16944D01*
X9753Y16944D02*
X11646Y16944D01*
X0500Y16993D02*
X0630Y16993D01*
X3970Y16993D02*
X6430Y16993D01*
X9770Y16993D02*
X11646Y16993D01*
X0500Y17043D02*
X0613Y17043D01*
X3987Y17043D02*
X6413Y17043D01*
X9787Y17043D02*
X11646Y17043D01*
X4004Y17093D02*
X6395Y17093D01*
X9805Y17093D02*
X11646Y17093D01*
X4014Y17142D02*
X6386Y17142D01*
X9814Y17142D02*
X11646Y17142D01*
X4019Y17192D02*
X6380Y17192D01*
X9820Y17192D02*
X11646Y17192D01*
X4025Y17241D02*
X6375Y17241D01*
X9825Y17241D02*
X11646Y17241D01*
X4031Y17291D02*
X6369Y17291D01*
X9831Y17291D02*
X11646Y17291D01*
X4036Y17340D02*
X6364Y17340D01*
X9836Y17340D02*
X11646Y17340D01*
X4042Y17390D02*
X6358Y17390D01*
X9842Y17390D02*
X11646Y17390D01*
X4047Y17439D02*
X6352Y17439D01*
X9848Y17439D02*
X11901Y17439D01*
X4053Y17489D02*
X6347Y17489D01*
X9853Y17489D02*
X11901Y17489D01*
X4050Y17538D02*
X6350Y17538D01*
X9850Y17538D02*
X11901Y17538D01*
X4044Y17588D02*
X6355Y17588D01*
X9845Y17588D02*
X11901Y17588D01*
X4039Y17637D02*
X6361Y17637D01*
X9839Y17637D02*
X11646Y17637D01*
X4033Y17687D02*
X6367Y17687D01*
X9833Y17687D02*
X11646Y17687D01*
X4028Y17736D02*
X6372Y17736D01*
X9828Y17736D02*
X11646Y17736D01*
X4022Y17786D02*
X6378Y17786D01*
X9822Y17786D02*
X11646Y17786D01*
X4016Y17835D02*
X6383Y17835D01*
X9817Y17835D02*
X11646Y17835D01*
X4011Y17885D02*
X6389Y17885D01*
X9811Y17885D02*
X11646Y17885D01*
X3995Y17935D02*
X6405Y17935D01*
X9795Y17935D02*
X11646Y17935D01*
X0500Y17984D02*
X0623Y17984D01*
X3977Y17984D02*
X6422Y17984D01*
X9778Y17984D02*
X11646Y17984D01*
X0500Y18034D02*
X0640Y18034D01*
X3960Y18034D02*
X6440Y18034D01*
X9760Y18034D02*
X11646Y18034D01*
X0500Y18083D02*
X0657Y18083D01*
X3943Y18083D02*
X6457Y18083D01*
X9743Y18083D02*
X11646Y18083D01*
X0500Y18133D02*
X0675Y18133D01*
X3925Y18133D02*
X6474Y18133D01*
X9726Y18133D02*
X11646Y18133D01*
X0500Y18182D02*
X0692Y18182D01*
X3908Y18182D02*
X6492Y18182D01*
X9708Y18182D02*
X11646Y18182D01*
X0500Y18232D02*
X0709Y18232D01*
X3891Y18232D02*
X6509Y18232D01*
X9691Y18232D02*
X11646Y18232D01*
X0500Y18281D02*
X0732Y18281D01*
X3868Y18281D02*
X6532Y18281D01*
X9668Y18281D02*
X11646Y18281D01*
X0500Y18331D02*
X0763Y18331D01*
X3837Y18331D02*
X6563Y18331D01*
X9637Y18331D02*
X11646Y18331D01*
X0500Y18380D02*
X0794Y18380D01*
X3806Y18380D02*
X6594Y18380D01*
X9606Y18380D02*
X11646Y18380D01*
X0500Y18430D02*
X0826Y18430D01*
X3774Y18430D02*
X6625Y18430D01*
X9575Y18430D02*
X11646Y18430D01*
X0500Y18479D02*
X0857Y18479D01*
X3743Y18479D02*
X6656Y18479D01*
X9544Y18479D02*
X11646Y18479D01*
X0500Y18529D02*
X0888Y18529D01*
X3712Y18529D02*
X6687Y18529D01*
X9513Y18529D02*
X11646Y18529D01*
X0500Y18578D02*
X0919Y18578D01*
X3681Y18578D02*
X6719Y18578D01*
X9481Y18578D02*
X11646Y18578D01*
X0500Y18628D02*
X0963Y18628D01*
X3637Y18628D02*
X6762Y18628D01*
X9438Y18628D02*
X11646Y18628D01*
X0500Y18678D02*
X1012Y18678D01*
X3588Y18678D02*
X6812Y18678D01*
X9388Y18678D02*
X11646Y18678D01*
X0500Y18727D02*
X1062Y18727D01*
X3538Y18727D02*
X6861Y18727D01*
X9339Y18727D02*
X11646Y18727D01*
X0500Y18777D02*
X1111Y18777D01*
X3489Y18777D02*
X6911Y18777D01*
X9289Y18777D02*
X11646Y18777D01*
X0500Y18826D02*
X1161Y18826D01*
X3439Y18826D02*
X6961Y18826D01*
X9239Y18826D02*
X11646Y18826D01*
X0500Y18876D02*
X1213Y18876D01*
X3387Y18876D02*
X7012Y18876D01*
X9188Y18876D02*
X11646Y18876D01*
X0500Y18925D02*
X1292Y18925D01*
X3308Y18925D02*
X7091Y18925D01*
X9109Y18925D02*
X11646Y18925D01*
X0500Y18975D02*
X1371Y18975D01*
X3229Y18975D02*
X7170Y18975D01*
X9030Y18975D02*
X11646Y18975D01*
X0500Y19024D02*
X1449Y19024D01*
X3151Y19024D02*
X7249Y19024D01*
X8951Y19024D02*
X11646Y19024D01*
X13298Y19024D02*
X13502Y19024D01*
X0500Y19074D02*
X1528Y19074D01*
X3072Y19074D02*
X7328Y19074D01*
X8872Y19074D02*
X11648Y19074D01*
X13298Y19074D02*
X13502Y19074D01*
X0500Y19123D02*
X1661Y19123D01*
X2939Y19123D02*
X7460Y19123D01*
X8740Y19123D02*
X11660Y19123D01*
X13298Y19123D02*
X13502Y19123D01*
X0500Y19173D02*
X1803Y19173D01*
X2797Y19173D02*
X7602Y19173D01*
X8598Y19173D02*
X11687Y19173D01*
X13298Y19173D02*
X13502Y19173D01*
X0500Y19222D02*
X2017Y19222D01*
X2583Y19222D02*
X7815Y19222D01*
X8385Y19222D02*
X11742Y19222D01*
X13298Y19222D02*
X13502Y19222D01*
X0500Y19272D02*
X14500Y19272D01*
X0500Y19321D02*
X14500Y19321D01*
X0500Y19371D02*
X14500Y19371D01*
X0500Y19420D02*
X14500Y19420D01*
X0500Y19470D02*
X14500Y19470D01*
X0500Y19520D02*
X14500Y19520D01*
X0500Y19569D02*
X14500Y19569D01*
X0500Y19619D02*
X14500Y19619D01*
X0500Y19668D02*
X14500Y19668D01*
X0500Y19718D02*
X14500Y19718D01*
X0500Y19767D02*
X14500Y19767D01*
X0500Y19817D02*
X14500Y19817D01*
X0500Y19866D02*
X14500Y19866D01*
X0500Y19916D02*
X14500Y19916D01*
X0500Y19965D02*
X14500Y19965D01*
X0500Y20015D02*
X14500Y20015D01*
X0500Y20064D02*
X14500Y20064D01*
X0500Y20114D02*
X14500Y20114D01*
X0500Y20163D02*
X14500Y20163D01*
X0500Y20213D02*
X14500Y20213D01*
X0500Y20262D02*
X14500Y20262D01*
X0500Y20312D02*
X14500Y20312D01*
X0500Y20362D02*
X14500Y20362D01*
X0500Y20411D02*
X14500Y20411D01*
X0500Y20461D02*
X14500Y20461D01*
X0500Y20510D02*
X14500Y20510D01*
X0500Y20560D02*
X14500Y20560D01*
X0500Y20609D02*
X14500Y20609D01*
X0500Y20659D02*
X14500Y20659D01*
X0500Y20708D02*
X14500Y20708D01*
X0500Y20758D02*
X14500Y20758D01*
X0500Y20807D02*
X14500Y20807D01*
X0500Y20857D02*
X14500Y20857D01*
X0500Y20906D02*
X14500Y20906D01*
X0500Y20956D02*
X14500Y20956D01*
X0500Y21005D02*
X14500Y21005D01*
X0500Y21055D02*
X14500Y21055D01*
X0500Y21104D02*
X14500Y21104D01*
X0500Y21154D02*
X14500Y21154D01*
X0500Y21204D02*
X14500Y21204D01*
X0500Y21253D02*
X14500Y21253D01*
X0500Y21303D02*
X14500Y21303D01*
X0500Y21352D02*
X14500Y21352D01*
X0500Y21402D02*
X14500Y21402D01*
X0500Y21451D02*
X14500Y21451D01*
X0500Y21501D02*
X14500Y21501D01*
X0500Y21550D02*
X14500Y21550D01*
X0500Y21600D02*
X14500Y21600D01*
X0500Y21649D02*
X14500Y21649D01*
X0500Y21699D02*
X14500Y21699D01*
X0500Y21748D02*
X14500Y21748D01*
X0500Y21798D02*
X14500Y21798D01*
X0500Y21847D02*
X14500Y21847D01*
X0500Y21897D02*
X14500Y21897D01*
X0500Y21946D02*
X14500Y21946D01*
X0500Y21996D02*
X14500Y21996D01*
X0500Y22046D02*
X14500Y22046D01*
X0500Y22095D02*
X14500Y22095D01*
X0500Y22145D02*
X14500Y22145D01*
X0500Y22194D02*
X14500Y22194D01*
X0500Y22244D02*
X14500Y22244D01*
X0500Y22293D02*
X14500Y22293D01*
X0500Y22343D02*
X14500Y22343D01*
X0500Y22392D02*
X14500Y22392D01*
X0500Y22442D02*
X14500Y22442D01*
X0500Y22491D02*
X14500Y22491D01*
X0500Y22541D02*
X14500Y22541D01*
X0500Y22590D02*
X14500Y22590D01*
X0500Y22640D02*
X14500Y22640D01*
X0500Y22689D02*
X14500Y22689D01*
X0500Y22739D02*
X14500Y22739D01*
X0500Y22788D02*
X14500Y22788D01*
X0500Y22838D02*
X14500Y22838D01*
X0500Y22888D02*
X14500Y22888D01*
X0500Y22937D02*
X14500Y22937D01*
X0500Y22987D02*
X14500Y22987D01*
X0500Y23036D02*
X14500Y23036D01*
X0500Y23086D02*
X14500Y23086D01*
X0500Y23135D02*
X14500Y23135D01*
X0500Y23185D02*
X14500Y23185D01*
X0500Y23234D02*
X14500Y23234D01*
X0500Y23284D02*
X14500Y23284D01*
X0500Y23333D02*
X14500Y23333D01*
X0500Y23383D02*
X14500Y23383D01*
X0500Y23432D02*
X14500Y23432D01*
X0500Y23482D02*
X14500Y23482D01*
X0500Y23531D02*
X14500Y23531D01*
X0500Y23581D02*
X14500Y23581D01*
X0500Y23631D02*
X14500Y23631D01*
X0500Y23680D02*
X14500Y23680D01*
X0500Y23730D02*
X14500Y23730D01*
X0500Y23779D02*
X14500Y23779D01*
X0500Y23829D02*
X14500Y23829D01*
X0500Y23878D02*
X14500Y23878D01*
X0500Y23928D02*
X14500Y23928D01*
X0500Y23977D02*
X14500Y23977D01*
X0500Y24027D02*
X14500Y24027D01*
X0500Y24076D02*
X14500Y24076D01*
X0500Y24126D02*
X14500Y24126D01*
X0500Y24175D02*
X14500Y24175D01*
X0500Y24225D02*
X14500Y24225D01*
X0500Y24274D02*
X14500Y24274D01*
X0500Y24324D02*
X14500Y24324D01*
X0500Y24373D02*
X14500Y24373D01*
X0500Y24423D02*
X14500Y24423D01*
X0500Y24473D02*
X14500Y24473D01*
%LNpour fill*%
X14500Y32240D02*
X14500Y32240D01*
X14434Y32276*
X14344Y32220*
X14344Y32220*
X14079Y32127*
X14079Y32127*
X13902Y32107*
X13901Y32107*
X13901Y32358*
X13699Y32358*
X13699Y32107*
X13698Y32107*
X13521Y32127*
X13521Y32127*
X13256Y32220*
X13256Y32220*
X13018Y32369*
X13018Y32369*
X12819Y32568*
X12819Y32568*
X12670Y32806*
X12670Y32806*
X12577Y33071*
X12577Y33071*
X12557Y33248*
X12557Y33249*
X12801Y33249*
X12801Y33451*
X12557Y33451*
X12557Y33452*
X12577Y33629*
X12577Y33629*
X12670Y33894*
X12670Y33894*
X12819Y34132*
X12819Y34132*
X13018Y34331*
X13018Y34331*
X13256Y34480*
X13256Y34480*
X13521Y34573*
X13521Y34573*
X13698Y34593*
X13699Y34593*
X13699Y34342*
X13901Y34342*
X13901Y34593*
X13902Y34593*
X14079Y34573*
X14079Y34573*
X14344Y34480*
X14344Y34480*
X14434Y34424*
X14500Y34460*
X14500Y40746*
X13501Y40746*
X13501Y40746*
X13501Y41001*
X13299Y41001*
X13299Y40746*
X13299Y40746*
X11850Y40746*
X11850Y40746*
X11818Y40748*
X11818Y40748*
X11787Y40756*
X11787Y40756*
X11757Y40768*
X11757Y40768*
X11730Y40785*
X11730Y40785*
X11705Y40805*
X11705Y40805*
X11685Y40830*
X11685Y40830*
X11668Y40857*
X11668Y40857*
X11656Y40887*
X11656Y40887*
X11648Y40918*
X11648Y40918*
X11646Y40950*
X11646Y40950*
X11646Y42399*
X11646Y42399*
X11901Y42399*
X11901Y42601*
X11646Y42601*
X11646Y42601*
X11646Y44050*
X11646Y44050*
X11648Y44082*
X11648Y44082*
X11656Y44113*
X11656Y44113*
X11668Y44143*
X11668Y44143*
X11685Y44170*
X11685Y44170*
X11705Y44195*
X11705Y44195*
X11730Y44215*
X11730Y44215*
X11757Y44232*
X11757Y44232*
X11787Y44244*
X11787Y44244*
X11818Y44252*
X11818Y44252*
X11850Y44254*
X11850Y44254*
X13299Y44254*
X13299Y44254*
X13299Y43999*
X13501Y43999*
X13501Y44254*
X13501Y44254*
X14500Y44254*
X14500Y49500*
X0500Y49500*
X0500Y42954*
X0606Y42936*
X0719Y43261*
X0719Y43261*
X0928Y43594*
X0928Y43594*
X1206Y43872*
X1206Y43872*
X1539Y44081*
X1539Y44081*
X1910Y44210*
X1910Y44210*
X2300Y44254*
X2300Y44254*
X2690Y44210*
X2690Y44210*
X3061Y44081*
X3061Y44081*
X3394Y43872*
X3394Y43872*
X3672Y43594*
X3672Y43594*
X3881Y43261*
X3881Y43261*
X4010Y42890*
X4010Y42890*
X4054Y42500*
X4054Y42500*
X4010Y42110*
X4010Y42110*
X3881Y41739*
X3881Y41739*
X3672Y41406*
X3672Y41406*
X3394Y41128*
X3394Y41128*
X3061Y40919*
X3061Y40919*
X2690Y40790*
X2690Y40790*
X2300Y40746*
X2300Y40746*
X1910Y40790*
X1910Y40790*
X1539Y40919*
X1539Y40919*
X1206Y41128*
X1206Y41128*
X0928Y41406*
X0928Y41406*
X0719Y41739*
X0719Y41739*
X0606Y42064*
X0500Y42046*
X0500Y25500*
X14500Y25500*
X14500Y32240*
X8100Y40746D02*
X7710Y40790D01*
X7339Y40920*
X7006Y41129*
X6729Y41406*
X6520Y41739*
X6390Y42110*
X6346Y42500*
X6390Y42890*
X6520Y43261*
X6729Y43594*
X7006Y43871*
X7339Y44080*
X7710Y44210*
X8100Y44254*
X8490Y44210*
X8861Y44080*
X9194Y43871*
X9471Y43594*
X9680Y43261*
X9810Y42890*
X9854Y42500*
X9810Y42110*
X9680Y41739*
X9471Y41406*
X9194Y41129*
X8861Y40920*
X8490Y40790*
X8100Y40746*
X7752Y32107D02*
X7752Y32358D01*
X7548Y32358*
X7548Y32107*
X7371Y32127*
X7106Y32220*
X6868Y32369*
X6669Y32568*
X6520Y32806*
X6427Y33071*
X6407Y33248*
X6651Y33248*
X6651Y33452*
X6407Y33452*
X6427Y33629*
X6520Y33894*
X6669Y34132*
X6868Y34331*
X7106Y34480*
X7371Y34573*
X7548Y34593*
X7548Y34342*
X7752Y34342*
X7752Y34593*
X7929Y34573*
X8194Y34480*
X8432Y34331*
X8631Y34132*
X8780Y33894*
X8873Y33629*
X8893Y33452*
X8649Y33452*
X8649Y33248*
X8893Y33248*
X8873Y33071*
X8780Y32806*
X8631Y32568*
X8432Y32369*
X8194Y32220*
X7929Y32127*
X7752Y32107*
X1898Y32107D02*
X1721Y32127D01*
X1456Y32220*
X1218Y32369*
X1019Y32568*
X0870Y32806*
X0777Y33071*
X0757Y33248*
X1001Y33248*
X1001Y33452*
X0757Y33452*
X0777Y33629*
X0870Y33894*
X1019Y34132*
X1218Y34331*
X1456Y34480*
X1721Y34573*
X1898Y34593*
X1898Y34342*
X2102Y34342*
X2102Y34593*
X2279Y34573*
X2544Y34480*
X2782Y34331*
X2981Y34132*
X3130Y33894*
X3223Y33629*
X3243Y33452*
X2999Y33452*
X2999Y33248*
X3243Y33248*
X3223Y33071*
X3130Y32806*
X2981Y32568*
X2782Y32369*
X2544Y32220*
X2279Y32127*
X2102Y32107*
X2102Y32358*
X1898Y32358*
X1898Y32107*
X11350Y30096D02*
X11071Y30127D01*
X10806Y30220*
X10568Y30369*
X10369Y30568*
X10220Y30806*
X10127Y31071*
X10096Y31350*
X10127Y31629*
X10220Y31894*
X10369Y32132*
X10568Y32331*
X10806Y32480*
X11071Y32573*
X11350Y32604*
X11629Y32573*
X11894Y32480*
X12132Y32331*
X12331Y32132*
X12480Y31894*
X12573Y31629*
X12604Y31350*
X12573Y31071*
X12480Y30806*
X12331Y30568*
X12132Y30369*
X11894Y30220*
X11629Y30127*
X11350Y30096*
X5750Y30096D02*
X5471Y30127D01*
X5206Y30220*
X4968Y30369*
X4769Y30568*
X4620Y30806*
X4527Y31071*
X4496Y31350*
X4527Y31629*
X4620Y31894*
X4769Y32132*
X4968Y32331*
X5206Y32480*
X5471Y32573*
X5750Y32604*
X6029Y32573*
X6294Y32480*
X6532Y32331*
X6731Y32132*
X6880Y31894*
X6973Y31629*
X7004Y31350*
X6973Y31071*
X6880Y30806*
X6731Y30568*
X6532Y30369*
X6294Y30220*
X6029Y30127*
X5750Y30096*
X0500Y25550D02*
X14500Y25550D01*
X0500Y25599D02*
X14500Y25599D01*
X0500Y25649D02*
X14500Y25649D01*
X0500Y25698D02*
X14500Y25698D01*
X0500Y25748D02*
X14500Y25748D01*
X0500Y25797D02*
X14500Y25797D01*
X0500Y25847D02*
X14500Y25847D01*
X0500Y25896D02*
X14500Y25896D01*
X0500Y25946D02*
X14500Y25946D01*
X0500Y25995D02*
X14500Y25995D01*
X0500Y26045D02*
X14500Y26045D01*
X0500Y26094D02*
X14500Y26094D01*
X0500Y26144D02*
X14500Y26144D01*
X0500Y26193D02*
X14500Y26193D01*
X0500Y26243D02*
X14500Y26243D01*
X0500Y26292D02*
X14500Y26292D01*
X0500Y26342D02*
X14500Y26342D01*
X0500Y26392D02*
X14500Y26392D01*
X0500Y26441D02*
X14500Y26441D01*
X0500Y26491D02*
X14500Y26491D01*
X0500Y26540D02*
X14500Y26540D01*
X0500Y26590D02*
X14500Y26590D01*
X0500Y26639D02*
X14500Y26639D01*
X0500Y26689D02*
X14500Y26689D01*
X0500Y26738D02*
X14500Y26738D01*
X0500Y26788D02*
X14500Y26788D01*
X0500Y26837D02*
X14500Y26837D01*
X0500Y26887D02*
X14500Y26887D01*
X0500Y26936D02*
X14500Y26936D01*
X0500Y26986D02*
X14500Y26986D01*
X0500Y27035D02*
X14500Y27035D01*
X0500Y27085D02*
X14500Y27085D01*
X0500Y27134D02*
X14500Y27134D01*
X0500Y27184D02*
X14500Y27184D01*
X0500Y27234D02*
X14500Y27234D01*
X0500Y27283D02*
X14500Y27283D01*
X0500Y27333D02*
X14500Y27333D01*
X0500Y27382D02*
X14500Y27382D01*
X0500Y27432D02*
X14500Y27432D01*
X0500Y27481D02*
X14500Y27481D01*
X0500Y27531D02*
X14500Y27531D01*
X0500Y27580D02*
X14500Y27580D01*
X0500Y27630D02*
X14500Y27630D01*
X0500Y27679D02*
X14500Y27679D01*
X0500Y27729D02*
X14500Y27729D01*
X0500Y27778D02*
X14500Y27778D01*
X0500Y27828D02*
X14500Y27828D01*
X0500Y27877D02*
X14500Y27877D01*
X0500Y27927D02*
X14500Y27927D01*
X0500Y27977D02*
X14500Y27977D01*
X0500Y28026D02*
X14500Y28026D01*
X0500Y28076D02*
X14500Y28076D01*
X0500Y28125D02*
X14500Y28125D01*
X0500Y28175D02*
X14500Y28175D01*
X0500Y28224D02*
X14500Y28224D01*
X0500Y28274D02*
X14500Y28274D01*
X0500Y28323D02*
X14500Y28323D01*
X0500Y28373D02*
X14500Y28373D01*
X0500Y28422D02*
X14500Y28422D01*
X0500Y28472D02*
X14500Y28472D01*
X0500Y28521D02*
X14500Y28521D01*
X0500Y28571D02*
X14500Y28571D01*
X0500Y28620D02*
X14500Y28620D01*
X0500Y28670D02*
X14500Y28670D01*
X0500Y28719D02*
X14500Y28719D01*
X0500Y28769D02*
X14500Y28769D01*
X0500Y28819D02*
X14500Y28819D01*
X0500Y28868D02*
X14500Y28868D01*
X0500Y28918D02*
X14500Y28918D01*
X0500Y28967D02*
X14500Y28967D01*
X0500Y29017D02*
X14500Y29017D01*
X0500Y29066D02*
X14500Y29066D01*
X0500Y29116D02*
X14500Y29116D01*
X0500Y29165D02*
X14500Y29165D01*
X0500Y29215D02*
X14500Y29215D01*
X0500Y29264D02*
X14500Y29264D01*
X0500Y29314D02*
X14500Y29314D01*
X0500Y29363D02*
X14500Y29363D01*
X0500Y29413D02*
X14500Y29413D01*
X0500Y29462D02*
X14500Y29462D01*
X0500Y29512D02*
X14500Y29512D01*
X0500Y29561D02*
X14500Y29561D01*
X0500Y29611D02*
X14500Y29611D01*
X0500Y29661D02*
X14500Y29661D01*
X0500Y29710D02*
X14500Y29710D01*
X0500Y29760D02*
X14500Y29760D01*
X0500Y29809D02*
X14500Y29809D01*
X0500Y29859D02*
X14500Y29859D01*
X0500Y29908D02*
X14500Y29908D01*
X0500Y29958D02*
X14500Y29958D01*
X0500Y30007D02*
X14500Y30007D01*
X0500Y30057D02*
X14500Y30057D01*
X0500Y30106D02*
X5655Y30106D01*
X5845Y30106D02*
X11255Y30106D01*
X11445Y30106D02*
X14500Y30106D01*
X0500Y30156D02*
X5388Y30156D01*
X6112Y30156D02*
X10988Y30156D01*
X11712Y30156D02*
X14500Y30156D01*
X0500Y30205D02*
X5247Y30205D01*
X6253Y30205D02*
X10847Y30205D01*
X11853Y30205D02*
X14500Y30205D01*
X0500Y30255D02*
X5150Y30255D01*
X6350Y30255D02*
X10750Y30255D01*
X11950Y30255D02*
X14500Y30255D01*
X0500Y30304D02*
X5071Y30304D01*
X6429Y30304D02*
X10671Y30304D01*
X12029Y30304D02*
X14500Y30304D01*
X0500Y30354D02*
X4992Y30354D01*
X6508Y30354D02*
X10592Y30354D01*
X12108Y30354D02*
X14500Y30354D01*
X0500Y30403D02*
X4934Y30403D01*
X6566Y30403D02*
X10534Y30403D01*
X12166Y30403D02*
X14500Y30403D01*
X0500Y30453D02*
X4884Y30453D01*
X6616Y30453D02*
X10484Y30453D01*
X12216Y30453D02*
X14500Y30453D01*
X0500Y30503D02*
X4835Y30503D01*
X6665Y30503D02*
X10435Y30503D01*
X12265Y30503D02*
X14500Y30503D01*
X0500Y30552D02*
X4785Y30552D01*
X6715Y30552D02*
X10385Y30552D01*
X12315Y30552D02*
X14500Y30552D01*
X0500Y30602D02*
X4748Y30602D01*
X6752Y30602D02*
X10348Y30602D01*
X12352Y30602D02*
X14500Y30602D01*
X0500Y30651D02*
X4717Y30651D01*
X6783Y30651D02*
X10317Y30651D01*
X12383Y30651D02*
X14500Y30651D01*
X0500Y30701D02*
X4686Y30701D01*
X6814Y30701D02*
X10286Y30701D01*
X12414Y30701D02*
X14500Y30701D01*
X0500Y30750D02*
X4655Y30750D01*
X6845Y30750D02*
X10255Y30750D01*
X12445Y30750D02*
X14500Y30750D01*
X0500Y30800D02*
X4624Y30800D01*
X6876Y30800D02*
X10224Y30800D01*
X12476Y30800D02*
X14500Y30800D01*
X0500Y30849D02*
X4605Y30849D01*
X6895Y30849D02*
X10205Y30849D01*
X12495Y30849D02*
X14500Y30849D01*
X0500Y30899D02*
X4587Y30899D01*
X6913Y30899D02*
X10187Y30899D01*
X12513Y30899D02*
X14500Y30899D01*
X0500Y30948D02*
X4570Y30948D01*
X6930Y30948D02*
X10170Y30948D01*
X12530Y30948D02*
X14500Y30948D01*
X0500Y30998D02*
X4553Y30998D01*
X6947Y30998D02*
X10153Y30998D01*
X12547Y30998D02*
X14500Y30998D01*
X0500Y31047D02*
X4535Y31047D01*
X6965Y31047D02*
X10135Y31047D01*
X12565Y31047D02*
X14500Y31047D01*
X0500Y31097D02*
X4524Y31097D01*
X6976Y31097D02*
X10124Y31097D01*
X12576Y31097D02*
X14500Y31097D01*
X0500Y31146D02*
X4518Y31146D01*
X6982Y31146D02*
X10118Y31146D01*
X12582Y31146D02*
X14500Y31146D01*
X0500Y31196D02*
X4513Y31196D01*
X6987Y31196D02*
X10113Y31196D01*
X12587Y31196D02*
X14500Y31196D01*
X0500Y31245D02*
X4507Y31245D01*
X6993Y31245D02*
X10107Y31245D01*
X12593Y31245D02*
X14500Y31245D01*
X0500Y31295D02*
X4502Y31295D01*
X6998Y31295D02*
X10102Y31295D01*
X12598Y31295D02*
X14500Y31295D01*
X0500Y31345D02*
X4496Y31345D01*
X7004Y31345D02*
X10096Y31345D01*
X12604Y31345D02*
X14500Y31345D01*
X0500Y31394D02*
X4501Y31394D01*
X6999Y31394D02*
X10101Y31394D01*
X12599Y31394D02*
X14500Y31394D01*
X0500Y31444D02*
X4506Y31444D01*
X6994Y31444D02*
X10106Y31444D01*
X12594Y31444D02*
X14500Y31444D01*
X0500Y31493D02*
X4512Y31493D01*
X6988Y31493D02*
X10112Y31493D01*
X12588Y31493D02*
X14500Y31493D01*
X0500Y31543D02*
X4517Y31543D01*
X6983Y31543D02*
X10117Y31543D01*
X12583Y31543D02*
X14500Y31543D01*
X0500Y31592D02*
X4523Y31592D01*
X6977Y31592D02*
X10123Y31592D01*
X12577Y31592D02*
X14500Y31592D01*
X0500Y31642D02*
X4531Y31642D01*
X6969Y31642D02*
X10131Y31642D01*
X12569Y31642D02*
X14500Y31642D01*
X0500Y31691D02*
X4549Y31691D01*
X6951Y31691D02*
X10149Y31691D01*
X12551Y31691D02*
X14500Y31691D01*
X0500Y31741D02*
X4566Y31741D01*
X6934Y31741D02*
X10166Y31741D01*
X12534Y31741D02*
X14500Y31741D01*
X0500Y31790D02*
X4583Y31790D01*
X6917Y31790D02*
X10183Y31790D01*
X12517Y31790D02*
X14500Y31790D01*
X0500Y31840D02*
X4601Y31840D01*
X6899Y31840D02*
X10201Y31840D01*
X12499Y31840D02*
X14500Y31840D01*
X0500Y31889D02*
X4618Y31889D01*
X6882Y31889D02*
X10218Y31889D01*
X12482Y31889D02*
X14500Y31889D01*
X0500Y31939D02*
X4648Y31939D01*
X6852Y31939D02*
X10248Y31939D01*
X12452Y31939D02*
X14500Y31939D01*
X0500Y31988D02*
X4679Y31988D01*
X6821Y31988D02*
X10279Y31988D01*
X12421Y31988D02*
X14500Y31988D01*
X0500Y32038D02*
X4710Y32038D01*
X6790Y32038D02*
X10310Y32038D01*
X12390Y32038D02*
X14500Y32038D01*
X0500Y32087D02*
X4741Y32087D01*
X6759Y32087D02*
X10341Y32087D01*
X12359Y32087D02*
X14500Y32087D01*
X0500Y32137D02*
X1692Y32137D01*
X1899Y32137D02*
X2101Y32137D01*
X2308Y32137D02*
X4774Y32137D01*
X6726Y32137D02*
X7342Y32137D01*
X7549Y32137D02*
X7751Y32137D01*
X7958Y32137D02*
X10374Y32137D01*
X12326Y32137D02*
X13493Y32137D01*
X13698Y32137D02*
X13902Y32137D01*
X14107Y32137D02*
X14500Y32137D01*
X0500Y32187D02*
X1551Y32187D01*
X1899Y32187D02*
X2101Y32187D01*
X2449Y32187D02*
X4824Y32187D01*
X6676Y32187D02*
X7201Y32187D01*
X7549Y32187D02*
X7751Y32187D01*
X8099Y32187D02*
X10424Y32187D01*
X12276Y32187D02*
X13351Y32187D01*
X13698Y32187D02*
X13902Y32187D01*
X14249Y32187D02*
X14500Y32187D01*
X0500Y32236D02*
X1430Y32236D01*
X1899Y32236D02*
X2101Y32236D01*
X2570Y32236D02*
X4873Y32236D01*
X6627Y32236D02*
X7080Y32236D01*
X7549Y32236D02*
X7751Y32236D01*
X8220Y32236D02*
X10473Y32236D01*
X12227Y32236D02*
X13230Y32236D01*
X13698Y32236D02*
X13902Y32236D01*
X14370Y32236D02*
X14500Y32236D01*
X0500Y32286D02*
X1351Y32286D01*
X1899Y32286D02*
X2101Y32286D01*
X2649Y32286D02*
X4923Y32286D01*
X6577Y32286D02*
X7001Y32286D01*
X7549Y32286D02*
X7751Y32286D01*
X8299Y32286D02*
X10523Y32286D01*
X12177Y32286D02*
X13151Y32286D01*
X13698Y32286D02*
X13902Y32286D01*
X0500Y32335D02*
X1272Y32335D01*
X1899Y32335D02*
X2101Y32335D01*
X2728Y32335D02*
X4975Y32335D01*
X6525Y32335D02*
X6922Y32335D01*
X7549Y32335D02*
X7751Y32335D01*
X8378Y32335D02*
X10575Y32335D01*
X12125Y32335D02*
X13073Y32335D01*
X13698Y32335D02*
X13902Y32335D01*
X0500Y32385D02*
X1202Y32385D01*
X2798Y32385D02*
X5054Y32385D01*
X6446Y32385D02*
X6852Y32385D01*
X8448Y32385D02*
X10654Y32385D01*
X12046Y32385D02*
X13003Y32385D01*
X0500Y32434D02*
X1153Y32434D01*
X2847Y32434D02*
X5132Y32434D01*
X6368Y32434D02*
X6803Y32434D01*
X8497Y32434D02*
X10732Y32434D01*
X11968Y32434D02*
X12953Y32434D01*
X0500Y32484D02*
X1103Y32484D01*
X2897Y32484D02*
X5216Y32484D01*
X6284Y32484D02*
X6753Y32484D01*
X8547Y32484D02*
X10816Y32484D01*
X11884Y32484D02*
X12904Y32484D01*
X0500Y32533D02*
X1054Y32533D01*
X2946Y32533D02*
X5357Y32533D01*
X6143Y32533D02*
X6704Y32533D01*
X8596Y32533D02*
X10957Y32533D01*
X11743Y32533D02*
X12854Y32533D01*
X0500Y32583D02*
X1010Y32583D01*
X2990Y32583D02*
X5558Y32583D01*
X5942Y32583D02*
X6660Y32583D01*
X8640Y32583D02*
X11158Y32583D01*
X11542Y32583D02*
X12810Y32583D01*
X0500Y32632D02*
X0979Y32632D01*
X3021Y32632D02*
X6629Y32632D01*
X8671Y32632D02*
X12779Y32632D01*
X0500Y32682D02*
X0948Y32682D01*
X3052Y32682D02*
X6598Y32682D01*
X8702Y32682D02*
X12748Y32682D01*
X0500Y32731D02*
X0916Y32731D01*
X3084Y32731D02*
X6566Y32731D01*
X8734Y32731D02*
X12717Y32731D01*
X0500Y32781D02*
X0885Y32781D01*
X3115Y32781D02*
X6535Y32781D01*
X8765Y32781D02*
X12686Y32781D01*
X0500Y32830D02*
X0861Y32830D01*
X3139Y32830D02*
X6511Y32830D01*
X8789Y32830D02*
X12661Y32830D01*
X0500Y32880D02*
X0844Y32880D01*
X3156Y32880D02*
X6494Y32880D01*
X8806Y32880D02*
X12644Y32880D01*
X0500Y32929D02*
X0826Y32929D01*
X3174Y32929D02*
X6476Y32929D01*
X8824Y32929D02*
X12627Y32929D01*
X0500Y32979D02*
X0809Y32979D01*
X3191Y32979D02*
X6459Y32979D01*
X8841Y32979D02*
X12609Y32979D01*
X0500Y33029D02*
X0792Y33029D01*
X3208Y33029D02*
X6442Y33029D01*
X8858Y33029D02*
X12592Y33029D01*
X0500Y33078D02*
X0776Y33078D01*
X3224Y33078D02*
X6426Y33078D01*
X8874Y33078D02*
X12576Y33078D01*
X0500Y33128D02*
X0771Y33128D01*
X3229Y33128D02*
X6421Y33128D01*
X8879Y33128D02*
X12571Y33128D01*
X0500Y33177D02*
X0765Y33177D01*
X3235Y33177D02*
X6415Y33177D01*
X8885Y33177D02*
X12565Y33177D01*
X0500Y33227D02*
X0759Y33227D01*
X3241Y33227D02*
X6409Y33227D01*
X8891Y33227D02*
X12560Y33227D01*
X0500Y33276D02*
X1001Y33276D01*
X2999Y33276D02*
X6651Y33276D01*
X8649Y33276D02*
X12801Y33276D01*
X0500Y33326D02*
X1001Y33326D01*
X2999Y33326D02*
X6651Y33326D01*
X8649Y33326D02*
X12801Y33326D01*
X0500Y33375D02*
X1001Y33375D01*
X2999Y33375D02*
X6651Y33375D01*
X8649Y33375D02*
X12801Y33375D01*
X0500Y33425D02*
X1001Y33425D01*
X2999Y33425D02*
X6651Y33425D01*
X8649Y33425D02*
X12801Y33425D01*
X0500Y33474D02*
X0760Y33474D01*
X3240Y33474D02*
X6410Y33474D01*
X8890Y33474D02*
X12560Y33474D01*
X0500Y33524D02*
X0765Y33524D01*
X3235Y33524D02*
X6415Y33524D01*
X8885Y33524D02*
X12565Y33524D01*
X0500Y33573D02*
X0771Y33573D01*
X3229Y33573D02*
X6421Y33573D01*
X8879Y33573D02*
X12571Y33573D01*
X0500Y33623D02*
X0776Y33623D01*
X3224Y33623D02*
X6426Y33623D01*
X8874Y33623D02*
X12577Y33623D01*
X0500Y33672D02*
X0792Y33672D01*
X3208Y33672D02*
X6442Y33672D01*
X8858Y33672D02*
X12592Y33672D01*
X0500Y33722D02*
X0809Y33722D01*
X3191Y33722D02*
X6459Y33722D01*
X8841Y33722D02*
X12610Y33722D01*
X0500Y33772D02*
X0827Y33772D01*
X3173Y33772D02*
X6477Y33772D01*
X8823Y33772D02*
X12627Y33772D01*
X0500Y33821D02*
X0844Y33821D01*
X3156Y33821D02*
X6494Y33821D01*
X8806Y33821D02*
X12644Y33821D01*
X0500Y33871D02*
X0861Y33871D01*
X3139Y33871D02*
X6511Y33871D01*
X8789Y33871D02*
X12662Y33871D01*
X0500Y33920D02*
X0886Y33920D01*
X3114Y33920D02*
X6536Y33920D01*
X8764Y33920D02*
X12686Y33920D01*
X0500Y33970D02*
X0917Y33970D01*
X3083Y33970D02*
X6567Y33970D01*
X8733Y33970D02*
X12717Y33970D01*
X0500Y34019D02*
X0948Y34019D01*
X3052Y34019D02*
X6598Y34019D01*
X8702Y34019D02*
X12749Y34019D01*
X0500Y34069D02*
X0979Y34069D01*
X3021Y34069D02*
X6629Y34069D01*
X8671Y34069D02*
X12780Y34069D01*
X0500Y34118D02*
X1010Y34118D01*
X2990Y34118D02*
X6660Y34118D01*
X8640Y34118D02*
X12811Y34118D01*
X0500Y34168D02*
X1055Y34168D01*
X2945Y34168D02*
X6705Y34168D01*
X8595Y34168D02*
X12855Y34168D01*
X0500Y34217D02*
X1104Y34217D01*
X2896Y34217D02*
X6754Y34217D01*
X8546Y34217D02*
X12905Y34217D01*
X0500Y34267D02*
X1154Y34267D01*
X2846Y34267D02*
X6804Y34267D01*
X8496Y34267D02*
X12954Y34267D01*
X0500Y34316D02*
X1203Y34316D01*
X2797Y34316D02*
X6853Y34316D01*
X8447Y34316D02*
X13004Y34316D01*
X0500Y34366D02*
X1274Y34366D01*
X1899Y34366D02*
X2101Y34366D01*
X2726Y34366D02*
X6924Y34366D01*
X7549Y34366D02*
X7751Y34366D01*
X8376Y34366D02*
X13074Y34366D01*
X13698Y34366D02*
X13902Y34366D01*
X0500Y34415D02*
X1353Y34415D01*
X1899Y34415D02*
X2101Y34415D01*
X2647Y34415D02*
X7003Y34415D01*
X7549Y34415D02*
X7751Y34415D01*
X8297Y34415D02*
X13153Y34415D01*
X13698Y34415D02*
X13902Y34415D01*
X0500Y34465D02*
X1431Y34465D01*
X1899Y34465D02*
X2101Y34465D01*
X2569Y34465D02*
X7081Y34465D01*
X7549Y34465D02*
X7751Y34465D01*
X8219Y34465D02*
X13232Y34465D01*
X13698Y34465D02*
X13902Y34465D01*
X14368Y34465D02*
X14500Y34465D01*
X0500Y34514D02*
X1554Y34514D01*
X1899Y34514D02*
X2101Y34514D01*
X2446Y34514D02*
X7204Y34514D01*
X7549Y34514D02*
X7751Y34514D01*
X8096Y34514D02*
X13354Y34514D01*
X13698Y34514D02*
X13902Y34514D01*
X14246Y34514D02*
X14500Y34514D01*
X0500Y34564D02*
X1695Y34564D01*
X1899Y34564D02*
X2101Y34564D01*
X2305Y34564D02*
X7345Y34564D01*
X7549Y34564D02*
X7751Y34564D01*
X7955Y34564D02*
X13496Y34564D01*
X13698Y34564D02*
X13902Y34564D01*
X14104Y34564D02*
X14500Y34564D01*
X0500Y34614D02*
X14500Y34614D01*
X0500Y34663D02*
X14500Y34663D01*
X0500Y34713D02*
X14500Y34713D01*
X0500Y34762D02*
X14500Y34762D01*
X0500Y34812D02*
X14500Y34812D01*
X0500Y34861D02*
X14500Y34861D01*
X0500Y34911D02*
X14500Y34911D01*
X0500Y34960D02*
X14500Y34960D01*
X0500Y35010D02*
X14500Y35010D01*
X0500Y35059D02*
X14500Y35059D01*
X0500Y35109D02*
X14500Y35109D01*
X0500Y35158D02*
X14500Y35158D01*
X0500Y35208D02*
X14500Y35208D01*
X0500Y35257D02*
X14500Y35257D01*
X0500Y35307D02*
X14500Y35307D01*
X0500Y35356D02*
X14500Y35356D01*
X0500Y35406D02*
X14500Y35406D01*
X0500Y35456D02*
X14500Y35456D01*
X0500Y35505D02*
X14500Y35505D01*
X0500Y35555D02*
X14500Y35555D01*
X0500Y35604D02*
X14500Y35604D01*
X0500Y35654D02*
X14500Y35654D01*
X0500Y35703D02*
X14500Y35703D01*
X0500Y35753D02*
X14500Y35753D01*
X0500Y35802D02*
X14500Y35802D01*
X0500Y35852D02*
X14500Y35852D01*
X0500Y35901D02*
X14500Y35901D01*
X0500Y35951D02*
X14500Y35951D01*
X0500Y36000D02*
X14500Y36000D01*
X0500Y36050D02*
X14500Y36050D01*
X0500Y36099D02*
X14500Y36099D01*
X0500Y36149D02*
X14500Y36149D01*
X0500Y36198D02*
X14500Y36198D01*
X0500Y36248D02*
X14500Y36248D01*
X0500Y36298D02*
X14500Y36298D01*
X0500Y36347D02*
X14500Y36347D01*
X0500Y36397D02*
X14500Y36397D01*
X0500Y36446D02*
X14500Y36446D01*
X0500Y36496D02*
X14500Y36496D01*
X0500Y36545D02*
X14500Y36545D01*
X0500Y36595D02*
X14500Y36595D01*
X0500Y36644D02*
X14500Y36644D01*
X0500Y36694D02*
X14500Y36694D01*
X0500Y36743D02*
X14500Y36743D01*
X0500Y36793D02*
X14500Y36793D01*
X0500Y36842D02*
X14500Y36842D01*
X0500Y36892D02*
X14500Y36892D01*
X0500Y36941D02*
X14500Y36941D01*
X0500Y36991D02*
X14500Y36991D01*
X0500Y37040D02*
X14500Y37040D01*
X0500Y37090D02*
X14500Y37090D01*
X0500Y37140D02*
X14500Y37140D01*
X0500Y37189D02*
X14500Y37189D01*
X0500Y37239D02*
X14500Y37239D01*
X0500Y37288D02*
X14500Y37288D01*
X0500Y37338D02*
X14500Y37338D01*
X0500Y37387D02*
X14500Y37387D01*
X0500Y37437D02*
X14500Y37437D01*
X0500Y37486D02*
X14500Y37486D01*
X0500Y37536D02*
X14500Y37536D01*
X0500Y37585D02*
X14500Y37585D01*
X0500Y37635D02*
X14500Y37635D01*
X0500Y37684D02*
X14500Y37684D01*
X0500Y37734D02*
X14500Y37734D01*
X0500Y37783D02*
X14500Y37783D01*
X0500Y37833D02*
X14500Y37833D01*
X0500Y37883D02*
X14500Y37883D01*
X0500Y37932D02*
X14500Y37932D01*
X0500Y37982D02*
X14500Y37982D01*
X0500Y38031D02*
X14500Y38031D01*
X0500Y38081D02*
X14500Y38081D01*
X0500Y38130D02*
X14500Y38130D01*
X0500Y38180D02*
X14500Y38180D01*
X0500Y38229D02*
X14500Y38229D01*
X0500Y38279D02*
X14500Y38279D01*
X0500Y38328D02*
X14500Y38328D01*
X0500Y38378D02*
X14500Y38378D01*
X0500Y38427D02*
X14500Y38427D01*
X0500Y38477D02*
X14500Y38477D01*
X0500Y38526D02*
X14500Y38526D01*
X0500Y38576D02*
X14500Y38576D01*
X0500Y38625D02*
X14500Y38625D01*
X0500Y38675D02*
X14500Y38675D01*
X0500Y38725D02*
X14500Y38725D01*
X0500Y38774D02*
X14500Y38774D01*
X0500Y38824D02*
X14500Y38824D01*
X0500Y38873D02*
X14500Y38873D01*
X0500Y38923D02*
X14500Y38923D01*
X0500Y38972D02*
X14500Y38972D01*
X0500Y39022D02*
X14500Y39022D01*
X0500Y39071D02*
X14500Y39071D01*
X0500Y39121D02*
X14500Y39121D01*
X0500Y39170D02*
X14500Y39170D01*
X0500Y39220D02*
X14500Y39220D01*
X0500Y39269D02*
X14500Y39269D01*
X0500Y39319D02*
X14500Y39319D01*
X0500Y39368D02*
X14500Y39368D01*
X0500Y39418D02*
X14500Y39418D01*
X0500Y39467D02*
X14500Y39467D01*
X0500Y39517D02*
X14500Y39517D01*
X0500Y39567D02*
X14500Y39567D01*
X0500Y39616D02*
X14500Y39616D01*
X0500Y39666D02*
X14500Y39666D01*
X0500Y39715D02*
X14500Y39715D01*
X0500Y39765D02*
X14500Y39765D01*
X0500Y39814D02*
X14500Y39814D01*
X0500Y39864D02*
X14500Y39864D01*
X0500Y39913D02*
X14500Y39913D01*
X0500Y39963D02*
X14500Y39963D01*
X0500Y40012D02*
X14500Y40012D01*
X0500Y40062D02*
X14500Y40062D01*
X0500Y40111D02*
X14500Y40111D01*
X0500Y40161D02*
X14500Y40161D01*
X0500Y40210D02*
X14500Y40210D01*
X0500Y40260D02*
X14500Y40260D01*
X0500Y40309D02*
X14500Y40309D01*
X0500Y40359D02*
X14500Y40359D01*
X0500Y40409D02*
X14500Y40409D01*
X0500Y40458D02*
X14500Y40458D01*
X0500Y40508D02*
X14500Y40508D01*
X0500Y40557D02*
X14500Y40557D01*
X0500Y40607D02*
X14500Y40607D01*
X0500Y40656D02*
X14500Y40656D01*
X0500Y40706D02*
X14500Y40706D01*
X0500Y40755D02*
X2216Y40755D01*
X2384Y40755D02*
X8014Y40755D01*
X8186Y40755D02*
X11789Y40755D01*
X13298Y40755D02*
X13502Y40755D01*
X0500Y40805D02*
X1867Y40805D01*
X2733Y40805D02*
X7666Y40805D01*
X8534Y40805D02*
X11707Y40805D01*
X13298Y40805D02*
X13502Y40805D01*
X0500Y40854D02*
X1725Y40854D01*
X2875Y40854D02*
X7524Y40854D01*
X8675Y40854D02*
X11670Y40854D01*
X13298Y40854D02*
X13502Y40854D01*
X0500Y40904D02*
X1584Y40904D01*
X3016Y40904D02*
X7383Y40904D01*
X8817Y40904D02*
X11652Y40904D01*
X13298Y40904D02*
X13502Y40904D01*
X0500Y40953D02*
X1485Y40953D01*
X3115Y40953D02*
X7285Y40953D01*
X8915Y40953D02*
X11646Y40953D01*
X13298Y40953D02*
X13502Y40953D01*
X0500Y41003D02*
X1406Y41003D01*
X3194Y41003D02*
X7206Y41003D01*
X8994Y41003D02*
X11646Y41003D01*
X0500Y41052D02*
X1327Y41052D01*
X3273Y41052D02*
X7127Y41052D01*
X9073Y41052D02*
X11646Y41052D01*
X0500Y41102D02*
X1249Y41102D01*
X3351Y41102D02*
X7048Y41102D01*
X9152Y41102D02*
X11646Y41102D01*
X0500Y41151D02*
X1183Y41151D01*
X3417Y41151D02*
X6983Y41151D01*
X9217Y41151D02*
X11646Y41151D01*
X0500Y41201D02*
X1134Y41201D01*
X3466Y41201D02*
X6933Y41201D01*
X9267Y41201D02*
X11646Y41201D01*
X0500Y41251D02*
X1084Y41251D01*
X3516Y41251D02*
X6884Y41251D01*
X9316Y41251D02*
X11646Y41251D01*
X0500Y41300D02*
X1035Y41300D01*
X3565Y41300D02*
X6834Y41300D01*
X9366Y41300D02*
X11646Y41300D01*
X0500Y41350D02*
X0985Y41350D01*
X3615Y41350D02*
X6785Y41350D01*
X9415Y41350D02*
X11646Y41350D01*
X0500Y41399D02*
X0936Y41399D01*
X3664Y41399D02*
X6735Y41399D01*
X9465Y41399D02*
X11646Y41399D01*
X0500Y41449D02*
X0902Y41449D01*
X3698Y41449D02*
X6702Y41449D01*
X9498Y41449D02*
X11646Y41449D01*
X0500Y41498D02*
X0871Y41498D01*
X3729Y41498D02*
X6670Y41498D01*
X9530Y41498D02*
X11646Y41498D01*
X0500Y41548D02*
X0840Y41548D01*
X3760Y41548D02*
X6639Y41548D01*
X9561Y41548D02*
X11646Y41548D01*
X0500Y41597D02*
X0809Y41597D01*
X3791Y41597D02*
X6608Y41597D01*
X9592Y41597D02*
X11646Y41597D01*
X0500Y41647D02*
X0777Y41647D01*
X3823Y41647D02*
X6577Y41647D01*
X9623Y41647D02*
X11646Y41647D01*
X0500Y41696D02*
X0746Y41696D01*
X3854Y41696D02*
X6546Y41696D01*
X9654Y41696D02*
X11646Y41696D01*
X0500Y41746D02*
X0717Y41746D01*
X3883Y41746D02*
X6517Y41746D01*
X9683Y41746D02*
X11646Y41746D01*
X0500Y41795D02*
X0700Y41795D01*
X3900Y41795D02*
X6499Y41795D01*
X9701Y41795D02*
X11646Y41795D01*
X0500Y41845D02*
X0682Y41845D01*
X3918Y41845D02*
X6482Y41845D01*
X9718Y41845D02*
X11646Y41845D01*
X0500Y41894D02*
X0665Y41894D01*
X3935Y41894D02*
X6465Y41894D01*
X9735Y41894D02*
X11646Y41894D01*
X0500Y41944D02*
X0648Y41944D01*
X3952Y41944D02*
X6447Y41944D01*
X9753Y41944D02*
X11646Y41944D01*
X0500Y41993D02*
X0630Y41993D01*
X3970Y41993D02*
X6430Y41993D01*
X9770Y41993D02*
X11646Y41993D01*
X0500Y42043D02*
X0613Y42043D01*
X3987Y42043D02*
X6413Y42043D01*
X9787Y42043D02*
X11646Y42043D01*
X4004Y42093D02*
X6395Y42093D01*
X9805Y42093D02*
X11646Y42093D01*
X4014Y42142D02*
X6386Y42142D01*
X9814Y42142D02*
X11646Y42142D01*
X4019Y42192D02*
X6380Y42192D01*
X9820Y42192D02*
X11646Y42192D01*
X4025Y42241D02*
X6375Y42241D01*
X9825Y42241D02*
X11646Y42241D01*
X4031Y42291D02*
X6369Y42291D01*
X9831Y42291D02*
X11646Y42291D01*
X4036Y42340D02*
X6364Y42340D01*
X9836Y42340D02*
X11646Y42340D01*
X4042Y42390D02*
X6358Y42390D01*
X9842Y42390D02*
X11646Y42390D01*
X4047Y42439D02*
X6352Y42439D01*
X9848Y42439D02*
X11901Y42439D01*
X4053Y42489D02*
X6347Y42489D01*
X9853Y42489D02*
X11901Y42489D01*
X4050Y42538D02*
X6350Y42538D01*
X9850Y42538D02*
X11901Y42538D01*
X4044Y42588D02*
X6355Y42588D01*
X9845Y42588D02*
X11901Y42588D01*
X4039Y42637D02*
X6361Y42637D01*
X9839Y42637D02*
X11646Y42637D01*
X4033Y42687D02*
X6367Y42687D01*
X9833Y42687D02*
X11646Y42687D01*
X4028Y42736D02*
X6372Y42736D01*
X9828Y42736D02*
X11646Y42736D01*
X4022Y42786D02*
X6378Y42786D01*
X9822Y42786D02*
X11646Y42786D01*
X4016Y42836D02*
X6383Y42836D01*
X9817Y42836D02*
X11646Y42836D01*
X4011Y42885D02*
X6389Y42885D01*
X9811Y42885D02*
X11646Y42885D01*
X3995Y42935D02*
X6405Y42935D01*
X9795Y42935D02*
X11646Y42935D01*
X0500Y42984D02*
X0623Y42984D01*
X3977Y42984D02*
X6422Y42984D01*
X9778Y42984D02*
X11646Y42984D01*
X0500Y43034D02*
X0640Y43034D01*
X3960Y43034D02*
X6440Y43034D01*
X9760Y43034D02*
X11646Y43034D01*
X0500Y43083D02*
X0657Y43083D01*
X3943Y43083D02*
X6457Y43083D01*
X9743Y43083D02*
X11646Y43083D01*
X0500Y43133D02*
X0675Y43133D01*
X3925Y43133D02*
X6474Y43133D01*
X9726Y43133D02*
X11646Y43133D01*
X0500Y43182D02*
X0692Y43182D01*
X3908Y43182D02*
X6492Y43182D01*
X9708Y43182D02*
X11646Y43182D01*
X0500Y43232D02*
X0709Y43232D01*
X3891Y43232D02*
X6509Y43232D01*
X9691Y43232D02*
X11646Y43232D01*
X0500Y43281D02*
X0732Y43281D01*
X3868Y43281D02*
X6532Y43281D01*
X9668Y43281D02*
X11646Y43281D01*
X0500Y43331D02*
X0763Y43331D01*
X3837Y43331D02*
X6563Y43331D01*
X9637Y43331D02*
X11646Y43331D01*
X0500Y43380D02*
X0794Y43380D01*
X3806Y43380D02*
X6594Y43380D01*
X9606Y43380D02*
X11646Y43380D01*
X0500Y43430D02*
X0826Y43430D01*
X3774Y43430D02*
X6625Y43430D01*
X9575Y43430D02*
X11646Y43430D01*
X0500Y43479D02*
X0857Y43479D01*
X3743Y43479D02*
X6656Y43479D01*
X9544Y43479D02*
X11646Y43479D01*
X0500Y43529D02*
X0888Y43529D01*
X3712Y43529D02*
X6687Y43529D01*
X9513Y43529D02*
X11646Y43529D01*
X0500Y43578D02*
X0919Y43578D01*
X3681Y43578D02*
X6719Y43578D01*
X9481Y43578D02*
X11646Y43578D01*
X0500Y43628D02*
X0963Y43628D01*
X3637Y43628D02*
X6762Y43628D01*
X9438Y43628D02*
X11646Y43628D01*
X0500Y43678D02*
X1012Y43678D01*
X3588Y43678D02*
X6812Y43678D01*
X9388Y43678D02*
X11646Y43678D01*
X0500Y43727D02*
X1062Y43727D01*
X3538Y43727D02*
X6861Y43727D01*
X9339Y43727D02*
X11646Y43727D01*
X0500Y43777D02*
X1111Y43777D01*
X3489Y43777D02*
X6911Y43777D01*
X9289Y43777D02*
X11646Y43777D01*
X0500Y43826D02*
X1161Y43826D01*
X3439Y43826D02*
X6961Y43826D01*
X9239Y43826D02*
X11646Y43826D01*
X0500Y43876D02*
X1213Y43876D01*
X3387Y43876D02*
X7012Y43876D01*
X9188Y43876D02*
X11646Y43876D01*
X0500Y43925D02*
X1292Y43925D01*
X3308Y43925D02*
X7091Y43925D01*
X9109Y43925D02*
X11646Y43925D01*
X0500Y43975D02*
X1371Y43975D01*
X3229Y43975D02*
X7170Y43975D01*
X9030Y43975D02*
X11646Y43975D01*
X0500Y44024D02*
X1449Y44024D01*
X3151Y44024D02*
X7249Y44024D01*
X8951Y44024D02*
X11646Y44024D01*
X13298Y44024D02*
X13502Y44024D01*
X0500Y44074D02*
X1528Y44074D01*
X3072Y44074D02*
X7328Y44074D01*
X8872Y44074D02*
X11648Y44074D01*
X13298Y44074D02*
X13502Y44074D01*
X0500Y44123D02*
X1661Y44123D01*
X2939Y44123D02*
X7460Y44123D01*
X8740Y44123D02*
X11660Y44123D01*
X13298Y44123D02*
X13502Y44123D01*
X0500Y44173D02*
X1803Y44173D01*
X2797Y44173D02*
X7602Y44173D01*
X8598Y44173D02*
X11687Y44173D01*
X13298Y44173D02*
X13502Y44173D01*
X0500Y44222D02*
X2017Y44222D01*
X2583Y44222D02*
X7815Y44222D01*
X8385Y44222D02*
X11742Y44222D01*
X13298Y44222D02*
X13502Y44222D01*
X0500Y44272D02*
X14500Y44272D01*
X0500Y44321D02*
X14500Y44321D01*
X0500Y44371D02*
X14500Y44371D01*
X0500Y44420D02*
X14500Y44420D01*
X0500Y44470D02*
X14500Y44470D01*
X0500Y44520D02*
X14500Y44520D01*
X0500Y44569D02*
X14500Y44569D01*
X0500Y44619D02*
X14500Y44619D01*
X0500Y44668D02*
X14500Y44668D01*
X0500Y44718D02*
X14500Y44718D01*
X0500Y44767D02*
X14500Y44767D01*
X0500Y44817D02*
X14500Y44817D01*
X0500Y44866D02*
X14500Y44866D01*
X0500Y44916D02*
X14500Y44916D01*
X0500Y44965D02*
X14500Y44965D01*
X0500Y45015D02*
X14500Y45015D01*
X0500Y45064D02*
X14500Y45064D01*
X0500Y45114D02*
X14500Y45114D01*
X0500Y45163D02*
X14500Y45163D01*
X0500Y45213D02*
X14500Y45213D01*
X0500Y45262D02*
X14500Y45262D01*
X0500Y45312D02*
X14500Y45312D01*
X0500Y45362D02*
X14500Y45362D01*
X0500Y45411D02*
X14500Y45411D01*
X0500Y45461D02*
X14500Y45461D01*
X0500Y45510D02*
X14500Y45510D01*
X0500Y45560D02*
X14500Y45560D01*
X0500Y45609D02*
X14500Y45609D01*
X0500Y45659D02*
X14500Y45659D01*
X0500Y45708D02*
X14500Y45708D01*
X0500Y45758D02*
X14500Y45758D01*
X0500Y45807D02*
X14500Y45807D01*
X0500Y45857D02*
X14500Y45857D01*
X0500Y45906D02*
X14500Y45906D01*
X0500Y45956D02*
X14500Y45956D01*
X0500Y46005D02*
X14500Y46005D01*
X0500Y46055D02*
X14500Y46055D01*
X0500Y46104D02*
X14500Y46104D01*
X0500Y46154D02*
X14500Y46154D01*
X0500Y46204D02*
X14500Y46204D01*
X0500Y46253D02*
X14500Y46253D01*
X0500Y46303D02*
X14500Y46303D01*
X0500Y46352D02*
X14500Y46352D01*
X0500Y46402D02*
X14500Y46402D01*
X0500Y46451D02*
X14500Y46451D01*
X0500Y46501D02*
X14500Y46501D01*
X0500Y46550D02*
X14500Y46550D01*
X0500Y46600D02*
X14500Y46600D01*
X0500Y46649D02*
X14500Y46649D01*
X0500Y46699D02*
X14500Y46699D01*
X0500Y46748D02*
X14500Y46748D01*
X0500Y46798D02*
X14500Y46798D01*
X0500Y46847D02*
X14500Y46847D01*
X0500Y46897D02*
X14500Y46897D01*
X0500Y46946D02*
X14500Y46946D01*
X0500Y46996D02*
X14500Y46996D01*
X0500Y47046D02*
X14500Y47046D01*
X0500Y47095D02*
X14500Y47095D01*
X0500Y47145D02*
X14500Y47145D01*
X0500Y47194D02*
X14500Y47194D01*
X0500Y47244D02*
X14500Y47244D01*
X0500Y47293D02*
X14500Y47293D01*
X0500Y47343D02*
X14500Y47343D01*
X0500Y47392D02*
X14500Y47392D01*
X0500Y47442D02*
X14500Y47442D01*
X0500Y47491D02*
X14500Y47491D01*
X0500Y47541D02*
X14500Y47541D01*
X0500Y47590D02*
X14500Y47590D01*
X0500Y47640D02*
X14500Y47640D01*
X0500Y47689D02*
X14500Y47689D01*
X0500Y47739D02*
X14500Y47739D01*
X0500Y47788D02*
X14500Y47788D01*
X0500Y47838D02*
X14500Y47838D01*
X0500Y47888D02*
X14500Y47888D01*
X0500Y47937D02*
X14500Y47937D01*
X0500Y47987D02*
X14500Y47987D01*
X0500Y48036D02*
X14500Y48036D01*
X0500Y48086D02*
X14500Y48086D01*
X0500Y48135D02*
X14500Y48135D01*
X0500Y48185D02*
X14500Y48185D01*
X0500Y48234D02*
X14500Y48234D01*
X0500Y48284D02*
X14500Y48284D01*
X0500Y48333D02*
X14500Y48333D01*
X0500Y48383D02*
X14500Y48383D01*
X0500Y48432D02*
X14500Y48432D01*
X0500Y48482D02*
X14500Y48482D01*
X0500Y48531D02*
X14500Y48531D01*
X0500Y48581D02*
X14500Y48581D01*
X0500Y48631D02*
X14500Y48631D01*
X0500Y48680D02*
X14500Y48680D01*
X0500Y48730D02*
X14500Y48730D01*
X0500Y48779D02*
X14500Y48779D01*
X0500Y48829D02*
X14500Y48829D01*
X0500Y48878D02*
X14500Y48878D01*
X0500Y48928D02*
X14500Y48928D01*
X0500Y48977D02*
X14500Y48977D01*
X0500Y49027D02*
X14500Y49027D01*
X0500Y49076D02*
X14500Y49076D01*
X0500Y49126D02*
X14500Y49126D01*
X0500Y49175D02*
X14500Y49175D01*
X0500Y49225D02*
X14500Y49225D01*
X0500Y49274D02*
X14500Y49274D01*
X0500Y49324D02*
X14500Y49324D01*
X0500Y49373D02*
X14500Y49373D01*
X0500Y49423D02*
X14500Y49423D01*
X0500Y49473D02*
X14500Y49473D01*
%LNpour fill*%
X14500Y57240D02*
X14500Y57240D01*
X14434Y57276*
X14344Y57220*
X14344Y57220*
X14079Y57127*
X14079Y57127*
X13902Y57107*
X13901Y57107*
X13901Y57358*
X13699Y57358*
X13699Y57107*
X13698Y57107*
X13521Y57127*
X13521Y57127*
X13256Y57220*
X13256Y57220*
X13018Y57369*
X13018Y57369*
X12819Y57568*
X12819Y57568*
X12670Y57806*
X12670Y57806*
X12577Y58071*
X12577Y58071*
X12557Y58248*
X12557Y58249*
X12801Y58249*
X12801Y58451*
X12557Y58451*
X12557Y58452*
X12577Y58629*
X12577Y58629*
X12670Y58894*
X12670Y58894*
X12819Y59132*
X12819Y59132*
X13018Y59331*
X13018Y59331*
X13256Y59480*
X13256Y59480*
X13521Y59573*
X13521Y59573*
X13698Y59593*
X13699Y59593*
X13699Y59342*
X13901Y59342*
X13901Y59593*
X13902Y59593*
X14079Y59573*
X14079Y59573*
X14344Y59480*
X14344Y59480*
X14434Y59424*
X14500Y59460*
X14500Y65746*
X13501Y65746*
X13501Y65746*
X13501Y66001*
X13299Y66001*
X13299Y65746*
X13299Y65746*
X11850Y65746*
X11850Y65746*
X11818Y65748*
X11818Y65748*
X11787Y65756*
X11787Y65756*
X11757Y65768*
X11757Y65768*
X11730Y65785*
X11730Y65785*
X11705Y65805*
X11705Y65805*
X11685Y65830*
X11685Y65830*
X11668Y65857*
X11668Y65857*
X11656Y65887*
X11656Y65887*
X11648Y65918*
X11648Y65918*
X11646Y65950*
X11646Y65950*
X11646Y67399*
X11646Y67399*
X11901Y67399*
X11901Y67601*
X11646Y67601*
X11646Y67601*
X11646Y69050*
X11646Y69050*
X11648Y69082*
X11648Y69082*
X11656Y69113*
X11656Y69113*
X11668Y69143*
X11668Y69143*
X11685Y69170*
X11685Y69170*
X11705Y69195*
X11705Y69195*
X11730Y69215*
X11730Y69215*
X11757Y69232*
X11757Y69232*
X11787Y69244*
X11787Y69244*
X11818Y69252*
X11818Y69252*
X11850Y69254*
X11850Y69254*
X13299Y69254*
X13299Y69254*
X13299Y68999*
X13501Y68999*
X13501Y69254*
X13501Y69254*
X14500Y69254*
X14500Y74500*
X0500Y74500*
X0500Y67954*
X0606Y67936*
X0719Y68261*
X0719Y68261*
X0928Y68594*
X0928Y68594*
X1206Y68872*
X1206Y68872*
X1539Y69081*
X1539Y69081*
X1910Y69210*
X1910Y69210*
X2300Y69254*
X2300Y69254*
X2690Y69210*
X2690Y69210*
X3061Y69081*
X3061Y69081*
X3394Y68872*
X3394Y68872*
X3672Y68594*
X3672Y68594*
X3881Y68261*
X3881Y68261*
X4010Y67890*
X4010Y67890*
X4054Y67500*
X4054Y67500*
X4010Y67110*
X4010Y67110*
X3881Y66739*
X3881Y66739*
X3672Y66406*
X3672Y66406*
X3394Y66128*
X3394Y66128*
X3061Y65919*
X3061Y65919*
X2690Y65790*
X2690Y65790*
X2300Y65746*
X2300Y65746*
X1910Y65790*
X1910Y65790*
X1539Y65919*
X1539Y65919*
X1206Y66128*
X1206Y66128*
X0928Y66406*
X0928Y66406*
X0719Y66739*
X0719Y66739*
X0606Y67064*
X0500Y67046*
X0500Y50500*
X14500Y50500*
X14500Y57240*
X8100Y65746D02*
X7710Y65790D01*
X7339Y65920*
X7006Y66129*
X6729Y66406*
X6520Y66739*
X6390Y67110*
X6346Y67500*
X6390Y67890*
X6520Y68261*
X6729Y68594*
X7006Y68871*
X7339Y69080*
X7710Y69210*
X8100Y69254*
X8490Y69210*
X8861Y69080*
X9194Y68871*
X9471Y68594*
X9680Y68261*
X9810Y67890*
X9854Y67500*
X9810Y67110*
X9680Y66739*
X9471Y66406*
X9194Y66129*
X8861Y65920*
X8490Y65790*
X8100Y65746*
X7752Y57107D02*
X7752Y57358D01*
X7548Y57358*
X7548Y57107*
X7371Y57127*
X7106Y57220*
X6868Y57369*
X6669Y57568*
X6520Y57806*
X6427Y58071*
X6407Y58248*
X6651Y58248*
X6651Y58452*
X6407Y58452*
X6427Y58629*
X6520Y58894*
X6669Y59132*
X6868Y59331*
X7106Y59480*
X7371Y59573*
X7548Y59593*
X7548Y59342*
X7752Y59342*
X7752Y59593*
X7929Y59573*
X8194Y59480*
X8432Y59331*
X8631Y59132*
X8780Y58894*
X8873Y58629*
X8893Y58452*
X8649Y58452*
X8649Y58248*
X8893Y58248*
X8873Y58071*
X8780Y57806*
X8631Y57568*
X8432Y57369*
X8194Y57220*
X7929Y57127*
X7752Y57107*
X1898Y57107D02*
X1721Y57127D01*
X1456Y57220*
X1218Y57369*
X1019Y57568*
X0870Y57806*
X0777Y58071*
X0757Y58248*
X1001Y58248*
X1001Y58452*
X0757Y58452*
X0777Y58629*
X0870Y58894*
X1019Y59132*
X1218Y59331*
X1456Y59480*
X1721Y59573*
X1898Y59593*
X1898Y59342*
X2102Y59342*
X2102Y59593*
X2279Y59573*
X2544Y59480*
X2782Y59331*
X2981Y59132*
X3130Y58894*
X3223Y58629*
X3243Y58452*
X2999Y58452*
X2999Y58248*
X3243Y58248*
X3223Y58071*
X3130Y57806*
X2981Y57568*
X2782Y57369*
X2544Y57220*
X2279Y57127*
X2102Y57107*
X2102Y57358*
X1898Y57358*
X1898Y57107*
X11350Y55096D02*
X11071Y55127D01*
X10806Y55220*
X10568Y55369*
X10369Y55568*
X10220Y55806*
X10127Y56071*
X10096Y56350*
X10127Y56629*
X10220Y56894*
X10369Y57132*
X10568Y57331*
X10806Y57480*
X11071Y57573*
X11350Y57604*
X11629Y57573*
X11894Y57480*
X12132Y57331*
X12331Y57132*
X12480Y56894*
X12573Y56629*
X12604Y56350*
X12573Y56071*
X12480Y55806*
X12331Y55568*
X12132Y55369*
X11894Y55220*
X11629Y55127*
X11350Y55096*
X5750Y55096D02*
X5471Y55127D01*
X5206Y55220*
X4968Y55369*
X4769Y55568*
X4620Y55806*
X4527Y56071*
X4496Y56350*
X4527Y56629*
X4620Y56894*
X4769Y57132*
X4968Y57331*
X5206Y57480*
X5471Y57573*
X5750Y57604*
X6029Y57573*
X6294Y57480*
X6532Y57331*
X6731Y57132*
X6880Y56894*
X6973Y56629*
X7004Y56350*
X6973Y56071*
X6880Y55806*
X6731Y55568*
X6532Y55369*
X6294Y55220*
X6029Y55127*
X5750Y55096*
X0500Y50550D02*
X14500Y50550D01*
X0500Y50599D02*
X14500Y50599D01*
X0500Y50649D02*
X14500Y50649D01*
X0500Y50698D02*
X14500Y50698D01*
X0500Y50748D02*
X14500Y50748D01*
X0500Y50797D02*
X14500Y50797D01*
X0500Y50847D02*
X14500Y50847D01*
X0500Y50896D02*
X14500Y50896D01*
X0500Y50946D02*
X14500Y50946D01*
X0500Y50995D02*
X14500Y50995D01*
X0500Y51045D02*
X14500Y51045D01*
X0500Y51094D02*
X14500Y51094D01*
X0500Y51144D02*
X14500Y51144D01*
X0500Y51193D02*
X14500Y51193D01*
X0500Y51243D02*
X14500Y51243D01*
X0500Y51292D02*
X14500Y51292D01*
X0500Y51342D02*
X14500Y51342D01*
X0500Y51392D02*
X14500Y51392D01*
X0500Y51441D02*
X14500Y51441D01*
X0500Y51491D02*
X14500Y51491D01*
X0500Y51540D02*
X14500Y51540D01*
X0500Y51590D02*
X14500Y51590D01*
X0500Y51639D02*
X14500Y51639D01*
X0500Y51689D02*
X14500Y51689D01*
X0500Y51738D02*
X14500Y51738D01*
X0500Y51788D02*
X14500Y51788D01*
X0500Y51837D02*
X14500Y51837D01*
X0500Y51887D02*
X14500Y51887D01*
X0500Y51936D02*
X14500Y51936D01*
X0500Y51986D02*
X14500Y51986D01*
X0500Y52035D02*
X14500Y52035D01*
X0500Y52085D02*
X14500Y52085D01*
X0500Y52134D02*
X14500Y52134D01*
X0500Y52184D02*
X14500Y52184D01*
X0500Y52234D02*
X14500Y52234D01*
X0500Y52283D02*
X14500Y52283D01*
X0500Y52333D02*
X14500Y52333D01*
X0500Y52382D02*
X14500Y52382D01*
X0500Y52432D02*
X14500Y52432D01*
X0500Y52481D02*
X14500Y52481D01*
X0500Y52531D02*
X14500Y52531D01*
X0500Y52580D02*
X14500Y52580D01*
X0500Y52630D02*
X14500Y52630D01*
X0500Y52679D02*
X14500Y52679D01*
X0500Y52729D02*
X14500Y52729D01*
X0500Y52778D02*
X14500Y52778D01*
X0500Y52828D02*
X14500Y52828D01*
X0500Y52877D02*
X14500Y52877D01*
X0500Y52927D02*
X14500Y52927D01*
X0500Y52977D02*
X14500Y52977D01*
X0500Y53026D02*
X14500Y53026D01*
X0500Y53076D02*
X14500Y53076D01*
X0500Y53125D02*
X14500Y53125D01*
X0500Y53175D02*
X14500Y53175D01*
X0500Y53224D02*
X14500Y53224D01*
X0500Y53274D02*
X14500Y53274D01*
X0500Y53323D02*
X14500Y53323D01*
X0500Y53373D02*
X14500Y53373D01*
X0500Y53422D02*
X14500Y53422D01*
X0500Y53472D02*
X14500Y53472D01*
X0500Y53521D02*
X14500Y53521D01*
X0500Y53571D02*
X14500Y53571D01*
X0500Y53620D02*
X14500Y53620D01*
X0500Y53670D02*
X14500Y53670D01*
X0500Y53719D02*
X14500Y53719D01*
X0500Y53769D02*
X14500Y53769D01*
X0500Y53819D02*
X14500Y53819D01*
X0500Y53868D02*
X14500Y53868D01*
X0500Y53918D02*
X14500Y53918D01*
X0500Y53967D02*
X14500Y53967D01*
X0500Y54017D02*
X14500Y54017D01*
X0500Y54066D02*
X14500Y54066D01*
X0500Y54116D02*
X14500Y54116D01*
X0500Y54165D02*
X14500Y54165D01*
X0500Y54215D02*
X14500Y54215D01*
X0500Y54264D02*
X14500Y54264D01*
X0500Y54314D02*
X14500Y54314D01*
X0500Y54363D02*
X14500Y54363D01*
X0500Y54413D02*
X14500Y54413D01*
X0500Y54462D02*
X14500Y54462D01*
X0500Y54512D02*
X14500Y54512D01*
X0500Y54561D02*
X14500Y54561D01*
X0500Y54611D02*
X14500Y54611D01*
X0500Y54661D02*
X14500Y54661D01*
X0500Y54710D02*
X14500Y54710D01*
X0500Y54760D02*
X14500Y54760D01*
X0500Y54809D02*
X14500Y54809D01*
X0500Y54859D02*
X14500Y54859D01*
X0500Y54908D02*
X14500Y54908D01*
X0500Y54958D02*
X14500Y54958D01*
X0500Y55007D02*
X14500Y55007D01*
X0500Y55057D02*
X14500Y55057D01*
X0500Y55106D02*
X5655Y55106D01*
X5845Y55106D02*
X11255Y55106D01*
X11445Y55106D02*
X14500Y55106D01*
X0500Y55156D02*
X5388Y55156D01*
X6112Y55156D02*
X10988Y55156D01*
X11712Y55156D02*
X14500Y55156D01*
X0500Y55205D02*
X5247Y55205D01*
X6253Y55205D02*
X10847Y55205D01*
X11853Y55205D02*
X14500Y55205D01*
X0500Y55255D02*
X5150Y55255D01*
X6350Y55255D02*
X10750Y55255D01*
X11950Y55255D02*
X14500Y55255D01*
X0500Y55304D02*
X5071Y55304D01*
X6429Y55304D02*
X10671Y55304D01*
X12029Y55304D02*
X14500Y55304D01*
X0500Y55354D02*
X4992Y55354D01*
X6508Y55354D02*
X10592Y55354D01*
X12108Y55354D02*
X14500Y55354D01*
X0500Y55403D02*
X4934Y55403D01*
X6566Y55403D02*
X10534Y55403D01*
X12166Y55403D02*
X14500Y55403D01*
X0500Y55453D02*
X4884Y55453D01*
X6616Y55453D02*
X10484Y55453D01*
X12216Y55453D02*
X14500Y55453D01*
X0500Y55503D02*
X4835Y55503D01*
X6665Y55503D02*
X10435Y55503D01*
X12265Y55503D02*
X14500Y55503D01*
X0500Y55552D02*
X4785Y55552D01*
X6715Y55552D02*
X10385Y55552D01*
X12315Y55552D02*
X14500Y55552D01*
X0500Y55602D02*
X4748Y55602D01*
X6752Y55602D02*
X10348Y55602D01*
X12352Y55602D02*
X14500Y55602D01*
X0500Y55651D02*
X4717Y55651D01*
X6783Y55651D02*
X10317Y55651D01*
X12383Y55651D02*
X14500Y55651D01*
X0500Y55701D02*
X4686Y55701D01*
X6814Y55701D02*
X10286Y55701D01*
X12414Y55701D02*
X14500Y55701D01*
X0500Y55750D02*
X4655Y55750D01*
X6845Y55750D02*
X10255Y55750D01*
X12445Y55750D02*
X14500Y55750D01*
X0500Y55800D02*
X4624Y55800D01*
X6876Y55800D02*
X10224Y55800D01*
X12476Y55800D02*
X14500Y55800D01*
X0500Y55849D02*
X4605Y55849D01*
X6895Y55849D02*
X10205Y55849D01*
X12495Y55849D02*
X14500Y55849D01*
X0500Y55899D02*
X4587Y55899D01*
X6913Y55899D02*
X10187Y55899D01*
X12513Y55899D02*
X14500Y55899D01*
X0500Y55948D02*
X4570Y55948D01*
X6930Y55948D02*
X10170Y55948D01*
X12530Y55948D02*
X14500Y55948D01*
X0500Y55998D02*
X4553Y55998D01*
X6947Y55998D02*
X10153Y55998D01*
X12547Y55998D02*
X14500Y55998D01*
X0500Y56047D02*
X4535Y56047D01*
X6965Y56047D02*
X10135Y56047D01*
X12565Y56047D02*
X14500Y56047D01*
X0500Y56097D02*
X4524Y56097D01*
X6976Y56097D02*
X10124Y56097D01*
X12576Y56097D02*
X14500Y56097D01*
X0500Y56146D02*
X4518Y56146D01*
X6982Y56146D02*
X10118Y56146D01*
X12582Y56146D02*
X14500Y56146D01*
X0500Y56196D02*
X4513Y56196D01*
X6987Y56196D02*
X10113Y56196D01*
X12587Y56196D02*
X14500Y56196D01*
X0500Y56245D02*
X4507Y56245D01*
X6993Y56245D02*
X10107Y56245D01*
X12593Y56245D02*
X14500Y56245D01*
X0500Y56295D02*
X4502Y56295D01*
X6998Y56295D02*
X10102Y56295D01*
X12598Y56295D02*
X14500Y56295D01*
X0500Y56345D02*
X4496Y56345D01*
X7004Y56345D02*
X10096Y56345D01*
X12604Y56345D02*
X14500Y56345D01*
X0500Y56394D02*
X4501Y56394D01*
X6999Y56394D02*
X10101Y56394D01*
X12599Y56394D02*
X14500Y56394D01*
X0500Y56444D02*
X4506Y56444D01*
X6994Y56444D02*
X10106Y56444D01*
X12594Y56444D02*
X14500Y56444D01*
X0500Y56493D02*
X4512Y56493D01*
X6988Y56493D02*
X10112Y56493D01*
X12588Y56493D02*
X14500Y56493D01*
X0500Y56543D02*
X4517Y56543D01*
X6983Y56543D02*
X10117Y56543D01*
X12583Y56543D02*
X14500Y56543D01*
X0500Y56592D02*
X4523Y56592D01*
X6977Y56592D02*
X10123Y56592D01*
X12577Y56592D02*
X14500Y56592D01*
X0500Y56642D02*
X4531Y56642D01*
X6969Y56642D02*
X10131Y56642D01*
X12569Y56642D02*
X14500Y56642D01*
X0500Y56691D02*
X4549Y56691D01*
X6951Y56691D02*
X10149Y56691D01*
X12551Y56691D02*
X14500Y56691D01*
X0500Y56741D02*
X4566Y56741D01*
X6934Y56741D02*
X10166Y56741D01*
X12534Y56741D02*
X14500Y56741D01*
X0500Y56790D02*
X4583Y56790D01*
X6917Y56790D02*
X10183Y56790D01*
X12517Y56790D02*
X14500Y56790D01*
X0500Y56840D02*
X4601Y56840D01*
X6899Y56840D02*
X10201Y56840D01*
X12499Y56840D02*
X14500Y56840D01*
X0500Y56889D02*
X4618Y56889D01*
X6882Y56889D02*
X10218Y56889D01*
X12482Y56889D02*
X14500Y56889D01*
X0500Y56939D02*
X4648Y56939D01*
X6852Y56939D02*
X10248Y56939D01*
X12452Y56939D02*
X14500Y56939D01*
X0500Y56988D02*
X4679Y56988D01*
X6821Y56988D02*
X10279Y56988D01*
X12421Y56988D02*
X14500Y56988D01*
X0500Y57038D02*
X4710Y57038D01*
X6790Y57038D02*
X10310Y57038D01*
X12390Y57038D02*
X14500Y57038D01*
X0500Y57087D02*
X4741Y57087D01*
X6759Y57087D02*
X10341Y57087D01*
X12359Y57087D02*
X14500Y57087D01*
X0500Y57137D02*
X1692Y57137D01*
X1899Y57137D02*
X2101Y57137D01*
X2308Y57137D02*
X4774Y57137D01*
X6726Y57137D02*
X7342Y57137D01*
X7549Y57137D02*
X7751Y57137D01*
X7958Y57137D02*
X10374Y57137D01*
X12326Y57137D02*
X13493Y57137D01*
X13698Y57137D02*
X13902Y57137D01*
X14107Y57137D02*
X14500Y57137D01*
X0500Y57187D02*
X1551Y57187D01*
X1899Y57187D02*
X2101Y57187D01*
X2449Y57187D02*
X4824Y57187D01*
X6676Y57187D02*
X7201Y57187D01*
X7549Y57187D02*
X7751Y57187D01*
X8099Y57187D02*
X10424Y57187D01*
X12276Y57187D02*
X13351Y57187D01*
X13698Y57187D02*
X13902Y57187D01*
X14249Y57187D02*
X14500Y57187D01*
X0500Y57236D02*
X1430Y57236D01*
X1899Y57236D02*
X2101Y57236D01*
X2570Y57236D02*
X4873Y57236D01*
X6627Y57236D02*
X7080Y57236D01*
X7549Y57236D02*
X7751Y57236D01*
X8220Y57236D02*
X10473Y57236D01*
X12227Y57236D02*
X13230Y57236D01*
X13698Y57236D02*
X13902Y57236D01*
X14370Y57236D02*
X14500Y57236D01*
X0500Y57286D02*
X1351Y57286D01*
X1899Y57286D02*
X2101Y57286D01*
X2649Y57286D02*
X4923Y57286D01*
X6577Y57286D02*
X7001Y57286D01*
X7549Y57286D02*
X7751Y57286D01*
X8299Y57286D02*
X10523Y57286D01*
X12177Y57286D02*
X13151Y57286D01*
X13698Y57286D02*
X13902Y57286D01*
X0500Y57335D02*
X1272Y57335D01*
X1899Y57335D02*
X2101Y57335D01*
X2728Y57335D02*
X4975Y57335D01*
X6525Y57335D02*
X6922Y57335D01*
X7549Y57335D02*
X7751Y57335D01*
X8378Y57335D02*
X10575Y57335D01*
X12125Y57335D02*
X13073Y57335D01*
X13698Y57335D02*
X13902Y57335D01*
X0500Y57385D02*
X1202Y57385D01*
X2798Y57385D02*
X5054Y57385D01*
X6446Y57385D02*
X6852Y57385D01*
X8448Y57385D02*
X10654Y57385D01*
X12046Y57385D02*
X13003Y57385D01*
X0500Y57434D02*
X1153Y57434D01*
X2847Y57434D02*
X5132Y57434D01*
X6368Y57434D02*
X6803Y57434D01*
X8497Y57434D02*
X10732Y57434D01*
X11968Y57434D02*
X12953Y57434D01*
X0500Y57484D02*
X1103Y57484D01*
X2897Y57484D02*
X5216Y57484D01*
X6284Y57484D02*
X6753Y57484D01*
X8547Y57484D02*
X10816Y57484D01*
X11884Y57484D02*
X12904Y57484D01*
X0500Y57533D02*
X1054Y57533D01*
X2946Y57533D02*
X5357Y57533D01*
X6143Y57533D02*
X6704Y57533D01*
X8596Y57533D02*
X10957Y57533D01*
X11743Y57533D02*
X12854Y57533D01*
X0500Y57583D02*
X1010Y57583D01*
X2990Y57583D02*
X5558Y57583D01*
X5942Y57583D02*
X6660Y57583D01*
X8640Y57583D02*
X11158Y57583D01*
X11542Y57583D02*
X12810Y57583D01*
X0500Y57632D02*
X0979Y57632D01*
X3021Y57632D02*
X6629Y57632D01*
X8671Y57632D02*
X12779Y57632D01*
X0500Y57682D02*
X0948Y57682D01*
X3052Y57682D02*
X6598Y57682D01*
X8702Y57682D02*
X12748Y57682D01*
X0500Y57731D02*
X0916Y57731D01*
X3084Y57731D02*
X6566Y57731D01*
X8734Y57731D02*
X12717Y57731D01*
X0500Y57781D02*
X0885Y57781D01*
X3115Y57781D02*
X6535Y57781D01*
X8765Y57781D02*
X12686Y57781D01*
X0500Y57830D02*
X0861Y57830D01*
X3139Y57830D02*
X6511Y57830D01*
X8789Y57830D02*
X12661Y57830D01*
X0500Y57880D02*
X0844Y57880D01*
X3156Y57880D02*
X6494Y57880D01*
X8806Y57880D02*
X12644Y57880D01*
X0500Y57929D02*
X0826Y57929D01*
X3174Y57929D02*
X6476Y57929D01*
X8824Y57929D02*
X12627Y57929D01*
X0500Y57979D02*
X0809Y57979D01*
X3191Y57979D02*
X6459Y57979D01*
X8841Y57979D02*
X12609Y57979D01*
X0500Y58029D02*
X0792Y58029D01*
X3208Y58029D02*
X6442Y58029D01*
X8858Y58029D02*
X12592Y58029D01*
X0500Y58078D02*
X0776Y58078D01*
X3224Y58078D02*
X6426Y58078D01*
X8874Y58078D02*
X12576Y58078D01*
X0500Y58128D02*
X0771Y58128D01*
X3229Y58128D02*
X6421Y58128D01*
X8879Y58128D02*
X12571Y58128D01*
X0500Y58177D02*
X0765Y58177D01*
X3235Y58177D02*
X6415Y58177D01*
X8885Y58177D02*
X12565Y58177D01*
X0500Y58227D02*
X0759Y58227D01*
X3241Y58227D02*
X6409Y58227D01*
X8891Y58227D02*
X12560Y58227D01*
X0500Y58276D02*
X1001Y58276D01*
X2999Y58276D02*
X6651Y58276D01*
X8649Y58276D02*
X12801Y58276D01*
X0500Y58326D02*
X1001Y58326D01*
X2999Y58326D02*
X6651Y58326D01*
X8649Y58326D02*
X12801Y58326D01*
X0500Y58375D02*
X1001Y58375D01*
X2999Y58375D02*
X6651Y58375D01*
X8649Y58375D02*
X12801Y58375D01*
X0500Y58425D02*
X1001Y58425D01*
X2999Y58425D02*
X6651Y58425D01*
X8649Y58425D02*
X12801Y58425D01*
X0500Y58474D02*
X0760Y58474D01*
X3240Y58474D02*
X6410Y58474D01*
X8890Y58474D02*
X12560Y58474D01*
X0500Y58524D02*
X0765Y58524D01*
X3235Y58524D02*
X6415Y58524D01*
X8885Y58524D02*
X12565Y58524D01*
X0500Y58573D02*
X0771Y58573D01*
X3229Y58573D02*
X6421Y58573D01*
X8879Y58573D02*
X12571Y58573D01*
X0500Y58623D02*
X0776Y58623D01*
X3224Y58623D02*
X6426Y58623D01*
X8874Y58623D02*
X12577Y58623D01*
X0500Y58672D02*
X0792Y58672D01*
X3208Y58672D02*
X6442Y58672D01*
X8858Y58672D02*
X12592Y58672D01*
X0500Y58722D02*
X0809Y58722D01*
X3191Y58722D02*
X6459Y58722D01*
X8841Y58722D02*
X12610Y58722D01*
X0500Y58772D02*
X0827Y58772D01*
X3173Y58772D02*
X6477Y58772D01*
X8823Y58772D02*
X12627Y58772D01*
X0500Y58821D02*
X0844Y58821D01*
X3156Y58821D02*
X6494Y58821D01*
X8806Y58821D02*
X12644Y58821D01*
X0500Y58871D02*
X0861Y58871D01*
X3139Y58871D02*
X6511Y58871D01*
X8789Y58871D02*
X12662Y58871D01*
X0500Y58920D02*
X0886Y58920D01*
X3114Y58920D02*
X6536Y58920D01*
X8764Y58920D02*
X12686Y58920D01*
X0500Y58970D02*
X0917Y58970D01*
X3083Y58970D02*
X6567Y58970D01*
X8733Y58970D02*
X12717Y58970D01*
X0500Y59019D02*
X0948Y59019D01*
X3052Y59019D02*
X6598Y59019D01*
X8702Y59019D02*
X12749Y59019D01*
X0500Y59069D02*
X0979Y59069D01*
X3021Y59069D02*
X6629Y59069D01*
X8671Y59069D02*
X12780Y59069D01*
X0500Y59118D02*
X1010Y59118D01*
X2990Y59118D02*
X6660Y59118D01*
X8640Y59118D02*
X12811Y59118D01*
X0500Y59168D02*
X1055Y59168D01*
X2945Y59168D02*
X6705Y59168D01*
X8595Y59168D02*
X12855Y59168D01*
X0500Y59217D02*
X1104Y59217D01*
X2896Y59217D02*
X6754Y59217D01*
X8546Y59217D02*
X12905Y59217D01*
X0500Y59267D02*
X1154Y59267D01*
X2846Y59267D02*
X6804Y59267D01*
X8496Y59267D02*
X12954Y59267D01*
X0500Y59316D02*
X1203Y59316D01*
X2797Y59316D02*
X6853Y59316D01*
X8447Y59316D02*
X13004Y59316D01*
X0500Y59366D02*
X1274Y59366D01*
X1899Y59366D02*
X2101Y59366D01*
X2726Y59366D02*
X6924Y59366D01*
X7549Y59366D02*
X7751Y59366D01*
X8376Y59366D02*
X13074Y59366D01*
X13698Y59366D02*
X13902Y59366D01*
X0500Y59415D02*
X1353Y59415D01*
X1899Y59415D02*
X2101Y59415D01*
X2647Y59415D02*
X7003Y59415D01*
X7549Y59415D02*
X7751Y59415D01*
X8297Y59415D02*
X13153Y59415D01*
X13698Y59415D02*
X13902Y59415D01*
X0500Y59465D02*
X1431Y59465D01*
X1899Y59465D02*
X2101Y59465D01*
X2569Y59465D02*
X7081Y59465D01*
X7549Y59465D02*
X7751Y59465D01*
X8219Y59465D02*
X13232Y59465D01*
X13698Y59465D02*
X13902Y59465D01*
X14368Y59465D02*
X14500Y59465D01*
X0500Y59514D02*
X1554Y59514D01*
X1899Y59514D02*
X2101Y59514D01*
X2446Y59514D02*
X7204Y59514D01*
X7549Y59514D02*
X7751Y59514D01*
X8096Y59514D02*
X13354Y59514D01*
X13698Y59514D02*
X13902Y59514D01*
X14246Y59514D02*
X14500Y59514D01*
X0500Y59564D02*
X1695Y59564D01*
X1899Y59564D02*
X2101Y59564D01*
X2305Y59564D02*
X7345Y59564D01*
X7549Y59564D02*
X7751Y59564D01*
X7955Y59564D02*
X13496Y59564D01*
X13698Y59564D02*
X13902Y59564D01*
X14104Y59564D02*
X14500Y59564D01*
X0500Y59614D02*
X14500Y59614D01*
X0500Y59663D02*
X14500Y59663D01*
X0500Y59713D02*
X14500Y59713D01*
X0500Y59762D02*
X14500Y59762D01*
X0500Y59812D02*
X14500Y59812D01*
X0500Y59861D02*
X14500Y59861D01*
X0500Y59911D02*
X14500Y59911D01*
X0500Y59960D02*
X14500Y59960D01*
X0500Y60010D02*
X14500Y60010D01*
X0500Y60059D02*
X14500Y60059D01*
X0500Y60109D02*
X14500Y60109D01*
X0500Y60158D02*
X14500Y60158D01*
X0500Y60208D02*
X14500Y60208D01*
X0500Y60257D02*
X14500Y60257D01*
X0500Y60307D02*
X14500Y60307D01*
X0500Y60356D02*
X14500Y60356D01*
X0500Y60406D02*
X14500Y60406D01*
X0500Y60456D02*
X14500Y60456D01*
X0500Y60505D02*
X14500Y60505D01*
X0500Y60555D02*
X14500Y60555D01*
X0500Y60604D02*
X14500Y60604D01*
X0500Y60654D02*
X14500Y60654D01*
X0500Y60703D02*
X14500Y60703D01*
X0500Y60753D02*
X14500Y60753D01*
X0500Y60802D02*
X14500Y60802D01*
X0500Y60852D02*
X14500Y60852D01*
X0500Y60901D02*
X14500Y60901D01*
X0500Y60951D02*
X14500Y60951D01*
X0500Y61000D02*
X14500Y61000D01*
X0500Y61050D02*
X14500Y61050D01*
X0500Y61099D02*
X14500Y61099D01*
X0500Y61149D02*
X14500Y61149D01*
X0500Y61198D02*
X14500Y61198D01*
X0500Y61248D02*
X14500Y61248D01*
X0500Y61298D02*
X14500Y61298D01*
X0500Y61347D02*
X14500Y61347D01*
X0500Y61397D02*
X14500Y61397D01*
X0500Y61446D02*
X14500Y61446D01*
X0500Y61496D02*
X14500Y61496D01*
X0500Y61545D02*
X14500Y61545D01*
X0500Y61595D02*
X14500Y61595D01*
X0500Y61644D02*
X14500Y61644D01*
X0500Y61694D02*
X14500Y61694D01*
X0500Y61743D02*
X14500Y61743D01*
X0500Y61793D02*
X14500Y61793D01*
X0500Y61842D02*
X14500Y61842D01*
X0500Y61892D02*
X14500Y61892D01*
X0500Y61941D02*
X14500Y61941D01*
X0500Y61991D02*
X14500Y61991D01*
X0500Y62040D02*
X14500Y62040D01*
X0500Y62090D02*
X14500Y62090D01*
X0500Y62140D02*
X14500Y62140D01*
X0500Y62189D02*
X14500Y62189D01*
X0500Y62239D02*
X14500Y62239D01*
X0500Y62288D02*
X14500Y62288D01*
X0500Y62338D02*
X14500Y62338D01*
X0500Y62387D02*
X14500Y62387D01*
X0500Y62437D02*
X14500Y62437D01*
X0500Y62486D02*
X14500Y62486D01*
X0500Y62536D02*
X14500Y62536D01*
X0500Y62585D02*
X14500Y62585D01*
X0500Y62635D02*
X14500Y62635D01*
X0500Y62684D02*
X14500Y62684D01*
X0500Y62734D02*
X14500Y62734D01*
X0500Y62783D02*
X14500Y62783D01*
X0500Y62833D02*
X14500Y62833D01*
X0500Y62883D02*
X14500Y62883D01*
X0500Y62932D02*
X14500Y62932D01*
X0500Y62982D02*
X14500Y62982D01*
X0500Y63031D02*
X14500Y63031D01*
X0500Y63081D02*
X14500Y63081D01*
X0500Y63130D02*
X14500Y63130D01*
X0500Y63180D02*
X14500Y63180D01*
X0500Y63229D02*
X14500Y63229D01*
X0500Y63279D02*
X14500Y63279D01*
X0500Y63328D02*
X14500Y63328D01*
X0500Y63378D02*
X14500Y63378D01*
X0500Y63427D02*
X14500Y63427D01*
X0500Y63477D02*
X14500Y63477D01*
X0500Y63526D02*
X14500Y63526D01*
X0500Y63576D02*
X14500Y63576D01*
X0500Y63625D02*
X14500Y63625D01*
X0500Y63675D02*
X14500Y63675D01*
X0500Y63725D02*
X14500Y63725D01*
X0500Y63774D02*
X14500Y63774D01*
X0500Y63824D02*
X14500Y63824D01*
X0500Y63873D02*
X14500Y63873D01*
X0500Y63923D02*
X14500Y63923D01*
X0500Y63972D02*
X14500Y63972D01*
X0500Y64022D02*
X14500Y64022D01*
X0500Y64071D02*
X14500Y64071D01*
X0500Y64121D02*
X14500Y64121D01*
X0500Y64170D02*
X14500Y64170D01*
X0500Y64220D02*
X14500Y64220D01*
X0500Y64269D02*
X14500Y64269D01*
X0500Y64319D02*
X14500Y64319D01*
X0500Y64368D02*
X14500Y64368D01*
X0500Y64418D02*
X14500Y64418D01*
X0500Y64467D02*
X14500Y64467D01*
X0500Y64517D02*
X14500Y64517D01*
X0500Y64567D02*
X14500Y64567D01*
X0500Y64616D02*
X14500Y64616D01*
X0500Y64666D02*
X14500Y64666D01*
X0500Y64715D02*
X14500Y64715D01*
X0500Y64765D02*
X14500Y64765D01*
X0500Y64814D02*
X14500Y64814D01*
X0500Y64864D02*
X14500Y64864D01*
X0500Y64913D02*
X14500Y64913D01*
X0500Y64963D02*
X14500Y64963D01*
X0500Y65012D02*
X14500Y65012D01*
X0500Y65062D02*
X14500Y65062D01*
X0500Y65111D02*
X14500Y65111D01*
X0500Y65161D02*
X14500Y65161D01*
X0500Y65210D02*
X14500Y65210D01*
X0500Y65260D02*
X14500Y65260D01*
X0500Y65309D02*
X14500Y65309D01*
X0500Y65359D02*
X14500Y65359D01*
X0500Y65409D02*
X14500Y65409D01*
X0500Y65458D02*
X14500Y65458D01*
X0500Y65508D02*
X14500Y65508D01*
X0500Y65557D02*
X14500Y65557D01*
X0500Y65607D02*
X14500Y65607D01*
X0500Y65656D02*
X14500Y65656D01*
X0500Y65706D02*
X14500Y65706D01*
X0500Y65755D02*
X2216Y65755D01*
X2384Y65755D02*
X8014Y65755D01*
X8186Y65755D02*
X11789Y65755D01*
X13298Y65755D02*
X13502Y65755D01*
X0500Y65805D02*
X1867Y65805D01*
X2733Y65805D02*
X7666Y65805D01*
X8534Y65805D02*
X11707Y65805D01*
X13298Y65805D02*
X13502Y65805D01*
X0500Y65854D02*
X1725Y65854D01*
X2875Y65854D02*
X7524Y65854D01*
X8675Y65854D02*
X11670Y65854D01*
X13298Y65854D02*
X13502Y65854D01*
X0500Y65904D02*
X1584Y65904D01*
X3016Y65904D02*
X7383Y65904D01*
X8817Y65904D02*
X11652Y65904D01*
X13298Y65904D02*
X13502Y65904D01*
X0500Y65953D02*
X1485Y65953D01*
X3115Y65953D02*
X7285Y65953D01*
X8915Y65953D02*
X11646Y65953D01*
X13298Y65953D02*
X13502Y65953D01*
X0500Y66003D02*
X1406Y66003D01*
X3194Y66003D02*
X7206Y66003D01*
X8994Y66003D02*
X11646Y66003D01*
X0500Y66052D02*
X1327Y66052D01*
X3273Y66052D02*
X7127Y66052D01*
X9073Y66052D02*
X11646Y66052D01*
X0500Y66102D02*
X1249Y66102D01*
X3351Y66102D02*
X7048Y66102D01*
X9152Y66102D02*
X11646Y66102D01*
X0500Y66151D02*
X1183Y66151D01*
X3417Y66151D02*
X6983Y66151D01*
X9217Y66151D02*
X11646Y66151D01*
X0500Y66201D02*
X1134Y66201D01*
X3466Y66201D02*
X6933Y66201D01*
X9267Y66201D02*
X11646Y66201D01*
X0500Y66251D02*
X1084Y66251D01*
X3516Y66251D02*
X6884Y66251D01*
X9316Y66251D02*
X11646Y66251D01*
X0500Y66300D02*
X1035Y66300D01*
X3565Y66300D02*
X6834Y66300D01*
X9366Y66300D02*
X11646Y66300D01*
X0500Y66350D02*
X0985Y66350D01*
X3615Y66350D02*
X6785Y66350D01*
X9415Y66350D02*
X11646Y66350D01*
X0500Y66399D02*
X0936Y66399D01*
X3664Y66399D02*
X6735Y66399D01*
X9465Y66399D02*
X11646Y66399D01*
X0500Y66449D02*
X0902Y66449D01*
X3698Y66449D02*
X6702Y66449D01*
X9498Y66449D02*
X11646Y66449D01*
X0500Y66498D02*
X0871Y66498D01*
X3729Y66498D02*
X6670Y66498D01*
X9530Y66498D02*
X11646Y66498D01*
X0500Y66548D02*
X0840Y66548D01*
X3760Y66548D02*
X6639Y66548D01*
X9561Y66548D02*
X11646Y66548D01*
X0500Y66597D02*
X0809Y66597D01*
X3791Y66597D02*
X6608Y66597D01*
X9592Y66597D02*
X11646Y66597D01*
X0500Y66647D02*
X0777Y66647D01*
X3823Y66647D02*
X6577Y66647D01*
X9623Y66647D02*
X11646Y66647D01*
X0500Y66696D02*
X0746Y66696D01*
X3854Y66696D02*
X6546Y66696D01*
X9654Y66696D02*
X11646Y66696D01*
X0500Y66746D02*
X0717Y66746D01*
X3883Y66746D02*
X6517Y66746D01*
X9683Y66746D02*
X11646Y66746D01*
X0500Y66795D02*
X0700Y66795D01*
X3900Y66795D02*
X6499Y66795D01*
X9701Y66795D02*
X11646Y66795D01*
X0500Y66845D02*
X0682Y66845D01*
X3918Y66845D02*
X6482Y66845D01*
X9718Y66845D02*
X11646Y66845D01*
X0500Y66894D02*
X0665Y66894D01*
X3935Y66894D02*
X6465Y66894D01*
X9735Y66894D02*
X11646Y66894D01*
X0500Y66944D02*
X0648Y66944D01*
X3952Y66944D02*
X6447Y66944D01*
X9753Y66944D02*
X11646Y66944D01*
X0500Y66993D02*
X0630Y66993D01*
X3970Y66993D02*
X6430Y66993D01*
X9770Y66993D02*
X11646Y66993D01*
X0500Y67043D02*
X0613Y67043D01*
X3987Y67043D02*
X6413Y67043D01*
X9787Y67043D02*
X11646Y67043D01*
X4004Y67093D02*
X6395Y67093D01*
X9805Y67093D02*
X11646Y67093D01*
X4014Y67142D02*
X6386Y67142D01*
X9814Y67142D02*
X11646Y67142D01*
X4019Y67192D02*
X6380Y67192D01*
X9820Y67192D02*
X11646Y67192D01*
X4025Y67241D02*
X6375Y67241D01*
X9825Y67241D02*
X11646Y67241D01*
X4031Y67291D02*
X6369Y67291D01*
X9831Y67291D02*
X11646Y67291D01*
X4036Y67340D02*
X6364Y67340D01*
X9836Y67340D02*
X11646Y67340D01*
X4042Y67390D02*
X6358Y67390D01*
X9842Y67390D02*
X11646Y67390D01*
X4047Y67439D02*
X6352Y67439D01*
X9848Y67439D02*
X11901Y67439D01*
X4053Y67489D02*
X6347Y67489D01*
X9853Y67489D02*
X11901Y67489D01*
X4050Y67538D02*
X6350Y67538D01*
X9850Y67538D02*
X11901Y67538D01*
X4044Y67588D02*
X6355Y67588D01*
X9845Y67588D02*
X11901Y67588D01*
X4039Y67637D02*
X6361Y67637D01*
X9839Y67637D02*
X11646Y67637D01*
X4033Y67687D02*
X6367Y67687D01*
X9833Y67687D02*
X11646Y67687D01*
X4028Y67736D02*
X6372Y67736D01*
X9828Y67736D02*
X11646Y67736D01*
X4022Y67786D02*
X6378Y67786D01*
X9822Y67786D02*
X11646Y67786D01*
X4016Y67835D02*
X6383Y67835D01*
X9817Y67835D02*
X11646Y67835D01*
X4011Y67885D02*
X6389Y67885D01*
X9811Y67885D02*
X11646Y67885D01*
X3995Y67935D02*
X6405Y67935D01*
X9795Y67935D02*
X11646Y67935D01*
X0500Y67984D02*
X0623Y67984D01*
X3977Y67984D02*
X6422Y67984D01*
X9778Y67984D02*
X11646Y67984D01*
X0500Y68034D02*
X0640Y68034D01*
X3960Y68034D02*
X6440Y68034D01*
X9760Y68034D02*
X11646Y68034D01*
X0500Y68083D02*
X0657Y68083D01*
X3943Y68083D02*
X6457Y68083D01*
X9743Y68083D02*
X11646Y68083D01*
X0500Y68133D02*
X0675Y68133D01*
X3925Y68133D02*
X6474Y68133D01*
X9726Y68133D02*
X11646Y68133D01*
X0500Y68182D02*
X0692Y68182D01*
X3908Y68182D02*
X6492Y68182D01*
X9708Y68182D02*
X11646Y68182D01*
X0500Y68232D02*
X0709Y68232D01*
X3891Y68232D02*
X6509Y68232D01*
X9691Y68232D02*
X11646Y68232D01*
X0500Y68281D02*
X0732Y68281D01*
X3868Y68281D02*
X6532Y68281D01*
X9668Y68281D02*
X11646Y68281D01*
X0500Y68331D02*
X0763Y68331D01*
X3837Y68331D02*
X6563Y68331D01*
X9637Y68331D02*
X11646Y68331D01*
X0500Y68380D02*
X0794Y68380D01*
X3806Y68380D02*
X6594Y68380D01*
X9606Y68380D02*
X11646Y68380D01*
X0500Y68430D02*
X0826Y68430D01*
X3774Y68430D02*
X6625Y68430D01*
X9575Y68430D02*
X11646Y68430D01*
X0500Y68479D02*
X0857Y68479D01*
X3743Y68479D02*
X6656Y68479D01*
X9544Y68479D02*
X11646Y68479D01*
X0500Y68529D02*
X0888Y68529D01*
X3712Y68529D02*
X6687Y68529D01*
X9513Y68529D02*
X11646Y68529D01*
X0500Y68578D02*
X0919Y68578D01*
X3681Y68578D02*
X6719Y68578D01*
X9481Y68578D02*
X11646Y68578D01*
X0500Y68628D02*
X0963Y68628D01*
X3637Y68628D02*
X6762Y68628D01*
X9438Y68628D02*
X11646Y68628D01*
X0500Y68678D02*
X1012Y68678D01*
X3588Y68678D02*
X6812Y68678D01*
X9388Y68678D02*
X11646Y68678D01*
X0500Y68727D02*
X1062Y68727D01*
X3538Y68727D02*
X6861Y68727D01*
X9339Y68727D02*
X11646Y68727D01*
X0500Y68777D02*
X1111Y68777D01*
X3489Y68777D02*
X6911Y68777D01*
X9289Y68777D02*
X11646Y68777D01*
X0500Y68826D02*
X1161Y68826D01*
X3439Y68826D02*
X6961Y68826D01*
X9239Y68826D02*
X11646Y68826D01*
X0500Y68876D02*
X1213Y68876D01*
X3387Y68876D02*
X7012Y68876D01*
X9188Y68876D02*
X11646Y68876D01*
X0500Y68925D02*
X1292Y68925D01*
X3308Y68925D02*
X7091Y68925D01*
X9109Y68925D02*
X11646Y68925D01*
X0500Y68975D02*
X1371Y68975D01*
X3229Y68975D02*
X7170Y68975D01*
X9030Y68975D02*
X11646Y68975D01*
X0500Y69024D02*
X1449Y69024D01*
X3151Y69024D02*
X7249Y69024D01*
X8951Y69024D02*
X11646Y69024D01*
X13298Y69024D02*
X13502Y69024D01*
X0500Y69074D02*
X1528Y69074D01*
X3072Y69074D02*
X7328Y69074D01*
X8872Y69074D02*
X11648Y69074D01*
X13298Y69074D02*
X13502Y69074D01*
X0500Y69123D02*
X1661Y69123D01*
X2939Y69123D02*
X7460Y69123D01*
X8740Y69123D02*
X11660Y69123D01*
X13298Y69123D02*
X13502Y69123D01*
X0500Y69173D02*
X1803Y69173D01*
X2797Y69173D02*
X7602Y69173D01*
X8598Y69173D02*
X11687Y69173D01*
X13298Y69173D02*
X13502Y69173D01*
X0500Y69222D02*
X2017Y69222D01*
X2583Y69222D02*
X7815Y69222D01*
X8385Y69222D02*
X11742Y69222D01*
X13298Y69222D02*
X13502Y69222D01*
X0500Y69272D02*
X14500Y69272D01*
X0500Y69321D02*
X14500Y69321D01*
X0500Y69371D02*
X14500Y69371D01*
X0500Y69420D02*
X14500Y69420D01*
X0500Y69470D02*
X14500Y69470D01*
X0500Y69520D02*
X14500Y69520D01*
X0500Y69569D02*
X14500Y69569D01*
X0500Y69619D02*
X14500Y69619D01*
X0500Y69668D02*
X14500Y69668D01*
X0500Y69718D02*
X14500Y69718D01*
X0500Y69767D02*
X14500Y69767D01*
X0500Y69817D02*
X14500Y69817D01*
X0500Y69866D02*
X14500Y69866D01*
X0500Y69916D02*
X14500Y69916D01*
X0500Y69965D02*
X14500Y69965D01*
X0500Y70015D02*
X14500Y70015D01*
X0500Y70064D02*
X14500Y70064D01*
X0500Y70114D02*
X14500Y70114D01*
X0500Y70163D02*
X14500Y70163D01*
X0500Y70213D02*
X14500Y70213D01*
X0500Y70262D02*
X14500Y70262D01*
X0500Y70312D02*
X14500Y70312D01*
X0500Y70362D02*
X14500Y70362D01*
X0500Y70411D02*
X14500Y70411D01*
X0500Y70461D02*
X14500Y70461D01*
X0500Y70510D02*
X14500Y70510D01*
X0500Y70560D02*
X14500Y70560D01*
X0500Y70609D02*
X14500Y70609D01*
X0500Y70659D02*
X14500Y70659D01*
X0500Y70708D02*
X14500Y70708D01*
X0500Y70758D02*
X14500Y70758D01*
X0500Y70807D02*
X14500Y70807D01*
X0500Y70857D02*
X14500Y70857D01*
X0500Y70906D02*
X14500Y70906D01*
X0500Y70956D02*
X14500Y70956D01*
X0500Y71005D02*
X14500Y71005D01*
X0500Y71055D02*
X14500Y71055D01*
X0500Y71104D02*
X14500Y71104D01*
X0500Y71154D02*
X14500Y71154D01*
X0500Y71204D02*
X14500Y71204D01*
X0500Y71253D02*
X14500Y71253D01*
X0500Y71303D02*
X14500Y71303D01*
X0500Y71352D02*
X14500Y71352D01*
X0500Y71402D02*
X14500Y71402D01*
X0500Y71451D02*
X14500Y71451D01*
X0500Y71501D02*
X14500Y71501D01*
X0500Y71550D02*
X14500Y71550D01*
X0500Y71600D02*
X14500Y71600D01*
X0500Y71649D02*
X14500Y71649D01*
X0500Y71699D02*
X14500Y71699D01*
X0500Y71748D02*
X14500Y71748D01*
X0500Y71798D02*
X14500Y71798D01*
X0500Y71847D02*
X14500Y71847D01*
X0500Y71897D02*
X14500Y71897D01*
X0500Y71946D02*
X14500Y71946D01*
X0500Y71996D02*
X14500Y71996D01*
X0500Y72046D02*
X14500Y72046D01*
X0500Y72095D02*
X14500Y72095D01*
X0500Y72145D02*
X14500Y72145D01*
X0500Y72194D02*
X14500Y72194D01*
X0500Y72244D02*
X14500Y72244D01*
X0500Y72293D02*
X14500Y72293D01*
X0500Y72343D02*
X14500Y72343D01*
X0500Y72392D02*
X14500Y72392D01*
X0500Y72442D02*
X14500Y72442D01*
X0500Y72491D02*
X14500Y72491D01*
X0500Y72541D02*
X14500Y72541D01*
X0500Y72590D02*
X14500Y72590D01*
X0500Y72640D02*
X14500Y72640D01*
X0500Y72689D02*
X14500Y72689D01*
X0500Y72739D02*
X14500Y72739D01*
X0500Y72788D02*
X14500Y72788D01*
X0500Y72838D02*
X14500Y72838D01*
X0500Y72888D02*
X14500Y72888D01*
X0500Y72937D02*
X14500Y72937D01*
X0500Y72987D02*
X14500Y72987D01*
X0500Y73036D02*
X14500Y73036D01*
X0500Y73086D02*
X14500Y73086D01*
X0500Y73135D02*
X14500Y73135D01*
X0500Y73185D02*
X14500Y73185D01*
X0500Y73234D02*
X14500Y73234D01*
X0500Y73284D02*
X14500Y73284D01*
X0500Y73333D02*
X14500Y73333D01*
X0500Y73383D02*
X14500Y73383D01*
X0500Y73432D02*
X14500Y73432D01*
X0500Y73482D02*
X14500Y73482D01*
X0500Y73531D02*
X14500Y73531D01*
X0500Y73581D02*
X14500Y73581D01*
X0500Y73631D02*
X14500Y73631D01*
X0500Y73680D02*
X14500Y73680D01*
X0500Y73730D02*
X14500Y73730D01*
X0500Y73779D02*
X14500Y73779D01*
X0500Y73829D02*
X14500Y73829D01*
X0500Y73878D02*
X14500Y73878D01*
X0500Y73928D02*
X14500Y73928D01*
X0500Y73977D02*
X14500Y73977D01*
X0500Y74027D02*
X14500Y74027D01*
X0500Y74076D02*
X14500Y74076D01*
X0500Y74126D02*
X14500Y74126D01*
X0500Y74175D02*
X14500Y74175D01*
X0500Y74225D02*
X14500Y74225D01*
X0500Y74274D02*
X14500Y74274D01*
X0500Y74324D02*
X14500Y74324D01*
X0500Y74373D02*
X14500Y74373D01*
X0500Y74423D02*
X14500Y74423D01*
X0500Y74473D02*
X14500Y74473D01*
%LNtop copper_traces*%
D11*
X13500Y98500D03*
X13500Y76500D03*
X1500Y76500D03*
X1500Y37500D03*
X1500Y51500D03*
X1500Y1500D03*
X13500Y37500D03*
X5500Y26500D03*
X7500Y12500D03*
X1500Y12500D03*
X9500Y76500D03*
X1500Y26500D03*
X13500Y26500D03*
X13500Y23500D03*
X5500Y23500D03*
X5500Y1500D03*
X9500Y1500D03*
X7500Y37500D03*
X7500Y62500D03*
X9500Y51500D03*
X9500Y73500D03*
X1500Y23500D03*
X1500Y48500D03*
X5500Y73500D03*
X5500Y98500D03*
X1500Y98500D03*
X13500Y62500D03*
X9500Y23500D03*
X13500Y87500D03*
X9500Y26500D03*
X5500Y51500D03*
X13500Y12500D03*
X9500Y48500D03*
X7500Y87500D03*
X1500Y73500D03*
X13500Y51500D03*
X1500Y62500D03*
X5500Y76500D03*
X5500Y48500D03*
X13500Y73500D03*
X1500Y87500D03*
X9500Y98500D03*
X13500Y1500D03*
X13500Y48500D03*
%LNtop copper component 3fb5e9521f601311*%
D12*
X13800Y58350D03*
X7650Y58350D03*
X5750Y56350D03*
X11350Y56350D03*
X2000Y58350D03*
%LNtop copper component 4b71c591f59c26dc*%
D13*
X8100Y17500D03*
X2300Y17500D03*
D14*
X13400Y17500D03*
%LNtop copper component 2b672832dfb926b3*%
D13*
X8100Y42500D03*
X2300Y42500D03*
D14*
X13400Y42500D03*
%LNtop copper component 3ce0a186223d8698*%
D13*
X8100Y92500D03*
X2300Y92500D03*
D14*
X13400Y92500D03*
%LNtop copper component cc2776c741d44b0f*%
D12*
X13800Y83350D03*
X7650Y83350D03*
X5750Y81350D03*
X11350Y81350D03*
X2000Y83350D03*
%LNtop copper component 3c7ebbcfeb0a4b8a*%
X13800Y33350D03*
X7650Y33350D03*
X5750Y31350D03*
X11350Y31350D03*
X2000Y33350D03*
%LNtop copper component a0d7690caaceb52f*%
D13*
X8100Y67500D03*
X2300Y67500D03*
D14*
X13400Y67500D03*
%LNtop copper component 1a80c549fdb419d6*%
D12*
X13800Y8350D03*
X7650Y8350D03*
X5750Y6350D03*
X11350Y6350D03*
X2000Y8350D03*
M02*