%FSLAX33Y33*%
%MOMM*%
%ADD10C,0.15*%
D10*
%LNbottom silkscreen_traces*%
%LNbottom silkscreen component 6f1e0c6a26414b7d*%
G01*
X9700Y36635D02*
X9700Y38365D01*
X11300Y36635D02*
X11300Y38365D01*
G36*
X12911Y37200D02*
X12911Y37916D01*
X12594Y37916D01*
X12549Y37915D01*
X12509Y37911D01*
X12476Y37905D01*
X12448Y37897D01*
X12424Y37885D01*
X12403Y37870D01*
X12385Y37851D01*
X12369Y37828D01*
X12356Y37803D01*
X12346Y37777D01*
X12341Y37749D01*
X12339Y37721D01*
X12342Y37684D01*
X12351Y37650D01*
X12367Y37620D01*
X12388Y37592D01*
X12416Y37568D01*
X12451Y37549D01*
X12492Y37535D01*
X12516Y37530D01*
X12531Y37607D01*
X12511Y37613D01*
X12494Y37621D01*
X12479Y37631D01*
X12466Y37643D01*
X12455Y37656D01*
X12447Y37671D01*
X12441Y37687D01*
X12438Y37703D01*
X12436Y37721D01*
X12439Y37745D01*
X12446Y37767D01*
X12457Y37787D01*
X12473Y37804D01*
X12494Y37818D01*
X12521Y37829D01*
X12553Y37835D01*
X12590Y37837D01*
X12816Y37837D01*
X12816Y37600D01*
X12816Y37600D01*
X12613Y37600D01*
X12582Y37601D01*
X12555Y37603D01*
X12531Y37607D01*
X12516Y37530D01*
X12540Y37526D01*
X12523Y37517D01*
X12507Y37508D01*
X12494Y37499D01*
X12483Y37490D01*
X12463Y37470D01*
X12443Y37447D01*
X12424Y37422D01*
X12405Y37395D01*
X12280Y37200D01*
X12399Y37200D01*
X12494Y37349D01*
X12514Y37379D01*
X12532Y37406D01*
X12548Y37429D01*
X12562Y37448D01*
X12575Y37463D01*
X12588Y37477D01*
X12600Y37487D01*
X12610Y37495D01*
X12621Y37502D01*
X12632Y37507D01*
X12643Y37511D01*
X12654Y37514D01*
X12663Y37516D01*
X12675Y37517D01*
X12689Y37518D01*
X12706Y37518D01*
X12816Y37518D01*
X12816Y37200D01*
X12911Y37200D01*
X12911Y37200D01*
X11770Y37741D02*
X11857Y37734D01*
X11864Y37758D01*
X11871Y37778D01*
X11880Y37795D01*
X11891Y37809D01*
X11909Y37825D01*
X11930Y37837D01*
X11953Y37844D01*
X11978Y37846D01*
X11999Y37845D01*
X12018Y37841D01*
X12036Y37833D01*
X12052Y37823D01*
X12072Y37806D01*
X12089Y37786D01*
X12105Y37762D01*
X12118Y37735D01*
X12128Y37703D01*
X12136Y37664D01*
X12141Y37620D01*
X12142Y37569D01*
X12096Y37533D01*
X12105Y37521D01*
X12118Y37495D01*
X12126Y37465D01*
X12129Y37432D01*
X12129Y37432D01*
X12128Y37409D01*
X12124Y37387D01*
X12118Y37366D01*
X12110Y37345D01*
X12099Y37326D01*
X12086Y37308D01*
X12072Y37294D01*
X12056Y37282D01*
X12038Y37272D01*
X12020Y37265D01*
X12002Y37261D01*
X11983Y37260D01*
X11956Y37263D01*
X11931Y37271D01*
X11908Y37285D01*
X11887Y37305D01*
X11870Y37329D01*
X11857Y37358D01*
X11850Y37390D01*
X11847Y37427D01*
X11850Y37462D01*
X11857Y37493D01*
X11869Y37521D01*
X11887Y37544D01*
X11908Y37563D01*
X11931Y37576D01*
X11957Y37584D01*
X11986Y37587D01*
X12015Y37584D01*
X12041Y37576D01*
X12065Y37563D01*
X12087Y37544D01*
X12096Y37533D01*
X12142Y37569D01*
X12126Y37592D01*
X12107Y37611D01*
X12087Y37628D01*
X12065Y37641D01*
X12042Y37651D01*
X12018Y37658D01*
X11994Y37663D01*
X11969Y37664D01*
X11926Y37660D01*
X11887Y37648D01*
X11851Y37628D01*
X11819Y37600D01*
X11792Y37565D01*
X11773Y37526D01*
X11761Y37481D01*
X11757Y37432D01*
X11759Y37399D01*
X11764Y37367D01*
X11774Y37337D01*
X11786Y37307D01*
X11802Y37280D01*
X11821Y37256D01*
X11842Y37236D01*
X11866Y37219D01*
X11892Y37205D01*
X11920Y37195D01*
X11950Y37190D01*
X11981Y37188D01*
X12034Y37193D01*
X12081Y37208D01*
X12123Y37233D01*
X12161Y37269D01*
X12191Y37316D01*
X12213Y37376D01*
X12226Y37449D01*
X12230Y37535D01*
X12225Y37632D01*
X12211Y37714D01*
X12187Y37783D01*
X12153Y37837D01*
X12117Y37873D01*
X12075Y37898D01*
X12027Y37914D01*
X11973Y37919D01*
X11933Y37916D01*
X11896Y37907D01*
X11863Y37892D01*
X11835Y37871D01*
X11810Y37845D01*
X11791Y37815D01*
X11778Y37780D01*
X11770Y37741D01*
X11770Y37741D01*
G37*
%LNbottom silkscreen component bc51556ce41564e0*%
X4700Y61635D02*
X4700Y63365D01*
X6300Y61635D02*
X6300Y63365D01*
G36*
X4111Y62200D02*
X4111Y62916D01*
X3794Y62916D01*
X3749Y62915D01*
X3709Y62911D01*
X3676Y62905D01*
X3648Y62897D01*
X3624Y62885D01*
X3603Y62870D01*
X3585Y62851D01*
X3569Y62828D01*
X3556Y62803D01*
X3546Y62777D01*
X3541Y62749D01*
X3539Y62721D01*
X3542Y62684D01*
X3551Y62650D01*
X3567Y62620D01*
X3588Y62592D01*
X3616Y62568D01*
X3651Y62549D01*
X3692Y62535D01*
X3716Y62530D01*
X3731Y62607D01*
X3711Y62613D01*
X3694Y62621D01*
X3679Y62631D01*
X3666Y62643D01*
X3655Y62656D01*
X3647Y62671D01*
X3641Y62687D01*
X3638Y62703D01*
X3636Y62721D01*
X3639Y62745D01*
X3646Y62767D01*
X3657Y62787D01*
X3673Y62804D01*
X3694Y62818D01*
X3721Y62829D01*
X3753Y62835D01*
X3790Y62837D01*
X4016Y62837D01*
X4016Y62600D01*
X4016Y62600D01*
X3813Y62600D01*
X3782Y62601D01*
X3755Y62603D01*
X3731Y62607D01*
X3716Y62530D01*
X3740Y62526D01*
X3723Y62517D01*
X3707Y62508D01*
X3694Y62499D01*
X3683Y62490D01*
X3663Y62470D01*
X3643Y62447D01*
X3624Y62422D01*
X3605Y62395D01*
X3480Y62200D01*
X3599Y62200D01*
X3694Y62349D01*
X3714Y62379D01*
X3732Y62406D01*
X3748Y62429D01*
X3762Y62448D01*
X3775Y62463D01*
X3788Y62477D01*
X3800Y62487D01*
X3810Y62495D01*
X3821Y62502D01*
X3832Y62507D01*
X3843Y62511D01*
X3854Y62514D01*
X3863Y62516D01*
X3875Y62517D01*
X3889Y62518D01*
X3906Y62518D01*
X4016Y62518D01*
X4016Y62200D01*
X4111Y62200D01*
X4111Y62200D01*
X3425Y62389D02*
X3338Y62401D01*
X3329Y62366D01*
X3317Y62336D01*
X3303Y62312D01*
X3286Y62293D01*
X3267Y62279D01*
X3246Y62268D01*
X3223Y62262D01*
X3197Y62260D01*
X3168Y62263D01*
X3140Y62271D01*
X3115Y62284D01*
X3093Y62303D01*
X3074Y62326D01*
X3061Y62351D01*
X3053Y62379D01*
X3050Y62409D01*
X3052Y62438D01*
X3060Y62465D01*
X3072Y62488D01*
X3090Y62509D01*
X3111Y62527D01*
X3134Y62539D01*
X3161Y62546D01*
X3190Y62549D01*
X3203Y62548D01*
X3218Y62546D01*
X3234Y62543D01*
X3252Y62539D01*
X3242Y62616D01*
X3238Y62616D01*
X3234Y62615D01*
X3231Y62615D01*
X3228Y62615D01*
X3201Y62617D01*
X3175Y62622D01*
X3150Y62632D01*
X3127Y62644D01*
X3107Y62661D01*
X3093Y62682D01*
X3085Y62706D01*
X3082Y62735D01*
X3084Y62758D01*
X3090Y62779D01*
X3101Y62798D01*
X3115Y62815D01*
X3132Y62829D01*
X3152Y62839D01*
X3175Y62844D01*
X3199Y62846D01*
X3224Y62844D01*
X3246Y62838D01*
X3267Y62828D01*
X3285Y62814D01*
X3300Y62796D01*
X3313Y62774D01*
X3322Y62748D01*
X3329Y62718D01*
X3417Y62733D01*
X3406Y62775D01*
X3390Y62812D01*
X3369Y62843D01*
X3343Y62870D01*
X3313Y62891D01*
X3279Y62907D01*
X3242Y62916D01*
X3201Y62919D01*
X3173Y62917D01*
X3145Y62912D01*
X3119Y62905D01*
X3093Y62894D01*
X3070Y62880D01*
X3050Y62864D01*
X3033Y62846D01*
X3018Y62825D01*
X3007Y62803D01*
X2998Y62780D01*
X2994Y62757D01*
X2992Y62733D01*
X2993Y62710D01*
X2998Y62688D01*
X3006Y62668D01*
X3017Y62648D01*
X3031Y62630D01*
X3048Y62614D01*
X3068Y62600D01*
X3091Y62588D01*
X3061Y62578D01*
X3034Y62565D01*
X3011Y62548D01*
X2992Y62527D01*
X2977Y62502D01*
X2966Y62475D01*
X2959Y62445D01*
X2957Y62411D01*
X2961Y62366D01*
X2974Y62325D01*
X2995Y62287D01*
X3025Y62252D01*
X3062Y62224D01*
X3102Y62204D01*
X3148Y62191D01*
X3198Y62187D01*
X3243Y62191D01*
X3284Y62201D01*
X3321Y62219D01*
X3354Y62243D01*
X3382Y62274D01*
X3403Y62308D01*
X3418Y62346D01*
X3425Y62389D01*
X3425Y62389D01*
G37*
%LNbottom silkscreen component 7abbdc99b1714215*%
X9700Y11635D02*
X9700Y13365D01*
X11300Y11635D02*
X11300Y13365D01*
G36*
X12911Y12200D02*
X12911Y12916D01*
X12594Y12916D01*
X12549Y12915D01*
X12509Y12911D01*
X12476Y12905D01*
X12448Y12897D01*
X12424Y12885D01*
X12403Y12870D01*
X12385Y12851D01*
X12369Y12828D01*
X12356Y12803D01*
X12346Y12777D01*
X12341Y12749D01*
X12339Y12721D01*
X12342Y12684D01*
X12351Y12650D01*
X12367Y12620D01*
X12388Y12592D01*
X12416Y12568D01*
X12451Y12549D01*
X12492Y12535D01*
X12516Y12530D01*
X12531Y12607D01*
X12511Y12613D01*
X12494Y12621D01*
X12479Y12631D01*
X12466Y12643D01*
X12455Y12656D01*
X12447Y12671D01*
X12441Y12687D01*
X12438Y12703D01*
X12436Y12721D01*
X12439Y12745D01*
X12446Y12767D01*
X12457Y12787D01*
X12473Y12804D01*
X12494Y12818D01*
X12521Y12829D01*
X12553Y12835D01*
X12590Y12837D01*
X12816Y12837D01*
X12816Y12600D01*
X12816Y12600D01*
X12613Y12600D01*
X12582Y12601D01*
X12555Y12603D01*
X12531Y12607D01*
X12516Y12530D01*
X12540Y12526D01*
X12523Y12517D01*
X12507Y12508D01*
X12494Y12499D01*
X12483Y12490D01*
X12463Y12470D01*
X12443Y12447D01*
X12424Y12422D01*
X12405Y12395D01*
X12280Y12200D01*
X12399Y12200D01*
X12494Y12349D01*
X12514Y12379D01*
X12532Y12406D01*
X12548Y12429D01*
X12562Y12448D01*
X12575Y12463D01*
X12588Y12477D01*
X12600Y12487D01*
X12610Y12495D01*
X12621Y12502D01*
X12632Y12507D01*
X12643Y12511D01*
X12654Y12514D01*
X12663Y12516D01*
X12675Y12517D01*
X12689Y12518D01*
X12706Y12518D01*
X12816Y12518D01*
X12816Y12200D01*
X12911Y12200D01*
X12911Y12200D01*
X12091Y12588D02*
X12062Y12533D01*
X12074Y12527D01*
X12096Y12509D01*
X12114Y12487D01*
X12126Y12463D01*
X12134Y12436D01*
X12137Y12407D01*
X12137Y12407D01*
X12135Y12388D01*
X12132Y12370D01*
X12127Y12352D01*
X12119Y12334D01*
X12109Y12317D01*
X12097Y12303D01*
X12082Y12290D01*
X12066Y12279D01*
X12048Y12271D01*
X12029Y12265D01*
X12010Y12261D01*
X11990Y12260D01*
X11960Y12263D01*
X11933Y12270D01*
X11908Y12283D01*
X11886Y12301D01*
X11868Y12322D01*
X11855Y12347D01*
X11848Y12374D01*
X11845Y12404D01*
X11848Y12434D01*
X11856Y12462D01*
X11869Y12486D01*
X11887Y12509D01*
X11910Y12527D01*
X11935Y12540D01*
X11963Y12548D01*
X11993Y12550D01*
X12023Y12548D01*
X12050Y12540D01*
X12062Y12533D01*
X12091Y12588D01*
X12058Y12640D01*
X12038Y12630D01*
X12016Y12624D01*
X11991Y12622D01*
X11966Y12624D01*
X11944Y12630D01*
X11925Y12640D01*
X11907Y12654D01*
X11893Y12671D01*
X11883Y12689D01*
X11877Y12710D01*
X11875Y12732D01*
X11877Y12755D01*
X11883Y12777D01*
X11894Y12796D01*
X11908Y12814D01*
X11926Y12828D01*
X11946Y12838D01*
X11968Y12844D01*
X11992Y12846D01*
X12016Y12844D01*
X12038Y12838D01*
X12057Y12828D01*
X12075Y12814D01*
X12090Y12797D01*
X12100Y12779D01*
X12106Y12759D01*
X12108Y12737D01*
X12108Y12737D01*
X12106Y12713D01*
X12100Y12691D01*
X12090Y12671D01*
X12076Y12654D01*
X12058Y12640D01*
X12091Y12588D01*
X12116Y12599D01*
X12138Y12612D01*
X12157Y12628D01*
X12172Y12645D01*
X12183Y12665D01*
X12192Y12686D01*
X12196Y12709D01*
X12198Y12734D01*
X12195Y12772D01*
X12184Y12806D01*
X12167Y12837D01*
X12142Y12866D01*
X12112Y12889D01*
X12077Y12905D01*
X12037Y12915D01*
X11993Y12919D01*
X11948Y12915D01*
X11908Y12905D01*
X11873Y12888D01*
X11842Y12864D01*
X11817Y12836D01*
X11799Y12804D01*
X11788Y12769D01*
X11785Y12732D01*
X11786Y12708D01*
X11791Y12685D01*
X11799Y12664D01*
X11811Y12645D01*
X11825Y12628D01*
X11844Y12612D01*
X11865Y12599D01*
X11890Y12588D01*
X11859Y12576D01*
X11832Y12560D01*
X11809Y12541D01*
X11790Y12519D01*
X11775Y12494D01*
X11764Y12466D01*
X11757Y12437D01*
X11755Y12405D01*
X11759Y12361D01*
X11771Y12320D01*
X11792Y12283D01*
X11820Y12250D01*
X11855Y12223D01*
X11895Y12203D01*
X11941Y12192D01*
X11991Y12188D01*
X12042Y12192D01*
X12087Y12203D01*
X12127Y12223D01*
X12162Y12251D01*
X12190Y12284D01*
X12211Y12321D01*
X12223Y12362D01*
X12227Y12407D01*
X12225Y12441D01*
X12218Y12471D01*
X12207Y12499D01*
X12192Y12524D01*
X12172Y12546D01*
X12149Y12564D01*
X12122Y12578D01*
X12091Y12588D01*
X12091Y12588D01*
G37*
%LNbottom silkscreen component 5e411d710d0bee9a*%
X9700Y61635D02*
X9700Y63365D01*
X11300Y61635D02*
X11300Y63365D01*
G36*
X12911Y62200D02*
X12911Y62916D01*
X12594Y62916D01*
X12549Y62915D01*
X12509Y62911D01*
X12476Y62905D01*
X12448Y62897D01*
X12424Y62885D01*
X12403Y62870D01*
X12385Y62851D01*
X12369Y62828D01*
X12356Y62803D01*
X12346Y62777D01*
X12341Y62749D01*
X12339Y62721D01*
X12342Y62684D01*
X12351Y62650D01*
X12367Y62620D01*
X12388Y62592D01*
X12416Y62568D01*
X12451Y62549D01*
X12492Y62535D01*
X12516Y62530D01*
X12531Y62607D01*
X12511Y62613D01*
X12494Y62621D01*
X12479Y62631D01*
X12466Y62643D01*
X12455Y62656D01*
X12447Y62671D01*
X12441Y62687D01*
X12438Y62703D01*
X12436Y62721D01*
X12439Y62745D01*
X12446Y62767D01*
X12457Y62787D01*
X12473Y62804D01*
X12494Y62818D01*
X12521Y62829D01*
X12553Y62835D01*
X12590Y62837D01*
X12816Y62837D01*
X12816Y62600D01*
X12816Y62600D01*
X12613Y62600D01*
X12582Y62601D01*
X12555Y62603D01*
X12531Y62607D01*
X12516Y62530D01*
X12540Y62526D01*
X12523Y62517D01*
X12507Y62508D01*
X12494Y62499D01*
X12483Y62490D01*
X12463Y62470D01*
X12443Y62447D01*
X12424Y62422D01*
X12405Y62395D01*
X12280Y62200D01*
X12399Y62200D01*
X12494Y62349D01*
X12514Y62379D01*
X12532Y62406D01*
X12548Y62429D01*
X12562Y62448D01*
X12575Y62463D01*
X12588Y62477D01*
X12600Y62487D01*
X12610Y62495D01*
X12621Y62502D01*
X12632Y62507D01*
X12643Y62511D01*
X12654Y62514D01*
X12663Y62516D01*
X12675Y62517D01*
X12689Y62518D01*
X12706Y62518D01*
X12816Y62518D01*
X12816Y62200D01*
X12911Y62200D01*
X12911Y62200D01*
X11944Y62200D02*
X11944Y62371D01*
X12255Y62371D01*
X12255Y62452D01*
X12000Y62814D01*
X11944Y62775D01*
X12168Y62452D01*
X11944Y62452D01*
X11944Y62452D01*
X11944Y62775D01*
X12000Y62814D01*
X11928Y62916D01*
X11856Y62916D01*
X11856Y62452D01*
X11760Y62452D01*
X11760Y62371D01*
X11856Y62371D01*
X11856Y62200D01*
X11944Y62200D01*
X11944Y62200D01*
G37*
%LNbottom silkscreen component 0dfe2a07031751d2*%
X9700Y86635D02*
X9700Y88365D01*
X11300Y86635D02*
X11300Y88365D01*
G36*
X12911Y87200D02*
X12911Y87916D01*
X12594Y87916D01*
X12549Y87915D01*
X12509Y87911D01*
X12476Y87905D01*
X12448Y87897D01*
X12424Y87885D01*
X12403Y87870D01*
X12385Y87851D01*
X12369Y87828D01*
X12356Y87803D01*
X12346Y87777D01*
X12341Y87749D01*
X12339Y87721D01*
X12342Y87684D01*
X12351Y87650D01*
X12367Y87620D01*
X12388Y87592D01*
X12416Y87568D01*
X12451Y87549D01*
X12492Y87535D01*
X12516Y87530D01*
X12531Y87607D01*
X12511Y87613D01*
X12494Y87621D01*
X12479Y87631D01*
X12466Y87643D01*
X12455Y87656D01*
X12447Y87671D01*
X12441Y87687D01*
X12438Y87703D01*
X12436Y87721D01*
X12439Y87745D01*
X12446Y87767D01*
X12457Y87787D01*
X12473Y87804D01*
X12494Y87818D01*
X12521Y87829D01*
X12553Y87835D01*
X12590Y87837D01*
X12816Y87837D01*
X12816Y87600D01*
X12816Y87600D01*
X12613Y87600D01*
X12582Y87601D01*
X12555Y87603D01*
X12531Y87607D01*
X12516Y87530D01*
X12540Y87526D01*
X12523Y87517D01*
X12507Y87508D01*
X12494Y87499D01*
X12483Y87490D01*
X12463Y87470D01*
X12443Y87447D01*
X12424Y87422D01*
X12405Y87395D01*
X12280Y87200D01*
X12399Y87200D01*
X12494Y87349D01*
X12514Y87379D01*
X12532Y87406D01*
X12548Y87429D01*
X12562Y87448D01*
X12575Y87463D01*
X12588Y87477D01*
X12600Y87487D01*
X12610Y87495D01*
X12621Y87502D01*
X12632Y87507D01*
X12643Y87511D01*
X12654Y87514D01*
X12663Y87516D01*
X12675Y87517D01*
X12689Y87518D01*
X12706Y87518D01*
X12816Y87518D01*
X12816Y87200D01*
X12911Y87200D01*
X12911Y87200D01*
X11764Y87284D02*
X11764Y87200D01*
X12237Y87200D01*
X12237Y87216D01*
X12235Y87231D01*
X12232Y87246D01*
X12227Y87261D01*
X12217Y87285D01*
X12203Y87309D01*
X12188Y87333D01*
X12169Y87356D01*
X12147Y87381D01*
X12120Y87407D01*
X12089Y87435D01*
X12054Y87465D01*
X12000Y87510D01*
X11956Y87550D01*
X11922Y87586D01*
X11896Y87616D01*
X11878Y87644D01*
X11866Y87671D01*
X11858Y87697D01*
X11855Y87722D01*
X11858Y87747D01*
X11865Y87770D01*
X11876Y87791D01*
X11893Y87810D01*
X11913Y87826D01*
X11936Y87837D01*
X11962Y87844D01*
X11990Y87846D01*
X12020Y87844D01*
X12047Y87836D01*
X12071Y87825D01*
X12092Y87808D01*
X12108Y87787D01*
X12120Y87762D01*
X12128Y87734D01*
X12130Y87702D01*
X12221Y87712D01*
X12213Y87759D01*
X12198Y87801D01*
X12178Y87836D01*
X12151Y87866D01*
X12118Y87889D01*
X12080Y87906D01*
X12037Y87915D01*
X11988Y87919D01*
X11939Y87915D01*
X11896Y87904D01*
X11858Y87887D01*
X11825Y87862D01*
X11799Y87831D01*
X11780Y87798D01*
X11769Y87761D01*
X11765Y87720D01*
X11766Y87699D01*
X11769Y87677D01*
X11775Y87656D01*
X11783Y87636D01*
X11793Y87615D01*
X11806Y87593D01*
X11822Y87571D01*
X11841Y87548D01*
X11865Y87523D01*
X11895Y87494D01*
X11932Y87460D01*
X11976Y87422D01*
X12012Y87392D01*
X12041Y87366D01*
X12063Y87347D01*
X12078Y87332D01*
X12089Y87320D01*
X12099Y87308D01*
X12107Y87296D01*
X12115Y87284D01*
X11764Y87284D01*
X11764Y87284D01*
G37*
%LNbottom silkscreen component ce23236c6142b4f9*%
X4700Y11635D02*
X4700Y13365D01*
X6300Y11635D02*
X6300Y13365D01*
G36*
X4111Y12200D02*
X4111Y12916D01*
X3794Y12916D01*
X3749Y12915D01*
X3709Y12911D01*
X3676Y12905D01*
X3648Y12897D01*
X3624Y12885D01*
X3603Y12870D01*
X3585Y12851D01*
X3569Y12828D01*
X3556Y12803D01*
X3546Y12777D01*
X3541Y12749D01*
X3539Y12721D01*
X3542Y12684D01*
X3551Y12650D01*
X3567Y12620D01*
X3588Y12592D01*
X3616Y12568D01*
X3651Y12549D01*
X3692Y12535D01*
X3716Y12530D01*
X3731Y12607D01*
X3711Y12613D01*
X3694Y12621D01*
X3679Y12631D01*
X3666Y12643D01*
X3655Y12656D01*
X3647Y12671D01*
X3641Y12687D01*
X3638Y12703D01*
X3636Y12721D01*
X3639Y12745D01*
X3646Y12767D01*
X3657Y12787D01*
X3673Y12804D01*
X3694Y12818D01*
X3721Y12829D01*
X3753Y12835D01*
X3790Y12837D01*
X4016Y12837D01*
X4016Y12600D01*
X4016Y12600D01*
X3813Y12600D01*
X3782Y12601D01*
X3755Y12603D01*
X3731Y12607D01*
X3716Y12530D01*
X3740Y12526D01*
X3723Y12517D01*
X3707Y12508D01*
X3694Y12499D01*
X3683Y12490D01*
X3663Y12470D01*
X3643Y12447D01*
X3624Y12422D01*
X3605Y12395D01*
X3480Y12200D01*
X3599Y12200D01*
X3694Y12349D01*
X3714Y12379D01*
X3732Y12406D01*
X3748Y12429D01*
X3762Y12448D01*
X3775Y12463D01*
X3788Y12477D01*
X3800Y12487D01*
X3810Y12495D01*
X3821Y12502D01*
X3832Y12507D01*
X3843Y12511D01*
X3854Y12514D01*
X3863Y12516D01*
X3875Y12517D01*
X3889Y12518D01*
X3906Y12518D01*
X4016Y12518D01*
X4016Y12200D01*
X4111Y12200D01*
X4111Y12200D01*
X3420Y12822D02*
X3420Y12907D01*
X2957Y12907D01*
X2957Y12838D01*
X2991Y12799D01*
X3025Y12753D01*
X3059Y12702D01*
X3092Y12645D01*
X3124Y12584D01*
X3152Y12523D01*
X3176Y12460D01*
X3196Y12397D01*
X3208Y12351D01*
X3218Y12303D01*
X3225Y12252D01*
X3230Y12200D01*
X3320Y12200D01*
X3317Y12244D01*
X3311Y12293D01*
X3301Y12346D01*
X3287Y12404D01*
X3269Y12463D01*
X3248Y12522D01*
X3224Y12579D01*
X3196Y12635D01*
X3166Y12688D01*
X3135Y12737D01*
X3102Y12782D01*
X3070Y12822D01*
X3420Y12822D01*
X3420Y12822D01*
G37*
%LNbottom silkscreen component eb79b2d2ed9a7b07*%
X4700Y36635D02*
X4700Y38365D01*
X6300Y36635D02*
X6300Y38365D01*
G36*
X4111Y37200D02*
X4111Y37916D01*
X3794Y37916D01*
X3749Y37915D01*
X3709Y37911D01*
X3676Y37905D01*
X3648Y37897D01*
X3624Y37885D01*
X3603Y37870D01*
X3585Y37851D01*
X3569Y37828D01*
X3556Y37803D01*
X3546Y37777D01*
X3541Y37749D01*
X3539Y37721D01*
X3542Y37684D01*
X3551Y37650D01*
X3567Y37620D01*
X3588Y37592D01*
X3616Y37568D01*
X3651Y37549D01*
X3692Y37535D01*
X3716Y37530D01*
X3731Y37607D01*
X3711Y37613D01*
X3694Y37621D01*
X3679Y37631D01*
X3666Y37643D01*
X3655Y37656D01*
X3647Y37671D01*
X3641Y37687D01*
X3638Y37703D01*
X3636Y37721D01*
X3639Y37745D01*
X3646Y37767D01*
X3657Y37787D01*
X3673Y37804D01*
X3694Y37818D01*
X3721Y37829D01*
X3753Y37835D01*
X3790Y37837D01*
X4016Y37837D01*
X4016Y37600D01*
X4016Y37600D01*
X3813Y37600D01*
X3782Y37601D01*
X3755Y37603D01*
X3731Y37607D01*
X3716Y37530D01*
X3740Y37526D01*
X3723Y37517D01*
X3707Y37508D01*
X3694Y37499D01*
X3683Y37490D01*
X3663Y37470D01*
X3643Y37447D01*
X3624Y37422D01*
X3605Y37395D01*
X3480Y37200D01*
X3599Y37200D01*
X3694Y37349D01*
X3714Y37379D01*
X3732Y37406D01*
X3748Y37429D01*
X3762Y37448D01*
X3775Y37463D01*
X3788Y37477D01*
X3800Y37487D01*
X3810Y37495D01*
X3821Y37502D01*
X3832Y37507D01*
X3843Y37511D01*
X3854Y37514D01*
X3863Y37516D01*
X3875Y37517D01*
X3889Y37518D01*
X3906Y37518D01*
X4016Y37518D01*
X4016Y37200D01*
X4111Y37200D01*
X4111Y37200D01*
X3426Y37388D02*
X3334Y37395D01*
X3327Y37364D01*
X3317Y37336D01*
X3303Y37313D01*
X3286Y37294D01*
X3266Y37279D01*
X3245Y37269D01*
X3221Y37262D01*
X3196Y37260D01*
X3165Y37263D01*
X3137Y37272D01*
X3112Y37287D01*
X3089Y37308D01*
X3069Y37334D01*
X3056Y37364D01*
X3047Y37397D01*
X3045Y37435D01*
X3047Y37470D01*
X3055Y37502D01*
X3068Y37530D01*
X3087Y37554D01*
X3110Y37573D01*
X3136Y37586D01*
X3165Y37594D01*
X3197Y37597D01*
X3218Y37596D01*
X3238Y37592D01*
X3257Y37586D01*
X3274Y37578D01*
X3290Y37567D01*
X3305Y37556D01*
X3317Y37542D01*
X3328Y37528D01*
X3410Y37538D01*
X3341Y37906D01*
X2985Y37906D01*
X2985Y37822D01*
X3271Y37822D01*
X3309Y37630D01*
X3277Y37649D01*
X3243Y37663D01*
X3209Y37672D01*
X3174Y37675D01*
X3129Y37671D01*
X3088Y37658D01*
X3050Y37638D01*
X3016Y37610D01*
X2988Y37575D01*
X2967Y37535D01*
X2955Y37491D01*
X2951Y37443D01*
X2955Y37396D01*
X2966Y37352D01*
X2983Y37312D01*
X3008Y37275D01*
X3046Y37237D01*
X3089Y37210D01*
X3140Y37193D01*
X3196Y37188D01*
X3243Y37191D01*
X3285Y37201D01*
X3322Y37219D01*
X3355Y37242D01*
X3383Y37272D01*
X3404Y37306D01*
X3418Y37345D01*
X3426Y37388D01*
X3426Y37388D01*
G37*
%LNbottom silkscreen component 6d7f68b2cb7460d9*%
X4700Y86635D02*
X4700Y88365D01*
X6300Y86635D02*
X6300Y88365D01*
G36*
X4111Y87200D02*
X4111Y87916D01*
X3794Y87916D01*
X3749Y87915D01*
X3709Y87911D01*
X3676Y87905D01*
X3648Y87897D01*
X3624Y87885D01*
X3603Y87870D01*
X3585Y87851D01*
X3569Y87828D01*
X3556Y87803D01*
X3546Y87777D01*
X3541Y87749D01*
X3539Y87721D01*
X3542Y87684D01*
X3551Y87650D01*
X3567Y87620D01*
X3588Y87592D01*
X3616Y87568D01*
X3651Y87549D01*
X3692Y87535D01*
X3716Y87530D01*
X3731Y87607D01*
X3711Y87613D01*
X3694Y87621D01*
X3679Y87631D01*
X3666Y87643D01*
X3655Y87656D01*
X3647Y87671D01*
X3641Y87687D01*
X3638Y87703D01*
X3636Y87721D01*
X3639Y87745D01*
X3646Y87767D01*
X3657Y87787D01*
X3673Y87804D01*
X3694Y87818D01*
X3721Y87829D01*
X3753Y87835D01*
X3790Y87837D01*
X4016Y87837D01*
X4016Y87600D01*
X4016Y87600D01*
X3813Y87600D01*
X3782Y87601D01*
X3755Y87603D01*
X3731Y87607D01*
X3716Y87530D01*
X3740Y87526D01*
X3723Y87517D01*
X3707Y87508D01*
X3694Y87499D01*
X3683Y87490D01*
X3663Y87470D01*
X3643Y87447D01*
X3624Y87422D01*
X3605Y87395D01*
X3480Y87200D01*
X3599Y87200D01*
X3694Y87349D01*
X3714Y87379D01*
X3732Y87406D01*
X3748Y87429D01*
X3762Y87448D01*
X3775Y87463D01*
X3788Y87477D01*
X3800Y87487D01*
X3810Y87495D01*
X3821Y87502D01*
X3832Y87507D01*
X3843Y87511D01*
X3854Y87514D01*
X3863Y87516D01*
X3875Y87517D01*
X3889Y87518D01*
X3906Y87518D01*
X4016Y87518D01*
X4016Y87200D01*
X4111Y87200D01*
X4111Y87200D01*
X3095Y87200D02*
X3183Y87200D01*
X3183Y87760D01*
X3200Y87745D01*
X3219Y87730D01*
X3242Y87715D01*
X3266Y87700D01*
X3291Y87685D01*
X3315Y87673D01*
X3337Y87663D01*
X3359Y87654D01*
X3359Y87739D01*
X3323Y87757D01*
X3289Y87777D01*
X3258Y87799D01*
X3230Y87823D01*
X3204Y87848D01*
X3183Y87872D01*
X3165Y87895D01*
X3152Y87919D01*
X3095Y87919D01*
X3095Y87200D01*
X3095Y87200D01*
G37*
%LNtext*%
G36*
X13891Y78399D02*
X13775Y78409D01*
X13770Y78376D01*
X13761Y78346D01*
X13750Y78318D01*
X13737Y78295D01*
X13719Y78273D01*
X13698Y78254D01*
X13673Y78237D01*
X13643Y78222D01*
X13610Y78210D01*
X13576Y78201D01*
X13539Y78196D01*
X13500Y78195D01*
X13466Y78196D01*
X13434Y78200D01*
X13404Y78206D01*
X13376Y78216D01*
X13351Y78227D01*
X13329Y78240D01*
X13310Y78256D01*
X13295Y78273D01*
X13284Y78292D01*
X13276Y78311D01*
X13271Y78331D01*
X13269Y78353D01*
X13271Y78374D01*
X13275Y78394D01*
X13283Y78412D01*
X13295Y78429D01*
X13309Y78445D01*
X13328Y78459D01*
X13351Y78472D01*
X13378Y78484D01*
X13403Y78492D01*
X13438Y78503D01*
X13486Y78515D01*
X13544Y78529D01*
X13603Y78545D01*
X13653Y78559D01*
X13693Y78574D01*
X13724Y78588D01*
X13755Y78606D01*
X13782Y78627D01*
X13804Y78649D01*
X13823Y78674D01*
X13837Y78701D01*
X13847Y78729D01*
X13854Y78759D01*
X13856Y78790D01*
X13853Y78825D01*
X13846Y78858D01*
X13833Y78891D01*
X13816Y78922D01*
X13793Y78950D01*
X13766Y78976D01*
X13735Y78997D01*
X13699Y79015D01*
X13659Y79029D01*
X13618Y79038D01*
X13574Y79044D01*
X13528Y79046D01*
X13478Y79044D01*
X13431Y79038D01*
X13387Y79028D01*
X13346Y79013D01*
X13308Y78994D01*
X13276Y78972D01*
X13248Y78945D01*
X13224Y78915D01*
X13205Y78882D01*
X13191Y78846D01*
X13182Y78808D01*
X13178Y78768D01*
X13296Y78760D01*
X13304Y78801D01*
X13317Y78837D01*
X13336Y78868D01*
X13361Y78893D01*
X13392Y78913D01*
X13429Y78927D01*
X13473Y78935D01*
X13523Y78938D01*
X13575Y78935D01*
X13620Y78928D01*
X13656Y78915D01*
X13686Y78897D01*
X13708Y78875D01*
X13724Y78852D01*
X13734Y78826D01*
X13737Y78798D01*
X13735Y78774D01*
X13728Y78753D01*
X13717Y78733D01*
X13701Y78716D01*
X13676Y78699D01*
X13637Y78683D01*
X13583Y78666D01*
X13515Y78649D01*
X13446Y78633D01*
X13389Y78618D01*
X13343Y78603D01*
X13309Y78590D01*
X13271Y78570D01*
X13238Y78548D01*
X13211Y78523D01*
X13189Y78495D01*
X13172Y78465D01*
X13160Y78433D01*
X13153Y78399D01*
X13150Y78363D01*
X13153Y78326D01*
X13161Y78291D01*
X13174Y78256D01*
X13193Y78223D01*
X13217Y78192D01*
X13245Y78164D01*
X13278Y78141D01*
X13315Y78121D01*
X13356Y78105D01*
X13400Y78093D01*
X13446Y78086D01*
X13494Y78084D01*
X13555Y78086D01*
X13611Y78093D01*
X13661Y78105D01*
X13706Y78121D01*
X13747Y78142D01*
X13782Y78167D01*
X13814Y78197D01*
X13840Y78232D01*
X13861Y78270D01*
X13877Y78311D01*
X13887Y78354D01*
X13891Y78399D01*
X13891Y78399D01*
X12747Y78202D02*
X12731Y78101D01*
X12754Y78097D01*
X12777Y78094D01*
X12797Y78092D01*
X12817Y78091D01*
X12846Y78092D01*
X12872Y78096D01*
X12895Y78102D01*
X12914Y78111D01*
X12929Y78121D01*
X12943Y78134D01*
X12954Y78147D01*
X12962Y78163D01*
X12968Y78183D01*
X12972Y78212D01*
X12975Y78250D01*
X12976Y78297D01*
X12976Y78685D01*
X13060Y78685D01*
X13060Y78774D01*
X12976Y78774D01*
X12976Y78941D01*
X12862Y79010D01*
X12862Y78774D01*
X12747Y78774D01*
X12747Y78685D01*
X12862Y78685D01*
X12862Y78291D01*
X12862Y78269D01*
X12861Y78251D01*
X12859Y78237D01*
X12856Y78228D01*
X12853Y78222D01*
X12848Y78216D01*
X12843Y78210D01*
X12836Y78206D01*
X12829Y78202D01*
X12820Y78200D01*
X12809Y78198D01*
X12797Y78198D01*
X12787Y78198D01*
X12775Y78199D01*
X12762Y78200D01*
X12747Y78202D01*
X12747Y78202D01*
X12174Y78317D02*
X12056Y78302D01*
X12073Y78254D01*
X12096Y78211D01*
X12125Y78173D01*
X12160Y78142D01*
X12200Y78117D01*
X12246Y78099D01*
X12296Y78088D01*
X12352Y78085D01*
X12423Y78090D01*
X12485Y78108D01*
X12540Y78136D01*
X12587Y78176D01*
X12625Y78226D01*
X12652Y78285D01*
X12668Y78354D01*
X12674Y78431D01*
X12668Y78512D01*
X12652Y78582D01*
X12624Y78644D01*
X12586Y78695D01*
X12539Y78737D01*
X12485Y78766D01*
X12425Y78783D01*
X12359Y78789D01*
X12349Y78789D01*
X12358Y78695D01*
X12395Y78692D01*
X12430Y78682D01*
X12462Y78666D01*
X12490Y78643D01*
X12514Y78614D01*
X12532Y78581D01*
X12543Y78544D01*
X12549Y78502D01*
X12549Y78502D01*
X12173Y78502D01*
X12178Y78542D01*
X12187Y78576D01*
X12200Y78605D01*
X12216Y78629D01*
X12245Y78658D01*
X12279Y78679D01*
X12316Y78691D01*
X12358Y78695D01*
X12349Y78789D01*
X12294Y78784D01*
X12236Y78766D01*
X12184Y78738D01*
X12138Y78697D01*
X12100Y78647D01*
X12074Y78587D01*
X12058Y78517D01*
X12052Y78438D01*
X12052Y78433D01*
X12052Y78426D01*
X12053Y78417D01*
X12053Y78408D01*
X12556Y78408D01*
X12549Y78356D01*
X12537Y78310D01*
X12518Y78271D01*
X12493Y78238D01*
X12463Y78212D01*
X12429Y78193D01*
X12392Y78182D01*
X12352Y78179D01*
X12322Y78181D01*
X12294Y78187D01*
X12268Y78197D01*
X12245Y78212D01*
X12224Y78231D01*
X12205Y78255D01*
X12188Y78283D01*
X12174Y78317D01*
X12174Y78317D01*
X11914Y78100D02*
X11914Y78774D01*
X11811Y78774D01*
X11811Y78672D01*
X11792Y78705D01*
X11773Y78731D01*
X11755Y78752D01*
X11738Y78767D01*
X11721Y78776D01*
X11703Y78784D01*
X11685Y78788D01*
X11665Y78789D01*
X11636Y78787D01*
X11607Y78780D01*
X11577Y78769D01*
X11548Y78753D01*
X11587Y78647D01*
X11608Y78657D01*
X11629Y78665D01*
X11650Y78670D01*
X11671Y78671D01*
X11689Y78670D01*
X11706Y78666D01*
X11723Y78659D01*
X11738Y78649D01*
X11752Y78636D01*
X11764Y78622D01*
X11773Y78605D01*
X11781Y78586D01*
X11789Y78555D01*
X11795Y78522D01*
X11798Y78488D01*
X11800Y78453D01*
X11800Y78100D01*
X11914Y78100D01*
X11914Y78100D01*
X11018Y78317D02*
X10900Y78302D01*
X10917Y78254D01*
X10940Y78211D01*
X10969Y78173D01*
X11004Y78142D01*
X11044Y78117D01*
X11090Y78099D01*
X11141Y78088D01*
X11197Y78085D01*
X11267Y78090D01*
X11329Y78108D01*
X11384Y78136D01*
X11431Y78176D01*
X11469Y78226D01*
X11496Y78285D01*
X11512Y78354D01*
X11518Y78431D01*
X11512Y78512D01*
X11496Y78582D01*
X11469Y78644D01*
X11430Y78695D01*
X11383Y78737D01*
X11330Y78766D01*
X11270Y78783D01*
X11203Y78789D01*
X11193Y78789D01*
X11202Y78695D01*
X11239Y78692D01*
X11274Y78682D01*
X11306Y78666D01*
X11334Y78643D01*
X11358Y78614D01*
X11376Y78581D01*
X11388Y78544D01*
X11393Y78502D01*
X11393Y78502D01*
X11017Y78502D01*
X11023Y78542D01*
X11032Y78576D01*
X11044Y78605D01*
X11060Y78629D01*
X11089Y78658D01*
X11123Y78679D01*
X11160Y78691D01*
X11202Y78695D01*
X11193Y78789D01*
X11138Y78784D01*
X11080Y78766D01*
X11028Y78738D01*
X10982Y78697D01*
X10945Y78647D01*
X10918Y78587D01*
X10902Y78517D01*
X10896Y78438D01*
X10896Y78433D01*
X10897Y78426D01*
X10897Y78417D01*
X10897Y78408D01*
X11400Y78408D01*
X11393Y78356D01*
X11381Y78310D01*
X11362Y78271D01*
X11337Y78238D01*
X11307Y78212D01*
X11273Y78193D01*
X11236Y78182D01*
X11196Y78179D01*
X11166Y78181D01*
X11138Y78187D01*
X11112Y78197D01*
X11089Y78212D01*
X11068Y78231D01*
X11049Y78255D01*
X11032Y78283D01*
X11018Y78317D01*
X11018Y78317D01*
X10799Y78437D02*
X10793Y78525D01*
X10773Y78600D01*
X10741Y78663D01*
X10695Y78714D01*
X10649Y78747D01*
X10599Y78771D01*
X10543Y78785D01*
X10483Y78789D01*
X10417Y78784D01*
X10357Y78767D01*
X10303Y78738D01*
X10256Y78698D01*
X10217Y78648D01*
X10190Y78590D01*
X10173Y78523D01*
X10168Y78447D01*
X10170Y78385D01*
X10177Y78330D01*
X10190Y78283D01*
X10207Y78242D01*
X10228Y78207D01*
X10255Y78176D01*
X10285Y78149D01*
X10320Y78126D01*
X10358Y78108D01*
X10398Y78095D01*
X10440Y78087D01*
X10483Y78085D01*
X10491Y78085D01*
X10483Y78179D01*
X10442Y78183D01*
X10405Y78195D01*
X10372Y78215D01*
X10342Y78243D01*
X10317Y78280D01*
X10299Y78325D01*
X10289Y78379D01*
X10285Y78441D01*
X10289Y78500D01*
X10299Y78551D01*
X10317Y78594D01*
X10342Y78630D01*
X10372Y78659D01*
X10406Y78679D01*
X10443Y78691D01*
X10483Y78695D01*
X10524Y78691D01*
X10562Y78679D01*
X10595Y78659D01*
X10625Y78631D01*
X10650Y78595D01*
X10668Y78550D01*
X10678Y78498D01*
X10682Y78437D01*
X10682Y78437D01*
X10678Y78376D01*
X10668Y78324D01*
X10650Y78279D01*
X10625Y78243D01*
X10595Y78215D01*
X10562Y78195D01*
X10524Y78183D01*
X10483Y78179D01*
X10491Y78085D01*
X10551Y78090D01*
X10611Y78107D01*
X10665Y78136D01*
X10712Y78176D01*
X10750Y78226D01*
X10777Y78286D01*
X10794Y78357D01*
X10799Y78437D01*
X10799Y78437D01*
X10078Y78379D02*
X10078Y78494D01*
X9727Y78494D01*
X9727Y78379D01*
X10078Y78379D01*
X10078Y78379D01*
X8999Y78507D02*
X9615Y78243D01*
X9615Y78357D01*
X9127Y78560D01*
X9615Y78760D01*
X9615Y78874D01*
X8999Y78614D01*
X8999Y78507D01*
X8999Y78507D01*
X8842Y78100D02*
X8842Y78774D01*
X8739Y78774D01*
X8739Y78680D01*
X8722Y78703D01*
X8702Y78724D01*
X8680Y78743D01*
X8655Y78759D01*
X8628Y78772D01*
X8599Y78782D01*
X8568Y78787D01*
X8535Y78789D01*
X8499Y78787D01*
X8467Y78782D01*
X8438Y78772D01*
X8412Y78758D01*
X8390Y78741D01*
X8371Y78721D01*
X8356Y78698D01*
X8345Y78671D01*
X8302Y78723D01*
X8253Y78760D01*
X8197Y78782D01*
X8136Y78789D01*
X8089Y78786D01*
X8048Y78775D01*
X8012Y78758D01*
X7982Y78734D01*
X7959Y78702D01*
X7942Y78663D01*
X7932Y78617D01*
X7928Y78563D01*
X7928Y78100D01*
X8042Y78100D01*
X8042Y78525D01*
X8042Y78557D01*
X8045Y78584D01*
X8048Y78606D01*
X8053Y78623D01*
X8060Y78638D01*
X8069Y78651D01*
X8080Y78662D01*
X8093Y78672D01*
X8108Y78680D01*
X8125Y78686D01*
X8143Y78689D01*
X8162Y78690D01*
X8196Y78687D01*
X8227Y78679D01*
X8255Y78664D01*
X8280Y78643D01*
X8300Y78616D01*
X8315Y78582D01*
X8324Y78540D01*
X8327Y78492D01*
X8327Y78100D01*
X8441Y78100D01*
X8441Y78538D01*
X8443Y78574D01*
X8448Y78605D01*
X8457Y78631D01*
X8469Y78652D01*
X8485Y78669D01*
X8506Y78681D01*
X8531Y78688D01*
X8560Y78690D01*
X8584Y78689D01*
X8607Y78684D01*
X8629Y78676D01*
X8650Y78665D01*
X8669Y78651D01*
X8685Y78634D01*
X8698Y78614D01*
X8709Y78591D01*
X8717Y78564D01*
X8723Y78531D01*
X8726Y78493D01*
X8727Y78450D01*
X8727Y78100D01*
X8842Y78100D01*
X8842Y78100D01*
X7801Y78437D02*
X7795Y78525D01*
X7775Y78600D01*
X7743Y78663D01*
X7697Y78714D01*
X7651Y78747D01*
X7601Y78771D01*
X7545Y78785D01*
X7485Y78789D01*
X7419Y78784D01*
X7359Y78767D01*
X7305Y78738D01*
X7258Y78698D01*
X7219Y78648D01*
X7192Y78590D01*
X7175Y78523D01*
X7170Y78447D01*
X7172Y78385D01*
X7179Y78330D01*
X7192Y78283D01*
X7209Y78242D01*
X7230Y78207D01*
X7257Y78176D01*
X7287Y78149D01*
X7322Y78126D01*
X7360Y78108D01*
X7400Y78095D01*
X7442Y78087D01*
X7485Y78085D01*
X7493Y78085D01*
X7485Y78179D01*
X7444Y78183D01*
X7407Y78195D01*
X7374Y78215D01*
X7344Y78243D01*
X7319Y78280D01*
X7301Y78325D01*
X7291Y78379D01*
X7287Y78441D01*
X7291Y78500D01*
X7301Y78551D01*
X7319Y78594D01*
X7344Y78630D01*
X7374Y78659D01*
X7408Y78679D01*
X7445Y78691D01*
X7485Y78695D01*
X7526Y78691D01*
X7563Y78679D01*
X7597Y78659D01*
X7627Y78631D01*
X7652Y78595D01*
X7670Y78550D01*
X7680Y78498D01*
X7684Y78437D01*
X7684Y78437D01*
X7680Y78376D01*
X7670Y78324D01*
X7652Y78279D01*
X7627Y78243D01*
X7597Y78215D01*
X7563Y78195D01*
X7526Y78183D01*
X7485Y78179D01*
X7493Y78085D01*
X7552Y78090D01*
X7613Y78107D01*
X7667Y78136D01*
X7714Y78176D01*
X7752Y78226D01*
X7779Y78286D01*
X7796Y78357D01*
X7801Y78437D01*
X7801Y78437D01*
X7036Y78100D02*
X7036Y78774D01*
X6933Y78774D01*
X6933Y78678D01*
X6892Y78727D01*
X6842Y78762D01*
X6784Y78782D01*
X6718Y78789D01*
X6688Y78788D01*
X6660Y78784D01*
X6632Y78777D01*
X6606Y78767D01*
X6582Y78756D01*
X6562Y78742D01*
X6544Y78727D01*
X6530Y78710D01*
X6518Y78691D01*
X6508Y78671D01*
X6500Y78649D01*
X6494Y78626D01*
X6491Y78607D01*
X6489Y78582D01*
X6488Y78551D01*
X6488Y78515D01*
X6488Y78100D01*
X6602Y78100D01*
X6602Y78510D01*
X6603Y78543D01*
X6605Y78571D01*
X6610Y78595D01*
X6615Y78614D01*
X6623Y78631D01*
X6634Y78646D01*
X6647Y78659D01*
X6663Y78670D01*
X6680Y78679D01*
X6700Y78685D01*
X6720Y78689D01*
X6742Y78690D01*
X6778Y78687D01*
X6810Y78679D01*
X6841Y78664D01*
X6868Y78644D01*
X6892Y78616D01*
X6908Y78577D01*
X6918Y78528D01*
X6921Y78468D01*
X6921Y78100D01*
X7036Y78100D01*
X7036Y78100D01*
X6355Y78437D02*
X6349Y78525D01*
X6329Y78600D01*
X6297Y78663D01*
X6251Y78714D01*
X6205Y78747D01*
X6155Y78771D01*
X6099Y78785D01*
X6039Y78789D01*
X5973Y78784D01*
X5913Y78767D01*
X5859Y78738D01*
X5812Y78698D01*
X5773Y78648D01*
X5746Y78590D01*
X5729Y78523D01*
X5724Y78447D01*
X5726Y78385D01*
X5733Y78330D01*
X5746Y78283D01*
X5763Y78242D01*
X5784Y78207D01*
X5811Y78176D01*
X5841Y78149D01*
X5876Y78126D01*
X5914Y78108D01*
X5954Y78095D01*
X5996Y78087D01*
X6039Y78085D01*
X6047Y78085D01*
X6039Y78179D01*
X5998Y78183D01*
X5961Y78195D01*
X5928Y78215D01*
X5898Y78243D01*
X5873Y78280D01*
X5855Y78325D01*
X5845Y78379D01*
X5841Y78441D01*
X5845Y78500D01*
X5855Y78551D01*
X5873Y78594D01*
X5898Y78630D01*
X5928Y78659D01*
X5962Y78679D01*
X5999Y78691D01*
X6039Y78695D01*
X6080Y78691D01*
X6117Y78679D01*
X6151Y78659D01*
X6181Y78631D01*
X6206Y78595D01*
X6224Y78550D01*
X6234Y78498D01*
X6238Y78437D01*
X6238Y78437D01*
X6234Y78376D01*
X6224Y78324D01*
X6206Y78279D01*
X6181Y78243D01*
X6151Y78215D01*
X6117Y78195D01*
X6080Y78183D01*
X6039Y78179D01*
X6047Y78085D01*
X6106Y78090D01*
X6167Y78107D01*
X6221Y78136D01*
X6268Y78176D01*
X6306Y78226D01*
X6333Y78286D01*
X6350Y78357D01*
X6355Y78437D01*
X6355Y78437D01*
X5228Y78100D02*
X5228Y78774D01*
X5126Y78774D01*
X5126Y78680D01*
X5109Y78703D01*
X5089Y78724D01*
X5067Y78743D01*
X5042Y78759D01*
X5015Y78772D01*
X4986Y78782D01*
X4955Y78787D01*
X4922Y78789D01*
X4886Y78787D01*
X4854Y78782D01*
X4825Y78772D01*
X4799Y78758D01*
X4777Y78741D01*
X4758Y78721D01*
X4743Y78698D01*
X4731Y78671D01*
X4688Y78723D01*
X4639Y78760D01*
X4584Y78782D01*
X4523Y78789D01*
X4476Y78786D01*
X4435Y78775D01*
X4399Y78758D01*
X4369Y78734D01*
X4345Y78702D01*
X4329Y78663D01*
X4318Y78617D01*
X4315Y78563D01*
X4315Y78100D01*
X4429Y78100D01*
X4429Y78525D01*
X4429Y78557D01*
X4431Y78584D01*
X4435Y78606D01*
X4440Y78623D01*
X4446Y78638D01*
X4455Y78651D01*
X4467Y78662D01*
X4480Y78672D01*
X4495Y78680D01*
X4512Y78686D01*
X4530Y78689D01*
X4549Y78690D01*
X4583Y78687D01*
X4614Y78679D01*
X4642Y78664D01*
X4667Y78643D01*
X4687Y78616D01*
X4702Y78582D01*
X4711Y78540D01*
X4714Y78492D01*
X4714Y78100D01*
X4828Y78100D01*
X4828Y78538D01*
X4830Y78574D01*
X4835Y78605D01*
X4844Y78631D01*
X4856Y78652D01*
X4872Y78669D01*
X4893Y78681D01*
X4918Y78688D01*
X4947Y78690D01*
X4971Y78689D01*
X4994Y78684D01*
X5016Y78676D01*
X5036Y78665D01*
X5056Y78651D01*
X5072Y78634D01*
X5085Y78614D01*
X5096Y78591D01*
X5104Y78564D01*
X5110Y78531D01*
X5113Y78493D01*
X5114Y78450D01*
X5114Y78100D01*
X5228Y78100D01*
X5228Y78100D01*
X4188Y78437D02*
X4182Y78525D01*
X4162Y78600D01*
X4130Y78663D01*
X4084Y78714D01*
X4038Y78747D01*
X3987Y78771D01*
X3932Y78785D01*
X3872Y78789D01*
X3806Y78784D01*
X3746Y78767D01*
X3692Y78738D01*
X3645Y78698D01*
X3606Y78648D01*
X3579Y78590D01*
X3562Y78523D01*
X3556Y78447D01*
X3559Y78385D01*
X3566Y78330D01*
X3578Y78283D01*
X3596Y78242D01*
X3617Y78207D01*
X3643Y78176D01*
X3674Y78149D01*
X3709Y78126D01*
X3747Y78108D01*
X3787Y78095D01*
X3829Y78087D01*
X3872Y78085D01*
X3880Y78085D01*
X3872Y78179D01*
X3831Y78183D01*
X3794Y78195D01*
X3760Y78215D01*
X3730Y78243D01*
X3706Y78280D01*
X3688Y78325D01*
X3677Y78379D01*
X3674Y78441D01*
X3677Y78500D01*
X3688Y78551D01*
X3706Y78594D01*
X3731Y78630D01*
X3761Y78659D01*
X3794Y78679D01*
X3831Y78691D01*
X3872Y78695D01*
X3913Y78691D01*
X3950Y78679D01*
X3984Y78659D01*
X4014Y78631D01*
X4039Y78595D01*
X4057Y78550D01*
X4067Y78498D01*
X4071Y78437D01*
X4071Y78437D01*
X4067Y78376D01*
X4057Y78324D01*
X4039Y78279D01*
X4014Y78243D01*
X3984Y78215D01*
X3950Y78195D01*
X3913Y78183D01*
X3872Y78179D01*
X3880Y78085D01*
X3939Y78090D01*
X4000Y78107D01*
X4054Y78136D01*
X4101Y78176D01*
X4139Y78226D01*
X4166Y78286D01*
X4183Y78357D01*
X4188Y78437D01*
X4188Y78437D01*
X2985Y78100D02*
X2985Y78185D01*
X3037Y78239D01*
X3036Y78240D01*
X3013Y78275D01*
X2996Y78317D01*
X2987Y78368D01*
X2983Y78427D01*
X2987Y78491D01*
X2997Y78547D01*
X3013Y78593D01*
X3037Y78630D01*
X3065Y78658D01*
X3096Y78679D01*
X3131Y78691D01*
X3168Y78695D01*
X3205Y78691D01*
X3238Y78679D01*
X3268Y78660D01*
X3295Y78633D01*
X3318Y78597D01*
X3334Y78552D01*
X3343Y78499D01*
X3346Y78436D01*
X3346Y78436D01*
X3343Y78376D01*
X3333Y78323D01*
X3316Y78279D01*
X3292Y78243D01*
X3263Y78215D01*
X3232Y78195D01*
X3199Y78183D01*
X3163Y78179D01*
X3127Y78183D01*
X3094Y78194D01*
X3063Y78213D01*
X3037Y78239D01*
X2985Y78185D01*
X3021Y78141D01*
X3064Y78110D01*
X3115Y78091D01*
X3174Y78085D01*
X3213Y78088D01*
X3251Y78096D01*
X3287Y78110D01*
X3322Y78129D01*
X3354Y78154D01*
X3382Y78182D01*
X3406Y78216D01*
X3427Y78253D01*
X3443Y78295D01*
X3455Y78339D01*
X3461Y78386D01*
X3464Y78436D01*
X3462Y78486D01*
X3455Y78533D01*
X3445Y78577D01*
X3430Y78620D01*
X3411Y78658D01*
X3388Y78692D01*
X3361Y78721D01*
X3329Y78746D01*
X3295Y78765D01*
X3258Y78778D01*
X3219Y78787D01*
X3179Y78789D01*
X3149Y78788D01*
X3121Y78783D01*
X3095Y78775D01*
X3070Y78764D01*
X3048Y78750D01*
X3027Y78734D01*
X3009Y78716D01*
X2993Y78697D01*
X2993Y79031D01*
X2879Y79031D01*
X2879Y78100D01*
X2985Y78100D01*
X2985Y78100D01*
X2258Y78100D02*
X2258Y78199D01*
X2301Y78149D01*
X2351Y78113D01*
X2408Y78092D01*
X2472Y78085D01*
X2501Y78086D01*
X2529Y78090D01*
X2557Y78098D01*
X2583Y78108D01*
X2607Y78120D01*
X2628Y78133D01*
X2646Y78148D01*
X2660Y78165D01*
X2671Y78183D01*
X2681Y78204D01*
X2689Y78226D01*
X2695Y78250D01*
X2698Y78269D01*
X2700Y78293D01*
X2702Y78322D01*
X2702Y78356D01*
X2702Y78774D01*
X2588Y78774D01*
X2588Y78400D01*
X2587Y78359D01*
X2586Y78325D01*
X2584Y78299D01*
X2581Y78280D01*
X2574Y78258D01*
X2564Y78239D01*
X2551Y78223D01*
X2535Y78209D01*
X2517Y78198D01*
X2496Y78190D01*
X2473Y78185D01*
X2449Y78183D01*
X2423Y78185D01*
X2399Y78190D01*
X2375Y78198D01*
X2352Y78209D01*
X2331Y78224D01*
X2314Y78241D01*
X2300Y78260D01*
X2289Y78281D01*
X2280Y78306D01*
X2274Y78337D01*
X2271Y78372D01*
X2270Y78413D01*
X2270Y78774D01*
X2156Y78774D01*
X2156Y78100D01*
X2258Y78100D01*
X2258Y78100D01*
X1979Y78100D02*
X1979Y79031D01*
X1865Y79031D01*
X1865Y78100D01*
X1979Y78100D01*
X1979Y78100D01*
X1226Y78317D02*
X1108Y78302D01*
X1125Y78254D01*
X1148Y78211D01*
X1177Y78173D01*
X1212Y78142D01*
X1252Y78117D01*
X1298Y78099D01*
X1349Y78088D01*
X1405Y78085D01*
X1475Y78090D01*
X1537Y78108D01*
X1592Y78136D01*
X1639Y78176D01*
X1677Y78226D01*
X1704Y78285D01*
X1720Y78354D01*
X1726Y78431D01*
X1720Y78512D01*
X1704Y78582D01*
X1677Y78644D01*
X1638Y78695D01*
X1591Y78737D01*
X1538Y78766D01*
X1478Y78783D01*
X1411Y78789D01*
X1401Y78789D01*
X1410Y78695D01*
X1447Y78692D01*
X1482Y78682D01*
X1514Y78666D01*
X1542Y78643D01*
X1566Y78614D01*
X1584Y78581D01*
X1596Y78544D01*
X1601Y78502D01*
X1601Y78502D01*
X1225Y78502D01*
X1231Y78542D01*
X1240Y78576D01*
X1252Y78605D01*
X1268Y78629D01*
X1297Y78658D01*
X1331Y78679D01*
X1368Y78691D01*
X1410Y78695D01*
X1401Y78789D01*
X1346Y78784D01*
X1288Y78766D01*
X1236Y78738D01*
X1190Y78697D01*
X1153Y78647D01*
X1126Y78587D01*
X1110Y78517D01*
X1104Y78438D01*
X1104Y78433D01*
X1105Y78426D01*
X1105Y78417D01*
X1105Y78408D01*
X1608Y78408D01*
X1601Y78356D01*
X1589Y78310D01*
X1570Y78271D01*
X1545Y78238D01*
X1515Y78212D01*
X1481Y78193D01*
X1444Y78182D01*
X1404Y78179D01*
X1374Y78181D01*
X1346Y78187D01*
X1320Y78197D01*
X1297Y78212D01*
X1276Y78231D01*
X1257Y78255D01*
X1240Y78283D01*
X1226Y78317D01*
X1226Y78317D01*
X10136Y71000D02*
X10497Y71931D01*
X10363Y71931D01*
X10121Y71255D01*
X10107Y71215D01*
X10095Y71176D01*
X10083Y71138D01*
X10073Y71102D01*
X10061Y71140D01*
X10049Y71178D01*
X10036Y71216D01*
X10022Y71255D01*
X9771Y71931D01*
X9645Y71931D01*
X10010Y71000D01*
X10136Y71000D01*
X10136Y71000D01*
X9160Y71217D02*
X9042Y71202D01*
X9059Y71154D01*
X9081Y71111D01*
X9110Y71073D01*
X9145Y71042D01*
X9185Y71017D01*
X9231Y70999D01*
X9282Y70988D01*
X9338Y70985D01*
X9408Y70990D01*
X9471Y71008D01*
X9525Y71036D01*
X9573Y71076D01*
X9611Y71126D01*
X9638Y71185D01*
X9654Y71254D01*
X9659Y71331D01*
X9654Y71412D01*
X9637Y71482D01*
X9610Y71544D01*
X9572Y71595D01*
X9525Y71637D01*
X9471Y71666D01*
X9411Y71683D01*
X9344Y71689D01*
X9335Y71689D01*
X9343Y71595D01*
X9381Y71592D01*
X9416Y71582D01*
X9447Y71566D01*
X9475Y71543D01*
X9499Y71514D01*
X9517Y71481D01*
X9529Y71444D01*
X9535Y71402D01*
X9535Y71402D01*
X9158Y71402D01*
X9164Y71442D01*
X9173Y71476D01*
X9186Y71505D01*
X9202Y71529D01*
X9231Y71558D01*
X9264Y71579D01*
X9302Y71591D01*
X9343Y71595D01*
X9335Y71689D01*
X9280Y71684D01*
X9222Y71666D01*
X9169Y71638D01*
X9124Y71597D01*
X9086Y71547D01*
X9059Y71487D01*
X9043Y71417D01*
X9038Y71338D01*
X9038Y71333D01*
X9038Y71326D01*
X9038Y71317D01*
X9038Y71308D01*
X9541Y71308D01*
X9535Y71256D01*
X9522Y71210D01*
X9503Y71171D01*
X9478Y71138D01*
X9448Y71112D01*
X9415Y71093D01*
X9378Y71082D01*
X9337Y71079D01*
X9307Y71081D01*
X9279Y71087D01*
X9254Y71097D01*
X9230Y71112D01*
X9209Y71131D01*
X9190Y71155D01*
X9174Y71183D01*
X9160Y71217D01*
X9160Y71217D01*
X8899Y71000D02*
X8899Y71674D01*
X8797Y71674D01*
X8797Y71572D01*
X8777Y71605D01*
X8759Y71631D01*
X8741Y71652D01*
X8724Y71667D01*
X8707Y71677D01*
X8689Y71684D01*
X8670Y71688D01*
X8651Y71689D01*
X8622Y71687D01*
X8592Y71680D01*
X8563Y71669D01*
X8533Y71653D01*
X8573Y71547D01*
X8593Y71557D01*
X8614Y71565D01*
X8635Y71570D01*
X8656Y71571D01*
X8675Y71570D01*
X8692Y71566D01*
X8708Y71559D01*
X8724Y71549D01*
X8737Y71536D01*
X8749Y71522D01*
X8759Y71505D01*
X8766Y71486D01*
X8774Y71455D01*
X8780Y71422D01*
X8784Y71388D01*
X8785Y71353D01*
X8785Y71000D01*
X8899Y71000D01*
X8899Y71000D01*
X8511Y71201D02*
X8398Y71219D01*
X8391Y71187D01*
X8380Y71159D01*
X8365Y71135D01*
X8345Y71115D01*
X8321Y71099D01*
X8293Y71088D01*
X8260Y71081D01*
X8223Y71079D01*
X8187Y71081D01*
X8155Y71087D01*
X8128Y71097D01*
X8107Y71111D01*
X8090Y71127D01*
X8078Y71146D01*
X8071Y71165D01*
X8069Y71186D01*
X8071Y71204D01*
X8077Y71221D01*
X8087Y71235D01*
X8102Y71247D01*
X8118Y71255D01*
X8143Y71264D01*
X8177Y71274D01*
X8219Y71286D01*
X8277Y71301D01*
X8325Y71315D01*
X8364Y71328D01*
X8393Y71341D01*
X8416Y71353D01*
X8436Y71368D01*
X8453Y71385D01*
X8467Y71405D01*
X8478Y71426D01*
X8486Y71448D01*
X8490Y71471D01*
X8492Y71495D01*
X8491Y71517D01*
X8487Y71539D01*
X8480Y71559D01*
X8471Y71579D01*
X8460Y71597D01*
X8447Y71614D01*
X8432Y71629D01*
X8415Y71642D01*
X8401Y71652D01*
X8384Y71661D01*
X8364Y71669D01*
X8342Y71676D01*
X8319Y71682D01*
X8295Y71686D01*
X8270Y71689D01*
X8244Y71689D01*
X8205Y71688D01*
X8169Y71684D01*
X8136Y71677D01*
X8104Y71667D01*
X8076Y71654D01*
X8052Y71640D01*
X8032Y71623D01*
X8016Y71605D01*
X8003Y71583D01*
X7992Y71559D01*
X7983Y71531D01*
X7976Y71500D01*
X8088Y71485D01*
X8094Y71510D01*
X8103Y71531D01*
X8116Y71550D01*
X8132Y71566D01*
X8152Y71579D01*
X8176Y71588D01*
X8204Y71594D01*
X8235Y71595D01*
X8272Y71594D01*
X8303Y71589D01*
X8328Y71581D01*
X8348Y71569D01*
X8363Y71556D01*
X8373Y71541D01*
X8379Y71525D01*
X8381Y71508D01*
X8381Y71498D01*
X8378Y71487D01*
X8374Y71478D01*
X8368Y71468D01*
X8360Y71460D01*
X8350Y71452D01*
X8338Y71444D01*
X8324Y71438D01*
X8311Y71434D01*
X8290Y71428D01*
X8261Y71419D01*
X8223Y71409D01*
X8167Y71393D01*
X8120Y71379D01*
X8082Y71367D01*
X8054Y71356D01*
X8031Y71344D01*
X8011Y71330D01*
X7993Y71314D01*
X7978Y71296D01*
X7966Y71275D01*
X7958Y71252D01*
X7953Y71226D01*
X7951Y71198D01*
X7953Y71170D01*
X7959Y71143D01*
X7970Y71116D01*
X7984Y71090D01*
X8003Y71067D01*
X8025Y71046D01*
X8051Y71028D01*
X8081Y71012D01*
X8113Y71000D01*
X8148Y70992D01*
X8184Y70986D01*
X8223Y70985D01*
X8285Y70988D01*
X8339Y70998D01*
X8385Y71015D01*
X8423Y71039D01*
X8454Y71070D01*
X8479Y71107D01*
X8498Y71151D01*
X8511Y71201D01*
X8511Y71201D01*
X7815Y71000D02*
X7815Y71674D01*
X7700Y71674D01*
X7700Y71000D01*
X7815Y71000D01*
X7815Y71000D01*
X7815Y71799D02*
X7815Y71931D01*
X7700Y71931D01*
X7700Y71799D01*
X7815Y71799D01*
X7815Y71799D01*
X7569Y71337D02*
X7562Y71425D01*
X7543Y71500D01*
X7510Y71563D01*
X7465Y71614D01*
X7419Y71647D01*
X7368Y71671D01*
X7313Y71685D01*
X7253Y71689D01*
X7187Y71684D01*
X7127Y71667D01*
X7073Y71638D01*
X7026Y71598D01*
X6987Y71548D01*
X6959Y71490D01*
X6943Y71423D01*
X6937Y71347D01*
X6940Y71285D01*
X6947Y71230D01*
X6959Y71183D01*
X6976Y71142D01*
X6998Y71107D01*
X7024Y71076D01*
X7055Y71049D01*
X7090Y71026D01*
X7128Y71008D01*
X7168Y70995D01*
X7210Y70987D01*
X7253Y70985D01*
X7261Y70985D01*
X7253Y71079D01*
X7212Y71083D01*
X7175Y71095D01*
X7141Y71115D01*
X7111Y71143D01*
X7087Y71180D01*
X7069Y71225D01*
X7058Y71279D01*
X7055Y71341D01*
X7058Y71400D01*
X7069Y71451D01*
X7087Y71494D01*
X7112Y71530D01*
X7142Y71559D01*
X7175Y71579D01*
X7212Y71591D01*
X7253Y71595D01*
X7294Y71591D01*
X7331Y71579D01*
X7365Y71559D01*
X7395Y71531D01*
X7420Y71495D01*
X7437Y71450D01*
X7448Y71398D01*
X7452Y71337D01*
X7452Y71337D01*
X7448Y71276D01*
X7437Y71224D01*
X7420Y71179D01*
X7395Y71143D01*
X7365Y71115D01*
X7331Y71095D01*
X7294Y71083D01*
X7253Y71079D01*
X7261Y70985D01*
X7320Y70990D01*
X7381Y71007D01*
X7435Y71036D01*
X7482Y71076D01*
X7520Y71126D01*
X7547Y71186D01*
X7564Y71257D01*
X7569Y71337D01*
X7569Y71337D01*
X6803Y71000D02*
X6803Y71674D01*
X6701Y71674D01*
X6701Y71578D01*
X6659Y71627D01*
X6610Y71662D01*
X6552Y71682D01*
X6486Y71689D01*
X6456Y71688D01*
X6428Y71684D01*
X6400Y71677D01*
X6374Y71667D01*
X6350Y71656D01*
X6329Y71642D01*
X6312Y71627D01*
X6298Y71610D01*
X6286Y71591D01*
X6276Y71571D01*
X6268Y71549D01*
X6262Y71526D01*
X6259Y71507D01*
X6257Y71482D01*
X6256Y71451D01*
X6256Y71415D01*
X6256Y71000D01*
X6370Y71000D01*
X6370Y71410D01*
X6371Y71443D01*
X6373Y71471D01*
X6377Y71495D01*
X6383Y71514D01*
X6391Y71531D01*
X6402Y71546D01*
X6415Y71559D01*
X6431Y71570D01*
X6448Y71579D01*
X6467Y71585D01*
X6488Y71589D01*
X6510Y71590D01*
X6545Y71587D01*
X6578Y71579D01*
X6608Y71564D01*
X6636Y71544D01*
X6659Y71516D01*
X6676Y71477D01*
X6686Y71428D01*
X6689Y71368D01*
X6689Y71000D01*
X6803Y71000D01*
X6803Y71000D01*
X5321Y71000D02*
X5435Y71000D01*
X5435Y71728D01*
X5457Y71708D01*
X5483Y71689D01*
X5511Y71669D01*
X5543Y71649D01*
X5576Y71631D01*
X5607Y71615D01*
X5636Y71601D01*
X5663Y71590D01*
X5663Y71701D01*
X5617Y71725D01*
X5574Y71751D01*
X5533Y71779D01*
X5496Y71810D01*
X5463Y71842D01*
X5435Y71873D01*
X5412Y71904D01*
X5394Y71934D01*
X5321Y71934D01*
X5321Y71000D01*
X5321Y71000D01*
X4964Y71000D02*
X4964Y71130D01*
X4834Y71130D01*
X4834Y71000D01*
X4964Y71000D01*
X4964Y71000D01*
X4667Y71459D02*
X4665Y71537D01*
X4658Y71608D01*
X4648Y71670D01*
X4633Y71725D01*
X4614Y71772D01*
X4591Y71814D01*
X4563Y71850D01*
X4532Y71880D01*
X4496Y71904D01*
X4456Y71921D01*
X4412Y71931D01*
X4363Y71934D01*
X4327Y71932D01*
X4293Y71927D01*
X4261Y71917D01*
X4232Y71904D01*
X4205Y71887D01*
X4180Y71867D01*
X4158Y71844D01*
X4139Y71817D01*
X4121Y71787D01*
X4106Y71754D01*
X4092Y71718D01*
X4081Y71679D01*
X4072Y71635D01*
X4065Y71583D01*
X4061Y71525D01*
X4060Y71459D01*
X4062Y71381D01*
X4068Y71311D01*
X4079Y71249D01*
X4094Y71195D01*
X4113Y71147D01*
X4136Y71105D01*
X4163Y71069D01*
X4194Y71039D01*
X4230Y71015D01*
X4270Y70998D01*
X4314Y70988D01*
X4363Y70984D01*
X4372Y70985D01*
X4363Y71078D01*
X4326Y71083D01*
X4291Y71097D01*
X4259Y71121D01*
X4231Y71154D01*
X4208Y71202D01*
X4191Y71269D01*
X4181Y71354D01*
X4177Y71459D01*
X4181Y71564D01*
X4191Y71650D01*
X4208Y71717D01*
X4231Y71764D01*
X4260Y71797D01*
X4291Y71821D01*
X4326Y71835D01*
X4365Y71840D01*
X4402Y71836D01*
X4435Y71823D01*
X4465Y71802D01*
X4490Y71773D01*
X4516Y71722D01*
X4535Y71652D01*
X4546Y71565D01*
X4549Y71459D01*
X4549Y71459D01*
X4546Y71354D01*
X4536Y71268D01*
X4519Y71201D01*
X4496Y71154D01*
X4467Y71121D01*
X4436Y71097D01*
X4401Y71083D01*
X4363Y71078D01*
X4372Y70985D01*
X4427Y70990D01*
X4484Y71008D01*
X4533Y71038D01*
X4575Y71081D01*
X4615Y71148D01*
X4644Y71233D01*
X4661Y71337D01*
X4667Y71459D01*
X4667Y71459D01*
G37*
M02*