%FSLAX33Y33*%
%MOMM*%
%ADD10C,0.3302*%
%ADD11C,1.6*%
%ADD12C,2.5*%
D10*
%LNhole_traces*%
G01*
X13500Y98500D03*
X13500Y76500D03*
X1500Y76500D03*
X1500Y37500D03*
X1500Y51500D03*
X1500Y1500D03*
X13500Y37500D03*
X5500Y26500D03*
X7500Y12500D03*
X1500Y12500D03*
X9500Y76500D03*
X1500Y26500D03*
X13500Y26500D03*
X13500Y23500D03*
X5500Y23500D03*
X5500Y1500D03*
X9500Y1500D03*
X7500Y37500D03*
X7500Y62500D03*
X9500Y51500D03*
X9500Y73500D03*
X1500Y23500D03*
X1500Y48500D03*
X5500Y73500D03*
X5500Y98500D03*
X1500Y98500D03*
X13500Y62500D03*
X9500Y23500D03*
X13500Y87500D03*
X9500Y26500D03*
X5500Y51500D03*
X13500Y12500D03*
X9500Y48500D03*
X7500Y87500D03*
X1500Y73500D03*
X13500Y51500D03*
X1500Y62500D03*
X5500Y76500D03*
X5500Y48500D03*
X13500Y73500D03*
X1500Y87500D03*
X9500Y98500D03*
X13500Y1500D03*
X13500Y48500D03*
%LNhole component 3fb5e9521f601311*%
D11*
X13800Y58350D03*
X7650Y58350D03*
X5750Y56350D03*
X11350Y56350D03*
X2000Y58350D03*
%LNhole component 4b71c591f59c26dc*%
D12*
X13400Y17500D03*
X8100Y17500D03*
X2300Y17500D03*
%LNhole component 2b672832dfb926b3*%
X13400Y42500D03*
X8100Y42500D03*
X2300Y42500D03*
%LNhole component 3ce0a186223d8698*%
X13400Y92500D03*
X8100Y92500D03*
X2300Y92500D03*
%LNhole component cc2776c741d44b0f*%
D11*
X13800Y83350D03*
X7650Y83350D03*
X5750Y81350D03*
X11350Y81350D03*
X2000Y83350D03*
%LNhole component 3c7ebbcfeb0a4b8a*%
X13800Y33350D03*
X7650Y33350D03*
X5750Y31350D03*
X11350Y31350D03*
X2000Y33350D03*
%LNhole component a0d7690caaceb52f*%
D12*
X13400Y67500D03*
X8100Y67500D03*
X2300Y67500D03*
%LNhole component 1a80c549fdb419d6*%
D11*
X13800Y8350D03*
X7650Y8350D03*
X5750Y6350D03*
X11350Y6350D03*
X2000Y8350D03*
M02*