<?xml version="1.0" standalone="no"?>
<!DOCTYPE svg PUBLIC "-//W3C//DTD SVG 1.1//EN" "http://www.w3.org/Graphics/SVG/1.1/DTD/svg11.dtd">
<svg width="20mm" height="129mm" viewBox="0 -129 20 129" xmlns="http://www.w3.org/2000/svg" version="1.1">
<title>OpenSCAD Model</title>
<path d="
M 20,-128.5 L 0,-128.5 L 0,-0 L 20,-0 z
M 7.34317,-123.908 L 7.18785,-123.931 L 7.03554,-123.969 L 6.8877,-124.022 L 6.74576,-124.089 L 6.61108,-124.17
 L 6.48497,-124.263 L 6.36862,-124.369 L 6.26317,-124.485 L 6.16965,-124.611 L 6.08891,-124.746 L 6.02179,-124.888
 L 5.96889,-125.036 L 5.93074,-125.188 L 5.9077,-125.343 L 5.89999,-125.5 L 5.9077,-125.657 L 5.93074,-125.812
 L 5.96889,-125.964 L 6.02179,-126.112 L 6.08891,-126.254 L 6.16965,-126.389 L 6.26317,-126.515 L 6.36862,-126.631
 L 6.48497,-126.737 L 6.61108,-126.83 L 6.74576,-126.911 L 6.8877,-126.978 L 7.03554,-127.031 L 7.18785,-127.069
 L 7.34317,-127.092 L 7.5,-127.1 L 7.65681,-127.092 L 7.81213,-127.069 L 7.96445,-127.031 L 8.11229,-126.978
 L 8.25423,-126.911 L 8.3889,-126.83 L 8.51501,-126.737 L 8.63136,-126.631 L 8.73682,-126.515 L 8.83034,-126.389
 L 8.91107,-126.254 L 8.9782,-126.112 L 9.0311,-125.964 L 9.06924,-125.812 L 9.09229,-125.657 L 9.09999,-125.5
 L 9.09229,-125.343 L 9.06924,-125.188 L 9.0311,-125.036 L 8.9782,-124.888 L 8.91107,-124.746 L 8.83034,-124.611
 L 8.73682,-124.485 L 8.63136,-124.369 L 8.51501,-124.263 L 8.3889,-124.17 L 8.25423,-124.089 L 8.11229,-124.022
 L 7.96445,-123.969 L 7.81213,-123.931 L 7.65681,-123.908 L 7.5,-123.9 z
M 6.20694,-103.267 L 5.86717,-103.317 L 5.534,-103.401 L 5.2106,-103.516 L 4.9001,-103.663 L 4.6055,-103.84
 L 4.32962,-104.044 L 4.07512,-104.275 L 3.84445,-104.53 L 3.63985,-104.805 L 3.46327,-105.1 L 3.31642,-105.411
 L 3.2007,-105.734 L 3.11725,-106.067 L 3.06685,-106.407 L 3.04999,-106.75 L 3.06685,-107.093 L 3.11725,-107.433
 L 3.2007,-107.766 L 3.31642,-108.089 L 3.46327,-108.4 L 3.63985,-108.694 L 3.84445,-108.97 L 4.07512,-109.225
 L 4.32962,-109.456 L 4.6055,-109.66 L 4.9001,-109.837 L 5.2106,-109.984 L 5.534,-110.099 L 5.86717,-110.183
 L 6.20694,-110.233 L 6.54999,-110.25 L 6.89304,-110.233 L 7.2328,-110.183 L 7.56598,-110.099 L 7.88937,-109.984
 L 8.19987,-109.837 L 8.49448,-109.66 L 8.77036,-109.456 L 9.02486,-109.225 L 9.25552,-108.97 L 9.46013,-108.694
 L 9.6367,-108.4 L 9.78355,-108.089 L 9.89928,-107.766 L 9.98273,-107.433 L 10.0331,-107.093 L 10.05,-106.75
 L 10.0331,-106.407 L 9.98273,-106.067 L 9.89928,-105.734 L 9.78355,-105.411 L 9.6367,-105.1 L 9.46013,-104.805
 L 9.25552,-104.53 L 9.02486,-104.275 L 8.77036,-104.044 L 8.49448,-103.84 L 8.19987,-103.663 L 7.88937,-103.516
 L 7.56598,-103.401 L 7.2328,-103.317 L 6.89304,-103.267 L 6.54999,-103.25 z
M 6.20694,-93.2668 L 5.86717,-93.3172 L 5.534,-93.4007 L 5.2106,-93.5164 L 4.9001,-93.6633 L 4.6055,-93.8398
 L 4.32962,-94.0444 L 4.07512,-94.2751 L 3.84445,-94.5296 L 3.63985,-94.8055 L 3.46327,-95.1001 L 3.31642,-95.4106
 L 3.2007,-95.734 L 3.11725,-96.0672 L 3.06685,-96.4069 L 3.04999,-96.75 L 3.06685,-97.093 L 3.11725,-97.4328
 L 3.2007,-97.766 L 3.31642,-98.0894 L 3.46327,-98.3999 L 3.63985,-98.6945 L 3.84445,-98.9704 L 4.07512,-99.2249
 L 4.32962,-99.4555 L 4.6055,-99.6601 L 4.9001,-99.8367 L 5.2106,-99.9836 L 5.534,-100.099 L 5.86717,-100.183
 L 6.20694,-100.233 L 6.54999,-100.25 L 6.89304,-100.233 L 7.2328,-100.183 L 7.56598,-100.099 L 7.88937,-99.9836
 L 8.19987,-99.8367 L 8.49448,-99.6601 L 8.77036,-99.4555 L 9.02486,-99.2249 L 9.25552,-98.9704 L 9.46013,-98.6945
 L 9.6367,-98.3999 L 9.78355,-98.0894 L 9.89928,-97.766 L 9.98273,-97.4328 L 10.0331,-97.093 L 10.05,-96.75
 L 10.0331,-96.4069 L 9.98273,-96.0672 L 9.89928,-95.734 L 9.78355,-95.4106 L 9.6367,-95.1001 L 9.46013,-94.8055
 L 9.25552,-94.5296 L 9.02486,-94.2751 L 8.77036,-94.0444 L 8.49448,-93.8398 L 8.19987,-93.6633 L 7.88937,-93.5164
 L 7.56598,-93.4007 L 7.2328,-93.3172 L 6.89304,-93.2668 L 6.54999,-93.25 z
M 6.20694,-78.2668 L 5.86717,-78.3172 L 5.534,-78.4007 L 5.2106,-78.5164 L 4.9001,-78.6633 L 4.6055,-78.8398
 L 4.32962,-79.0444 L 4.07512,-79.2751 L 3.84445,-79.5296 L 3.63985,-79.8055 L 3.46327,-80.1001 L 3.31642,-80.4106
 L 3.2007,-80.734 L 3.11725,-81.0672 L 3.06685,-81.4069 L 3.04999,-81.75 L 3.06685,-82.093 L 3.11725,-82.4328
 L 3.2007,-82.766 L 3.31642,-83.0894 L 3.46327,-83.3999 L 3.63985,-83.6945 L 3.84445,-83.9704 L 4.07512,-84.2249
 L 4.32962,-84.4555 L 4.6055,-84.6601 L 4.9001,-84.8367 L 5.2106,-84.9836 L 5.534,-85.0993 L 5.86717,-85.1827
 L 6.20694,-85.2331 L 6.54999,-85.25 L 6.89304,-85.2331 L 7.2328,-85.1827 L 7.56598,-85.0993 L 7.88937,-84.9836
 L 8.19987,-84.8367 L 8.49448,-84.6601 L 8.77036,-84.4555 L 9.02486,-84.2249 L 9.25552,-83.9704 L 9.46013,-83.6945
 L 9.6367,-83.3999 L 9.78355,-83.0894 L 9.89928,-82.766 L 9.98273,-82.4328 L 10.0331,-82.093 L 10.05,-81.75
 L 10.0331,-81.4069 L 9.98273,-81.0672 L 9.89928,-80.734 L 9.78355,-80.4106 L 9.6367,-80.1001 L 9.46013,-79.8055
 L 9.25552,-79.5296 L 9.02486,-79.2751 L 8.77036,-79.0444 L 8.49448,-78.8398 L 8.19987,-78.6633 L 7.88937,-78.5164
 L 7.56598,-78.4007 L 7.2328,-78.3172 L 6.89304,-78.2668 L 6.54999,-78.25 z
M 6.20694,-68.2668 L 5.86717,-68.3172 L 5.534,-68.4007 L 5.2106,-68.5164 L 4.9001,-68.6633 L 4.6055,-68.8398
 L 4.32962,-69.0444 L 4.07512,-69.2751 L 3.84445,-69.5296 L 3.63985,-69.8055 L 3.46327,-70.1001 L 3.31642,-70.4106
 L 3.2007,-70.734 L 3.11725,-71.0672 L 3.06685,-71.4069 L 3.04999,-71.75 L 3.06685,-72.093 L 3.11725,-72.4328
 L 3.2007,-72.766 L 3.31642,-73.0894 L 3.46327,-73.3999 L 3.63985,-73.6945 L 3.84445,-73.9704 L 4.07512,-74.2249
 L 4.32962,-74.4555 L 4.6055,-74.6601 L 4.9001,-74.8367 L 5.2106,-74.9836 L 5.534,-75.0993 L 5.86717,-75.1827
 L 6.20694,-75.2331 L 6.54999,-75.25 L 6.89304,-75.2331 L 7.2328,-75.1827 L 7.56598,-75.0993 L 7.88937,-74.9836
 L 8.19987,-74.8367 L 8.49448,-74.6601 L 8.77036,-74.4555 L 9.02486,-74.2249 L 9.25552,-73.9704 L 9.46013,-73.6945
 L 9.6367,-73.3999 L 9.78355,-73.0894 L 9.89928,-72.766 L 9.98273,-72.4328 L 10.0331,-72.093 L 10.05,-71.75
 L 10.0331,-71.4069 L 9.98273,-71.0672 L 9.89928,-70.734 L 9.78355,-70.4106 L 9.6367,-70.1001 L 9.46013,-69.8055
 L 9.25552,-69.5296 L 9.02486,-69.2751 L 8.77036,-69.0444 L 8.49448,-68.8398 L 8.19987,-68.6633 L 7.88937,-68.5164
 L 7.56598,-68.4007 L 7.2328,-68.3172 L 6.89304,-68.2668 L 6.54999,-68.25 z
M 6.20694,-53.2668 L 5.86717,-53.3172 L 5.534,-53.4007 L 5.2106,-53.5164 L 4.9001,-53.6633 L 4.6055,-53.8398
 L 4.32962,-54.0444 L 4.07512,-54.2751 L 3.84445,-54.5296 L 3.63985,-54.8055 L 3.46327,-55.1001 L 3.31642,-55.4106
 L 3.2007,-55.734 L 3.11725,-56.0672 L 3.06685,-56.4069 L 3.04999,-56.75 L 3.06685,-57.093 L 3.11725,-57.4328
 L 3.2007,-57.766 L 3.31642,-58.0894 L 3.46327,-58.3999 L 3.63985,-58.6945 L 3.84445,-58.9704 L 4.07512,-59.2249
 L 4.32962,-59.4555 L 4.6055,-59.6601 L 4.9001,-59.8367 L 5.2106,-59.9836 L 5.534,-60.0993 L 5.86717,-60.1827
 L 6.20694,-60.2331 L 6.54999,-60.25 L 6.89304,-60.2331 L 7.2328,-60.1827 L 7.56598,-60.0993 L 7.88937,-59.9836
 L 8.19987,-59.8367 L 8.49448,-59.6601 L 8.77036,-59.4555 L 9.02486,-59.2249 L 9.25552,-58.9704 L 9.46013,-58.6945
 L 9.6367,-58.3999 L 9.78355,-58.0894 L 9.89928,-57.766 L 9.98273,-57.4328 L 10.0331,-57.093 L 10.05,-56.75
 L 10.0331,-56.4069 L 9.98273,-56.0672 L 9.89928,-55.734 L 9.78355,-55.4106 L 9.6367,-55.1001 L 9.46013,-54.8055
 L 9.25552,-54.5296 L 9.02486,-54.2751 L 8.77036,-54.0444 L 8.49448,-53.8398 L 8.19987,-53.6633 L 7.88937,-53.5164
 L 7.56598,-53.4007 L 7.2328,-53.3172 L 6.89304,-53.2668 L 6.54999,-53.25 z
M 6.20694,-43.2668 L 5.86717,-43.3172 L 5.534,-43.4007 L 5.2106,-43.5164 L 4.9001,-43.6633 L 4.6055,-43.8398
 L 4.32962,-44.0444 L 4.07512,-44.2751 L 3.84445,-44.5296 L 3.63985,-44.8055 L 3.46327,-45.1001 L 3.31642,-45.4106
 L 3.2007,-45.734 L 3.11725,-46.0672 L 3.06685,-46.4069 L 3.04999,-46.75 L 3.06685,-47.093 L 3.11725,-47.4328
 L 3.2007,-47.766 L 3.31642,-48.0894 L 3.46327,-48.3999 L 3.63985,-48.6945 L 3.84445,-48.9704 L 4.07512,-49.2249
 L 4.32962,-49.4555 L 4.6055,-49.6601 L 4.9001,-49.8367 L 5.2106,-49.9836 L 5.534,-50.0993 L 5.86717,-50.1827
 L 6.20694,-50.2331 L 6.54999,-50.25 L 6.89304,-50.2331 L 7.2328,-50.1827 L 7.56598,-50.0993 L 7.88937,-49.9836
 L 8.19987,-49.8367 L 8.49448,-49.6601 L 8.77036,-49.4555 L 9.02486,-49.2249 L 9.25552,-48.9704 L 9.46013,-48.6945
 L 9.6367,-48.3999 L 9.78355,-48.0894 L 9.89928,-47.766 L 9.98273,-47.4328 L 10.0331,-47.093 L 10.05,-46.75
 L 10.0331,-46.4069 L 9.98273,-46.0672 L 9.89928,-45.734 L 9.78355,-45.4106 L 9.6367,-45.1001 L 9.46013,-44.8055
 L 9.25552,-44.5296 L 9.02486,-44.2751 L 8.77036,-44.0444 L 8.49448,-43.8398 L 8.19987,-43.6633 L 7.88937,-43.5164
 L 7.56598,-43.4007 L 7.2328,-43.3172 L 6.89304,-43.2668 L 6.54999,-43.25 z
M 6.20694,-28.2668 L 5.86717,-28.3172 L 5.534,-28.4007 L 5.2106,-28.5164 L 4.9001,-28.6633 L 4.6055,-28.8398
 L 4.32962,-29.0444 L 4.07512,-29.2751 L 3.84445,-29.5296 L 3.63985,-29.8055 L 3.46327,-30.1001 L 3.31642,-30.4106
 L 3.2007,-30.734 L 3.11725,-31.0672 L 3.06685,-31.4069 L 3.04999,-31.75 L 3.06685,-32.093 L 3.11725,-32.4328
 L 3.2007,-32.766 L 3.31642,-33.0894 L 3.46327,-33.3999 L 3.63985,-33.6945 L 3.84445,-33.9704 L 4.07512,-34.2249
 L 4.32962,-34.4555 L 4.6055,-34.6601 L 4.9001,-34.8367 L 5.2106,-34.9836 L 5.534,-35.0993 L 5.86717,-35.1827
 L 6.20694,-35.2331 L 6.54999,-35.25 L 6.89304,-35.2331 L 7.2328,-35.1827 L 7.56598,-35.0993 L 7.88937,-34.9836
 L 8.19987,-34.8367 L 8.49448,-34.6601 L 8.77036,-34.4555 L 9.02486,-34.2249 L 9.25552,-33.9704 L 9.46013,-33.6945
 L 9.6367,-33.3999 L 9.78355,-33.0894 L 9.89928,-32.766 L 9.98273,-32.4328 L 10.0331,-32.093 L 10.05,-31.75
 L 10.0331,-31.4069 L 9.98273,-31.0672 L 9.89928,-30.734 L 9.78355,-30.4106 L 9.6367,-30.1001 L 9.46013,-29.8055
 L 9.25552,-29.5296 L 9.02486,-29.2751 L 8.77036,-29.0444 L 8.49448,-28.8398 L 8.19987,-28.6633 L 7.88937,-28.5164
 L 7.56598,-28.4007 L 7.2328,-28.3172 L 6.89304,-28.2668 L 6.54999,-28.25 z
M 6.20694,-18.2668 L 5.86717,-18.3172 L 5.534,-18.4007 L 5.2106,-18.5164 L 4.9001,-18.6633 L 4.6055,-18.8398
 L 4.32962,-19.0444 L 4.07512,-19.2751 L 3.84445,-19.5296 L 3.63985,-19.8055 L 3.46327,-20.1001 L 3.31642,-20.4106
 L 3.2007,-20.734 L 3.11725,-21.0672 L 3.06685,-21.4069 L 3.04999,-21.75 L 3.06685,-22.093 L 3.11725,-22.4328
 L 3.2007,-22.766 L 3.31642,-23.0894 L 3.46327,-23.3999 L 3.63985,-23.6945 L 3.84445,-23.9704 L 4.07512,-24.2249
 L 4.32962,-24.4555 L 4.6055,-24.6601 L 4.9001,-24.8367 L 5.2106,-24.9836 L 5.534,-25.0993 L 5.86717,-25.1827
 L 6.20694,-25.2331 L 6.54999,-25.25 L 6.89304,-25.2331 L 7.2328,-25.1827 L 7.56598,-25.0993 L 7.88937,-24.9836
 L 8.19987,-24.8367 L 8.49448,-24.6601 L 8.77036,-24.4555 L 9.02486,-24.2249 L 9.25552,-23.9704 L 9.46013,-23.6945
 L 9.6367,-23.3999 L 9.78355,-23.0894 L 9.89928,-22.766 L 9.98273,-22.4328 L 10.0331,-22.093 L 10.05,-21.75
 L 10.0331,-21.4069 L 9.98273,-21.0672 L 9.89928,-20.734 L 9.78355,-20.4106 L 9.6367,-20.1001 L 9.46013,-19.8055
 L 9.25552,-19.5296 L 9.02486,-19.2751 L 8.77036,-19.0444 L 8.49448,-18.8398 L 8.19987,-18.6633 L 7.88937,-18.5164
 L 7.56598,-18.4007 L 7.2328,-18.3172 L 6.89304,-18.2668 L 6.54999,-18.25 z
M 7.34317,-1.4077 L 7.18785,-1.43074 L 7.03554,-1.46889 L 6.8877,-1.52179 L 6.74576,-1.58891 L 6.61108,-1.66965
 L 6.48497,-1.76317 L 6.36862,-1.86862 L 6.26317,-1.98497 L 6.16965,-2.11108 L 6.08891,-2.24576 L 6.02179,-2.3877
 L 5.96889,-2.53554 L 5.93074,-2.68785 L 5.9077,-2.84317 L 5.89999,-3 L 5.9077,-3.15681 L 5.93074,-3.31213
 L 5.96889,-3.46445 L 6.02179,-3.61229 L 6.08891,-3.75423 L 6.16965,-3.8889 L 6.26317,-4.01501 L 6.36862,-4.13136
 L 6.48497,-4.23682 L 6.61108,-4.33034 L 6.74576,-4.41107 L 6.8877,-4.4782 L 7.03554,-4.5311 L 7.18785,-4.56924
 L 7.34317,-4.59229 L 7.5,-4.59999 L 7.65681,-4.59229 L 7.81213,-4.56924 L 7.96445,-4.5311 L 8.11229,-4.4782
 L 8.25423,-4.41107 L 8.3889,-4.33034 L 8.51501,-4.23682 L 8.63136,-4.13136 L 8.73682,-4.01501 L 8.83034,-3.8889
 L 8.91107,-3.75423 L 8.9782,-3.61229 L 9.0311,-3.46445 L 9.06924,-3.31213 L 9.09229,-3.15681 L 9.09999,-3
 L 9.09229,-2.84317 L 9.06924,-2.68785 L 9.0311,-2.53554 L 8.9782,-2.3877 L 8.91107,-2.24576 L 8.83034,-2.11108
 L 8.73682,-1.98497 L 8.63136,-1.86862 L 8.51501,-1.76317 L 8.3889,-1.66965 L 8.25423,-1.58891 L 8.11229,-1.52179
 L 7.96445,-1.46889 L 7.81213,-1.43074 L 7.65681,-1.4077 L 7.5,-1.39999 z
" stroke="black" fill="lightgray" stroke-width="0.5"/>
</svg>
