<?xml version="1.0" standalone="no"?>
<!DOCTYPE svg PUBLIC "-//W3C//DTD SVG 1.1//EN" "http://www.w3.org/Graphics/SVG/1.1/DTD/svg11.dtd">
<svg width="20mm" height="129mm" viewBox="0 -129 20 129" xmlns="http://www.w3.org/2000/svg" version="1.1">
<title>OpenSCAD Model</title>
<path d="
M 20,-128.5 L 0,-128.5 L 0,-0 L 20,-0 z
M 7.34317,-123.908 L 7.18785,-123.931 L 7.03554,-123.969 L 6.8877,-124.022 L 6.74576,-124.089 L 6.61108,-124.17
 L 6.48497,-124.263 L 6.36862,-124.369 L 6.26317,-124.485 L 6.16965,-124.611 L 6.08891,-124.746 L 6.02179,-124.888
 L 5.96889,-125.036 L 5.93074,-125.188 L 5.9077,-125.343 L 5.89999,-125.5 L 5.9077,-125.657 L 5.93074,-125.812
 L 5.96889,-125.964 L 6.02179,-126.112 L 6.08891,-126.254 L 6.16965,-126.389 L 6.26317,-126.515 L 6.36862,-126.631
 L 6.48497,-126.737 L 6.61108,-126.83 L 6.74576,-126.911 L 6.8877,-126.978 L 7.03554,-127.031 L 7.18785,-127.069
 L 7.34317,-127.092 L 7.5,-127.1 L 7.65681,-127.092 L 7.81213,-127.069 L 7.96445,-127.031 L 8.11229,-126.978
 L 8.25423,-126.911 L 8.3889,-126.83 L 8.51501,-126.737 L 8.63136,-126.631 L 8.73682,-126.515 L 8.83034,-126.389
 L 8.91107,-126.254 L 8.9782,-126.112 L 9.0311,-125.964 L 9.06924,-125.812 L 9.09229,-125.657 L 9.09999,-125.5
 L 9.09229,-125.343 L 9.06924,-125.188 L 9.0311,-125.036 L 8.9782,-124.888 L 8.91107,-124.746 L 8.83034,-124.611
 L 8.73682,-124.485 L 8.63136,-124.369 L 8.51501,-124.263 L 8.3889,-124.17 L 8.25423,-124.089 L 8.11229,-124.022
 L 7.96445,-123.969 L 7.81213,-123.931 L 7.65681,-123.908 L 7.5,-123.9 z
M 13.1069,-103.267 L 12.7672,-103.317 L 12.434,-103.401 L 12.1106,-103.516 L 11.8001,-103.663 L 11.5055,-103.84
 L 11.2296,-104.044 L 10.9751,-104.275 L 10.7445,-104.53 L 10.5399,-104.805 L 10.3633,-105.1 L 10.2164,-105.411
 L 10.1007,-105.734 L 10.0173,-106.067 L 9.96686,-106.407 L 9.95,-106.75 L 9.96686,-107.093 L 10.0173,-107.433
 L 10.1007,-107.766 L 10.2164,-108.089 L 10.3633,-108.4 L 10.5399,-108.694 L 10.7445,-108.97 L 10.9751,-109.225
 L 11.2296,-109.456 L 11.5055,-109.66 L 11.8001,-109.837 L 12.1106,-109.984 L 12.434,-110.099 L 12.7672,-110.183
 L 13.1069,-110.233 L 13.45,-110.25 L 13.793,-110.233 L 14.1328,-110.183 L 14.466,-110.099 L 14.7894,-109.984
 L 15.0999,-109.837 L 15.3945,-109.66 L 15.6704,-109.456 L 15.9249,-109.225 L 16.1555,-108.97 L 16.3601,-108.694
 L 16.5367,-108.4 L 16.6836,-108.089 L 16.7993,-107.766 L 16.8827,-107.433 L 16.9331,-107.093 L 16.95,-106.75
 L 16.9331,-106.407 L 16.8827,-106.067 L 16.7993,-105.734 L 16.6836,-105.411 L 16.5367,-105.1 L 16.3601,-104.805
 L 16.1555,-104.53 L 15.9249,-104.275 L 15.6704,-104.044 L 15.3945,-103.84 L 15.0999,-103.663 L 14.7894,-103.516
 L 14.466,-103.401 L 14.1328,-103.317 L 13.793,-103.267 L 13.45,-103.25 z
M 13.1069,-93.2668 L 12.7672,-93.3172 L 12.434,-93.4007 L 12.1106,-93.5164 L 11.8001,-93.6633 L 11.5055,-93.8398
 L 11.2296,-94.0444 L 10.9751,-94.2751 L 10.7445,-94.5296 L 10.5399,-94.8055 L 10.3633,-95.1001 L 10.2164,-95.4106
 L 10.1007,-95.734 L 10.0173,-96.0672 L 9.96686,-96.4069 L 9.95,-96.75 L 9.96686,-97.093 L 10.0173,-97.4328
 L 10.1007,-97.766 L 10.2164,-98.0894 L 10.3633,-98.3999 L 10.5399,-98.6945 L 10.7445,-98.9704 L 10.9751,-99.2249
 L 11.2296,-99.4555 L 11.5055,-99.6601 L 11.8001,-99.8367 L 12.1106,-99.9836 L 12.434,-100.099 L 12.7672,-100.183
 L 13.1069,-100.233 L 13.45,-100.25 L 13.793,-100.233 L 14.1328,-100.183 L 14.466,-100.099 L 14.7894,-99.9836
 L 15.0999,-99.8367 L 15.3945,-99.6601 L 15.6704,-99.4555 L 15.9249,-99.2249 L 16.1555,-98.9704 L 16.3601,-98.6945
 L 16.5367,-98.3999 L 16.6836,-98.0894 L 16.7993,-97.766 L 16.8827,-97.4328 L 16.9331,-97.093 L 16.95,-96.75
 L 16.9331,-96.4069 L 16.8827,-96.0672 L 16.7993,-95.734 L 16.6836,-95.4106 L 16.5367,-95.1001 L 16.3601,-94.8055
 L 16.1555,-94.5296 L 15.9249,-94.2751 L 15.6704,-94.0444 L 15.3945,-93.8398 L 15.0999,-93.6633 L 14.7894,-93.5164
 L 14.466,-93.4007 L 14.1328,-93.3172 L 13.793,-93.2668 L 13.45,-93.25 z
M 13.1069,-78.2668 L 12.7672,-78.3172 L 12.434,-78.4007 L 12.1106,-78.5164 L 11.8001,-78.6633 L 11.5055,-78.8398
 L 11.2296,-79.0444 L 10.9751,-79.2751 L 10.7445,-79.5296 L 10.5399,-79.8055 L 10.3633,-80.1001 L 10.2164,-80.4106
 L 10.1007,-80.734 L 10.0173,-81.0672 L 9.96686,-81.4069 L 9.95,-81.75 L 9.96686,-82.093 L 10.0173,-82.4328
 L 10.1007,-82.766 L 10.2164,-83.0894 L 10.3633,-83.3999 L 10.5399,-83.6945 L 10.7445,-83.9704 L 10.9751,-84.2249
 L 11.2296,-84.4555 L 11.5055,-84.6601 L 11.8001,-84.8367 L 12.1106,-84.9836 L 12.434,-85.0993 L 12.7672,-85.1827
 L 13.1069,-85.2331 L 13.45,-85.25 L 13.793,-85.2331 L 14.1328,-85.1827 L 14.466,-85.0993 L 14.7894,-84.9836
 L 15.0999,-84.8367 L 15.3945,-84.6601 L 15.6704,-84.4555 L 15.9249,-84.2249 L 16.1555,-83.9704 L 16.3601,-83.6945
 L 16.5367,-83.3999 L 16.6836,-83.0894 L 16.7993,-82.766 L 16.8827,-82.4328 L 16.9331,-82.093 L 16.95,-81.75
 L 16.9331,-81.4069 L 16.8827,-81.0672 L 16.7993,-80.734 L 16.6836,-80.4106 L 16.5367,-80.1001 L 16.3601,-79.8055
 L 16.1555,-79.5296 L 15.9249,-79.2751 L 15.6704,-79.0444 L 15.3945,-78.8398 L 15.0999,-78.6633 L 14.7894,-78.5164
 L 14.466,-78.4007 L 14.1328,-78.3172 L 13.793,-78.2668 L 13.45,-78.25 z
M 13.1069,-68.2668 L 12.7672,-68.3172 L 12.434,-68.4007 L 12.1106,-68.5164 L 11.8001,-68.6633 L 11.5055,-68.8398
 L 11.2296,-69.0444 L 10.9751,-69.2751 L 10.7445,-69.5296 L 10.5399,-69.8055 L 10.3633,-70.1001 L 10.2164,-70.4106
 L 10.1007,-70.734 L 10.0173,-71.0672 L 9.96686,-71.4069 L 9.95,-71.75 L 9.96686,-72.093 L 10.0173,-72.4328
 L 10.1007,-72.766 L 10.2164,-73.0894 L 10.3633,-73.3999 L 10.5399,-73.6945 L 10.7445,-73.9704 L 10.9751,-74.2249
 L 11.2296,-74.4555 L 11.5055,-74.6601 L 11.8001,-74.8367 L 12.1106,-74.9836 L 12.434,-75.0993 L 12.7672,-75.1827
 L 13.1069,-75.2331 L 13.45,-75.25 L 13.793,-75.2331 L 14.1328,-75.1827 L 14.466,-75.0993 L 14.7894,-74.9836
 L 15.0999,-74.8367 L 15.3945,-74.6601 L 15.6704,-74.4555 L 15.9249,-74.2249 L 16.1555,-73.9704 L 16.3601,-73.6945
 L 16.5367,-73.3999 L 16.6836,-73.0894 L 16.7993,-72.766 L 16.8827,-72.4328 L 16.9331,-72.093 L 16.95,-71.75
 L 16.9331,-71.4069 L 16.8827,-71.0672 L 16.7993,-70.734 L 16.6836,-70.4106 L 16.5367,-70.1001 L 16.3601,-69.8055
 L 16.1555,-69.5296 L 15.9249,-69.2751 L 15.6704,-69.0444 L 15.3945,-68.8398 L 15.0999,-68.6633 L 14.7894,-68.5164
 L 14.466,-68.4007 L 14.1328,-68.3172 L 13.793,-68.2668 L 13.45,-68.25 z
M 13.1069,-53.2668 L 12.7672,-53.3172 L 12.434,-53.4007 L 12.1106,-53.5164 L 11.8001,-53.6633 L 11.5055,-53.8398
 L 11.2296,-54.0444 L 10.9751,-54.2751 L 10.7445,-54.5296 L 10.5399,-54.8055 L 10.3633,-55.1001 L 10.2164,-55.4106
 L 10.1007,-55.734 L 10.0173,-56.0672 L 9.96686,-56.4069 L 9.95,-56.75 L 9.96686,-57.093 L 10.0173,-57.4328
 L 10.1007,-57.766 L 10.2164,-58.0894 L 10.3633,-58.3999 L 10.5399,-58.6945 L 10.7445,-58.9704 L 10.9751,-59.2249
 L 11.2296,-59.4555 L 11.5055,-59.6601 L 11.8001,-59.8367 L 12.1106,-59.9836 L 12.434,-60.0993 L 12.7672,-60.1827
 L 13.1069,-60.2331 L 13.45,-60.25 L 13.793,-60.2331 L 14.1328,-60.1827 L 14.466,-60.0993 L 14.7894,-59.9836
 L 15.0999,-59.8367 L 15.3945,-59.6601 L 15.6704,-59.4555 L 15.9249,-59.2249 L 16.1555,-58.9704 L 16.3601,-58.6945
 L 16.5367,-58.3999 L 16.6836,-58.0894 L 16.7993,-57.766 L 16.8827,-57.4328 L 16.9331,-57.093 L 16.95,-56.75
 L 16.9331,-56.4069 L 16.8827,-56.0672 L 16.7993,-55.734 L 16.6836,-55.4106 L 16.5367,-55.1001 L 16.3601,-54.8055
 L 16.1555,-54.5296 L 15.9249,-54.2751 L 15.6704,-54.0444 L 15.3945,-53.8398 L 15.0999,-53.6633 L 14.7894,-53.5164
 L 14.466,-53.4007 L 14.1328,-53.3172 L 13.793,-53.2668 L 13.45,-53.25 z
M 13.1069,-43.2668 L 12.7672,-43.3172 L 12.434,-43.4007 L 12.1106,-43.5164 L 11.8001,-43.6633 L 11.5055,-43.8398
 L 11.2296,-44.0444 L 10.9751,-44.2751 L 10.7445,-44.5296 L 10.5399,-44.8055 L 10.3633,-45.1001 L 10.2164,-45.4106
 L 10.1007,-45.734 L 10.0173,-46.0672 L 9.96686,-46.4069 L 9.95,-46.75 L 9.96686,-47.093 L 10.0173,-47.4328
 L 10.1007,-47.766 L 10.2164,-48.0894 L 10.3633,-48.3999 L 10.5399,-48.6945 L 10.7445,-48.9704 L 10.9751,-49.2249
 L 11.2296,-49.4555 L 11.5055,-49.6601 L 11.8001,-49.8367 L 12.1106,-49.9836 L 12.434,-50.0993 L 12.7672,-50.1827
 L 13.1069,-50.2331 L 13.45,-50.25 L 13.793,-50.2331 L 14.1328,-50.1827 L 14.466,-50.0993 L 14.7894,-49.9836
 L 15.0999,-49.8367 L 15.3945,-49.6601 L 15.6704,-49.4555 L 15.9249,-49.2249 L 16.1555,-48.9704 L 16.3601,-48.6945
 L 16.5367,-48.3999 L 16.6836,-48.0894 L 16.7993,-47.766 L 16.8827,-47.4328 L 16.9331,-47.093 L 16.95,-46.75
 L 16.9331,-46.4069 L 16.8827,-46.0672 L 16.7993,-45.734 L 16.6836,-45.4106 L 16.5367,-45.1001 L 16.3601,-44.8055
 L 16.1555,-44.5296 L 15.9249,-44.2751 L 15.6704,-44.0444 L 15.3945,-43.8398 L 15.0999,-43.6633 L 14.7894,-43.5164
 L 14.466,-43.4007 L 14.1328,-43.3172 L 13.793,-43.2668 L 13.45,-43.25 z
M 13.1069,-28.2668 L 12.7672,-28.3172 L 12.434,-28.4007 L 12.1106,-28.5164 L 11.8001,-28.6633 L 11.5055,-28.8398
 L 11.2296,-29.0444 L 10.9751,-29.2751 L 10.7445,-29.5296 L 10.5399,-29.8055 L 10.3633,-30.1001 L 10.2164,-30.4106
 L 10.1007,-30.734 L 10.0173,-31.0672 L 9.96686,-31.4069 L 9.95,-31.75 L 9.96686,-32.093 L 10.0173,-32.4328
 L 10.1007,-32.766 L 10.2164,-33.0894 L 10.3633,-33.3999 L 10.5399,-33.6945 L 10.7445,-33.9704 L 10.9751,-34.2249
 L 11.2296,-34.4555 L 11.5055,-34.6601 L 11.8001,-34.8367 L 12.1106,-34.9836 L 12.434,-35.0993 L 12.7672,-35.1827
 L 13.1069,-35.2331 L 13.45,-35.25 L 13.793,-35.2331 L 14.1328,-35.1827 L 14.466,-35.0993 L 14.7894,-34.9836
 L 15.0999,-34.8367 L 15.3945,-34.6601 L 15.6704,-34.4555 L 15.9249,-34.2249 L 16.1555,-33.9704 L 16.3601,-33.6945
 L 16.5367,-33.3999 L 16.6836,-33.0894 L 16.7993,-32.766 L 16.8827,-32.4328 L 16.9331,-32.093 L 16.95,-31.75
 L 16.9331,-31.4069 L 16.8827,-31.0672 L 16.7993,-30.734 L 16.6836,-30.4106 L 16.5367,-30.1001 L 16.3601,-29.8055
 L 16.1555,-29.5296 L 15.9249,-29.2751 L 15.6704,-29.0444 L 15.3945,-28.8398 L 15.0999,-28.6633 L 14.7894,-28.5164
 L 14.466,-28.4007 L 14.1328,-28.3172 L 13.793,-28.2668 L 13.45,-28.25 z
M 13.1069,-18.2668 L 12.7672,-18.3172 L 12.434,-18.4007 L 12.1106,-18.5164 L 11.8001,-18.6633 L 11.5055,-18.8398
 L 11.2296,-19.0444 L 10.9751,-19.2751 L 10.7445,-19.5296 L 10.5399,-19.8055 L 10.3633,-20.1001 L 10.2164,-20.4106
 L 10.1007,-20.734 L 10.0173,-21.0672 L 9.96686,-21.4069 L 9.95,-21.75 L 9.96686,-22.093 L 10.0173,-22.4328
 L 10.1007,-22.766 L 10.2164,-23.0894 L 10.3633,-23.3999 L 10.5399,-23.6945 L 10.7445,-23.9704 L 10.9751,-24.2249
 L 11.2296,-24.4555 L 11.5055,-24.6601 L 11.8001,-24.8367 L 12.1106,-24.9836 L 12.434,-25.0993 L 12.7672,-25.1827
 L 13.1069,-25.2331 L 13.45,-25.25 L 13.793,-25.2331 L 14.1328,-25.1827 L 14.466,-25.0993 L 14.7894,-24.9836
 L 15.0999,-24.8367 L 15.3945,-24.6601 L 15.6704,-24.4555 L 15.9249,-24.2249 L 16.1555,-23.9704 L 16.3601,-23.6945
 L 16.5367,-23.3999 L 16.6836,-23.0894 L 16.7993,-22.766 L 16.8827,-22.4328 L 16.9331,-22.093 L 16.95,-21.75
 L 16.9331,-21.4069 L 16.8827,-21.0672 L 16.7993,-20.734 L 16.6836,-20.4106 L 16.5367,-20.1001 L 16.3601,-19.8055
 L 16.1555,-19.5296 L 15.9249,-19.2751 L 15.6704,-19.0444 L 15.3945,-18.8398 L 15.0999,-18.6633 L 14.7894,-18.5164
 L 14.466,-18.4007 L 14.1328,-18.3172 L 13.793,-18.2668 L 13.45,-18.25 z
M 7.34317,-1.4077 L 7.18785,-1.43074 L 7.03554,-1.46889 L 6.8877,-1.52179 L 6.74576,-1.58891 L 6.61108,-1.66965
 L 6.48497,-1.76317 L 6.36862,-1.86862 L 6.26317,-1.98497 L 6.16965,-2.11108 L 6.08891,-2.24576 L 6.02179,-2.3877
 L 5.96889,-2.53554 L 5.93074,-2.68785 L 5.9077,-2.84317 L 5.89999,-3 L 5.9077,-3.15681 L 5.93074,-3.31213
 L 5.96889,-3.46445 L 6.02179,-3.61229 L 6.08891,-3.75423 L 6.16965,-3.8889 L 6.26317,-4.01501 L 6.36862,-4.13136
 L 6.48497,-4.23682 L 6.61108,-4.33034 L 6.74576,-4.41107 L 6.8877,-4.4782 L 7.03554,-4.5311 L 7.18785,-4.56924
 L 7.34317,-4.59229 L 7.5,-4.59999 L 7.65681,-4.59229 L 7.81213,-4.56924 L 7.96445,-4.5311 L 8.11229,-4.4782
 L 8.25423,-4.41107 L 8.3889,-4.33034 L 8.51501,-4.23682 L 8.63136,-4.13136 L 8.73682,-4.01501 L 8.83034,-3.8889
 L 8.91107,-3.75423 L 8.9782,-3.61229 L 9.0311,-3.46445 L 9.06924,-3.31213 L 9.09229,-3.15681 L 9.09999,-3
 L 9.09229,-2.84317 L 9.06924,-2.68785 L 9.0311,-2.53554 L 8.9782,-2.3877 L 8.91107,-2.24576 L 8.83034,-2.11108
 L 8.73682,-1.98497 L 8.63136,-1.86862 L 8.51501,-1.76317 L 8.3889,-1.66965 L 8.25423,-1.58891 L 8.11229,-1.52179
 L 7.96445,-1.46889 L 7.81213,-1.43074 L 7.65681,-1.4077 L 7.5,-1.39999 z
" stroke="black" fill="lightgray" stroke-width="0.5"/>
</svg>
