  0
SECTION
  2
BLOCKS
  0
ENDSEC
  0
SECTION
  2
ENTITIES
  0
LINE
  8
0
 10
20
 20
128.5
 11
0
 21
128.5
  0
LINE
  8
0
 10
0
 20
128.5
 11
0
 21
0
  0
LINE
  8
0
 10
0
 20
0
 11
20
 21
0
  0
LINE
  8
0
 10
20
 20
0
 11
20
 21
128.5
  0
LINE
  8
0
 10
7.34317
 20
123.908
 11
7.18785
 21
123.931
  0
LINE
  8
0
 10
7.18785
 20
123.931
 11
7.03554
 21
123.969
  0
LINE
  8
0
 10
7.03554
 20
123.969
 11
6.8877
 21
124.022
  0
LINE
  8
0
 10
6.8877
 20
124.022
 11
6.74576
 21
124.089
  0
LINE
  8
0
 10
6.74576
 20
124.089
 11
6.61108
 21
124.17
  0
LINE
  8
0
 10
6.61108
 20
124.17
 11
6.48497
 21
124.263
  0
LINE
  8
0
 10
6.48497
 20
124.263
 11
6.36862
 21
124.369
  0
LINE
  8
0
 10
6.36862
 20
124.369
 11
6.26317
 21
124.485
  0
LINE
  8
0
 10
6.26317
 20
124.485
 11
6.16965
 21
124.611
  0
LINE
  8
0
 10
6.16965
 20
124.611
 11
6.08891
 21
124.746
  0
LINE
  8
0
 10
6.08891
 20
124.746
 11
6.02179
 21
124.888
  0
LINE
  8
0
 10
6.02179
 20
124.888
 11
5.96889
 21
125.036
  0
LINE
  8
0
 10
5.96889
 20
125.036
 11
5.93074
 21
125.188
  0
LINE
  8
0
 10
5.93074
 20
125.188
 11
5.9077
 21
125.343
  0
LINE
  8
0
 10
5.9077
 20
125.343
 11
5.89999
 21
125.5
  0
LINE
  8
0
 10
5.89999
 20
125.5
 11
5.9077
 21
125.657
  0
LINE
  8
0
 10
5.9077
 20
125.657
 11
5.93074
 21
125.812
  0
LINE
  8
0
 10
5.93074
 20
125.812
 11
5.96889
 21
125.964
  0
LINE
  8
0
 10
5.96889
 20
125.964
 11
6.02179
 21
126.112
  0
LINE
  8
0
 10
6.02179
 20
126.112
 11
6.08891
 21
126.254
  0
LINE
  8
0
 10
6.08891
 20
126.254
 11
6.16965
 21
126.389
  0
LINE
  8
0
 10
6.16965
 20
126.389
 11
6.26317
 21
126.515
  0
LINE
  8
0
 10
6.26317
 20
126.515
 11
6.36862
 21
126.631
  0
LINE
  8
0
 10
6.36862
 20
126.631
 11
6.48497
 21
126.737
  0
LINE
  8
0
 10
6.48497
 20
126.737
 11
6.61108
 21
126.83
  0
LINE
  8
0
 10
6.61108
 20
126.83
 11
6.74576
 21
126.911
  0
LINE
  8
0
 10
6.74576
 20
126.911
 11
6.8877
 21
126.978
  0
LINE
  8
0
 10
6.8877
 20
126.978
 11
7.03554
 21
127.031
  0
LINE
  8
0
 10
7.03554
 20
127.031
 11
7.18785
 21
127.069
  0
LINE
  8
0
 10
7.18785
 20
127.069
 11
7.34317
 21
127.092
  0
LINE
  8
0
 10
7.34317
 20
127.092
 11
7.5
 21
127.1
  0
LINE
  8
0
 10
7.5
 20
127.1
 11
7.65681
 21
127.092
  0
LINE
  8
0
 10
7.65681
 20
127.092
 11
7.81213
 21
127.069
  0
LINE
  8
0
 10
7.81213
 20
127.069
 11
7.96445
 21
127.031
  0
LINE
  8
0
 10
7.96445
 20
127.031
 11
8.11229
 21
126.978
  0
LINE
  8
0
 10
8.11229
 20
126.978
 11
8.25423
 21
126.911
  0
LINE
  8
0
 10
8.25423
 20
126.911
 11
8.3889
 21
126.83
  0
LINE
  8
0
 10
8.3889
 20
126.83
 11
8.51501
 21
126.737
  0
LINE
  8
0
 10
8.51501
 20
126.737
 11
8.63136
 21
126.631
  0
LINE
  8
0
 10
8.63136
 20
126.631
 11
8.73682
 21
126.515
  0
LINE
  8
0
 10
8.73682
 20
126.515
 11
8.83034
 21
126.389
  0
LINE
  8
0
 10
8.83034
 20
126.389
 11
8.91107
 21
126.254
  0
LINE
  8
0
 10
8.91107
 20
126.254
 11
8.9782
 21
126.112
  0
LINE
  8
0
 10
8.9782
 20
126.112
 11
9.0311
 21
125.964
  0
LINE
  8
0
 10
9.0311
 20
125.964
 11
9.06924
 21
125.812
  0
LINE
  8
0
 10
9.06924
 20
125.812
 11
9.09229
 21
125.657
  0
LINE
  8
0
 10
9.09229
 20
125.657
 11
9.09999
 21
125.5
  0
LINE
  8
0
 10
9.09999
 20
125.5
 11
9.09229
 21
125.343
  0
LINE
  8
0
 10
9.09229
 20
125.343
 11
9.06924
 21
125.188
  0
LINE
  8
0
 10
9.06924
 20
125.188
 11
9.0311
 21
125.036
  0
LINE
  8
0
 10
9.0311
 20
125.036
 11
8.9782
 21
124.888
  0
LINE
  8
0
 10
8.9782
 20
124.888
 11
8.91107
 21
124.746
  0
LINE
  8
0
 10
8.91107
 20
124.746
 11
8.83034
 21
124.611
  0
LINE
  8
0
 10
8.83034
 20
124.611
 11
8.73682
 21
124.485
  0
LINE
  8
0
 10
8.73682
 20
124.485
 11
8.63136
 21
124.369
  0
LINE
  8
0
 10
8.63136
 20
124.369
 11
8.51501
 21
124.263
  0
LINE
  8
0
 10
8.51501
 20
124.263
 11
8.3889
 21
124.17
  0
LINE
  8
0
 10
8.3889
 20
124.17
 11
8.25423
 21
124.089
  0
LINE
  8
0
 10
8.25423
 20
124.089
 11
8.11229
 21
124.022
  0
LINE
  8
0
 10
8.11229
 20
124.022
 11
7.96445
 21
123.969
  0
LINE
  8
0
 10
7.96445
 20
123.969
 11
7.81213
 21
123.931
  0
LINE
  8
0
 10
7.81213
 20
123.931
 11
7.65681
 21
123.908
  0
LINE
  8
0
 10
7.65681
 20
123.908
 11
7.5
 21
123.9
  0
LINE
  8
0
 10
7.5
 20
123.9
 11
7.34317
 21
123.908
  0
LINE
  8
0
 10
13.1069
 20
103.267
 11
12.7672
 21
103.317
  0
LINE
  8
0
 10
12.7672
 20
103.317
 11
12.434
 21
103.401
  0
LINE
  8
0
 10
12.434
 20
103.401
 11
12.1106
 21
103.516
  0
LINE
  8
0
 10
12.1106
 20
103.516
 11
11.8001
 21
103.663
  0
LINE
  8
0
 10
11.8001
 20
103.663
 11
11.5055
 21
103.84
  0
LINE
  8
0
 10
11.5055
 20
103.84
 11
11.2296
 21
104.044
  0
LINE
  8
0
 10
11.2296
 20
104.044
 11
10.9751
 21
104.275
  0
LINE
  8
0
 10
10.9751
 20
104.275
 11
10.7445
 21
104.53
  0
LINE
  8
0
 10
10.7445
 20
104.53
 11
10.5399
 21
104.805
  0
LINE
  8
0
 10
10.5399
 20
104.805
 11
10.3633
 21
105.1
  0
LINE
  8
0
 10
10.3633
 20
105.1
 11
10.2164
 21
105.411
  0
LINE
  8
0
 10
10.2164
 20
105.411
 11
10.1007
 21
105.734
  0
LINE
  8
0
 10
10.1007
 20
105.734
 11
10.0173
 21
106.067
  0
LINE
  8
0
 10
10.0173
 20
106.067
 11
9.96686
 21
106.407
  0
LINE
  8
0
 10
9.96686
 20
106.407
 11
9.95
 21
106.75
  0
LINE
  8
0
 10
9.95
 20
106.75
 11
9.96686
 21
107.093
  0
LINE
  8
0
 10
9.96686
 20
107.093
 11
10.0173
 21
107.433
  0
LINE
  8
0
 10
10.0173
 20
107.433
 11
10.1007
 21
107.766
  0
LINE
  8
0
 10
10.1007
 20
107.766
 11
10.2164
 21
108.089
  0
LINE
  8
0
 10
10.2164
 20
108.089
 11
10.3633
 21
108.4
  0
LINE
  8
0
 10
10.3633
 20
108.4
 11
10.5399
 21
108.694
  0
LINE
  8
0
 10
10.5399
 20
108.694
 11
10.7445
 21
108.97
  0
LINE
  8
0
 10
10.7445
 20
108.97
 11
10.9751
 21
109.225
  0
LINE
  8
0
 10
10.9751
 20
109.225
 11
11.2296
 21
109.456
  0
LINE
  8
0
 10
11.2296
 20
109.456
 11
11.5055
 21
109.66
  0
LINE
  8
0
 10
11.5055
 20
109.66
 11
11.8001
 21
109.837
  0
LINE
  8
0
 10
11.8001
 20
109.837
 11
12.1106
 21
109.984
  0
LINE
  8
0
 10
12.1106
 20
109.984
 11
12.434
 21
110.099
  0
LINE
  8
0
 10
12.434
 20
110.099
 11
12.7672
 21
110.183
  0
LINE
  8
0
 10
12.7672
 20
110.183
 11
13.1069
 21
110.233
  0
LINE
  8
0
 10
13.1069
 20
110.233
 11
13.45
 21
110.25
  0
LINE
  8
0
 10
13.45
 20
110.25
 11
13.793
 21
110.233
  0
LINE
  8
0
 10
13.793
 20
110.233
 11
14.1328
 21
110.183
  0
LINE
  8
0
 10
14.1328
 20
110.183
 11
14.466
 21
110.099
  0
LINE
  8
0
 10
14.466
 20
110.099
 11
14.7894
 21
109.984
  0
LINE
  8
0
 10
14.7894
 20
109.984
 11
15.0999
 21
109.837
  0
LINE
  8
0
 10
15.0999
 20
109.837
 11
15.3945
 21
109.66
  0
LINE
  8
0
 10
15.3945
 20
109.66
 11
15.6704
 21
109.456
  0
LINE
  8
0
 10
15.6704
 20
109.456
 11
15.9249
 21
109.225
  0
LINE
  8
0
 10
15.9249
 20
109.225
 11
16.1555
 21
108.97
  0
LINE
  8
0
 10
16.1555
 20
108.97
 11
16.3601
 21
108.694
  0
LINE
  8
0
 10
16.3601
 20
108.694
 11
16.5367
 21
108.4
  0
LINE
  8
0
 10
16.5367
 20
108.4
 11
16.6836
 21
108.089
  0
LINE
  8
0
 10
16.6836
 20
108.089
 11
16.7993
 21
107.766
  0
LINE
  8
0
 10
16.7993
 20
107.766
 11
16.8827
 21
107.433
  0
LINE
  8
0
 10
16.8827
 20
107.433
 11
16.9331
 21
107.093
  0
LINE
  8
0
 10
16.9331
 20
107.093
 11
16.95
 21
106.75
  0
LINE
  8
0
 10
16.95
 20
106.75
 11
16.9331
 21
106.407
  0
LINE
  8
0
 10
16.9331
 20
106.407
 11
16.8827
 21
106.067
  0
LINE
  8
0
 10
16.8827
 20
106.067
 11
16.7993
 21
105.734
  0
LINE
  8
0
 10
16.7993
 20
105.734
 11
16.6836
 21
105.411
  0
LINE
  8
0
 10
16.6836
 20
105.411
 11
16.5367
 21
105.1
  0
LINE
  8
0
 10
16.5367
 20
105.1
 11
16.3601
 21
104.805
  0
LINE
  8
0
 10
16.3601
 20
104.805
 11
16.1555
 21
104.53
  0
LINE
  8
0
 10
16.1555
 20
104.53
 11
15.9249
 21
104.275
  0
LINE
  8
0
 10
15.9249
 20
104.275
 11
15.6704
 21
104.044
  0
LINE
  8
0
 10
15.6704
 20
104.044
 11
15.3945
 21
103.84
  0
LINE
  8
0
 10
15.3945
 20
103.84
 11
15.0999
 21
103.663
  0
LINE
  8
0
 10
15.0999
 20
103.663
 11
14.7894
 21
103.516
  0
LINE
  8
0
 10
14.7894
 20
103.516
 11
14.466
 21
103.401
  0
LINE
  8
0
 10
14.466
 20
103.401
 11
14.1328
 21
103.317
  0
LINE
  8
0
 10
14.1328
 20
103.317
 11
13.793
 21
103.267
  0
LINE
  8
0
 10
13.793
 20
103.267
 11
13.45
 21
103.25
  0
LINE
  8
0
 10
13.45
 20
103.25
 11
13.1069
 21
103.267
  0
LINE
  8
0
 10
13.1069
 20
93.2668
 11
12.7672
 21
93.3172
  0
LINE
  8
0
 10
12.7672
 20
93.3172
 11
12.434
 21
93.4007
  0
LINE
  8
0
 10
12.434
 20
93.4007
 11
12.1106
 21
93.5164
  0
LINE
  8
0
 10
12.1106
 20
93.5164
 11
11.8001
 21
93.6633
  0
LINE
  8
0
 10
11.8001
 20
93.6633
 11
11.5055
 21
93.8398
  0
LINE
  8
0
 10
11.5055
 20
93.8398
 11
11.2296
 21
94.0444
  0
LINE
  8
0
 10
11.2296
 20
94.0444
 11
10.9751
 21
94.2751
  0
LINE
  8
0
 10
10.9751
 20
94.2751
 11
10.7445
 21
94.5296
  0
LINE
  8
0
 10
10.7445
 20
94.5296
 11
10.5399
 21
94.8055
  0
LINE
  8
0
 10
10.5399
 20
94.8055
 11
10.3633
 21
95.1001
  0
LINE
  8
0
 10
10.3633
 20
95.1001
 11
10.2164
 21
95.4106
  0
LINE
  8
0
 10
10.2164
 20
95.4106
 11
10.1007
 21
95.734
  0
LINE
  8
0
 10
10.1007
 20
95.734
 11
10.0173
 21
96.0672
  0
LINE
  8
0
 10
10.0173
 20
96.0672
 11
9.96686
 21
96.4069
  0
LINE
  8
0
 10
9.96686
 20
96.4069
 11
9.95
 21
96.75
  0
LINE
  8
0
 10
9.95
 20
96.75
 11
9.96686
 21
97.093
  0
LINE
  8
0
 10
9.96686
 20
97.093
 11
10.0173
 21
97.4328
  0
LINE
  8
0
 10
10.0173
 20
97.4328
 11
10.1007
 21
97.766
  0
LINE
  8
0
 10
10.1007
 20
97.766
 11
10.2164
 21
98.0894
  0
LINE
  8
0
 10
10.2164
 20
98.0894
 11
10.3633
 21
98.3999
  0
LINE
  8
0
 10
10.3633
 20
98.3999
 11
10.5399
 21
98.6945
  0
LINE
  8
0
 10
10.5399
 20
98.6945
 11
10.7445
 21
98.9704
  0
LINE
  8
0
 10
10.7445
 20
98.9704
 11
10.9751
 21
99.2249
  0
LINE
  8
0
 10
10.9751
 20
99.2249
 11
11.2296
 21
99.4555
  0
LINE
  8
0
 10
11.2296
 20
99.4555
 11
11.5055
 21
99.6601
  0
LINE
  8
0
 10
11.5055
 20
99.6601
 11
11.8001
 21
99.8367
  0
LINE
  8
0
 10
11.8001
 20
99.8367
 11
12.1106
 21
99.9836
  0
LINE
  8
0
 10
12.1106
 20
99.9836
 11
12.434
 21
100.099
  0
LINE
  8
0
 10
12.434
 20
100.099
 11
12.7672
 21
100.183
  0
LINE
  8
0
 10
12.7672
 20
100.183
 11
13.1069
 21
100.233
  0
LINE
  8
0
 10
13.1069
 20
100.233
 11
13.45
 21
100.25
  0
LINE
  8
0
 10
13.45
 20
100.25
 11
13.793
 21
100.233
  0
LINE
  8
0
 10
13.793
 20
100.233
 11
14.1328
 21
100.183
  0
LINE
  8
0
 10
14.1328
 20
100.183
 11
14.466
 21
100.099
  0
LINE
  8
0
 10
14.466
 20
100.099
 11
14.7894
 21
99.9836
  0
LINE
  8
0
 10
14.7894
 20
99.9836
 11
15.0999
 21
99.8367
  0
LINE
  8
0
 10
15.0999
 20
99.8367
 11
15.3945
 21
99.6601
  0
LINE
  8
0
 10
15.3945
 20
99.6601
 11
15.6704
 21
99.4555
  0
LINE
  8
0
 10
15.6704
 20
99.4555
 11
15.9249
 21
99.2249
  0
LINE
  8
0
 10
15.9249
 20
99.2249
 11
16.1555
 21
98.9704
  0
LINE
  8
0
 10
16.1555
 20
98.9704
 11
16.3601
 21
98.6945
  0
LINE
  8
0
 10
16.3601
 20
98.6945
 11
16.5367
 21
98.3999
  0
LINE
  8
0
 10
16.5367
 20
98.3999
 11
16.6836
 21
98.0894
  0
LINE
  8
0
 10
16.6836
 20
98.0894
 11
16.7993
 21
97.766
  0
LINE
  8
0
 10
16.7993
 20
97.766
 11
16.8827
 21
97.4328
  0
LINE
  8
0
 10
16.8827
 20
97.4328
 11
16.9331
 21
97.093
  0
LINE
  8
0
 10
16.9331
 20
97.093
 11
16.95
 21
96.75
  0
LINE
  8
0
 10
16.95
 20
96.75
 11
16.9331
 21
96.4069
  0
LINE
  8
0
 10
16.9331
 20
96.4069
 11
16.8827
 21
96.0672
  0
LINE
  8
0
 10
16.8827
 20
96.0672
 11
16.7993
 21
95.734
  0
LINE
  8
0
 10
16.7993
 20
95.734
 11
16.6836
 21
95.4106
  0
LINE
  8
0
 10
16.6836
 20
95.4106
 11
16.5367
 21
95.1001
  0
LINE
  8
0
 10
16.5367
 20
95.1001
 11
16.3601
 21
94.8055
  0
LINE
  8
0
 10
16.3601
 20
94.8055
 11
16.1555
 21
94.5296
  0
LINE
  8
0
 10
16.1555
 20
94.5296
 11
15.9249
 21
94.2751
  0
LINE
  8
0
 10
15.9249
 20
94.2751
 11
15.6704
 21
94.0444
  0
LINE
  8
0
 10
15.6704
 20
94.0444
 11
15.3945
 21
93.8398
  0
LINE
  8
0
 10
15.3945
 20
93.8398
 11
15.0999
 21
93.6633
  0
LINE
  8
0
 10
15.0999
 20
93.6633
 11
14.7894
 21
93.5164
  0
LINE
  8
0
 10
14.7894
 20
93.5164
 11
14.466
 21
93.4007
  0
LINE
  8
0
 10
14.466
 20
93.4007
 11
14.1328
 21
93.3172
  0
LINE
  8
0
 10
14.1328
 20
93.3172
 11
13.793
 21
93.2668
  0
LINE
  8
0
 10
13.793
 20
93.2668
 11
13.45
 21
93.25
  0
LINE
  8
0
 10
13.45
 20
93.25
 11
13.1069
 21
93.2668
  0
LINE
  8
0
 10
13.1069
 20
78.2668
 11
12.7672
 21
78.3172
  0
LINE
  8
0
 10
12.7672
 20
78.3172
 11
12.434
 21
78.4007
  0
LINE
  8
0
 10
12.434
 20
78.4007
 11
12.1106
 21
78.5164
  0
LINE
  8
0
 10
12.1106
 20
78.5164
 11
11.8001
 21
78.6633
  0
LINE
  8
0
 10
11.8001
 20
78.6633
 11
11.5055
 21
78.8398
  0
LINE
  8
0
 10
11.5055
 20
78.8398
 11
11.2296
 21
79.0444
  0
LINE
  8
0
 10
11.2296
 20
79.0444
 11
10.9751
 21
79.2751
  0
LINE
  8
0
 10
10.9751
 20
79.2751
 11
10.7445
 21
79.5296
  0
LINE
  8
0
 10
10.7445
 20
79.5296
 11
10.5399
 21
79.8055
  0
LINE
  8
0
 10
10.5399
 20
79.8055
 11
10.3633
 21
80.1001
  0
LINE
  8
0
 10
10.3633
 20
80.1001
 11
10.2164
 21
80.4106
  0
LINE
  8
0
 10
10.2164
 20
80.4106
 11
10.1007
 21
80.734
  0
LINE
  8
0
 10
10.1007
 20
80.734
 11
10.0173
 21
81.0672
  0
LINE
  8
0
 10
10.0173
 20
81.0672
 11
9.96686
 21
81.4069
  0
LINE
  8
0
 10
9.96686
 20
81.4069
 11
9.95
 21
81.75
  0
LINE
  8
0
 10
9.95
 20
81.75
 11
9.96686
 21
82.093
  0
LINE
  8
0
 10
9.96686
 20
82.093
 11
10.0173
 21
82.4328
  0
LINE
  8
0
 10
10.0173
 20
82.4328
 11
10.1007
 21
82.766
  0
LINE
  8
0
 10
10.1007
 20
82.766
 11
10.2164
 21
83.0894
  0
LINE
  8
0
 10
10.2164
 20
83.0894
 11
10.3633
 21
83.3999
  0
LINE
  8
0
 10
10.3633
 20
83.3999
 11
10.5399
 21
83.6945
  0
LINE
  8
0
 10
10.5399
 20
83.6945
 11
10.7445
 21
83.9704
  0
LINE
  8
0
 10
10.7445
 20
83.9704
 11
10.9751
 21
84.2249
  0
LINE
  8
0
 10
10.9751
 20
84.2249
 11
11.2296
 21
84.4555
  0
LINE
  8
0
 10
11.2296
 20
84.4555
 11
11.5055
 21
84.6601
  0
LINE
  8
0
 10
11.5055
 20
84.6601
 11
11.8001
 21
84.8367
  0
LINE
  8
0
 10
11.8001
 20
84.8367
 11
12.1106
 21
84.9836
  0
LINE
  8
0
 10
12.1106
 20
84.9836
 11
12.434
 21
85.0993
  0
LINE
  8
0
 10
12.434
 20
85.0993
 11
12.7672
 21
85.1827
  0
LINE
  8
0
 10
12.7672
 20
85.1827
 11
13.1069
 21
85.2331
  0
LINE
  8
0
 10
13.1069
 20
85.2331
 11
13.45
 21
85.25
  0
LINE
  8
0
 10
13.45
 20
85.25
 11
13.793
 21
85.2331
  0
LINE
  8
0
 10
13.793
 20
85.2331
 11
14.1328
 21
85.1827
  0
LINE
  8
0
 10
14.1328
 20
85.1827
 11
14.466
 21
85.0993
  0
LINE
  8
0
 10
14.466
 20
85.0993
 11
14.7894
 21
84.9836
  0
LINE
  8
0
 10
14.7894
 20
84.9836
 11
15.0999
 21
84.8367
  0
LINE
  8
0
 10
15.0999
 20
84.8367
 11
15.3945
 21
84.6601
  0
LINE
  8
0
 10
15.3945
 20
84.6601
 11
15.6704
 21
84.4555
  0
LINE
  8
0
 10
15.6704
 20
84.4555
 11
15.9249
 21
84.2249
  0
LINE
  8
0
 10
15.9249
 20
84.2249
 11
16.1555
 21
83.9704
  0
LINE
  8
0
 10
16.1555
 20
83.9704
 11
16.3601
 21
83.6945
  0
LINE
  8
0
 10
16.3601
 20
83.6945
 11
16.5367
 21
83.3999
  0
LINE
  8
0
 10
16.5367
 20
83.3999
 11
16.6836
 21
83.0894
  0
LINE
  8
0
 10
16.6836
 20
83.0894
 11
16.7993
 21
82.766
  0
LINE
  8
0
 10
16.7993
 20
82.766
 11
16.8827
 21
82.4328
  0
LINE
  8
0
 10
16.8827
 20
82.4328
 11
16.9331
 21
82.093
  0
LINE
  8
0
 10
16.9331
 20
82.093
 11
16.95
 21
81.75
  0
LINE
  8
0
 10
16.95
 20
81.75
 11
16.9331
 21
81.4069
  0
LINE
  8
0
 10
16.9331
 20
81.4069
 11
16.8827
 21
81.0672
  0
LINE
  8
0
 10
16.8827
 20
81.0672
 11
16.7993
 21
80.734
  0
LINE
  8
0
 10
16.7993
 20
80.734
 11
16.6836
 21
80.4106
  0
LINE
  8
0
 10
16.6836
 20
80.4106
 11
16.5367
 21
80.1001
  0
LINE
  8
0
 10
16.5367
 20
80.1001
 11
16.3601
 21
79.8055
  0
LINE
  8
0
 10
16.3601
 20
79.8055
 11
16.1555
 21
79.5296
  0
LINE
  8
0
 10
16.1555
 20
79.5296
 11
15.9249
 21
79.2751
  0
LINE
  8
0
 10
15.9249
 20
79.2751
 11
15.6704
 21
79.0444
  0
LINE
  8
0
 10
15.6704
 20
79.0444
 11
15.3945
 21
78.8398
  0
LINE
  8
0
 10
15.3945
 20
78.8398
 11
15.0999
 21
78.6633
  0
LINE
  8
0
 10
15.0999
 20
78.6633
 11
14.7894
 21
78.5164
  0
LINE
  8
0
 10
14.7894
 20
78.5164
 11
14.466
 21
78.4007
  0
LINE
  8
0
 10
14.466
 20
78.4007
 11
14.1328
 21
78.3172
  0
LINE
  8
0
 10
14.1328
 20
78.3172
 11
13.793
 21
78.2668
  0
LINE
  8
0
 10
13.793
 20
78.2668
 11
13.45
 21
78.25
  0
LINE
  8
0
 10
13.45
 20
78.25
 11
13.1069
 21
78.2668
  0
LINE
  8
0
 10
13.1069
 20
68.2668
 11
12.7672
 21
68.3172
  0
LINE
  8
0
 10
12.7672
 20
68.3172
 11
12.434
 21
68.4007
  0
LINE
  8
0
 10
12.434
 20
68.4007
 11
12.1106
 21
68.5164
  0
LINE
  8
0
 10
12.1106
 20
68.5164
 11
11.8001
 21
68.6633
  0
LINE
  8
0
 10
11.8001
 20
68.6633
 11
11.5055
 21
68.8398
  0
LINE
  8
0
 10
11.5055
 20
68.8398
 11
11.2296
 21
69.0444
  0
LINE
  8
0
 10
11.2296
 20
69.0444
 11
10.9751
 21
69.2751
  0
LINE
  8
0
 10
10.9751
 20
69.2751
 11
10.7445
 21
69.5296
  0
LINE
  8
0
 10
10.7445
 20
69.5296
 11
10.5399
 21
69.8055
  0
LINE
  8
0
 10
10.5399
 20
69.8055
 11
10.3633
 21
70.1001
  0
LINE
  8
0
 10
10.3633
 20
70.1001
 11
10.2164
 21
70.4106
  0
LINE
  8
0
 10
10.2164
 20
70.4106
 11
10.1007
 21
70.734
  0
LINE
  8
0
 10
10.1007
 20
70.734
 11
10.0173
 21
71.0672
  0
LINE
  8
0
 10
10.0173
 20
71.0672
 11
9.96686
 21
71.4069
  0
LINE
  8
0
 10
9.96686
 20
71.4069
 11
9.95
 21
71.75
  0
LINE
  8
0
 10
9.95
 20
71.75
 11
9.96686
 21
72.093
  0
LINE
  8
0
 10
9.96686
 20
72.093
 11
10.0173
 21
72.4328
  0
LINE
  8
0
 10
10.0173
 20
72.4328
 11
10.1007
 21
72.766
  0
LINE
  8
0
 10
10.1007
 20
72.766
 11
10.2164
 21
73.0894
  0
LINE
  8
0
 10
10.2164
 20
73.0894
 11
10.3633
 21
73.3999
  0
LINE
  8
0
 10
10.3633
 20
73.3999
 11
10.5399
 21
73.6945
  0
LINE
  8
0
 10
10.5399
 20
73.6945
 11
10.7445
 21
73.9704
  0
LINE
  8
0
 10
10.7445
 20
73.9704
 11
10.9751
 21
74.2249
  0
LINE
  8
0
 10
10.9751
 20
74.2249
 11
11.2296
 21
74.4555
  0
LINE
  8
0
 10
11.2296
 20
74.4555
 11
11.5055
 21
74.6601
  0
LINE
  8
0
 10
11.5055
 20
74.6601
 11
11.8001
 21
74.8367
  0
LINE
  8
0
 10
11.8001
 20
74.8367
 11
12.1106
 21
74.9836
  0
LINE
  8
0
 10
12.1106
 20
74.9836
 11
12.434
 21
75.0993
  0
LINE
  8
0
 10
12.434
 20
75.0993
 11
12.7672
 21
75.1827
  0
LINE
  8
0
 10
12.7672
 20
75.1827
 11
13.1069
 21
75.2331
  0
LINE
  8
0
 10
13.1069
 20
75.2331
 11
13.45
 21
75.25
  0
LINE
  8
0
 10
13.45
 20
75.25
 11
13.793
 21
75.2331
  0
LINE
  8
0
 10
13.793
 20
75.2331
 11
14.1328
 21
75.1827
  0
LINE
  8
0
 10
14.1328
 20
75.1827
 11
14.466
 21
75.0993
  0
LINE
  8
0
 10
14.466
 20
75.0993
 11
14.7894
 21
74.9836
  0
LINE
  8
0
 10
14.7894
 20
74.9836
 11
15.0999
 21
74.8367
  0
LINE
  8
0
 10
15.0999
 20
74.8367
 11
15.3945
 21
74.6601
  0
LINE
  8
0
 10
15.3945
 20
74.6601
 11
15.6704
 21
74.4555
  0
LINE
  8
0
 10
15.6704
 20
74.4555
 11
15.9249
 21
74.2249
  0
LINE
  8
0
 10
15.9249
 20
74.2249
 11
16.1555
 21
73.9704
  0
LINE
  8
0
 10
16.1555
 20
73.9704
 11
16.3601
 21
73.6945
  0
LINE
  8
0
 10
16.3601
 20
73.6945
 11
16.5367
 21
73.3999
  0
LINE
  8
0
 10
16.5367
 20
73.3999
 11
16.6836
 21
73.0894
  0
LINE
  8
0
 10
16.6836
 20
73.0894
 11
16.7993
 21
72.766
  0
LINE
  8
0
 10
16.7993
 20
72.766
 11
16.8827
 21
72.4328
  0
LINE
  8
0
 10
16.8827
 20
72.4328
 11
16.9331
 21
72.093
  0
LINE
  8
0
 10
16.9331
 20
72.093
 11
16.95
 21
71.75
  0
LINE
  8
0
 10
16.95
 20
71.75
 11
16.9331
 21
71.4069
  0
LINE
  8
0
 10
16.9331
 20
71.4069
 11
16.8827
 21
71.0672
  0
LINE
  8
0
 10
16.8827
 20
71.0672
 11
16.7993
 21
70.734
  0
LINE
  8
0
 10
16.7993
 20
70.734
 11
16.6836
 21
70.4106
  0
LINE
  8
0
 10
16.6836
 20
70.4106
 11
16.5367
 21
70.1001
  0
LINE
  8
0
 10
16.5367
 20
70.1001
 11
16.3601
 21
69.8055
  0
LINE
  8
0
 10
16.3601
 20
69.8055
 11
16.1555
 21
69.5296
  0
LINE
  8
0
 10
16.1555
 20
69.5296
 11
15.9249
 21
69.2751
  0
LINE
  8
0
 10
15.9249
 20
69.2751
 11
15.6704
 21
69.0444
  0
LINE
  8
0
 10
15.6704
 20
69.0444
 11
15.3945
 21
68.8398
  0
LINE
  8
0
 10
15.3945
 20
68.8398
 11
15.0999
 21
68.6633
  0
LINE
  8
0
 10
15.0999
 20
68.6633
 11
14.7894
 21
68.5164
  0
LINE
  8
0
 10
14.7894
 20
68.5164
 11
14.466
 21
68.4007
  0
LINE
  8
0
 10
14.466
 20
68.4007
 11
14.1328
 21
68.3172
  0
LINE
  8
0
 10
14.1328
 20
68.3172
 11
13.793
 21
68.2668
  0
LINE
  8
0
 10
13.793
 20
68.2668
 11
13.45
 21
68.25
  0
LINE
  8
0
 10
13.45
 20
68.25
 11
13.1069
 21
68.2668
  0
LINE
  8
0
 10
13.1069
 20
53.2668
 11
12.7672
 21
53.3172
  0
LINE
  8
0
 10
12.7672
 20
53.3172
 11
12.434
 21
53.4007
  0
LINE
  8
0
 10
12.434
 20
53.4007
 11
12.1106
 21
53.5164
  0
LINE
  8
0
 10
12.1106
 20
53.5164
 11
11.8001
 21
53.6633
  0
LINE
  8
0
 10
11.8001
 20
53.6633
 11
11.5055
 21
53.8398
  0
LINE
  8
0
 10
11.5055
 20
53.8398
 11
11.2296
 21
54.0444
  0
LINE
  8
0
 10
11.2296
 20
54.0444
 11
10.9751
 21
54.2751
  0
LINE
  8
0
 10
10.9751
 20
54.2751
 11
10.7445
 21
54.5296
  0
LINE
  8
0
 10
10.7445
 20
54.5296
 11
10.5399
 21
54.8055
  0
LINE
  8
0
 10
10.5399
 20
54.8055
 11
10.3633
 21
55.1001
  0
LINE
  8
0
 10
10.3633
 20
55.1001
 11
10.2164
 21
55.4106
  0
LINE
  8
0
 10
10.2164
 20
55.4106
 11
10.1007
 21
55.734
  0
LINE
  8
0
 10
10.1007
 20
55.734
 11
10.0173
 21
56.0672
  0
LINE
  8
0
 10
10.0173
 20
56.0672
 11
9.96686
 21
56.4069
  0
LINE
  8
0
 10
9.96686
 20
56.4069
 11
9.95
 21
56.75
  0
LINE
  8
0
 10
9.95
 20
56.75
 11
9.96686
 21
57.093
  0
LINE
  8
0
 10
9.96686
 20
57.093
 11
10.0173
 21
57.4328
  0
LINE
  8
0
 10
10.0173
 20
57.4328
 11
10.1007
 21
57.766
  0
LINE
  8
0
 10
10.1007
 20
57.766
 11
10.2164
 21
58.0894
  0
LINE
  8
0
 10
10.2164
 20
58.0894
 11
10.3633
 21
58.3999
  0
LINE
  8
0
 10
10.3633
 20
58.3999
 11
10.5399
 21
58.6945
  0
LINE
  8
0
 10
10.5399
 20
58.6945
 11
10.7445
 21
58.9704
  0
LINE
  8
0
 10
10.7445
 20
58.9704
 11
10.9751
 21
59.2249
  0
LINE
  8
0
 10
10.9751
 20
59.2249
 11
11.2296
 21
59.4555
  0
LINE
  8
0
 10
11.2296
 20
59.4555
 11
11.5055
 21
59.6601
  0
LINE
  8
0
 10
11.5055
 20
59.6601
 11
11.8001
 21
59.8367
  0
LINE
  8
0
 10
11.8001
 20
59.8367
 11
12.1106
 21
59.9836
  0
LINE
  8
0
 10
12.1106
 20
59.9836
 11
12.434
 21
60.0993
  0
LINE
  8
0
 10
12.434
 20
60.0993
 11
12.7672
 21
60.1827
  0
LINE
  8
0
 10
12.7672
 20
60.1827
 11
13.1069
 21
60.2331
  0
LINE
  8
0
 10
13.1069
 20
60.2331
 11
13.45
 21
60.25
  0
LINE
  8
0
 10
13.45
 20
60.25
 11
13.793
 21
60.2331
  0
LINE
  8
0
 10
13.793
 20
60.2331
 11
14.1328
 21
60.1827
  0
LINE
  8
0
 10
14.1328
 20
60.1827
 11
14.466
 21
60.0993
  0
LINE
  8
0
 10
14.466
 20
60.0993
 11
14.7894
 21
59.9836
  0
LINE
  8
0
 10
14.7894
 20
59.9836
 11
15.0999
 21
59.8367
  0
LINE
  8
0
 10
15.0999
 20
59.8367
 11
15.3945
 21
59.6601
  0
LINE
  8
0
 10
15.3945
 20
59.6601
 11
15.6704
 21
59.4555
  0
LINE
  8
0
 10
15.6704
 20
59.4555
 11
15.9249
 21
59.2249
  0
LINE
  8
0
 10
15.9249
 20
59.2249
 11
16.1555
 21
58.9704
  0
LINE
  8
0
 10
16.1555
 20
58.9704
 11
16.3601
 21
58.6945
  0
LINE
  8
0
 10
16.3601
 20
58.6945
 11
16.5367
 21
58.3999
  0
LINE
  8
0
 10
16.5367
 20
58.3999
 11
16.6836
 21
58.0894
  0
LINE
  8
0
 10
16.6836
 20
58.0894
 11
16.7993
 21
57.766
  0
LINE
  8
0
 10
16.7993
 20
57.766
 11
16.8827
 21
57.4328
  0
LINE
  8
0
 10
16.8827
 20
57.4328
 11
16.9331
 21
57.093
  0
LINE
  8
0
 10
16.9331
 20
57.093
 11
16.95
 21
56.75
  0
LINE
  8
0
 10
16.95
 20
56.75
 11
16.9331
 21
56.4069
  0
LINE
  8
0
 10
16.9331
 20
56.4069
 11
16.8827
 21
56.0672
  0
LINE
  8
0
 10
16.8827
 20
56.0672
 11
16.7993
 21
55.734
  0
LINE
  8
0
 10
16.7993
 20
55.734
 11
16.6836
 21
55.4106
  0
LINE
  8
0
 10
16.6836
 20
55.4106
 11
16.5367
 21
55.1001
  0
LINE
  8
0
 10
16.5367
 20
55.1001
 11
16.3601
 21
54.8055
  0
LINE
  8
0
 10
16.3601
 20
54.8055
 11
16.1555
 21
54.5296
  0
LINE
  8
0
 10
16.1555
 20
54.5296
 11
15.9249
 21
54.2751
  0
LINE
  8
0
 10
15.9249
 20
54.2751
 11
15.6704
 21
54.0444
  0
LINE
  8
0
 10
15.6704
 20
54.0444
 11
15.3945
 21
53.8398
  0
LINE
  8
0
 10
15.3945
 20
53.8398
 11
15.0999
 21
53.6633
  0
LINE
  8
0
 10
15.0999
 20
53.6633
 11
14.7894
 21
53.5164
  0
LINE
  8
0
 10
14.7894
 20
53.5164
 11
14.466
 21
53.4007
  0
LINE
  8
0
 10
14.466
 20
53.4007
 11
14.1328
 21
53.3172
  0
LINE
  8
0
 10
14.1328
 20
53.3172
 11
13.793
 21
53.2668
  0
LINE
  8
0
 10
13.793
 20
53.2668
 11
13.45
 21
53.25
  0
LINE
  8
0
 10
13.45
 20
53.25
 11
13.1069
 21
53.2668
  0
LINE
  8
0
 10
13.1069
 20
43.2668
 11
12.7672
 21
43.3172
  0
LINE
  8
0
 10
12.7672
 20
43.3172
 11
12.434
 21
43.4007
  0
LINE
  8
0
 10
12.434
 20
43.4007
 11
12.1106
 21
43.5164
  0
LINE
  8
0
 10
12.1106
 20
43.5164
 11
11.8001
 21
43.6633
  0
LINE
  8
0
 10
11.8001
 20
43.6633
 11
11.5055
 21
43.8398
  0
LINE
  8
0
 10
11.5055
 20
43.8398
 11
11.2296
 21
44.0444
  0
LINE
  8
0
 10
11.2296
 20
44.0444
 11
10.9751
 21
44.2751
  0
LINE
  8
0
 10
10.9751
 20
44.2751
 11
10.7445
 21
44.5296
  0
LINE
  8
0
 10
10.7445
 20
44.5296
 11
10.5399
 21
44.8055
  0
LINE
  8
0
 10
10.5399
 20
44.8055
 11
10.3633
 21
45.1001
  0
LINE
  8
0
 10
10.3633
 20
45.1001
 11
10.2164
 21
45.4106
  0
LINE
  8
0
 10
10.2164
 20
45.4106
 11
10.1007
 21
45.734
  0
LINE
  8
0
 10
10.1007
 20
45.734
 11
10.0173
 21
46.0672
  0
LINE
  8
0
 10
10.0173
 20
46.0672
 11
9.96686
 21
46.4069
  0
LINE
  8
0
 10
9.96686
 20
46.4069
 11
9.95
 21
46.75
  0
LINE
  8
0
 10
9.95
 20
46.75
 11
9.96686
 21
47.093
  0
LINE
  8
0
 10
9.96686
 20
47.093
 11
10.0173
 21
47.4328
  0
LINE
  8
0
 10
10.0173
 20
47.4328
 11
10.1007
 21
47.766
  0
LINE
  8
0
 10
10.1007
 20
47.766
 11
10.2164
 21
48.0894
  0
LINE
  8
0
 10
10.2164
 20
48.0894
 11
10.3633
 21
48.3999
  0
LINE
  8
0
 10
10.3633
 20
48.3999
 11
10.5399
 21
48.6945
  0
LINE
  8
0
 10
10.5399
 20
48.6945
 11
10.7445
 21
48.9704
  0
LINE
  8
0
 10
10.7445
 20
48.9704
 11
10.9751
 21
49.2249
  0
LINE
  8
0
 10
10.9751
 20
49.2249
 11
11.2296
 21
49.4555
  0
LINE
  8
0
 10
11.2296
 20
49.4555
 11
11.5055
 21
49.6601
  0
LINE
  8
0
 10
11.5055
 20
49.6601
 11
11.8001
 21
49.8367
  0
LINE
  8
0
 10
11.8001
 20
49.8367
 11
12.1106
 21
49.9836
  0
LINE
  8
0
 10
12.1106
 20
49.9836
 11
12.434
 21
50.0993
  0
LINE
  8
0
 10
12.434
 20
50.0993
 11
12.7672
 21
50.1827
  0
LINE
  8
0
 10
12.7672
 20
50.1827
 11
13.1069
 21
50.2331
  0
LINE
  8
0
 10
13.1069
 20
50.2331
 11
13.45
 21
50.25
  0
LINE
  8
0
 10
13.45
 20
50.25
 11
13.793
 21
50.2331
  0
LINE
  8
0
 10
13.793
 20
50.2331
 11
14.1328
 21
50.1827
  0
LINE
  8
0
 10
14.1328
 20
50.1827
 11
14.466
 21
50.0993
  0
LINE
  8
0
 10
14.466
 20
50.0993
 11
14.7894
 21
49.9836
  0
LINE
  8
0
 10
14.7894
 20
49.9836
 11
15.0999
 21
49.8367
  0
LINE
  8
0
 10
15.0999
 20
49.8367
 11
15.3945
 21
49.6601
  0
LINE
  8
0
 10
15.3945
 20
49.6601
 11
15.6704
 21
49.4555
  0
LINE
  8
0
 10
15.6704
 20
49.4555
 11
15.9249
 21
49.2249
  0
LINE
  8
0
 10
15.9249
 20
49.2249
 11
16.1555
 21
48.9704
  0
LINE
  8
0
 10
16.1555
 20
48.9704
 11
16.3601
 21
48.6945
  0
LINE
  8
0
 10
16.3601
 20
48.6945
 11
16.5367
 21
48.3999
  0
LINE
  8
0
 10
16.5367
 20
48.3999
 11
16.6836
 21
48.0894
  0
LINE
  8
0
 10
16.6836
 20
48.0894
 11
16.7993
 21
47.766
  0
LINE
  8
0
 10
16.7993
 20
47.766
 11
16.8827
 21
47.4328
  0
LINE
  8
0
 10
16.8827
 20
47.4328
 11
16.9331
 21
47.093
  0
LINE
  8
0
 10
16.9331
 20
47.093
 11
16.95
 21
46.75
  0
LINE
  8
0
 10
16.95
 20
46.75
 11
16.9331
 21
46.4069
  0
LINE
  8
0
 10
16.9331
 20
46.4069
 11
16.8827
 21
46.0672
  0
LINE
  8
0
 10
16.8827
 20
46.0672
 11
16.7993
 21
45.734
  0
LINE
  8
0
 10
16.7993
 20
45.734
 11
16.6836
 21
45.4106
  0
LINE
  8
0
 10
16.6836
 20
45.4106
 11
16.5367
 21
45.1001
  0
LINE
  8
0
 10
16.5367
 20
45.1001
 11
16.3601
 21
44.8055
  0
LINE
  8
0
 10
16.3601
 20
44.8055
 11
16.1555
 21
44.5296
  0
LINE
  8
0
 10
16.1555
 20
44.5296
 11
15.9249
 21
44.2751
  0
LINE
  8
0
 10
15.9249
 20
44.2751
 11
15.6704
 21
44.0444
  0
LINE
  8
0
 10
15.6704
 20
44.0444
 11
15.3945
 21
43.8398
  0
LINE
  8
0
 10
15.3945
 20
43.8398
 11
15.0999
 21
43.6633
  0
LINE
  8
0
 10
15.0999
 20
43.6633
 11
14.7894
 21
43.5164
  0
LINE
  8
0
 10
14.7894
 20
43.5164
 11
14.466
 21
43.4007
  0
LINE
  8
0
 10
14.466
 20
43.4007
 11
14.1328
 21
43.3172
  0
LINE
  8
0
 10
14.1328
 20
43.3172
 11
13.793
 21
43.2668
  0
LINE
  8
0
 10
13.793
 20
43.2668
 11
13.45
 21
43.25
  0
LINE
  8
0
 10
13.45
 20
43.25
 11
13.1069
 21
43.2668
  0
LINE
  8
0
 10
13.1069
 20
28.2668
 11
12.7672
 21
28.3172
  0
LINE
  8
0
 10
12.7672
 20
28.3172
 11
12.434
 21
28.4007
  0
LINE
  8
0
 10
12.434
 20
28.4007
 11
12.1106
 21
28.5164
  0
LINE
  8
0
 10
12.1106
 20
28.5164
 11
11.8001
 21
28.6633
  0
LINE
  8
0
 10
11.8001
 20
28.6633
 11
11.5055
 21
28.8398
  0
LINE
  8
0
 10
11.5055
 20
28.8398
 11
11.2296
 21
29.0444
  0
LINE
  8
0
 10
11.2296
 20
29.0444
 11
10.9751
 21
29.2751
  0
LINE
  8
0
 10
10.9751
 20
29.2751
 11
10.7445
 21
29.5296
  0
LINE
  8
0
 10
10.7445
 20
29.5296
 11
10.5399
 21
29.8055
  0
LINE
  8
0
 10
10.5399
 20
29.8055
 11
10.3633
 21
30.1001
  0
LINE
  8
0
 10
10.3633
 20
30.1001
 11
10.2164
 21
30.4106
  0
LINE
  8
0
 10
10.2164
 20
30.4106
 11
10.1007
 21
30.734
  0
LINE
  8
0
 10
10.1007
 20
30.734
 11
10.0173
 21
31.0672
  0
LINE
  8
0
 10
10.0173
 20
31.0672
 11
9.96686
 21
31.4069
  0
LINE
  8
0
 10
9.96686
 20
31.4069
 11
9.95
 21
31.75
  0
LINE
  8
0
 10
9.95
 20
31.75
 11
9.96686
 21
32.093
  0
LINE
  8
0
 10
9.96686
 20
32.093
 11
10.0173
 21
32.4328
  0
LINE
  8
0
 10
10.0173
 20
32.4328
 11
10.1007
 21
32.766
  0
LINE
  8
0
 10
10.1007
 20
32.766
 11
10.2164
 21
33.0894
  0
LINE
  8
0
 10
10.2164
 20
33.0894
 11
10.3633
 21
33.3999
  0
LINE
  8
0
 10
10.3633
 20
33.3999
 11
10.5399
 21
33.6945
  0
LINE
  8
0
 10
10.5399
 20
33.6945
 11
10.7445
 21
33.9704
  0
LINE
  8
0
 10
10.7445
 20
33.9704
 11
10.9751
 21
34.2249
  0
LINE
  8
0
 10
10.9751
 20
34.2249
 11
11.2296
 21
34.4555
  0
LINE
  8
0
 10
11.2296
 20
34.4555
 11
11.5055
 21
34.6601
  0
LINE
  8
0
 10
11.5055
 20
34.6601
 11
11.8001
 21
34.8367
  0
LINE
  8
0
 10
11.8001
 20
34.8367
 11
12.1106
 21
34.9836
  0
LINE
  8
0
 10
12.1106
 20
34.9836
 11
12.434
 21
35.0993
  0
LINE
  8
0
 10
12.434
 20
35.0993
 11
12.7672
 21
35.1827
  0
LINE
  8
0
 10
12.7672
 20
35.1827
 11
13.1069
 21
35.2331
  0
LINE
  8
0
 10
13.1069
 20
35.2331
 11
13.45
 21
35.25
  0
LINE
  8
0
 10
13.45
 20
35.25
 11
13.793
 21
35.2331
  0
LINE
  8
0
 10
13.793
 20
35.2331
 11
14.1328
 21
35.1827
  0
LINE
  8
0
 10
14.1328
 20
35.1827
 11
14.466
 21
35.0993
  0
LINE
  8
0
 10
14.466
 20
35.0993
 11
14.7894
 21
34.9836
  0
LINE
  8
0
 10
14.7894
 20
34.9836
 11
15.0999
 21
34.8367
  0
LINE
  8
0
 10
15.0999
 20
34.8367
 11
15.3945
 21
34.6601
  0
LINE
  8
0
 10
15.3945
 20
34.6601
 11
15.6704
 21
34.4555
  0
LINE
  8
0
 10
15.6704
 20
34.4555
 11
15.9249
 21
34.2249
  0
LINE
  8
0
 10
15.9249
 20
34.2249
 11
16.1555
 21
33.9704
  0
LINE
  8
0
 10
16.1555
 20
33.9704
 11
16.3601
 21
33.6945
  0
LINE
  8
0
 10
16.3601
 20
33.6945
 11
16.5367
 21
33.3999
  0
LINE
  8
0
 10
16.5367
 20
33.3999
 11
16.6836
 21
33.0894
  0
LINE
  8
0
 10
16.6836
 20
33.0894
 11
16.7993
 21
32.766
  0
LINE
  8
0
 10
16.7993
 20
32.766
 11
16.8827
 21
32.4328
  0
LINE
  8
0
 10
16.8827
 20
32.4328
 11
16.9331
 21
32.093
  0
LINE
  8
0
 10
16.9331
 20
32.093
 11
16.95
 21
31.75
  0
LINE
  8
0
 10
16.95
 20
31.75
 11
16.9331
 21
31.4069
  0
LINE
  8
0
 10
16.9331
 20
31.4069
 11
16.8827
 21
31.0672
  0
LINE
  8
0
 10
16.8827
 20
31.0672
 11
16.7993
 21
30.734
  0
LINE
  8
0
 10
16.7993
 20
30.734
 11
16.6836
 21
30.4106
  0
LINE
  8
0
 10
16.6836
 20
30.4106
 11
16.5367
 21
30.1001
  0
LINE
  8
0
 10
16.5367
 20
30.1001
 11
16.3601
 21
29.8055
  0
LINE
  8
0
 10
16.3601
 20
29.8055
 11
16.1555
 21
29.5296
  0
LINE
  8
0
 10
16.1555
 20
29.5296
 11
15.9249
 21
29.2751
  0
LINE
  8
0
 10
15.9249
 20
29.2751
 11
15.6704
 21
29.0444
  0
LINE
  8
0
 10
15.6704
 20
29.0444
 11
15.3945
 21
28.8398
  0
LINE
  8
0
 10
15.3945
 20
28.8398
 11
15.0999
 21
28.6633
  0
LINE
  8
0
 10
15.0999
 20
28.6633
 11
14.7894
 21
28.5164
  0
LINE
  8
0
 10
14.7894
 20
28.5164
 11
14.466
 21
28.4007
  0
LINE
  8
0
 10
14.466
 20
28.4007
 11
14.1328
 21
28.3172
  0
LINE
  8
0
 10
14.1328
 20
28.3172
 11
13.793
 21
28.2668
  0
LINE
  8
0
 10
13.793
 20
28.2668
 11
13.45
 21
28.25
  0
LINE
  8
0
 10
13.45
 20
28.25
 11
13.1069
 21
28.2668
  0
LINE
  8
0
 10
13.1069
 20
18.2668
 11
12.7672
 21
18.3172
  0
LINE
  8
0
 10
12.7672
 20
18.3172
 11
12.434
 21
18.4007
  0
LINE
  8
0
 10
12.434
 20
18.4007
 11
12.1106
 21
18.5164
  0
LINE
  8
0
 10
12.1106
 20
18.5164
 11
11.8001
 21
18.6633
  0
LINE
  8
0
 10
11.8001
 20
18.6633
 11
11.5055
 21
18.8398
  0
LINE
  8
0
 10
11.5055
 20
18.8398
 11
11.2296
 21
19.0444
  0
LINE
  8
0
 10
11.2296
 20
19.0444
 11
10.9751
 21
19.2751
  0
LINE
  8
0
 10
10.9751
 20
19.2751
 11
10.7445
 21
19.5296
  0
LINE
  8
0
 10
10.7445
 20
19.5296
 11
10.5399
 21
19.8055
  0
LINE
  8
0
 10
10.5399
 20
19.8055
 11
10.3633
 21
20.1001
  0
LINE
  8
0
 10
10.3633
 20
20.1001
 11
10.2164
 21
20.4106
  0
LINE
  8
0
 10
10.2164
 20
20.4106
 11
10.1007
 21
20.734
  0
LINE
  8
0
 10
10.1007
 20
20.734
 11
10.0173
 21
21.0672
  0
LINE
  8
0
 10
10.0173
 20
21.0672
 11
9.96686
 21
21.4069
  0
LINE
  8
0
 10
9.96686
 20
21.4069
 11
9.95
 21
21.75
  0
LINE
  8
0
 10
9.95
 20
21.75
 11
9.96686
 21
22.093
  0
LINE
  8
0
 10
9.96686
 20
22.093
 11
10.0173
 21
22.4328
  0
LINE
  8
0
 10
10.0173
 20
22.4328
 11
10.1007
 21
22.766
  0
LINE
  8
0
 10
10.1007
 20
22.766
 11
10.2164
 21
23.0894
  0
LINE
  8
0
 10
10.2164
 20
23.0894
 11
10.3633
 21
23.3999
  0
LINE
  8
0
 10
10.3633
 20
23.3999
 11
10.5399
 21
23.6945
  0
LINE
  8
0
 10
10.5399
 20
23.6945
 11
10.7445
 21
23.9704
  0
LINE
  8
0
 10
10.7445
 20
23.9704
 11
10.9751
 21
24.2249
  0
LINE
  8
0
 10
10.9751
 20
24.2249
 11
11.2296
 21
24.4555
  0
LINE
  8
0
 10
11.2296
 20
24.4555
 11
11.5055
 21
24.6601
  0
LINE
  8
0
 10
11.5055
 20
24.6601
 11
11.8001
 21
24.8367
  0
LINE
  8
0
 10
11.8001
 20
24.8367
 11
12.1106
 21
24.9836
  0
LINE
  8
0
 10
12.1106
 20
24.9836
 11
12.434
 21
25.0993
  0
LINE
  8
0
 10
12.434
 20
25.0993
 11
12.7672
 21
25.1827
  0
LINE
  8
0
 10
12.7672
 20
25.1827
 11
13.1069
 21
25.2331
  0
LINE
  8
0
 10
13.1069
 20
25.2331
 11
13.45
 21
25.25
  0
LINE
  8
0
 10
13.45
 20
25.25
 11
13.793
 21
25.2331
  0
LINE
  8
0
 10
13.793
 20
25.2331
 11
14.1328
 21
25.1827
  0
LINE
  8
0
 10
14.1328
 20
25.1827
 11
14.466
 21
25.0993
  0
LINE
  8
0
 10
14.466
 20
25.0993
 11
14.7894
 21
24.9836
  0
LINE
  8
0
 10
14.7894
 20
24.9836
 11
15.0999
 21
24.8367
  0
LINE
  8
0
 10
15.0999
 20
24.8367
 11
15.3945
 21
24.6601
  0
LINE
  8
0
 10
15.3945
 20
24.6601
 11
15.6704
 21
24.4555
  0
LINE
  8
0
 10
15.6704
 20
24.4555
 11
15.9249
 21
24.2249
  0
LINE
  8
0
 10
15.9249
 20
24.2249
 11
16.1555
 21
23.9704
  0
LINE
  8
0
 10
16.1555
 20
23.9704
 11
16.3601
 21
23.6945
  0
LINE
  8
0
 10
16.3601
 20
23.6945
 11
16.5367
 21
23.3999
  0
LINE
  8
0
 10
16.5367
 20
23.3999
 11
16.6836
 21
23.0894
  0
LINE
  8
0
 10
16.6836
 20
23.0894
 11
16.7993
 21
22.766
  0
LINE
  8
0
 10
16.7993
 20
22.766
 11
16.8827
 21
22.4328
  0
LINE
  8
0
 10
16.8827
 20
22.4328
 11
16.9331
 21
22.093
  0
LINE
  8
0
 10
16.9331
 20
22.093
 11
16.95
 21
21.75
  0
LINE
  8
0
 10
16.95
 20
21.75
 11
16.9331
 21
21.4069
  0
LINE
  8
0
 10
16.9331
 20
21.4069
 11
16.8827
 21
21.0672
  0
LINE
  8
0
 10
16.8827
 20
21.0672
 11
16.7993
 21
20.734
  0
LINE
  8
0
 10
16.7993
 20
20.734
 11
16.6836
 21
20.4106
  0
LINE
  8
0
 10
16.6836
 20
20.4106
 11
16.5367
 21
20.1001
  0
LINE
  8
0
 10
16.5367
 20
20.1001
 11
16.3601
 21
19.8055
  0
LINE
  8
0
 10
16.3601
 20
19.8055
 11
16.1555
 21
19.5296
  0
LINE
  8
0
 10
16.1555
 20
19.5296
 11
15.9249
 21
19.2751
  0
LINE
  8
0
 10
15.9249
 20
19.2751
 11
15.6704
 21
19.0444
  0
LINE
  8
0
 10
15.6704
 20
19.0444
 11
15.3945
 21
18.8398
  0
LINE
  8
0
 10
15.3945
 20
18.8398
 11
15.0999
 21
18.6633
  0
LINE
  8
0
 10
15.0999
 20
18.6633
 11
14.7894
 21
18.5164
  0
LINE
  8
0
 10
14.7894
 20
18.5164
 11
14.466
 21
18.4007
  0
LINE
  8
0
 10
14.466
 20
18.4007
 11
14.1328
 21
18.3172
  0
LINE
  8
0
 10
14.1328
 20
18.3172
 11
13.793
 21
18.2668
  0
LINE
  8
0
 10
13.793
 20
18.2668
 11
13.45
 21
18.25
  0
LINE
  8
0
 10
13.45
 20
18.25
 11
13.1069
 21
18.2668
  0
LINE
  8
0
 10
7.34317
 20
1.4077
 11
7.18785
 21
1.43074
  0
LINE
  8
0
 10
7.18785
 20
1.43074
 11
7.03554
 21
1.46889
  0
LINE
  8
0
 10
7.03554
 20
1.46889
 11
6.8877
 21
1.52179
  0
LINE
  8
0
 10
6.8877
 20
1.52179
 11
6.74576
 21
1.58891
  0
LINE
  8
0
 10
6.74576
 20
1.58891
 11
6.61108
 21
1.66965
  0
LINE
  8
0
 10
6.61108
 20
1.66965
 11
6.48497
 21
1.76317
  0
LINE
  8
0
 10
6.48497
 20
1.76317
 11
6.36862
 21
1.86862
  0
LINE
  8
0
 10
6.36862
 20
1.86862
 11
6.26317
 21
1.98497
  0
LINE
  8
0
 10
6.26317
 20
1.98497
 11
6.16965
 21
2.11108
  0
LINE
  8
0
 10
6.16965
 20
2.11108
 11
6.08891
 21
2.24576
  0
LINE
  8
0
 10
6.08891
 20
2.24576
 11
6.02179
 21
2.3877
  0
LINE
  8
0
 10
6.02179
 20
2.3877
 11
5.96889
 21
2.53554
  0
LINE
  8
0
 10
5.96889
 20
2.53554
 11
5.93074
 21
2.68785
  0
LINE
  8
0
 10
5.93074
 20
2.68785
 11
5.9077
 21
2.84317
  0
LINE
  8
0
 10
5.9077
 20
2.84317
 11
5.89999
 21
3
  0
LINE
  8
0
 10
5.89999
 20
3
 11
5.9077
 21
3.15681
  0
LINE
  8
0
 10
5.9077
 20
3.15681
 11
5.93074
 21
3.31213
  0
LINE
  8
0
 10
5.93074
 20
3.31213
 11
5.96889
 21
3.46445
  0
LINE
  8
0
 10
5.96889
 20
3.46445
 11
6.02179
 21
3.61229
  0
LINE
  8
0
 10
6.02179
 20
3.61229
 11
6.08891
 21
3.75423
  0
LINE
  8
0
 10
6.08891
 20
3.75423
 11
6.16965
 21
3.8889
  0
LINE
  8
0
 10
6.16965
 20
3.8889
 11
6.26317
 21
4.01501
  0
LINE
  8
0
 10
6.26317
 20
4.01501
 11
6.36862
 21
4.13136
  0
LINE
  8
0
 10
6.36862
 20
4.13136
 11
6.48497
 21
4.23682
  0
LINE
  8
0
 10
6.48497
 20
4.23682
 11
6.61108
 21
4.33034
  0
LINE
  8
0
 10
6.61108
 20
4.33034
 11
6.74576
 21
4.41107
  0
LINE
  8
0
 10
6.74576
 20
4.41107
 11
6.8877
 21
4.4782
  0
LINE
  8
0
 10
6.8877
 20
4.4782
 11
7.03554
 21
4.5311
  0
LINE
  8
0
 10
7.03554
 20
4.5311
 11
7.18785
 21
4.56924
  0
LINE
  8
0
 10
7.18785
 20
4.56924
 11
7.34317
 21
4.59229
  0
LINE
  8
0
 10
7.34317
 20
4.59229
 11
7.5
 21
4.59999
  0
LINE
  8
0
 10
7.5
 20
4.59999
 11
7.65681
 21
4.59229
  0
LINE
  8
0
 10
7.65681
 20
4.59229
 11
7.81213
 21
4.56924
  0
LINE
  8
0
 10
7.81213
 20
4.56924
 11
7.96445
 21
4.5311
  0
LINE
  8
0
 10
7.96445
 20
4.5311
 11
8.11229
 21
4.4782
  0
LINE
  8
0
 10
8.11229
 20
4.4782
 11
8.25423
 21
4.41107
  0
LINE
  8
0
 10
8.25423
 20
4.41107
 11
8.3889
 21
4.33034
  0
LINE
  8
0
 10
8.3889
 20
4.33034
 11
8.51501
 21
4.23682
  0
LINE
  8
0
 10
8.51501
 20
4.23682
 11
8.63136
 21
4.13136
  0
LINE
  8
0
 10
8.63136
 20
4.13136
 11
8.73682
 21
4.01501
  0
LINE
  8
0
 10
8.73682
 20
4.01501
 11
8.83034
 21
3.8889
  0
LINE
  8
0
 10
8.83034
 20
3.8889
 11
8.91107
 21
3.75423
  0
LINE
  8
0
 10
8.91107
 20
3.75423
 11
8.9782
 21
3.61229
  0
LINE
  8
0
 10
8.9782
 20
3.61229
 11
9.0311
 21
3.46445
  0
LINE
  8
0
 10
9.0311
 20
3.46445
 11
9.06924
 21
3.31213
  0
LINE
  8
0
 10
9.06924
 20
3.31213
 11
9.09229
 21
3.15681
  0
LINE
  8
0
 10
9.09229
 20
3.15681
 11
9.09999
 21
3
  0
LINE
  8
0
 10
9.09999
 20
3
 11
9.09229
 21
2.84317
  0
LINE
  8
0
 10
9.09229
 20
2.84317
 11
9.06924
 21
2.68785
  0
LINE
  8
0
 10
9.06924
 20
2.68785
 11
9.0311
 21
2.53554
  0
LINE
  8
0
 10
9.0311
 20
2.53554
 11
8.9782
 21
2.3877
  0
LINE
  8
0
 10
8.9782
 20
2.3877
 11
8.91107
 21
2.24576
  0
LINE
  8
0
 10
8.91107
 20
2.24576
 11
8.83034
 21
2.11108
  0
LINE
  8
0
 10
8.83034
 20
2.11108
 11
8.73682
 21
1.98497
  0
LINE
  8
0
 10
8.73682
 20
1.98497
 11
8.63136
 21
1.86862
  0
LINE
  8
0
 10
8.63136
 20
1.86862
 11
8.51501
 21
1.76317
  0
LINE
  8
0
 10
8.51501
 20
1.76317
 11
8.3889
 21
1.66965
  0
LINE
  8
0
 10
8.3889
 20
1.66965
 11
8.25423
 21
1.58891
  0
LINE
  8
0
 10
8.25423
 20
1.58891
 11
8.11229
 21
1.52179
  0
LINE
  8
0
 10
8.11229
 20
1.52179
 11
7.96445
 21
1.46889
  0
LINE
  8
0
 10
7.96445
 20
1.46889
 11
7.81213
 21
1.43074
  0
LINE
  8
0
 10
7.81213
 20
1.43074
 11
7.65681
 21
1.4077
  0
LINE
  8
0
 10
7.65681
 20
1.4077
 11
7.5
 21
1.39999
  0
LINE
  8
0
 10
7.5
 20
1.39999
 11
7.34317
 21
1.4077
  0
ENDSEC
  0
SECTION
  2
OBJECTS
  0
DICTIONARY
  0
ENDSEC
  0
EOF
