<?xml version="1.0" encoding="utf-8" ?>
<svg baseProfile="tiny" height="364.117313934" version="1.2" width="62.936218934" xmlns="http://www.w3.org/2000/svg" xmlns:ev="http://www.w3.org/2001/xml-events" xmlns:xlink="http://www.w3.org/1999/xlink"><defs /><g id="paths" stroke="green"><path d="M 4.893306967,359.224006967 L 58.042911967,359.224006967 L 58.042911967,4.893306967 L 4.893306967,4.893306967 L 4.893306967,359.224006967 Z" fill-opacity="0" stroke-linejoin="round" stroke-width="1.0" /></g><g fill="red" id="top_parts" stroke="red"><line stroke-linecap="round" stroke-width="0.5" x1="58.0429" x2="8.4366" y1="166.8224" y2="166.8224" /><line stroke-linecap="round" stroke-width="0.5" x1="8.4366" x2="8.4366" y1="166.8224" y2="138.1217" /><line stroke-linecap="round" stroke-width="0.5" x1="8.4366" x2="58.0429" y1="138.1217" y2="138.1217" /><line stroke-linecap="round" stroke-width="0.5" x1="58.0429" x2="58.0429" y1="138.1217" y2="166.8224" /><line stroke-linecap="round" stroke-width="0.5" x1="72.2161" x2="58.0429" y1="166.1138" y2="166.1138" /><line stroke-linecap="round" stroke-width="0.5" x1="58.0429" x2="58.0429" y1="166.1138" y2="144.8539" /><line stroke-linecap="round" stroke-width="0.5" x1="58.0429" x2="72.2161" y1="144.8539" y2="144.8539" /><line stroke-linecap="round" stroke-width="0.5" x1="72.2161" x2="72.2161" y1="144.8539" y2="166.1138" /><text font-family="monospace" font-size="2" stroke-width="0.1" text-anchor="middle" x="65.129525967" y="155.483854467">P2</text><line stroke-linecap="round" stroke-width="0.5" x1="58.0429" x2="8.4366" y1="310.5035" y2="310.5035" /><line stroke-linecap="round" stroke-width="0.5" x1="8.4366" x2="8.4366" y1="310.5035" y2="283.9287" /><line stroke-linecap="round" stroke-width="0.5" x1="8.4366" x2="58.0429" y1="283.9287" y2="283.9287" /><line stroke-linecap="round" stroke-width="0.5" x1="58.0429" x2="58.0429" y1="283.9287" y2="310.5035" /><line stroke-linecap="round" stroke-width="0.5" x1="73.9878" x2="59.8146" y1="307.8461" y2="307.8461" /><line stroke-linecap="round" stroke-width="0.5" x1="59.8146" x2="59.8146" y1="307.8461" y2="286.5862" /><line stroke-linecap="round" stroke-width="0.5" x1="59.8146" x2="73.9878" y1="286.5862" y2="286.5862" /><line stroke-linecap="round" stroke-width="0.5" x1="73.9878" x2="73.9878" y1="286.5862" y2="307.8461" /><line stroke-linecap="round" stroke-width="0.5" x1="59.8146" x2="58.0429" y1="309.6177" y2="309.6177" /><line stroke-linecap="round" stroke-width="0.5" x1="58.0429" x2="58.0429" y1="309.6177" y2="284.8146" /><line stroke-linecap="round" stroke-width="0.5" x1="58.0429" x2="59.8146" y1="284.8146" y2="284.8146" /><line stroke-linecap="round" stroke-width="0.5" x1="59.8146" x2="59.8146" y1="284.8146" y2="309.6177" /><text font-family="monospace" font-size="2" stroke-width="0.1" text-anchor="middle" x="58.928738717" y="297.216134467">J4</text><line stroke-linecap="round" stroke-width="0.5" x1="58.0429" x2="8.4366" y1="221.9209" y2="221.9209" /><line stroke-linecap="round" stroke-width="0.5" x1="8.4366" x2="8.4366" y1="221.9209" y2="195.3461" /><line stroke-linecap="round" stroke-width="0.5" x1="8.4366" x2="58.0429" y1="195.3461" y2="195.3461" /><line stroke-linecap="round" stroke-width="0.5" x1="58.0429" x2="58.0429" y1="195.3461" y2="221.9209" /><line stroke-linecap="round" stroke-width="0.5" x1="73.9878" x2="59.8146" y1="219.2634" y2="219.2634" /><line stroke-linecap="round" stroke-width="0.5" x1="59.8146" x2="59.8146" y1="219.2634" y2="198.0035" /><line stroke-linecap="round" stroke-width="0.5" x1="59.8146" x2="73.9878" y1="198.0035" y2="198.0035" /><line stroke-linecap="round" stroke-width="0.5" x1="73.9878" x2="73.9878" y1="198.0035" y2="219.2634" /><line stroke-linecap="round" stroke-width="0.5" x1="59.8146" x2="58.0429" y1="221.035" y2="221.035" /><line stroke-linecap="round" stroke-width="0.5" x1="58.0429" x2="58.0429" y1="221.035" y2="196.2319" /><line stroke-linecap="round" stroke-width="0.5" x1="58.0429" x2="59.8146" y1="196.2319" y2="196.2319" /><line stroke-linecap="round" stroke-width="0.5" x1="59.8146" x2="59.8146" y1="196.2319" y2="221.035" /><text font-family="monospace" font-size="2" stroke-width="0.1" text-anchor="middle" x="58.928738717" y="208.633459467">J3</text><line stroke-linecap="round" stroke-width="0.5" x1="58.0429" x2="8.4366" y1="44.7555" y2="44.7555" /><line stroke-linecap="round" stroke-width="0.5" x1="8.4366" x2="8.4366" y1="44.7555" y2="18.1807" /><line stroke-linecap="round" stroke-width="0.5" x1="8.4366" x2="58.0429" y1="18.1807" y2="18.1807" /><line stroke-linecap="round" stroke-width="0.5" x1="58.0429" x2="58.0429" y1="18.1807" y2="44.7555" /><line stroke-linecap="round" stroke-width="0.5" x1="73.9878" x2="59.8146" y1="42.098" y2="42.098" /><line stroke-linecap="round" stroke-width="0.5" x1="59.8146" x2="59.8146" y1="42.098" y2="20.8382" /><line stroke-linecap="round" stroke-width="0.5" x1="59.8146" x2="73.9878" y1="20.8382" y2="20.8382" /><line stroke-linecap="round" stroke-width="0.5" x1="73.9878" x2="73.9878" y1="20.8382" y2="42.098" /><line stroke-linecap="round" stroke-width="0.5" x1="59.8146" x2="58.0429" y1="43.8697" y2="43.8697" /><line stroke-linecap="round" stroke-width="0.5" x1="58.0429" x2="58.0429" y1="43.8697" y2="19.0665" /><line stroke-linecap="round" stroke-width="0.5" x1="58.0429" x2="59.8146" y1="19.0665" y2="19.0665" /><line stroke-linecap="round" stroke-width="0.5" x1="59.8146" x2="59.8146" y1="19.0665" y2="43.8697" /><text font-family="monospace" font-size="2" stroke-width="0.1" text-anchor="middle" x="58.928738717" y="31.468109467">J1</text><line stroke-linecap="round" stroke-width="0.5" x1="58.0429" x2="8.4366" y1="78.2398" y2="78.2398" /><line stroke-linecap="round" stroke-width="0.5" x1="8.4366" x2="8.4366" y1="78.2398" y2="49.539" /><line stroke-linecap="round" stroke-width="0.5" x1="8.4366" x2="58.0429" y1="49.539" y2="49.539" /><line stroke-linecap="round" stroke-width="0.5" x1="58.0429" x2="58.0429" y1="49.539" y2="78.2398" /><line stroke-linecap="round" stroke-width="0.5" x1="72.2161" x2="58.0429" y1="77.5311" y2="77.5311" /><line stroke-linecap="round" stroke-width="0.5" x1="58.0429" x2="58.0429" y1="77.5311" y2="56.2713" /><line stroke-linecap="round" stroke-width="0.5" x1="58.0429" x2="72.2161" y1="56.2713" y2="56.2713" /><line stroke-linecap="round" stroke-width="0.5" x1="72.2161" x2="72.2161" y1="56.2713" y2="77.5311" /><text font-family="monospace" font-size="2" stroke-width="0.1" text-anchor="middle" x="65.129525967" y="66.901179467">P1</text><line stroke-linecap="round" stroke-width="0.5" x1="58.0429" x2="8.4366" y1="255.4051" y2="255.4051" /><line stroke-linecap="round" stroke-width="0.5" x1="8.4366" x2="8.4366" y1="255.4051" y2="226.7043" /><line stroke-linecap="round" stroke-width="0.5" x1="8.4366" x2="58.0429" y1="226.7043" y2="226.7043" /><line stroke-linecap="round" stroke-width="0.5" x1="58.0429" x2="58.0429" y1="226.7043" y2="255.4051" /><line stroke-linecap="round" stroke-width="0.5" x1="72.2161" x2="58.0429" y1="254.6965" y2="254.6965" /><line stroke-linecap="round" stroke-width="0.5" x1="58.0429" x2="58.0429" y1="254.6965" y2="233.4366" /><line stroke-linecap="round" stroke-width="0.5" x1="58.0429" x2="72.2161" y1="233.4366" y2="233.4366" /><line stroke-linecap="round" stroke-width="0.5" x1="72.2161" x2="72.2161" y1="233.4366" y2="254.6965" /><text font-family="monospace" font-size="2" stroke-width="0.1" text-anchor="middle" x="65.129525967" y="244.066529467">P3</text><line stroke-linecap="round" stroke-width="0.5" x1="58.0429" x2="8.4366" y1="133.3382" y2="133.3382" /><line stroke-linecap="round" stroke-width="0.5" x1="8.4366" x2="8.4366" y1="133.3382" y2="106.7634" /><line stroke-linecap="round" stroke-width="0.5" x1="8.4366" x2="58.0429" y1="106.7634" y2="106.7634" /><line stroke-linecap="round" stroke-width="0.5" x1="58.0429" x2="58.0429" y1="106.7634" y2="133.3382" /><line stroke-linecap="round" stroke-width="0.5" x1="73.9878" x2="59.8146" y1="130.6807" y2="130.6807" /><line stroke-linecap="round" stroke-width="0.5" x1="59.8146" x2="59.8146" y1="130.6807" y2="109.4209" /><line stroke-linecap="round" stroke-width="0.5" x1="59.8146" x2="73.9878" y1="109.4209" y2="109.4209" /><line stroke-linecap="round" stroke-width="0.5" x1="73.9878" x2="73.9878" y1="109.4209" y2="130.6807" /><line stroke-linecap="round" stroke-width="0.5" x1="59.8146" x2="58.0429" y1="132.4524" y2="132.4524" /><line stroke-linecap="round" stroke-width="0.5" x1="58.0429" x2="58.0429" y1="132.4524" y2="107.6492" /><line stroke-linecap="round" stroke-width="0.5" x1="58.0429" x2="59.8146" y1="107.6492" y2="107.6492" /><line stroke-linecap="round" stroke-width="0.5" x1="59.8146" x2="59.8146" y1="107.6492" y2="132.4524" /><text font-family="monospace" font-size="2" stroke-width="0.1" text-anchor="middle" x="58.928738717" y="120.050784467">J2</text><line stroke-linecap="round" stroke-width="0.5" x1="58.0429" x2="8.4366" y1="343.9878" y2="343.9878" /><line stroke-linecap="round" stroke-width="0.5" x1="8.4366" x2="8.4366" y1="343.9878" y2="315.287" /><line stroke-linecap="round" stroke-width="0.5" x1="8.4366" x2="58.0429" y1="315.287" y2="315.287" /><line stroke-linecap="round" stroke-width="0.5" x1="58.0429" x2="58.0429" y1="315.287" y2="343.9878" /><line stroke-linecap="round" stroke-width="0.5" x1="72.2161" x2="58.0429" y1="343.2791" y2="343.2791" /><line stroke-linecap="round" stroke-width="0.5" x1="58.0429" x2="58.0429" y1="343.2791" y2="322.0193" /><line stroke-linecap="round" stroke-width="0.5" x1="58.0429" x2="72.2161" y1="322.0193" y2="322.0193" /><line stroke-linecap="round" stroke-width="0.5" x1="72.2161" x2="72.2161" y1="322.0193" y2="343.2791" /><text font-family="monospace" font-size="2" stroke-width="0.1" text-anchor="middle" x="65.129525967" y="332.649204467">P4</text></g><g fill="blue" id="bottom_parts" stroke="blue"><line stroke-linecap="round" stroke-width="0.5" x1="45.3756" x2="45.3756" y1="233.8276" y2="218.8724" /><line stroke-linecap="round" stroke-width="0.5" x1="45.3756" x2="38.8205" y1="218.8724" y2="218.8724" /><line stroke-linecap="round" stroke-width="0.5" x1="38.8205" x2="38.8205" y1="218.8724" y2="233.8276" /><line stroke-linecap="round" stroke-width="0.5" x1="38.8205" x2="45.3756" y1="233.8276" y2="233.8276" /><text font-family="monospace" font-size="2" stroke-width="0.1" text-anchor="middle" x="42.098030467" y="226.349994467">R6</text><line stroke-linecap="round" stroke-width="0.5" x1="27.6591" x2="27.6591" y1="145.245" y2="130.2897" /><line stroke-linecap="round" stroke-width="0.5" x1="27.6591" x2="21.1039" y1="130.2897" y2="130.2897" /><line stroke-linecap="round" stroke-width="0.5" x1="21.1039" x2="21.1039" y1="130.2897" y2="145.245" /><line stroke-linecap="round" stroke-width="0.5" x1="21.1039" x2="27.6591" y1="145.245" y2="145.245" /><text font-family="monospace" font-size="2" stroke-width="0.1" text-anchor="middle" x="24.381495467" y="137.767319467">R3</text><line stroke-linecap="round" stroke-width="0.5" x1="45.3756" x2="45.3756" y1="322.4103" y2="307.455" /><line stroke-linecap="round" stroke-width="0.5" x1="45.3756" x2="38.8205" y1="307.455" y2="307.455" /><line stroke-linecap="round" stroke-width="0.5" x1="38.8205" x2="38.8205" y1="307.455" y2="322.4103" /><line stroke-linecap="round" stroke-width="0.5" x1="38.8205" x2="45.3756" y1="322.4103" y2="322.4103" /><text font-family="monospace" font-size="2" stroke-width="0.1" text-anchor="middle" x="42.098030467" y="314.932669467">R8</text><line stroke-linecap="round" stroke-width="0.5" x1="45.3756" x2="45.3756" y1="145.245" y2="130.2897" /><line stroke-linecap="round" stroke-width="0.5" x1="45.3756" x2="38.8205" y1="130.2897" y2="130.2897" /><line stroke-linecap="round" stroke-width="0.5" x1="38.8205" x2="38.8205" y1="130.2897" y2="145.245" /><line stroke-linecap="round" stroke-width="0.5" x1="38.8205" x2="45.3756" y1="145.245" y2="145.245" /><text font-family="monospace" font-size="2" stroke-width="0.1" text-anchor="middle" x="42.098030467" y="137.767319467">R4</text><line stroke-linecap="round" stroke-width="0.5" x1="45.3756" x2="45.3756" y1="56.6623" y2="41.707" /><line stroke-linecap="round" stroke-width="0.5" x1="45.3756" x2="38.8205" y1="41.707" y2="41.707" /><line stroke-linecap="round" stroke-width="0.5" x1="38.8205" x2="38.8205" y1="41.707" y2="56.6623" /><line stroke-linecap="round" stroke-width="0.5" x1="38.8205" x2="45.3756" y1="56.6623" y2="56.6623" /><text font-family="monospace" font-size="2" stroke-width="0.1" text-anchor="middle" x="42.098030467" y="49.184644467">R2</text><line stroke-linecap="round" stroke-width="0.5" x1="27.6591" x2="27.6591" y1="322.4103" y2="307.455" /><line stroke-linecap="round" stroke-width="0.5" x1="27.6591" x2="21.1039" y1="307.455" y2="307.455" /><line stroke-linecap="round" stroke-width="0.5" x1="21.1039" x2="21.1039" y1="307.455" y2="322.4103" /><line stroke-linecap="round" stroke-width="0.5" x1="21.1039" x2="27.6591" y1="322.4103" y2="322.4103" /><text font-family="monospace" font-size="2" stroke-width="0.1" text-anchor="middle" x="24.381495467" y="314.932669467">R7</text><line stroke-linecap="round" stroke-width="0.5" x1="27.6591" x2="27.6591" y1="233.8276" y2="218.8724" /><line stroke-linecap="round" stroke-width="0.5" x1="27.6591" x2="21.1039" y1="218.8724" y2="218.8724" /><line stroke-linecap="round" stroke-width="0.5" x1="21.1039" x2="21.1039" y1="218.8724" y2="233.8276" /><line stroke-linecap="round" stroke-width="0.5" x1="21.1039" x2="27.6591" y1="233.8276" y2="233.8276" /><text font-family="monospace" font-size="2" stroke-width="0.1" text-anchor="middle" x="24.381495467" y="226.349994467">R5</text><line stroke-linecap="round" stroke-width="0.5" x1="27.6591" x2="27.6591" y1="56.6623" y2="41.707" /><line stroke-linecap="round" stroke-width="0.5" x1="27.6591" x2="21.1039" y1="41.707" y2="41.707" /><line stroke-linecap="round" stroke-width="0.5" x1="21.1039" x2="21.1039" y1="41.707" y2="56.6623" /><line stroke-linecap="round" stroke-width="0.5" x1="21.1039" x2="27.6591" y1="56.6623" y2="56.6623" /><text font-family="monospace" font-size="2" stroke-width="0.1" text-anchor="middle" x="24.381495467" y="49.184644467">R1</text></g></svg>