<?xml version="1.0" encoding="UTF-8" standalone="no"?>
<svg
   xmlns:dc="http://purl.org/dc/elements/1.1/"
   xmlns:cc="http://creativecommons.org/ns#"
   xmlns:rdf="http://www.w3.org/1999/02/22-rdf-syntax-ns#"
   xmlns:svg="http://www.w3.org/2000/svg"
   xmlns="http://www.w3.org/2000/svg"
   xmlns:sodipodi="http://sodipodi.sourceforge.net/DTD/sodipodi-0.dtd"
   xmlns:inkscape="http://www.inkscape.org/namespaces/inkscape"
   width="210mm"
   height="297mm"
   viewBox="0 -129 210 297"
   version="1.1"
   id="svg6330"
   sodipodi:docname="eurorack-stereo-to-mono-module-panel-with-labels.svg"
   inkscape:version="0.92.1 r15371">
  <title
     id="title8905">Eurorack stereo to mono module panel (with labels)</title>
  <metadata
     id="metadata6336">
    <rdf:RDF>
      <cc:Work
         rdf:about="">
        <dc:format>image/svg+xml</dc:format>
        <dc:type
           rdf:resource="http://purl.org/dc/dcmitype/StillImage" />
        <dc:title>Eurorack stereo to mono module panel (with labels)</dc:title>
      </cc:Work>
    </rdf:RDF>
  </metadata>
  <defs
     id="defs6334" />
  <sodipodi:namedview
     pagecolor="#ffffff"
     bordercolor="#666666"
     borderopacity="1"
     objecttolerance="10"
     gridtolerance="10"
     guidetolerance="10"
     inkscape:pageopacity="0"
     inkscape:pageshadow="2"
     inkscape:window-width="1920"
     inkscape:window-height="1027"
     id="namedview6332"
     showgrid="false"
     inkscape:zoom="0.96808785"
     inkscape:cx="-185.89399"
     inkscape:cy="282.79957"
     inkscape:window-x="1912"
     inkscape:window-y="-8"
     inkscape:window-maximized="1"
     inkscape:current-layer="svg6330"
     inkscape:document-units="mm" />
  <g
     aria-label="Mono"
     transform="rotate(-44.999999,202.79394,83.999999)"
     style="font-style:normal;font-weight:normal;font-size:2.82481265px;line-height:1.25;font-family:sans-serif;letter-spacing:0px;word-spacing:0px;fill:#000000;fill-opacity:1;stroke:none;stroke-width:0.07062031"
     id="text6883">
    <path
       d="m 82.787395,-65.949417 h 0.41517 l 0.525514,1.401372 0.528273,-1.401372 h 0.415171 v 2.059299 H 84.3998 v -1.808266 l -0.531032,1.412406 H 83.58877 l -0.531032,-1.412406 v 1.808266 h -0.270343 z"
       style="fill:#000000;fill-opacity:1;stroke-width:0.07062031"
       id="path7101"
       inkscape:connector-curvature="0" />
    <path
       d="m 85.813585,-65.257007 q -0.204136,0 -0.322756,0.159999 -0.118621,0.15862 -0.118621,0.43586 0,0.27724 0.117241,0.437239 0.11862,0.15862 0.324136,0.15862 0.202758,0 0.321378,-0.159999 0.11862,-0.159999 0.11862,-0.43586 0,-0.274481 -0.11862,-0.434481 -0.11862,-0.161378 -0.321378,-0.161378 z m 0,-0.215171 q 0.331033,0 0.519998,0.215171 0.188964,0.215171 0.188964,0.595859 0,0.379308 -0.188964,0.595859 -0.188965,0.215171 -0.519998,0.215171 -0.332412,0 -0.521376,-0.215171 -0.187585,-0.216551 -0.187585,-0.595859 0,-0.380688 0.187585,-0.595859 0.188964,-0.215171 0.521376,-0.215171 z"
       style="fill:#000000;fill-opacity:1;stroke-width:0.07062031"
       id="path7103"
       inkscape:connector-curvature="0" />
    <path
       d="m 88.225986,-64.822527 v 0.932409 h -0.253791 v -0.924133 q 0,-0.219309 -0.08552,-0.328274 -0.08552,-0.108965 -0.256551,-0.108965 -0.205516,0 -0.324136,0.131034 -0.11862,0.131034 -0.11862,0.35724 v 0.873098 H 86.9322 v -1.544819 h 0.255171 v 0.239999 q 0.09103,-0.13931 0.213792,-0.208275 0.124137,-0.06897 0.285516,-0.06897 0.266205,0 0.402756,0.165516 0.136551,0.164137 0.136551,0.484135 z"
       style="fill:#000000;fill-opacity:1;stroke-width:0.07062031"
       id="path7105"
       inkscape:connector-curvature="0" />
    <path
       d="m 89.333567,-65.257007 q -0.204137,0 -0.322757,0.159999 -0.11862,0.15862 -0.11862,0.43586 0,0.27724 0.117241,0.437239 0.11862,0.15862 0.324136,0.15862 0.202757,0 0.321377,-0.159999 0.11862,-0.159999 0.11862,-0.43586 0,-0.274481 -0.11862,-0.434481 -0.11862,-0.161378 -0.321377,-0.161378 z m 0,-0.215171 q 0.331033,0 0.519997,0.215171 0.188965,0.215171 0.188965,0.595859 0,0.379308 -0.188965,0.595859 -0.188964,0.215171 -0.519997,0.215171 -0.332412,0 -0.521377,-0.215171 -0.187585,-0.216551 -0.187585,-0.595859 0,-0.380688 0.187585,-0.595859 0.188965,-0.215171 0.521377,-0.215171 z"
       style="fill:#000000;fill-opacity:1;stroke-width:0.07062031"
       id="path7107"
       inkscape:connector-curvature="0" />
  </g>
  <g
     aria-label="Stereo"
     transform="rotate(-45,202.79394,83.999999)"
     style="font-style:normal;font-weight:normal;font-size:2.40103769px;line-height:1.25;font-family:sans-serif;letter-spacing:0px;word-spacing:0px;fill:#000000;fill-opacity:1;stroke:none;stroke-width:0.06002594"
     id="text6887">
    <path
       d="m 76.495967,-58.442217 v 0.230959 q -0.134824,-0.06448 -0.254407,-0.09613 -0.119583,-0.03166 -0.230959,-0.03166 -0.193443,0 -0.298957,0.07503 -0.104342,0.07503 -0.104342,0.213373 0,0.116066 0.06917,0.175857 0.07034,0.05862 0.264958,0.09496 l 0.143031,0.02931 q 0.264958,0.05041 0.390403,0.178202 0.126617,0.126617 0.126617,0.339991 0,0.254406 -0.171167,0.385713 -0.169996,0.131307 -0.499435,0.131307 -0.124272,0 -0.264958,-0.02814 -0.139514,-0.02814 -0.289579,-0.08324 v -0.243856 q 0.144203,0.0809 0.282544,0.121928 0.138342,0.04103 0.271993,0.04103 0.202822,0 0.313026,-0.07972 0.110204,-0.07972 0.110204,-0.227442 0,-0.128962 -0.07972,-0.201649 -0.07855,-0.07269 -0.259096,-0.109032 l -0.144203,-0.02814 q -0.264959,-0.05276 -0.383369,-0.165306 -0.118411,-0.112548 -0.118411,-0.313026 0,-0.232131 0.162961,-0.365783 0.164134,-0.133651 0.451367,-0.133651 0.1231,0 0.25089,0.02228 0.127789,0.02228 0.261441,0.06683 z"
       style="fill:#000000;fill-opacity:1;stroke-width:0.06002594"
       id="path7088"
       inkscape:connector-curvature="0" />
    <path
       d="m 77.174776,-58.435183 v 0.372817 h 0.444333 v 0.167651 h -0.444333 v 0.712808 q 0,0.160616 0.04338,0.206339 0.04455,0.04572 0.179375,0.04572 h 0.22158 v 0.180547 h -0.22158 q -0.249718,0 -0.344681,-0.09262 -0.09496,-0.09379 -0.09496,-0.339991 v -0.712808 h -0.158271 v -0.167651 h 0.158271 v -0.372817 z"
       style="fill:#000000;fill-opacity:1;stroke-width:0.06002594"
       id="path7090"
       inkscape:connector-curvature="0" />
    <path
       d="m 79.027139,-57.459761 v 0.105514 h -0.991835 q 0.01407,0.222752 0.133652,0.339991 0.120755,0.116065 0.335301,0.116065 0.124272,0 0.240338,-0.03048 0.117238,-0.03048 0.232132,-0.09145 v 0.203994 q -0.116066,0.04924 -0.237994,0.07503 -0.121928,0.02579 -0.247372,0.02579 -0.314199,0 -0.498263,-0.182892 -0.182891,-0.182891 -0.182891,-0.494745 0,-0.322405 0.173512,-0.511158 0.174685,-0.189926 0.470125,-0.189926 0.264959,0 0.418541,0.171168 0.154754,0.169995 0.154754,0.463091 z m -0.215718,-0.06331 q -0.0023,-0.17703 -0.09965,-0.282544 -0.09614,-0.105514 -0.255579,-0.105514 -0.180547,0 -0.289578,0.101997 -0.107859,0.101997 -0.124273,0.287233 z"
       style="fill:#000000;fill-opacity:1;stroke-width:0.06002594"
       id="path7092"
       inkscape:connector-curvature="0" />
    <path
       d="m 80.142074,-57.860716 q -0.03634,-0.0211 -0.07972,-0.03048 -0.04221,-0.01055 -0.09379,-0.01055 -0.182892,0 -0.281372,0.119583 -0.09731,0.11841 -0.09731,0.341163 v 0.691705 h -0.21689 v -1.313068 h 0.21689 v 0.203995 q 0.068,-0.119583 0.17703,-0.17703 0.109031,-0.05862 0.264958,-0.05862 0.02228,0 0.04924,0.0035 0.02697,0.0023 0.05979,0.0082 z"
       style="fill:#000000;fill-opacity:1;stroke-width:0.06002594"
       id="path7094"
       inkscape:connector-curvature="0" />
    <path
       d="m 81.442245,-57.459761 v 0.105514 H 80.45041 q 0.01407,0.222752 0.133652,0.339991 0.120755,0.116065 0.335301,0.116065 0.124273,0 0.240338,-0.03048 0.117238,-0.03048 0.232132,-0.09145 v 0.203994 q -0.116066,0.04924 -0.237994,0.07503 -0.121927,0.02579 -0.247372,0.02579 -0.314198,0 -0.498262,-0.182892 -0.182892,-0.182891 -0.182892,-0.494745 0,-0.322405 0.173513,-0.511158 0.174684,-0.189926 0.470125,-0.189926 0.264958,0 0.41854,0.171168 0.154754,0.169995 0.154754,0.463091 z m -0.215718,-0.06331 q -0.0023,-0.17703 -0.09965,-0.282544 -0.09614,-0.105514 -0.25558,-0.105514 -0.180546,0 -0.289578,0.101997 -0.107859,0.101997 -0.124272,0.287233 z"
       style="fill:#000000;fill-opacity:1;stroke-width:0.06002594"
       id="path7096"
       inkscape:connector-curvature="0" />
    <path
       d="m 82.305118,-57.911128 q -0.173512,0 -0.274337,0.135996 -0.100825,0.134824 -0.100825,0.370473 0,0.235648 0.09965,0.371645 0.100824,0.134823 0.275509,0.134823 0.17234,0 0.273165,-0.135996 0.100825,-0.135996 0.100825,-0.370472 0,-0.233304 -0.100825,-0.369301 -0.100825,-0.137168 -0.273165,-0.137168 z m 0,-0.182892 q 0.281372,0 0.441988,0.182892 0.160616,0.182891 0.160616,0.506469 0,0.322405 -0.160616,0.506468 -0.160616,0.182892 -0.441988,0.182892 -0.282544,0 -0.44316,-0.182892 -0.159444,-0.184063 -0.159444,-0.506468 0,-0.323578 0.159444,-0.506469 0.160616,-0.182892 0.44316,-0.182892 z"
       style="fill:#000000;fill-opacity:1;stroke-width:0.06002594"
       id="path7098"
       inkscape:connector-curvature="0" />
  </g>
  <g
     aria-label="Mono"
     transform="rotate(-44.999999,202.79394,83.999999)"
     style="font-style:normal;font-weight:normal;font-size:2.82481265px;line-height:1.25;font-family:sans-serif;letter-spacing:0px;word-spacing:0px;fill:#000000;fill-opacity:1;stroke:none;stroke-width:0.07062031"
     id="text6883-6">
    <path
       d="m 65.013972,-48.175995 h 0.415171 l 0.525514,1.401372 0.528273,-1.401372 h 0.41517 v 2.0593 h -0.271722 v -1.808267 l -0.531032,1.412407 h -0.279999 l -0.531031,-1.412407 v 1.808267 h -0.270344 z"
       style="fill:#000000;fill-opacity:1;stroke-width:0.07062031"
       id="path7079"
       inkscape:connector-curvature="0" />
    <path
       d="m 68.040163,-47.483585 q -0.204137,0 -0.322757,0.159999 -0.11862,0.15862 -0.11862,0.43586 0,0.27724 0.117241,0.437239 0.11862,0.15862 0.324136,0.15862 0.202758,0 0.321378,-0.159999 0.11862,-0.159999 0.11862,-0.43586 0,-0.274481 -0.11862,-0.43448 -0.11862,-0.161379 -0.321378,-0.161379 z m 0,-0.215171 q 0.331033,0 0.519997,0.215171 0.188965,0.215172 0.188965,0.595859 0,0.379309 -0.188965,0.595859 -0.188964,0.215171 -0.519997,0.215171 -0.332412,0 -0.521376,-0.215171 -0.187586,-0.21655 -0.187586,-0.595859 0,-0.380687 0.187586,-0.595859 0.188964,-0.215171 0.521376,-0.215171 z"
       style="fill:#000000;fill-opacity:1;stroke-width:0.07062031"
       id="path7081"
       inkscape:connector-curvature="0" />
    <path
       d="m 70.452564,-47.049104 v 0.932409 h -0.253792 v -0.924133 q 0,-0.21931 -0.08552,-0.328275 -0.08552,-0.108965 -0.25655,-0.108965 -0.205516,0 -0.324136,0.131034 -0.11862,0.131034 -0.11862,0.35724 v 0.873099 h -0.255171 v -1.54482 h 0.255171 v 0.239999 q 0.09103,-0.13931 0.213792,-0.208275 0.124137,-0.06897 0.285516,-0.06897 0.266205,0 0.402756,0.165516 0.136551,0.164137 0.136551,0.484136 z"
       style="fill:#000000;fill-opacity:1;stroke-width:0.07062031"
       id="path7083"
       inkscape:connector-curvature="0" />
    <path
       d="m 71.560145,-47.483585 q -0.204137,0 -0.322757,0.159999 -0.11862,0.15862 -0.11862,0.43586 0,0.27724 0.11724,0.437239 0.11862,0.15862 0.324137,0.15862 0.202757,0 0.321377,-0.159999 0.11862,-0.159999 0.11862,-0.43586 0,-0.274481 -0.11862,-0.43448 -0.11862,-0.161379 -0.321377,-0.161379 z m 0,-0.215171 q 0.331032,0 0.519997,0.215171 0.188964,0.215172 0.188964,0.595859 0,0.379309 -0.188964,0.595859 -0.188965,0.215171 -0.519997,0.215171 -0.332412,0 -0.521377,-0.215171 -0.187585,-0.21655 -0.187585,-0.595859 0,-0.380687 0.187585,-0.595859 0.188965,-0.215171 0.521377,-0.215171 z"
       style="fill:#000000;fill-opacity:1;stroke-width:0.07062031"
       id="path7085"
       inkscape:connector-curvature="0" />
  </g>
  <g
     aria-label="Stereo"
     transform="rotate(-45,202.79394,83.999999)"
     style="font-style:normal;font-weight:normal;font-size:2.40103769px;line-height:1.25;font-family:sans-serif;letter-spacing:0px;word-spacing:0px;fill:#000000;fill-opacity:1;stroke:none;stroke-width:0.06002594"
     id="text6887-0">
    <path
       d="m 59.096725,-41.04296 v 0.23096 q -0.134824,-0.06448 -0.254407,-0.09614 -0.119583,-0.03165 -0.230959,-0.03165 -0.193443,0 -0.298958,0.07503 -0.104342,0.07503 -0.104342,0.213374 0,0.116066 0.06917,0.175857 0.07034,0.05862 0.264958,0.09496 l 0.143031,0.02931 q 0.264958,0.05041 0.390403,0.178202 0.126617,0.126617 0.126617,0.33999 0,0.254407 -0.171168,0.385714 -0.169995,0.131307 -0.499434,0.131307 -0.124273,0 -0.264959,-0.02814 -0.139513,-0.02814 -0.289578,-0.08324 v -0.243855 q 0.144203,0.08089 0.282544,0.121928 0.138341,0.04103 0.271993,0.04103 0.202822,0 0.313026,-0.07972 0.110203,-0.07972 0.110203,-0.227442 0,-0.128962 -0.07972,-0.20165 -0.07855,-0.07269 -0.259096,-0.109031 l -0.144203,-0.02814 q -0.264958,-0.05276 -0.383369,-0.165306 -0.11841,-0.112549 -0.11841,-0.313026 0,-0.232132 0.162961,-0.365783 0.164133,-0.133652 0.451367,-0.133652 0.1231,0 0.250889,0.02228 0.12779,0.02228 0.261442,0.06683 z"
       style="fill:#000000;fill-opacity:1;stroke-width:0.06002594"
       id="path7066"
       inkscape:connector-curvature="0" />
    <path
       d="m 59.775534,-41.035925 v 0.372817 h 0.444332 v 0.167651 h -0.444332 v 0.712808 q 0,0.160616 0.04338,0.206339 0.04455,0.04572 0.179374,0.04572 h 0.22158 v 0.180547 h -0.22158 q -0.249717,0 -0.34468,-0.09262 -0.09496,-0.09379 -0.09496,-0.33999 v -0.712808 h -0.158271 v -0.167651 h 0.158271 v -0.372817 z"
       style="fill:#000000;fill-opacity:1;stroke-width:0.06002594"
       id="path7068"
       inkscape:connector-curvature="0" />
    <path
       d="m 61.627897,-40.060504 v 0.105515 h -0.991835 q 0.01407,0.222752 0.133651,0.33999 0.120756,0.116066 0.335301,0.116066 0.124273,0 0.240339,-0.03048 0.117238,-0.03048 0.232131,-0.09145 v 0.203995 q -0.116066,0.04924 -0.237993,0.07503 -0.121928,0.02579 -0.247373,0.02579 -0.314198,0 -0.498262,-0.182892 -0.182892,-0.182891 -0.182892,-0.494745 0,-0.322405 0.173513,-0.511158 0.174685,-0.189926 0.470125,-0.189926 0.264958,0 0.41854,0.171167 0.154755,0.169996 0.154755,0.463091 z m -0.215719,-0.06331 q -0.0023,-0.17703 -0.09965,-0.282544 -0.09613,-0.105515 -0.255579,-0.105515 -0.180547,0 -0.289579,0.101998 -0.107859,0.101997 -0.124272,0.287233 z"
       style="fill:#000000;fill-opacity:1;stroke-width:0.06002594"
       id="path7070"
       inkscape:connector-curvature="0" />
    <path
       d="m 62.742832,-40.461458 q -0.03634,-0.0211 -0.07972,-0.03048 -0.04221,-0.01055 -0.09379,-0.01055 -0.182891,0 -0.281371,0.119583 -0.09731,0.118411 -0.09731,0.341163 v 0.691706 H 61.97375 v -1.313068 h 0.216891 v 0.203994 q 0.068,-0.119582 0.17703,-0.177029 0.109031,-0.05862 0.264958,-0.05862 0.02228,0 0.04924,0.0035 0.02696,0.0023 0.05979,0.0082 z"
       style="fill:#000000;fill-opacity:1;stroke-width:0.06002594"
       id="path7072"
       inkscape:connector-curvature="0" />
    <path
       d="m 64.043003,-40.060504 v 0.105515 h -0.991835 q 0.01407,0.222752 0.133652,0.33999 0.120755,0.116066 0.335301,0.116066 0.124272,0 0.240338,-0.03048 0.117238,-0.03048 0.232132,-0.09145 v 0.203995 q -0.116066,0.04924 -0.237994,0.07503 -0.121928,0.02579 -0.247373,0.02579 -0.314198,0 -0.498262,-0.182892 -0.182891,-0.182891 -0.182891,-0.494745 0,-0.322405 0.173512,-0.511158 0.174685,-0.189926 0.470125,-0.189926 0.264959,0 0.418541,0.171167 0.154754,0.169996 0.154754,0.463091 z m -0.215718,-0.06331 q -0.0023,-0.17703 -0.09965,-0.282544 -0.09613,-0.105515 -0.255579,-0.105515 -0.180547,0 -0.289578,0.101998 -0.107859,0.101997 -0.124273,0.287233 z"
       style="fill:#000000;fill-opacity:1;stroke-width:0.06002594"
       id="path7074"
       inkscape:connector-curvature="0" />
    <path
       d="m 64.905876,-40.511871 q -0.173513,0 -0.274337,0.135997 -0.100825,0.134823 -0.100825,0.370472 0,0.235649 0.09965,0.371645 0.100825,0.134824 0.27551,0.134824 0.17234,0 0.273165,-0.135996 0.100825,-0.135996 0.100825,-0.370473 0,-0.233304 -0.100825,-0.3693 -0.100825,-0.137169 -0.273165,-0.137169 z m 0,-0.182891 q 0.281372,0 0.441988,0.182891 0.160616,0.182892 0.160616,0.506469 0,0.322405 -0.160616,0.506469 -0.160616,0.182892 -0.441988,0.182892 -0.282544,0 -0.44316,-0.182892 -0.159444,-0.184064 -0.159444,-0.506469 0,-0.323577 0.159444,-0.506469 0.160616,-0.182891 0.44316,-0.182891 z"
       style="fill:#000000;fill-opacity:1;stroke-width:0.06002594"
       id="path7076"
       inkscape:connector-curvature="0" />
  </g>
  <g
     aria-label="Mono"
     transform="rotate(-44.999999,202.79394,83.999999)"
     style="font-style:normal;font-weight:normal;font-size:2.82481265px;line-height:1.25;font-family:sans-serif;letter-spacing:0px;word-spacing:0px;fill:#000000;fill-opacity:1;stroke:none;stroke-width:0.07062031"
     id="text6883-0">
    <path
       d="m 47.427642,-30.589659 h 0.41517 l 0.525515,1.401372 0.528273,-1.401372 h 0.41517 v 2.0593 h -0.271723 v -1.808267 l -0.531031,1.412407 h -0.279999 l -0.531032,-1.412407 v 1.808267 h -0.270343 z"
       style="fill:#000000;fill-opacity:1;stroke-width:0.07062031"
       id="path7057"
       inkscape:connector-curvature="0" />
    <path
       d="m 50.453833,-29.897249 q -0.204137,0 -0.322757,0.16 -0.11862,0.158619 -0.11862,0.435859 0,0.27724 0.117241,0.437239 0.11862,0.15862 0.324136,0.15862 0.202757,0 0.321377,-0.159999 0.11862,-0.159999 0.11862,-0.43586 0,-0.274481 -0.11862,-0.43448 -0.11862,-0.161379 -0.321377,-0.161379 z m 0,-0.215171 q 0.331033,0 0.519997,0.215171 0.188965,0.215172 0.188965,0.595859 0,0.379309 -0.188965,0.595859 -0.188964,0.215172 -0.519997,0.215172 -0.332412,0 -0.521377,-0.215172 -0.187585,-0.21655 -0.187585,-0.595859 0,-0.380687 0.187585,-0.595859 0.188965,-0.215171 0.521377,-0.215171 z"
       style="fill:#000000;fill-opacity:1;stroke-width:0.07062031"
       id="path7059"
       inkscape:connector-curvature="0" />
    <path
       d="m 52.866234,-29.462768 v 0.932409 h -0.253792 v -0.924133 q 0,-0.219309 -0.08552,-0.328274 -0.08552,-0.108965 -0.25655,-0.108965 -0.205516,0 -0.324137,0.131033 -0.11862,0.131034 -0.11862,0.35724 v 0.873099 h -0.255171 v -1.54482 h 0.255171 v 0.239999 q 0.09103,-0.13931 0.213792,-0.208275 0.124138,-0.06896 0.285516,-0.06896 0.266206,0 0.402757,0.165516 0.136551,0.164138 0.136551,0.484136 z"
       style="fill:#000000;fill-opacity:1;stroke-width:0.07062031"
       id="path7061"
       inkscape:connector-curvature="0" />
    <path
       d="m 53.973814,-29.897249 q -0.204137,0 -0.322757,0.16 -0.11862,0.158619 -0.11862,0.435859 0,0.27724 0.117241,0.437239 0.11862,0.15862 0.324136,0.15862 0.202758,0 0.321378,-0.159999 0.11862,-0.159999 0.11862,-0.43586 0,-0.274481 -0.11862,-0.43448 -0.11862,-0.161379 -0.321378,-0.161379 z m 0,-0.215171 q 0.331033,0 0.519997,0.215171 0.188965,0.215172 0.188965,0.595859 0,0.379309 -0.188965,0.595859 -0.188964,0.215172 -0.519997,0.215172 -0.332412,0 -0.521376,-0.215172 -0.187586,-0.21655 -0.187586,-0.595859 0,-0.380687 0.187586,-0.595859 0.188964,-0.215171 0.521376,-0.215171 z"
       style="fill:#000000;fill-opacity:1;stroke-width:0.07062031"
       id="path7063"
       inkscape:connector-curvature="0" />
  </g>
  <g
     aria-label="Stereo"
     transform="rotate(-45,202.79394,83.999999)"
     style="font-style:normal;font-weight:normal;font-size:2.40103769px;line-height:1.25;font-family:sans-serif;letter-spacing:0px;word-spacing:0px;fill:#000000;fill-opacity:1;stroke:none;stroke-width:0.06002594"
     id="text6887-1">
    <path
       d="m 41.323306,-23.269535 v 0.230959 q -0.134824,-0.06448 -0.254407,-0.09614 -0.119583,-0.03165 -0.230959,-0.03165 -0.193443,0 -0.298957,0.07503 -0.104342,0.07503 -0.104342,0.213373 0,0.116066 0.06917,0.175857 0.07034,0.05862 0.264959,0.09496 l 0.14303,0.02931 q 0.264958,0.05041 0.390403,0.178202 0.126618,0.126617 0.126618,0.33999 0,0.254407 -0.171168,0.385714 -0.169996,0.131307 -0.499435,0.131307 -0.124272,0 -0.264958,-0.02814 -0.139513,-0.02814 -0.289578,-0.08324 v -0.243856 q 0.144203,0.08089 0.282544,0.121928 0.138341,0.04103 0.271992,0.04103 0.202822,0 0.313026,-0.07972 0.110204,-0.07972 0.110204,-0.227442 0,-0.128962 -0.07972,-0.201649 -0.07855,-0.07269 -0.259096,-0.109032 l -0.144203,-0.02814 q -0.264959,-0.05276 -0.383369,-0.165306 -0.118411,-0.112549 -0.118411,-0.313026 0,-0.232131 0.162961,-0.365783 0.164134,-0.133651 0.451367,-0.133651 0.1231,0 0.25089,0.02228 0.12779,0.02228 0.261441,0.06683 z"
       style="fill:#000000;fill-opacity:1;stroke-width:0.06002594"
       id="path7044"
       inkscape:connector-curvature="0" />
    <path
       d="m 42.002115,-23.262501 v 0.372817 h 0.444333 v 0.167651 h -0.444333 v 0.712808 q 0,0.160616 0.04338,0.206339 0.04455,0.04572 0.179375,0.04572 h 0.22158 v 0.180547 h -0.22158 q -0.249718,0 -0.34468,-0.09262 -0.09496,-0.09379 -0.09496,-0.339991 v -0.712808 h -0.158272 v -0.167651 h 0.158272 v -0.372817 z"
       style="fill:#000000;fill-opacity:1;stroke-width:0.06002594"
       id="path7046"
       inkscape:connector-curvature="0" />
    <path
       d="m 43.854478,-22.28708 v 0.105515 h -0.991835 q 0.01407,0.222752 0.133652,0.33999 0.120755,0.116066 0.335301,0.116066 0.124272,0 0.240338,-0.03048 0.117238,-0.03048 0.232132,-0.09144 v 0.203994 q -0.116066,0.04924 -0.237994,0.07503 -0.121927,0.02579 -0.247372,0.02579 -0.314199,0 -0.498262,-0.182892 -0.182892,-0.182891 -0.182892,-0.494745 0,-0.322405 0.173512,-0.511158 0.174685,-0.189926 0.470126,-0.189926 0.264958,0 0.41854,0.171168 0.154754,0.169995 0.154754,0.46309 z m -0.215718,-0.06331 q -0.0023,-0.17703 -0.09965,-0.282544 -0.09614,-0.105515 -0.25558,-0.105515 -0.180546,0 -0.289578,0.101998 -0.107859,0.101997 -0.124272,0.287233 z"
       style="fill:#000000;fill-opacity:1;stroke-width:0.06002594"
       id="path7048"
       inkscape:connector-curvature="0" />
    <path
       d="m 44.969413,-22.688034 q -0.03634,-0.0211 -0.07972,-0.03048 -0.0422,-0.01055 -0.09379,-0.01055 -0.182892,0 -0.281372,0.119582 -0.09731,0.118411 -0.09731,0.341164 v 0.691705 h -0.21689 v -1.313068 h 0.21689 v 0.203995 q 0.068,-0.119583 0.17703,-0.17703 0.109032,-0.05862 0.264958,-0.05862 0.02228,0 0.04924,0.0035 0.02697,0.0023 0.05979,0.0082 z"
       style="fill:#000000;fill-opacity:1;stroke-width:0.06002594"
       id="path7050"
       inkscape:connector-curvature="0" />
    <path
       d="m 46.269584,-22.28708 v 0.105515 H 45.27775 q 0.01407,0.222752 0.133651,0.33999 0.120755,0.116066 0.335301,0.116066 0.124273,0 0.240339,-0.03048 0.117238,-0.03048 0.232131,-0.09144 v 0.203994 q -0.116066,0.04924 -0.237993,0.07503 -0.121928,0.02579 -0.247373,0.02579 -0.314198,0 -0.498262,-0.182892 -0.182892,-0.182891 -0.182892,-0.494745 0,-0.322405 0.173513,-0.511158 0.174685,-0.189926 0.470125,-0.189926 0.264958,0 0.41854,0.171168 0.154754,0.169995 0.154754,0.46309 z m -0.215718,-0.06331 q -0.0023,-0.17703 -0.09965,-0.282544 -0.09614,-0.105515 -0.255579,-0.105515 -0.180547,0 -0.289579,0.101998 -0.107859,0.101997 -0.124272,0.287233 z"
       style="fill:#000000;fill-opacity:1;stroke-width:0.06002594"
       id="path7052"
       inkscape:connector-curvature="0" />
    <path
       d="m 47.132457,-22.738447 q -0.173512,0 -0.274337,0.135997 -0.100825,0.134824 -0.100825,0.370472 0,0.235649 0.09965,0.371645 0.100825,0.134824 0.275509,0.134824 0.172341,0 0.273165,-0.135996 0.100825,-0.135996 0.100825,-0.370473 0,-0.233304 -0.100825,-0.3693 -0.100824,-0.137169 -0.273165,-0.137169 z m 0,-0.182891 q 0.281372,0 0.441988,0.182891 0.160617,0.182892 0.160617,0.506469 0,0.322405 -0.160617,0.506469 -0.160616,0.182892 -0.441988,0.182892 -0.282544,0 -0.44316,-0.182892 -0.159444,-0.184064 -0.159444,-0.506469 0,-0.323577 0.159444,-0.506469 0.160616,-0.182891 0.44316,-0.182891 z"
       style="fill:#000000;fill-opacity:1;stroke-width:0.06002594"
       id="path7054"
       inkscape:connector-curvature="0" />
  </g>
  <g
     aria-label="Mono"
     transform="rotate(-44.999999,202.79394,83.999999)"
     style="font-style:normal;font-weight:normal;font-size:2.82481265px;line-height:1.25;font-family:sans-serif;letter-spacing:0px;word-spacing:0px;fill:#000000;fill-opacity:1;stroke:none;stroke-width:0.07062031"
     id="text6883-65">
    <path
       d="m 29.654214,-12.816239 h 0.41517 l 0.525515,1.401372 0.528273,-1.401372 h 0.41517 v 2.059299 h -0.271723 v -1.808266 l -0.531031,1.412406 h -0.279999 l -0.531032,-1.412406 v 1.808266 h -0.270343 z"
       style="fill:#000000;fill-opacity:1;stroke-width:0.07062031"
       id="path7035"
       inkscape:connector-curvature="0" />
    <path
       d="m 32.680405,-12.123829 q -0.204137,0 -0.322757,0.159999 -0.11862,0.15862 -0.11862,0.43586 0,0.27724 0.117241,0.437239 0.11862,0.15862 0.324136,0.15862 0.202757,0 0.321377,-0.16 0.11862,-0.159999 0.11862,-0.435859 0,-0.274482 -0.11862,-0.434481 -0.11862,-0.161378 -0.321377,-0.161378 z m 0,-0.215171 q 0.331033,0 0.519997,0.215171 0.188965,0.215171 0.188965,0.595859 0,0.379308 -0.188965,0.595859 -0.188964,0.215171 -0.519997,0.215171 -0.332412,0 -0.521377,-0.215171 -0.187585,-0.216551 -0.187585,-0.595859 0,-0.380688 0.187585,-0.595859 0.188965,-0.215171 0.521377,-0.215171 z"
       style="fill:#000000;fill-opacity:1;stroke-width:0.07062031"
       id="path7037"
       inkscape:connector-curvature="0" />
    <path
       d="m 35.092806,-11.689349 v 0.932409 h -0.253792 v -0.924133 q 0,-0.219309 -0.08552,-0.328274 -0.08552,-0.108965 -0.25655,-0.108965 -0.205516,0 -0.324136,0.131034 -0.118621,0.131034 -0.118621,0.357239 v 0.873099 h -0.255171 v -1.544819 h 0.255171 v 0.239998 q 0.09103,-0.139309 0.213792,-0.208274 0.124138,-0.06897 0.285516,-0.06897 0.266206,0 0.402757,0.165516 0.136551,0.164137 0.136551,0.484135 z"
       style="fill:#000000;fill-opacity:1;stroke-width:0.07062031"
       id="path7039"
       inkscape:connector-curvature="0" />
    <path
       d="m 36.200386,-12.123829 q -0.204137,0 -0.322757,0.159999 -0.11862,0.15862 -0.11862,0.43586 0,0.27724 0.117241,0.437239 0.11862,0.15862 0.324136,0.15862 0.202758,0 0.321378,-0.16 0.11862,-0.159999 0.11862,-0.435859 0,-0.274482 -0.11862,-0.434481 -0.11862,-0.161378 -0.321378,-0.161378 z m 0,-0.215171 q 0.331033,0 0.519997,0.215171 0.188965,0.215171 0.188965,0.595859 0,0.379308 -0.188965,0.595859 -0.188964,0.215171 -0.519997,0.215171 -0.332412,0 -0.521376,-0.215171 -0.187586,-0.216551 -0.187586,-0.595859 0,-0.380688 0.187586,-0.595859 0.188964,-0.215171 0.521376,-0.215171 z"
       style="fill:#000000;fill-opacity:1;stroke-width:0.07062031"
       id="path7041"
       inkscape:connector-curvature="0" />
  </g>
  <g
     aria-label="Stereo"
     transform="rotate(-45,202.79394,83.999999)"
     style="font-style:normal;font-weight:normal;font-size:2.40103769px;line-height:1.25;font-family:sans-serif;letter-spacing:0px;word-spacing:0px;fill:#000000;fill-opacity:1;stroke:none;stroke-width:0.06002594"
     id="text6887-7">
    <path
       d="m 23.736968,-5.6832036 v 0.2309592 q -0.134824,-0.064481 -0.254407,-0.096135 -0.119583,-0.031654 -0.230959,-0.031654 -0.193443,0 -0.298957,0.075032 -0.104342,0.075032 -0.104342,0.2133735 0,0.1160658 0.06917,0.1758572 0.07034,0.058619 0.264959,0.094963 l 0.14303,0.02931 q 0.264958,0.050412 0.390403,0.178202 0.126617,0.1266172 0.126617,0.3399907 0,0.2544068 -0.171167,0.3857136 -0.169996,0.1313067 -0.499435,0.1313067 -0.124272,0 -0.264958,-0.028137 -0.139514,-0.028137 -0.289578,-0.083239 V -4.311517 q 0.144203,0.080894 0.282544,0.1219277 0.138341,0.041033 0.271992,0.041033 0.202822,0 0.313026,-0.079722 0.110204,-0.079722 0.110204,-0.2274421 0,-0.128962 -0.07972,-0.2016496 -0.07855,-0.072688 -0.259096,-0.1090315 l -0.144203,-0.028137 Q 22.84713,-4.8472955 22.72872,-4.9598441 22.610309,-5.0723927 22.610309,-5.27287 q 0,-0.2321316 0.162961,-0.3657831 0.164134,-0.1336515 0.451367,-0.1336515 0.1231,0 0.25089,0.022275 0.12779,0.022275 0.261441,0.066826 z"
       style="fill:#000000;fill-opacity:1;stroke-width:0.06002594"
       id="path7022"
       inkscape:connector-curvature="0" />
    <path
       d="m 24.415777,-5.6761693 v 0.3728174 h 0.444333 v 0.1676505 h -0.444333 v 0.7128081 q 0,0.1606163 0.04338,0.2063392 0.04455,0.045723 0.179375,0.045723 h 0.22158 v 0.1805468 h -0.22158 q -0.249718,0 -0.344681,-0.092618 -0.09496,-0.09379 -0.09496,-0.3399907 v -0.7128081 h -0.158272 v -0.1676505 h 0.158272 V -5.676169 Z"
       style="fill:#000000;fill-opacity:1;stroke-width:0.06002594"
       id="path7024"
       inkscape:connector-curvature="0" />
    <path
       d="m 26.26814,-4.7007477 v 0.1055143 h -0.991835 q 0.01407,0.2227525 0.133652,0.3399907 0.120755,0.1160658 0.335301,0.1160658 0.124272,0 0.240338,-0.030482 0.117238,-0.030482 0.232132,-0.091446 v 0.2039944 q -0.116066,0.04924 -0.237994,0.075032 -0.121927,0.025792 -0.247372,0.025792 -0.314199,0 -0.498262,-0.1828915 -0.182892,-0.1828916 -0.182892,-0.4947451 0,-0.322405 0.173512,-0.5111584 0.174685,-0.1899258 0.470126,-0.1899258 0.264958,0 0.41854,0.1711677 0.154754,0.1699953 0.154754,0.4630908 z m -0.215718,-0.063309 q -0.0023,-0.1770296 -0.09965,-0.2825439 -0.09614,-0.1055144 -0.255579,-0.1055144 -0.180547,0 -0.289578,0.1019972 -0.107859,0.1019972 -0.124272,0.2872335 z"
       style="fill:#000000;fill-opacity:1;stroke-width:0.06002594"
       id="path7026"
       inkscape:connector-curvature="0" />
    <path
       d="m 27.383075,-5.1017023 q -0.03634,-0.021103 -0.07972,-0.030482 -0.04221,-0.010551 -0.09379,-0.010551 -0.182892,0 -0.281372,0.1195829 -0.09731,0.1184105 -0.09731,0.3411631 v 0.6917052 h -0.21689 v -1.3130675 h 0.21689 v 0.2039944 q 0.068,-0.1195829 0.17703,-0.1770297 0.109032,-0.058619 0.264958,-0.058619 0.02228,0 0.04924,0.00352 0.02697,0.00234 0.05979,0.00821 z"
       style="fill:#000000;fill-opacity:1;stroke-width:0.06002594"
       id="path7028"
       inkscape:connector-curvature="0" />
    <path
       d="m 28.683246,-4.7007477 v 0.1055143 h -0.991834 q 0.01407,0.2227525 0.133651,0.3399907 0.120755,0.1160658 0.335301,0.1160658 0.124273,0 0.240338,-0.030482 0.117239,-0.030482 0.232132,-0.091446 v 0.2039944 q -0.116066,0.04924 -0.237993,0.075032 -0.121928,0.025792 -0.247373,0.025792 -0.314198,0 -0.498262,-0.1828915 -0.182892,-0.1828916 -0.182892,-0.4947451 0,-0.322405 0.173513,-0.5111584 0.174685,-0.1899258 0.470125,-0.1899258 0.264958,0 0.41854,0.1711677 0.154754,0.1699953 0.154754,0.4630908 z m -0.215718,-0.063309 q -0.0023,-0.1770296 -0.09965,-0.2825439 -0.09614,-0.1055144 -0.255579,-0.1055144 -0.180547,0 -0.289579,0.1019972 -0.107859,0.1019972 -0.124272,0.2872335 z"
       style="fill:#000000;fill-opacity:1;stroke-width:0.06002594"
       id="path7030"
       inkscape:connector-curvature="0" />
    <path
       d="m 29.546119,-5.1521147 q -0.173512,0 -0.274337,0.1359963 -0.100825,0.1348239 -0.100825,0.3704726 0,0.2356487 0.09965,0.371645 0.100825,0.1348239 0.275509,0.1348239 0.172341,0 0.273165,-0.1359963 0.100825,-0.1359963 0.100825,-0.3704726 0,-0.233304 -0.100825,-0.3693002 -0.100824,-0.1371687 -0.273165,-0.1371687 z m 0,-0.1828915 q 0.281372,0 0.441988,0.1828915 0.160617,0.1828915 0.160617,0.5064689 0,0.322405 -0.160617,0.5064689 -0.160616,0.1828915 -0.441988,0.1828915 -0.282544,0 -0.44316,-0.1828915 -0.159444,-0.1840639 -0.159444,-0.5064689 0,-0.3235774 0.159444,-0.5064689 0.160616,-0.1828915 0.44316,-0.1828915 z"
       style="fill:#000000;fill-opacity:1;stroke-width:0.06002594"
       id="path7032"
       inkscape:connector-curvature="0" />
  </g>
  <rect
     style="fill:none;fill-opacity:0;stroke:#ff0000;stroke-width:0.28371352;stroke-miterlimit:4;stroke-dasharray:none;stroke-opacity:1"
     id="rect6937"
     width="19.716286"
     height="128.21628"
     x="0.14185676"
     y="39.641861" />
  <circle
     style="fill:none;fill-opacity:0;stroke:#ff0000;stroke-width:0.12749535;stroke-miterlimit:4;stroke-dasharray:none;stroke-opacity:1"
     id="path6939"
     cx="7.5"
     cy="165"
     r="1.5362523" />
  <circle
     style="fill:none;fill-opacity:0;stroke:#ff0000;stroke-width:0.12749535;stroke-miterlimit:4;stroke-dasharray:none;stroke-opacity:1"
     id="path6939-6"
     cx="7.5"
     cy="42.5"
     r="1.5362523" />
  <ellipse
     style="fill:none;fill-opacity:0;stroke:#ff0000;stroke-width:0.27889606;stroke-miterlimit:4;stroke-dasharray:none;stroke-opacity:1"
     id="path6939-6-8"
     cx="6.5500002"
     cy="61"
     rx="3.3605521"
     ry="3.3605518" />
  <ellipse
     style="fill:none;fill-opacity:0;stroke:#ff0000;stroke-width:0.27889606;stroke-miterlimit:4;stroke-dasharray:none;stroke-opacity:1"
     id="path6939-6-8-0"
     cx="6.5500002"
     cy="71"
     rx="3.3605521"
     ry="3.3605518" />
  <ellipse
     style="fill:none;fill-opacity:0;stroke:#ff0000;stroke-width:0.27889606;stroke-miterlimit:4;stroke-dasharray:none;stroke-opacity:1"
     id="path6939-6-8-2"
     cx="6.5500002"
     cy="86"
     rx="3.3605521"
     ry="3.3605518" />
  <ellipse
     style="fill:none;fill-opacity:0;stroke:#ff0000;stroke-width:0.27889606;stroke-miterlimit:4;stroke-dasharray:none;stroke-opacity:1"
     id="path6939-6-8-7"
     cx="6.5500002"
     cy="96"
     rx="3.3605521"
     ry="3.3605518" />
  <ellipse
     style="fill:none;fill-opacity:0;stroke:#ff0000;stroke-width:0.27889606;stroke-miterlimit:4;stroke-dasharray:none;stroke-opacity:1"
     id="path6939-6-8-5"
     cx="6.5500002"
     cy="111"
     rx="3.3605521"
     ry="3.3605518" />
  <ellipse
     style="fill:none;fill-opacity:0;stroke:#ff0000;stroke-width:0.27889606;stroke-miterlimit:4;stroke-dasharray:none;stroke-opacity:1"
     id="path6939-6-8-9"
     cx="6.5500002"
     cy="121"
     rx="3.3605521"
     ry="3.3605518" />
  <ellipse
     style="fill:none;fill-opacity:0;stroke:#ff0000;stroke-width:0.27889606;stroke-miterlimit:4;stroke-dasharray:none;stroke-opacity:1"
     id="path6939-6-8-91"
     cx="6.5500002"
     cy="136"
     rx="3.3605521"
     ry="3.3605518" />
  <ellipse
     style="fill:none;fill-opacity:0;stroke:#ff0000;stroke-width:0.27889606;stroke-miterlimit:4;stroke-dasharray:none;stroke-opacity:1"
     id="path6939-6-8-03"
     cx="6.5500002"
     cy="146"
     rx="3.3605521"
     ry="3.3605518" />
</svg>
