<?xml version="1.0" encoding="utf-8" ?>
<svg baseProfile="tiny" height="381.582274467" version="1.2" width="117.8346445" xmlns="http://www.w3.org/2000/svg" xmlns:ev="http://www.w3.org/2001/xml-events" xmlns:xlink="http://www.w3.org/1999/xlink"><defs /><g id="paths" stroke="blue"><path d="M 21.259842,359.224006967 L 74.409447,359.224006967 L 74.409447,4.893306967 L 21.259842,4.893306967 L 21.259842,359.224006967 Z" fill-opacity="0" stroke-linejoin="round" stroke-width="1.0" /></g><g fill="red" id="holes"><circle cx="69.0945" cy="10.2083" r="0.585" stroke-width="0.0" /><circle cx="69.0945" cy="88.161" r="0.585" stroke-width="0.0" /><circle cx="26.5748" cy="88.161" r="0.585" stroke-width="0.0" /><circle cx="26.5748" cy="226.35" r="0.585" stroke-width="0.0" /><circle cx="26.5748" cy="176.7437" r="0.585" stroke-width="0.0" /><circle cx="26.5748" cy="353.909" r="0.585" stroke-width="0.0" /><circle cx="69.0945" cy="226.35" r="0.585" stroke-width="0.0" /><circle cx="40.748" cy="265.3264" r="0.585" stroke-width="0.0" /><circle cx="47.8346" cy="314.9327" r="0.585" stroke-width="0.0" /><circle cx="26.5748" cy="314.9327" r="0.585" stroke-width="0.0" /><circle cx="54.9213" cy="88.161" r="0.585" stroke-width="0.0" /><circle cx="26.5748" cy="265.3264" r="0.585" stroke-width="0.0" /><circle cx="69.0945" cy="265.3264" r="0.585" stroke-width="0.0" /><circle cx="69.0945" cy="275.9563" r="0.585" stroke-width="0.0" /><circle cx="40.748" cy="275.9563" r="0.585" stroke-width="0.0" /><circle cx="40.748" cy="353.909" r="0.585" stroke-width="0.0" /><circle cx="54.9213" cy="353.909" r="0.585" stroke-width="0.0" /><circle cx="47.8346" cy="137.7673" r="0.585" stroke-width="0.0" /><circle cx="69.0945" cy="49.1846" r="0.585" stroke-width="0.0" /><circle cx="54.9213" cy="176.7437" r="0.585" stroke-width="0.0" /><circle cx="54.9213" cy="98.7909" r="0.585" stroke-width="0.0" /><circle cx="26.5748" cy="275.9563" r="0.585" stroke-width="0.0" /><circle cx="26.5748" cy="187.3736" r="0.585" stroke-width="0.0" /><circle cx="47.8346" cy="226.35" r="0.585" stroke-width="0.0" /><circle cx="40.748" cy="98.7909" r="0.585" stroke-width="0.0" /><circle cx="40.748" cy="10.2083" r="0.585" stroke-width="0.0" /><circle cx="26.5748" cy="10.2083" r="0.585" stroke-width="0.0" /><circle cx="69.0945" cy="137.7673" r="0.585" stroke-width="0.0" /><circle cx="54.9213" cy="275.9563" r="0.585" stroke-width="0.0" /><circle cx="54.9213" cy="265.3264" r="0.585" stroke-width="0.0" /><circle cx="40.748" cy="176.7437" r="0.585" stroke-width="0.0" /><circle cx="69.0945" cy="314.9327" r="0.585" stroke-width="0.0" /><circle cx="54.9213" cy="187.3736" r="0.585" stroke-width="0.0" /><circle cx="47.8346" cy="49.1846" r="0.585" stroke-width="0.0" /><circle cx="26.5748" cy="98.7909" r="0.585" stroke-width="0.0" /><circle cx="69.0945" cy="176.7437" r="0.585" stroke-width="0.0" /><circle cx="26.5748" cy="137.7673" r="0.585" stroke-width="0.0" /><circle cx="40.748" cy="88.161" r="0.585" stroke-width="0.0" /><circle cx="40.748" cy="187.3736" r="0.585" stroke-width="0.0" /><circle cx="69.0945" cy="98.7909" r="0.585" stroke-width="0.0" /><circle cx="26.5748" cy="49.1846" r="0.585" stroke-width="0.0" /><circle cx="54.9213" cy="10.2083" r="0.585" stroke-width="0.0" /><circle cx="69.0945" cy="353.909" r="0.585" stroke-width="0.0" /><circle cx="69.0945" cy="187.3736" r="0.585" stroke-width="0.0" /><circle cx="70.1575" cy="152.472" r="2.8346" stroke-width="0.0" /><circle cx="48.3661" cy="152.472" r="2.8346" stroke-width="0.0" /><circle cx="41.6339" cy="159.5587" r="2.8346" stroke-width="0.0" /><circle cx="61.4764" cy="159.5587" r="2.8346" stroke-width="0.0" /><circle cx="28.3465" cy="152.472" r="2.8346" stroke-width="0.0" /><circle cx="68.7402" cy="297.2161" r="4.4291" stroke-width="0.0" /><circle cx="49.9606" cy="297.2161" r="4.4291" stroke-width="0.0" /><circle cx="29.4094" cy="297.2161" r="4.4291" stroke-width="0.0" /><circle cx="68.7402" cy="208.6335" r="4.4291" stroke-width="0.0" /><circle cx="49.9606" cy="208.6335" r="4.4291" stroke-width="0.0" /><circle cx="29.4094" cy="208.6335" r="4.4291" stroke-width="0.0" /><circle cx="68.7402" cy="31.4681" r="4.4291" stroke-width="0.0" /><circle cx="49.9606" cy="31.4681" r="4.4291" stroke-width="0.0" /><circle cx="29.4094" cy="31.4681" r="4.4291" stroke-width="0.0" /><circle cx="70.1575" cy="63.8894" r="2.8346" stroke-width="0.0" /><circle cx="48.3661" cy="63.8894" r="2.8346" stroke-width="0.0" /><circle cx="41.6339" cy="70.976" r="2.8346" stroke-width="0.0" /><circle cx="61.4764" cy="70.976" r="2.8346" stroke-width="0.0" /><circle cx="28.3465" cy="63.8894" r="2.8346" stroke-width="0.0" /><circle cx="70.1575" cy="241.0547" r="2.8346" stroke-width="0.0" /><circle cx="48.3661" cy="241.0547" r="2.8346" stroke-width="0.0" /><circle cx="41.6339" cy="248.1413" r="2.8346" stroke-width="0.0" /><circle cx="61.4764" cy="248.1413" r="2.8346" stroke-width="0.0" /><circle cx="28.3465" cy="241.0547" r="2.8346" stroke-width="0.0" /><circle cx="68.7402" cy="120.0508" r="4.4291" stroke-width="0.0" /><circle cx="49.9606" cy="120.0508" r="4.4291" stroke-width="0.0" /><circle cx="29.4094" cy="120.0508" r="4.4291" stroke-width="0.0" /><circle cx="70.1575" cy="329.6374" r="2.8346" stroke-width="0.0" /><circle cx="48.3661" cy="329.6374" r="2.8346" stroke-width="0.0" /><circle cx="41.6339" cy="336.724" r="2.8346" stroke-width="0.0" /><circle cx="61.4764" cy="336.724" r="2.8346" stroke-width="0.0" /><circle cx="28.3465" cy="329.6374" r="2.8346" stroke-width="0.0" /></g><g id="rulers" stroke="black"><line stroke-width="1.0" x1="3.5433" x2="3.5433" y1="208.6335" y2="244.0665" /><text font-family="monospace" font-size="5" stroke-width="0.3" x="8.543307" y="226.349994467">10.0000mm</text><text font-family="monospace" font-size="5" stroke-width="0.3" x="8.543307" y="232.349994467">(Δy=10.0000mm)</text><line stroke-width="1.0" x1="21.2598" x2="74.4094" y1="368.0823" y2="368.0823" /><text font-family="monospace" font-size="5" stroke-width="0.3" x="47.8346445" y="373.082274467">15.0000mm</text><text font-family="monospace" font-size="5" stroke-width="0.3" x="47.8346445" y="379.082274467">(Δx=15.0000mm)</text><line stroke-width="1.0" x1="3.5433" x2="3.5433" y1="297.2161" y2="332.6492" /><text font-family="monospace" font-size="5" stroke-width="0.3" x="8.543307" y="314.932669467">10.0000mm</text><text font-family="monospace" font-size="5" stroke-width="0.3" x="8.543307" y="320.932669467">(Δy=10.0000mm)</text><line stroke-width="1.0" x1="12.4016" x2="12.4016" y1="332.6492" y2="359.224" /><text font-family="monospace" font-size="5" stroke-width="0.3" x="17.4015745" y="345.936605717">7.5000mm</text><text font-family="monospace" font-size="5" stroke-width="0.3" x="17.4015745" y="351.936605717">(Δy=7.5000mm)</text><line stroke-width="1.0" x1="12.4016" x2="12.4016" y1="66.9012" y2="120.0508" /><text font-family="monospace" font-size="5" stroke-width="0.3" x="17.4015745" y="93.475981967">15.0000mm</text><text font-family="monospace" font-size="5" stroke-width="0.3" x="17.4015745" y="99.475981967">(Δy=15.0000mm)</text><line stroke-width="1.0" x1="3.5433" x2="3.5433" y1="120.0508" y2="155.4839" /><text font-family="monospace" font-size="5" stroke-width="0.3" x="8.543307" y="137.767319467">10.0000mm</text><text font-family="monospace" font-size="5" stroke-width="0.3" x="8.543307" y="143.767319467">(Δy=10.0000mm)</text><line stroke-width="1.0" x1="3.5433" x2="3.5433" y1="31.4681" y2="66.9012" /><text font-family="monospace" font-size="5" stroke-width="0.3" x="8.543307" y="49.184644467">10.0000mm</text><text font-family="monospace" font-size="5" stroke-width="0.3" x="8.543307" y="55.184644467">(Δy=10.0000mm)</text><line stroke-width="1.0" x1="12.4016" x2="12.4016" y1="155.4839" y2="208.6335" /><text font-family="monospace" font-size="5" stroke-width="0.3" x="17.4015745" y="182.058656967">15.0000mm</text><text font-family="monospace" font-size="5" stroke-width="0.3" x="17.4015745" y="188.058656967">(Δy=15.0000mm)</text><line stroke-width="1.0" x1="12.4016" x2="12.4016" y1="4.8933" y2="31.4681" /><text font-family="monospace" font-size="5" stroke-width="0.3" x="17.4015745" y="18.180708217">7.5000mm</text><text font-family="monospace" font-size="5" stroke-width="0.3" x="17.4015745" y="24.180708217">(Δy=7.5000mm)</text><line stroke-width="1.0" x1="12.4016" x2="12.4016" y1="244.0665" y2="297.2161" /><text font-family="monospace" font-size="5" stroke-width="0.3" x="17.4015745" y="270.641331967">15.0000mm</text><text font-family="monospace" font-size="5" stroke-width="0.3" x="17.4015745" y="276.641331967">(Δy=15.0000mm)</text></g></svg>