<?xml version='1.0' encoding='UTF-8' standalone='no'?>
<svg xmlns="http://www.w3.org/2000/svg" width="692" height="364" x="0" y="0"><text x="96" y="29" font-size="10" font-family="sans-serif" text-anchor="middle" alignment-baseline="middle" transform="rotate(270 96 29)">P1-Ring</text><text x="96" y="69" font-size="10" font-family="sans-serif" text-anchor="middle" alignment-baseline="middle" transform="rotate(270 96 69)">P1-Tip</text><text x="481" y="29" font-size="10" font-family="sans-serif" text-anchor="middle" alignment-baseline="middle">P2-Ring</text><text x="481" y="59" font-size="10" font-family="sans-serif" text-anchor="middle" alignment-baseline="middle">P2-Tip</text><text x="96" y="229" font-size="10" font-family="sans-serif" text-anchor="middle" alignment-baseline="middle" transform="rotate(270 96 229)">P3-Ring</text><text x="101" y="269" font-size="10" font-family="sans-serif" text-anchor="middle" alignment-baseline="middle">P3-Tip</text><text x="481" y="229" font-size="10" font-family="sans-serif" text-anchor="middle" alignment-baseline="middle">P4-Ring</text><text x="496" y="269" font-size="10" font-family="sans-serif" text-anchor="middle" alignment-baseline="middle" transform="rotate(270 496 269)">P4-Tip</text><text x="171" y="69" font-size="10" font-family="sans-serif" text-anchor="middle" alignment-baseline="middle">mixed-1</text><text x="571" y="69" font-size="10" font-family="sans-serif" text-anchor="middle" alignment-baseline="middle">mixed-2</text><text x="171" y="269" font-size="10" font-family="sans-serif" text-anchor="middle" alignment-baseline="middle">mixed-3</text><text x="571" y="219" font-size="10" font-family="sans-serif" text-anchor="middle" alignment-baseline="middle">mixed-4</text><text x="283" y="279" font-size="10" font-family="sans-serif" text-anchor="end" alignment-baseline="hanging">J3</text><text x="141" y="244" font-size="10" font-family="sans-serif" text-anchor="start" alignment-baseline="hanging">R6</text><text x="283" y="79" font-size="10" font-family="sans-serif" text-anchor="end" alignment-baseline="hanging">J1</text><text x="96" y="144" font-size="10" font-family="sans-serif" text-anchor="end" alignment-baseline="hanging">Shield-1</text><text x="521" y="44" font-size="10" font-family="sans-serif" text-anchor="start" alignment-baseline="hanging">1K</text><text x="541" y="254" font-size="10" font-family="sans-serif" text-anchor="start" alignment-baseline="hanging">1K</text><text x="141" y="44" font-size="10" font-family="sans-serif" text-anchor="start" alignment-baseline="hanging">R2</text><text x="419" y="79" font-size="10" font-family="sans-serif" text-anchor="start" alignment-baseline="hanging">P2</text><text x="496" y="144" font-size="10" font-family="sans-serif" text-anchor="end" alignment-baseline="hanging">Shield-2</text><text x="141" y="254" font-size="10" font-family="sans-serif" text-anchor="start" alignment-baseline="hanging">1K</text><text x="216" y="144" font-size="10" font-family="sans-serif" text-anchor="end" alignment-baseline="hanging">Shield-1</text><text x="521" y="234" font-size="10" font-family="sans-serif" text-anchor="start" alignment-baseline="hanging">R7</text><text x="121" y="234" font-size="10" font-family="sans-serif" text-anchor="start" alignment-baseline="hanging">R5</text><text x="19" y="79" font-size="10" font-family="sans-serif" text-anchor="start" alignment-baseline="hanging">P1</text><text x="496" y="344" font-size="10" font-family="sans-serif" text-anchor="end" alignment-baseline="hanging">Shield-4</text><text x="216" y="344" font-size="10" font-family="sans-serif" text-anchor="end" alignment-baseline="hanging">Shield-3</text><text x="419" y="279" font-size="10" font-family="sans-serif" text-anchor="start" alignment-baseline="hanging">P4</text><text x="141" y="54" font-size="10" font-family="sans-serif" text-anchor="start" alignment-baseline="hanging">1K</text><text x="541" y="244" font-size="10" font-family="sans-serif" text-anchor="start" alignment-baseline="hanging">R8</text><text x="121" y="244" font-size="10" font-family="sans-serif" text-anchor="start" alignment-baseline="hanging">1K</text><text x="121" y="44" font-size="10" font-family="sans-serif" text-anchor="start" alignment-baseline="hanging">1K</text><text x="616" y="144" font-size="10" font-family="sans-serif" text-anchor="end" alignment-baseline="hanging">Shield-2</text><text x="521" y="34" font-size="10" font-family="sans-serif" text-anchor="start" alignment-baseline="hanging">R3</text><text x="521" y="244" font-size="10" font-family="sans-serif" text-anchor="start" alignment-baseline="hanging">1K</text><text x="19" y="279" font-size="10" font-family="sans-serif" text-anchor="start" alignment-baseline="hanging">P3</text><text x="616" y="344" font-size="10" font-family="sans-serif" text-anchor="end" alignment-baseline="hanging">Shield-4</text><text x="541" y="44" font-size="10" font-family="sans-serif" text-anchor="start" alignment-baseline="hanging">R4</text><text x="673" y="279" font-size="10" font-family="sans-serif" text-anchor="end" alignment-baseline="hanging">J4</text><text x="121" y="34" font-size="10" font-family="sans-serif" text-anchor="start" alignment-baseline="hanging">R1</text><text x="541" y="54" font-size="10" font-family="sans-serif" text-anchor="start" alignment-baseline="hanging">1K</text><text x="96" y="344" font-size="10" font-family="sans-serif" text-anchor="end" alignment-baseline="hanging">Shield-3</text><text x="673" y="79" font-size="10" font-family="sans-serif" text-anchor="end" alignment-baseline="hanging">J2</text><line x1="598" y1="61" x2="604" y2="67" stroke-width="2" stroke="black"></line><line x1="598" y1="67" x2="604" y2="61" stroke-width="2" stroke="black"></line><line x1="121" y1="274" x2="124" y2="269" stroke-width="2" stroke="black"></line><line x1="124" y1="269" x2="129" y2="279" stroke-width="2" stroke="black"></line><line x1="129" y1="279" x2="134" y2="269" stroke-width="2" stroke="black"></line><line x1="134" y1="269" x2="139" y2="279" stroke-width="2" stroke="black"></line><line x1="139" y1="279" x2="144" y2="269" stroke-width="2" stroke="black"></line><line x1="144" y1="269" x2="149" y2="279" stroke-width="2" stroke="black"></line><line x1="149" y1="279" x2="151" y2="274" stroke-width="2" stroke="black"></line><line x1="111" y1="274" x2="121" y2="274" stroke-width="2" stroke="black"></line><line x1="151" y1="274" x2="161" y2="274" stroke-width="2" stroke="black"></line><line x1="201" y1="114" x2="201" y2="124" stroke-width="2" stroke="black"></line><line x1="211" y1="124" x2="191" y2="124" stroke-width="2" stroke="black"></line><line x1="208" y1="129" x2="194" y2="129" stroke-width="2" stroke="black"></line><line x1="205" y1="134" x2="197" y2="134" stroke-width="2" stroke="black"></line><line x1="601" y1="114" x2="601" y2="124" stroke-width="2" stroke="black"></line><line x1="611" y1="124" x2="591" y2="124" stroke-width="2" stroke="black"></line><line x1="608" y1="129" x2="594" y2="129" stroke-width="2" stroke="black"></line><line x1="605" y1="134" x2="597" y2="134" stroke-width="2" stroke="black"></line><line x1="416" y1="25" x2="416" y2="74" stroke-width="2" stroke="black"></line><line x1="416" y1="74" x2="471" y2="74" stroke-width="2" stroke="black"></line><line x1="416" y1="29" x2="411" y2="29" stroke-width="2" stroke="black"></line><line x1="411" y1="29" x2="411" y2="69" stroke-width="2" stroke="black"></line><line x1="411" y1="69" x2="416" y2="69" stroke-width="2" stroke="black"></line><line x1="425" y1="34" x2="428" y2="39" stroke-width="2" stroke="black"></line><line x1="428" y1="39" x2="432" y2="34" stroke-width="2" stroke="black"></line><line x1="432" y1="34" x2="471" y2="34" stroke-width="2" stroke="black"></line><line x1="459" y1="41" x2="456" y2="39" stroke-width="2" stroke="black"></line><line x1="456" y1="39" x2="456" y2="44" stroke-width="2" stroke="black"></line><line x1="456" y1="44" x2="471" y2="44" stroke-width="2" stroke="black"></line><line x1="453" y1="41" x2="456" y2="39" stroke-width="2" stroke="black"></line><line x1="440" y1="64" x2="443" y2="59" stroke-width="2" stroke="black"></line><line x1="443" y1="59" x2="446" y2="64" stroke-width="2" stroke="black"></line><line x1="446" y1="64" x2="471" y2="64" stroke-width="2" stroke="black"></line><line x1="459" y1="57" x2="456" y2="59" stroke-width="2" stroke="black"></line><line x1="456" y1="59" x2="456" y2="54" stroke-width="2" stroke="black"></line><line x1="456" y1="54" x2="471" y2="54" stroke-width="2" stroke="black"></line><line x1="453" y1="57" x2="456" y2="59" stroke-width="2" stroke="black"></line><line x1="286" y1="235" x2="286" y2="274" stroke-width="2" stroke="black"></line><line x1="286" y1="274" x2="231" y2="274" stroke-width="2" stroke="black"></line><line x1="286" y1="239" x2="291" y2="239" stroke-width="2" stroke="black"></line><line x1="291" y1="239" x2="291" y2="269" stroke-width="2" stroke="black"></line><line x1="291" y1="269" x2="286" y2="269" stroke-width="2" stroke="black"></line><line x1="262" y1="254" x2="259" y2="259" stroke-width="2" stroke="black"></line><line x1="259" y1="259" x2="256" y2="254" stroke-width="2" stroke="black"></line><line x1="256" y1="254" x2="231" y2="254" stroke-width="2" stroke="black"></line><line x1="243" y1="261" x2="246" y2="259" stroke-width="2" stroke="black"></line><line x1="246" y1="259" x2="246" y2="264" stroke-width="2" stroke="black"></line><line x1="246" y1="264" x2="231" y2="264" stroke-width="2" stroke="black"></line><line x1="249" y1="261" x2="246" y2="259" stroke-width="2" stroke="black"></line><line x1="521" y1="74" x2="524" y2="69" stroke-width="2" stroke="black"></line><line x1="524" y1="69" x2="529" y2="79" stroke-width="2" stroke="black"></line><line x1="529" y1="79" x2="534" y2="69" stroke-width="2" stroke="black"></line><line x1="534" y1="69" x2="539" y2="79" stroke-width="2" stroke="black"></line><line x1="539" y1="79" x2="544" y2="69" stroke-width="2" stroke="black"></line><line x1="544" y1="69" x2="549" y2="79" stroke-width="2" stroke="black"></line><line x1="549" y1="79" x2="551" y2="74" stroke-width="2" stroke="black"></line><line x1="511" y1="74" x2="521" y2="74" stroke-width="2" stroke="black"></line><line x1="551" y1="74" x2="561" y2="74" stroke-width="2" stroke="black"></line><line x1="81" y1="314" x2="81" y2="324" stroke-width="2" stroke="black"></line><line x1="91" y1="324" x2="71" y2="324" stroke-width="2" stroke="black"></line><line x1="88" y1="329" x2="74" y2="329" stroke-width="2" stroke="black"></line><line x1="85" y1="334" x2="77" y2="334" stroke-width="2" stroke="black"></line><line x1="81" y1="114" x2="81" y2="124" stroke-width="2" stroke="black"></line><line x1="91" y1="124" x2="71" y2="124" stroke-width="2" stroke="black"></line><line x1="88" y1="129" x2="74" y2="129" stroke-width="2" stroke="black"></line><line x1="85" y1="134" x2="77" y2="134" stroke-width="2" stroke="black"></line><line x1="121" y1="224" x2="124" y2="219" stroke-width="2" stroke="black"></line><line x1="124" y1="219" x2="129" y2="229" stroke-width="2" stroke="black"></line><line x1="129" y1="229" x2="134" y2="219" stroke-width="2" stroke="black"></line><line x1="134" y1="219" x2="139" y2="229" stroke-width="2" stroke="black"></line><line x1="139" y1="229" x2="144" y2="219" stroke-width="2" stroke="black"></line><line x1="144" y1="219" x2="149" y2="229" stroke-width="2" stroke="black"></line><line x1="149" y1="229" x2="151" y2="224" stroke-width="2" stroke="black"></line><line x1="111" y1="224" x2="121" y2="224" stroke-width="2" stroke="black"></line><line x1="151" y1="224" x2="161" y2="224" stroke-width="2" stroke="black"></line><line x1="416" y1="225" x2="416" y2="274" stroke-width="2" stroke="black"></line><line x1="416" y1="274" x2="471" y2="274" stroke-width="2" stroke="black"></line><line x1="416" y1="229" x2="411" y2="229" stroke-width="2" stroke="black"></line><line x1="411" y1="229" x2="411" y2="269" stroke-width="2" stroke="black"></line><line x1="411" y1="269" x2="416" y2="269" stroke-width="2" stroke="black"></line><line x1="425" y1="234" x2="428" y2="239" stroke-width="2" stroke="black"></line><line x1="428" y1="239" x2="432" y2="234" stroke-width="2" stroke="black"></line><line x1="432" y1="234" x2="471" y2="234" stroke-width="2" stroke="black"></line><line x1="459" y1="241" x2="456" y2="239" stroke-width="2" stroke="black"></line><line x1="456" y1="239" x2="456" y2="244" stroke-width="2" stroke="black"></line><line x1="456" y1="244" x2="471" y2="244" stroke-width="2" stroke="black"></line><line x1="453" y1="241" x2="456" y2="239" stroke-width="2" stroke="black"></line><line x1="440" y1="264" x2="443" y2="259" stroke-width="2" stroke="black"></line><line x1="443" y1="259" x2="446" y2="264" stroke-width="2" stroke="black"></line><line x1="446" y1="264" x2="471" y2="264" stroke-width="2" stroke="black"></line><line x1="459" y1="257" x2="456" y2="259" stroke-width="2" stroke="black"></line><line x1="456" y1="259" x2="456" y2="254" stroke-width="2" stroke="black"></line><line x1="456" y1="254" x2="471" y2="254" stroke-width="2" stroke="black"></line><line x1="453" y1="257" x2="456" y2="259" stroke-width="2" stroke="black"></line><line x1="16" y1="25" x2="16" y2="74" stroke-width="2" stroke="black"></line><line x1="16" y1="74" x2="71" y2="74" stroke-width="2" stroke="black"></line><line x1="16" y1="29" x2="11" y2="29" stroke-width="2" stroke="black"></line><line x1="11" y1="29" x2="11" y2="69" stroke-width="2" stroke="black"></line><line x1="11" y1="69" x2="16" y2="69" stroke-width="2" stroke="black"></line><line x1="25" y1="34" x2="28" y2="39" stroke-width="2" stroke="black"></line><line x1="28" y1="39" x2="32" y2="34" stroke-width="2" stroke="black"></line><line x1="32" y1="34" x2="71" y2="34" stroke-width="2" stroke="black"></line><line x1="59" y1="41" x2="56" y2="39" stroke-width="2" stroke="black"></line><line x1="56" y1="39" x2="56" y2="44" stroke-width="2" stroke="black"></line><line x1="56" y1="44" x2="71" y2="44" stroke-width="2" stroke="black"></line><line x1="53" y1="41" x2="56" y2="39" stroke-width="2" stroke="black"></line><line x1="40" y1="64" x2="43" y2="59" stroke-width="2" stroke="black"></line><line x1="43" y1="59" x2="46" y2="64" stroke-width="2" stroke="black"></line><line x1="46" y1="64" x2="71" y2="64" stroke-width="2" stroke="black"></line><line x1="59" y1="57" x2="56" y2="59" stroke-width="2" stroke="black"></line><line x1="56" y1="59" x2="56" y2="54" stroke-width="2" stroke="black"></line><line x1="56" y1="54" x2="71" y2="54" stroke-width="2" stroke="black"></line><line x1="53" y1="57" x2="56" y2="59" stroke-width="2" stroke="black"></line><line x1="481" y1="314" x2="481" y2="324" stroke-width="2" stroke="black"></line><line x1="491" y1="324" x2="471" y2="324" stroke-width="2" stroke="black"></line><line x1="488" y1="329" x2="474" y2="329" stroke-width="2" stroke="black"></line><line x1="485" y1="334" x2="477" y2="334" stroke-width="2" stroke="black"></line><line x1="676" y1="35" x2="676" y2="74" stroke-width="2" stroke="black"></line><line x1="676" y1="74" x2="621" y2="74" stroke-width="2" stroke="black"></line><line x1="676" y1="39" x2="681" y2="39" stroke-width="2" stroke="black"></line><line x1="681" y1="39" x2="681" y2="69" stroke-width="2" stroke="black"></line><line x1="681" y1="69" x2="676" y2="69" stroke-width="2" stroke="black"></line><line x1="652" y1="54" x2="649" y2="59" stroke-width="2" stroke="black"></line><line x1="649" y1="59" x2="646" y2="54" stroke-width="2" stroke="black"></line><line x1="646" y1="54" x2="621" y2="54" stroke-width="2" stroke="black"></line><line x1="633" y1="61" x2="636" y2="59" stroke-width="2" stroke="black"></line><line x1="636" y1="59" x2="636" y2="64" stroke-width="2" stroke="black"></line><line x1="636" y1="64" x2="621" y2="64" stroke-width="2" stroke="black"></line><line x1="639" y1="61" x2="636" y2="59" stroke-width="2" stroke="black"></line><line x1="598" y1="261" x2="604" y2="267" stroke-width="2" stroke="black"></line><line x1="598" y1="267" x2="604" y2="261" stroke-width="2" stroke="black"></line><line x1="286" y1="35" x2="286" y2="74" stroke-width="2" stroke="black"></line><line x1="286" y1="74" x2="231" y2="74" stroke-width="2" stroke="black"></line><line x1="286" y1="39" x2="291" y2="39" stroke-width="2" stroke="black"></line><line x1="291" y1="39" x2="291" y2="69" stroke-width="2" stroke="black"></line><line x1="291" y1="69" x2="286" y2="69" stroke-width="2" stroke="black"></line><line x1="262" y1="54" x2="259" y2="59" stroke-width="2" stroke="black"></line><line x1="259" y1="59" x2="256" y2="54" stroke-width="2" stroke="black"></line><line x1="256" y1="54" x2="231" y2="54" stroke-width="2" stroke="black"></line><line x1="243" y1="61" x2="246" y2="59" stroke-width="2" stroke="black"></line><line x1="246" y1="59" x2="246" y2="64" stroke-width="2" stroke="black"></line><line x1="246" y1="64" x2="231" y2="64" stroke-width="2" stroke="black"></line><line x1="249" y1="61" x2="246" y2="59" stroke-width="2" stroke="black"></line><line x1="521" y1="224" x2="524" y2="219" stroke-width="2" stroke="black"></line><line x1="524" y1="219" x2="529" y2="229" stroke-width="2" stroke="black"></line><line x1="529" y1="229" x2="534" y2="219" stroke-width="2" stroke="black"></line><line x1="534" y1="219" x2="539" y2="229" stroke-width="2" stroke="black"></line><line x1="539" y1="229" x2="544" y2="219" stroke-width="2" stroke="black"></line><line x1="544" y1="219" x2="549" y2="229" stroke-width="2" stroke="black"></line><line x1="549" y1="229" x2="551" y2="224" stroke-width="2" stroke="black"></line><line x1="511" y1="224" x2="521" y2="224" stroke-width="2" stroke="black"></line><line x1="551" y1="224" x2="561" y2="224" stroke-width="2" stroke="black"></line><line x1="16" y1="225" x2="16" y2="274" stroke-width="2" stroke="black"></line><line x1="16" y1="274" x2="71" y2="274" stroke-width="2" stroke="black"></line><line x1="16" y1="229" x2="11" y2="229" stroke-width="2" stroke="black"></line><line x1="11" y1="229" x2="11" y2="269" stroke-width="2" stroke="black"></line><line x1="11" y1="269" x2="16" y2="269" stroke-width="2" stroke="black"></line><line x1="25" y1="234" x2="28" y2="239" stroke-width="2" stroke="black"></line><line x1="28" y1="239" x2="32" y2="234" stroke-width="2" stroke="black"></line><line x1="32" y1="234" x2="71" y2="234" stroke-width="2" stroke="black"></line><line x1="59" y1="241" x2="56" y2="239" stroke-width="2" stroke="black"></line><line x1="56" y1="239" x2="56" y2="244" stroke-width="2" stroke="black"></line><line x1="56" y1="244" x2="71" y2="244" stroke-width="2" stroke="black"></line><line x1="53" y1="241" x2="56" y2="239" stroke-width="2" stroke="black"></line><line x1="40" y1="264" x2="43" y2="259" stroke-width="2" stroke="black"></line><line x1="43" y1="259" x2="46" y2="264" stroke-width="2" stroke="black"></line><line x1="46" y1="264" x2="71" y2="264" stroke-width="2" stroke="black"></line><line x1="59" y1="257" x2="56" y2="259" stroke-width="2" stroke="black"></line><line x1="56" y1="259" x2="56" y2="254" stroke-width="2" stroke="black"></line><line x1="56" y1="254" x2="71" y2="254" stroke-width="2" stroke="black"></line><line x1="53" y1="257" x2="56" y2="259" stroke-width="2" stroke="black"></line><line x1="201" y1="314" x2="201" y2="324" stroke-width="2" stroke="black"></line><line x1="211" y1="324" x2="191" y2="324" stroke-width="2" stroke="black"></line><line x1="208" y1="329" x2="194" y2="329" stroke-width="2" stroke="black"></line><line x1="205" y1="334" x2="197" y2="334" stroke-width="2" stroke="black"></line><line x1="121" y1="74" x2="124" y2="69" stroke-width="2" stroke="black"></line><line x1="124" y1="69" x2="129" y2="79" stroke-width="2" stroke="black"></line><line x1="129" y1="79" x2="134" y2="69" stroke-width="2" stroke="black"></line><line x1="134" y1="69" x2="139" y2="79" stroke-width="2" stroke="black"></line><line x1="139" y1="79" x2="144" y2="69" stroke-width="2" stroke="black"></line><line x1="144" y1="69" x2="149" y2="79" stroke-width="2" stroke="black"></line><line x1="149" y1="79" x2="151" y2="74" stroke-width="2" stroke="black"></line><line x1="111" y1="74" x2="121" y2="74" stroke-width="2" stroke="black"></line><line x1="151" y1="74" x2="161" y2="74" stroke-width="2" stroke="black"></line><line x1="521" y1="24" x2="524" y2="19" stroke-width="2" stroke="black"></line><line x1="524" y1="19" x2="529" y2="29" stroke-width="2" stroke="black"></line><line x1="529" y1="29" x2="534" y2="19" stroke-width="2" stroke="black"></line><line x1="534" y1="19" x2="539" y2="29" stroke-width="2" stroke="black"></line><line x1="539" y1="29" x2="544" y2="19" stroke-width="2" stroke="black"></line><line x1="544" y1="19" x2="549" y2="29" stroke-width="2" stroke="black"></line><line x1="549" y1="29" x2="551" y2="24" stroke-width="2" stroke="black"></line><line x1="511" y1="24" x2="521" y2="24" stroke-width="2" stroke="black"></line><line x1="551" y1="24" x2="561" y2="24" stroke-width="2" stroke="black"></line><line x1="208" y1="261" x2="214" y2="267" stroke-width="2" stroke="black"></line><line x1="208" y1="267" x2="214" y2="261" stroke-width="2" stroke="black"></line><line x1="676" y1="235" x2="676" y2="274" stroke-width="2" stroke="black"></line><line x1="676" y1="274" x2="621" y2="274" stroke-width="2" stroke="black"></line><line x1="676" y1="239" x2="681" y2="239" stroke-width="2" stroke="black"></line><line x1="681" y1="239" x2="681" y2="269" stroke-width="2" stroke="black"></line><line x1="681" y1="269" x2="676" y2="269" stroke-width="2" stroke="black"></line><line x1="652" y1="254" x2="649" y2="259" stroke-width="2" stroke="black"></line><line x1="649" y1="259" x2="646" y2="254" stroke-width="2" stroke="black"></line><line x1="646" y1="254" x2="621" y2="254" stroke-width="2" stroke="black"></line><line x1="633" y1="261" x2="636" y2="259" stroke-width="2" stroke="black"></line><line x1="636" y1="259" x2="636" y2="264" stroke-width="2" stroke="black"></line><line x1="636" y1="264" x2="621" y2="264" stroke-width="2" stroke="black"></line><line x1="639" y1="261" x2="636" y2="259" stroke-width="2" stroke="black"></line><line x1="521" y1="274" x2="524" y2="269" stroke-width="2" stroke="black"></line><line x1="524" y1="269" x2="529" y2="279" stroke-width="2" stroke="black"></line><line x1="529" y1="279" x2="534" y2="269" stroke-width="2" stroke="black"></line><line x1="534" y1="269" x2="539" y2="279" stroke-width="2" stroke="black"></line><line x1="539" y1="279" x2="544" y2="269" stroke-width="2" stroke="black"></line><line x1="544" y1="269" x2="549" y2="279" stroke-width="2" stroke="black"></line><line x1="549" y1="279" x2="551" y2="274" stroke-width="2" stroke="black"></line><line x1="511" y1="274" x2="521" y2="274" stroke-width="2" stroke="black"></line><line x1="551" y1="274" x2="561" y2="274" stroke-width="2" stroke="black"></line><line x1="121" y1="24" x2="124" y2="19" stroke-width="2" stroke="black"></line><line x1="124" y1="19" x2="129" y2="29" stroke-width="2" stroke="black"></line><line x1="129" y1="29" x2="134" y2="19" stroke-width="2" stroke="black"></line><line x1="134" y1="19" x2="139" y2="29" stroke-width="2" stroke="black"></line><line x1="139" y1="29" x2="144" y2="19" stroke-width="2" stroke="black"></line><line x1="144" y1="19" x2="149" y2="29" stroke-width="2" stroke="black"></line><line x1="149" y1="29" x2="151" y2="24" stroke-width="2" stroke="black"></line><line x1="111" y1="24" x2="121" y2="24" stroke-width="2" stroke="black"></line><line x1="151" y1="24" x2="161" y2="24" stroke-width="2" stroke="black"></line><line x1="208" y1="61" x2="214" y2="67" stroke-width="2" stroke="black"></line><line x1="208" y1="67" x2="214" y2="61" stroke-width="2" stroke="black"></line><line x1="481" y1="114" x2="481" y2="124" stroke-width="2" stroke="black"></line><line x1="491" y1="124" x2="471" y2="124" stroke-width="2" stroke="black"></line><line x1="488" y1="129" x2="474" y2="129" stroke-width="2" stroke="black"></line><line x1="485" y1="134" x2="477" y2="134" stroke-width="2" stroke="black"></line><line x1="601" y1="314" x2="601" y2="324" stroke-width="2" stroke="black"></line><line x1="611" y1="324" x2="591" y2="324" stroke-width="2" stroke="black"></line><line x1="608" y1="329" x2="594" y2="329" stroke-width="2" stroke="black"></line><line x1="605" y1="334" x2="597" y2="334" stroke-width="2" stroke="black"></line><circle cx="81" cy="54" r="2" style="stroke: #000; stroke-width: 1; fill: none;"></circle><circle cx="581" cy="54" r="2" style="stroke: #000; stroke-width: 1; fill: none;"></circle><circle cx="181" cy="54" r="2" style="stroke: #000; stroke-width: 1; fill: none;"></circle><circle cx="481" cy="254" r="2" style="stroke: #000; stroke-width: 1; fill: none;"></circle><circle cx="81" cy="254" r="2" style="stroke: #000; stroke-width: 1; fill: none;"></circle><circle cx="481" cy="74" r="2" style="stroke: #000; stroke-width: 1; fill: none;"></circle><circle cx="81" cy="74" r="2" style="stroke: #000; stroke-width: 1; fill: none;"></circle><circle cx="81" cy="274" r="2" style="stroke: #000; stroke-width: 1; fill: none;"></circle><circle cx="581" cy="254" r="2" style="stroke: #000; stroke-width: 1; fill: none;"></circle><circle cx="481" cy="274" r="2" style="stroke: #000; stroke-width: 1; fill: none;"></circle><circle cx="181" cy="254" r="2" style="stroke: #000; stroke-width: 1; fill: none;"></circle><circle cx="481" cy="54" r="2" style="stroke: #000; stroke-width: 1; fill: none;"></circle><line x1="491" y1="64" x2="471" y2="64" stroke-width="2" stroke="black"></line><line x1="201" y1="74" x2="231" y2="74" stroke-width="2" stroke="black"></line><line x1="181" y1="54" x2="231" y2="54" stroke-width="2" stroke="black"></line><line x1="181" y1="54" x2="181" y2="24" stroke-width="2" stroke="black"></line><line x1="621" y1="74" x2="601" y2="74" stroke-width="2" stroke="black"></line><line x1="621" y1="54" x2="581" y2="54" stroke-width="2" stroke="black"></line><line x1="91" y1="264" x2="71" y2="264" stroke-width="2" stroke="black"></line><line x1="621" y1="64" x2="601" y2="64" stroke-width="2" stroke="black"></line><line x1="481" y1="254" x2="481" y2="244" stroke-width="2" stroke="black"></line><line x1="81" y1="244" x2="71" y2="244" stroke-width="2" stroke="black"></line><line x1="481" y1="44" x2="471" y2="44" stroke-width="2" stroke="black"></line><line x1="91" y1="274" x2="91" y2="264" stroke-width="2" stroke="black"></line><line x1="91" y1="64" x2="71" y2="64" stroke-width="2" stroke="black"></line><line x1="91" y1="224" x2="91" y2="234" stroke-width="2" stroke="black"></line><line x1="601" y1="264" x2="621" y2="264" stroke-width="2" stroke="black"></line><line x1="91" y1="74" x2="91" y2="64" stroke-width="2" stroke="black"></line><line x1="91" y1="74" x2="111" y2="74" stroke-width="2" stroke="black"></line><line x1="491" y1="34" x2="491" y2="24" stroke-width="2" stroke="black"></line><line x1="71" y1="54" x2="81" y2="54" stroke-width="2" stroke="black"></line><line x1="491" y1="274" x2="511" y2="274" stroke-width="2" stroke="black"></line><line x1="581" y1="74" x2="581" y2="54" stroke-width="2" stroke="black"></line><line x1="581" y1="74" x2="561" y2="74" stroke-width="2" stroke="black"></line><line x1="81" y1="254" x2="81" y2="244" stroke-width="2" stroke="black"></line><line x1="111" y1="274" x2="91" y2="274" stroke-width="2" stroke="black"></line><line x1="231" y1="64" x2="211" y2="64" stroke-width="2" stroke="black"></line><line x1="91" y1="24" x2="91" y2="34" stroke-width="2" stroke="black"></line><line x1="91" y1="24" x2="111" y2="24" stroke-width="2" stroke="black"></line><line x1="71" y1="34" x2="91" y2="34" stroke-width="2" stroke="black"></line><line x1="161" y1="274" x2="181" y2="274" stroke-width="2" stroke="black"></line><line x1="161" y1="24" x2="181" y2="24" stroke-width="2" stroke="black"></line><line x1="161" y1="224" x2="181" y2="224" stroke-width="2" stroke="black"></line><line x1="201" y1="274" x2="231" y2="274" stroke-width="2" stroke="black"></line><line x1="71" y1="234" x2="91" y2="234" stroke-width="2" stroke="black"></line><line x1="471" y1="34" x2="491" y2="34" stroke-width="2" stroke="black"></line><line x1="481" y1="74" x2="481" y2="114" stroke-width="2" stroke="black"></line><line x1="481" y1="74" x2="471" y2="74" stroke-width="2" stroke="black"></line><line x1="581" y1="274" x2="561" y2="274" stroke-width="2" stroke="black"></line><line x1="581" y1="24" x2="581" y2="54" stroke-width="2" stroke="black"></line><line x1="581" y1="24" x2="561" y2="24" stroke-width="2" stroke="black"></line><line x1="81" y1="74" x2="81" y2="114" stroke-width="2" stroke="black"></line><line x1="81" y1="74" x2="71" y2="74" stroke-width="2" stroke="black"></line><line x1="81" y1="74" x2="81" y2="54" stroke-width="2" stroke="black"></line><line x1="81" y1="274" x2="71" y2="274" stroke-width="2" stroke="black"></line><line x1="81" y1="274" x2="81" y2="254" stroke-width="2" stroke="black"></line><line x1="81" y1="274" x2="81" y2="314" stroke-width="2" stroke="black"></line><line x1="601" y1="114" x2="601" y2="74" stroke-width="2" stroke="black"></line><line x1="581" y1="254" x2="621" y2="254" stroke-width="2" stroke="black"></line><line x1="581" y1="254" x2="581" y2="274" stroke-width="2" stroke="black"></line><line x1="581" y1="254" x2="581" y2="224" stroke-width="2" stroke="black"></line><line x1="481" y1="274" x2="481" y2="314" stroke-width="2" stroke="black"></line><line x1="481" y1="274" x2="471" y2="274" stroke-width="2" stroke="black"></line><line x1="481" y1="274" x2="481" y2="254" stroke-width="2" stroke="black"></line><line x1="471" y1="244" x2="481" y2="244" stroke-width="2" stroke="black"></line><line x1="491" y1="224" x2="491" y2="234" stroke-width="2" stroke="black"></line><line x1="491" y1="224" x2="511" y2="224" stroke-width="2" stroke="black"></line><line x1="201" y1="114" x2="201" y2="74" stroke-width="2" stroke="black"></line><line x1="471" y1="254" x2="481" y2="254" stroke-width="2" stroke="black"></line><line x1="491" y1="74" x2="491" y2="64" stroke-width="2" stroke="black"></line><line x1="491" y1="74" x2="511" y2="74" stroke-width="2" stroke="black"></line><line x1="471" y1="234" x2="491" y2="234" stroke-width="2" stroke="black"></line><line x1="181" y1="254" x2="231" y2="254" stroke-width="2" stroke="black"></line><line x1="181" y1="254" x2="181" y2="224" stroke-width="2" stroke="black"></line><line x1="181" y1="254" x2="181" y2="274" stroke-width="2" stroke="black"></line><line x1="181" y1="74" x2="181" y2="54" stroke-width="2" stroke="black"></line><line x1="181" y1="74" x2="161" y2="74" stroke-width="2" stroke="black"></line><line x1="211" y1="264" x2="231" y2="264" stroke-width="2" stroke="black"></line><line x1="111" y1="224" x2="91" y2="224" stroke-width="2" stroke="black"></line><line x1="81" y1="44" x2="71" y2="44" stroke-width="2" stroke="black"></line><line x1="81" y1="44" x2="81" y2="54" stroke-width="2" stroke="black"></line><line x1="491" y1="264" x2="471" y2="264" stroke-width="2" stroke="black"></line><line x1="491" y1="264" x2="491" y2="274" stroke-width="2" stroke="black"></line><line x1="71" y1="254" x2="81" y2="254" stroke-width="2" stroke="black"></line><line x1="201" y1="314" x2="201" y2="274" stroke-width="2" stroke="black"></line><line x1="511" y1="24" x2="491" y2="24" stroke-width="2" stroke="black"></line><line x1="601" y1="274" x2="601" y2="314" stroke-width="2" stroke="black"></line><line x1="601" y1="274" x2="621" y2="274" stroke-width="2" stroke="black"></line><line x1="481" y1="54" x2="471" y2="54" stroke-width="2" stroke="black"></line><line x1="481" y1="54" x2="481" y2="74" stroke-width="2" stroke="black"></line><line x1="481" y1="54" x2="481" y2="44" stroke-width="2" stroke="black"></line><line x1="561" y1="224" x2="581" y2="224" stroke-width="2" stroke="black"></line></svg>